<svg width="217" height="189" viewBox="0 0 217 189" fill="none" xmlns="http://www.w3.org/2000/svg">
  <path
    d="M86.9392 55.626C94.4653 58.8373 102.283 56.1344 101.752 50.6618C103.734 57.2924 119.831 61.1739 125.086 55.5837C130.429 66.3022 152.019 65.3422 157.878 57.3796C153.264 67.6619 162.707 79.8195 175 77.0138C164.806 80.5579 162.909 101.211 177.936 108.657C160.965 108.676 155.886 117.369 156.055 127.372C145.965 119.208 130.799 123.804 127.436 130.204C123.24 121.671 99.0123 124.884 94.442 129.092C92.8094 118.658 68.9911 116.246 64.3391 124.665C64.8946 114.522 51.5842 106.819 40.2359 112.925C45.8074 106.239 47.9031 93.1104 33.5353 89.172C47.8363 89.1561 48.5112 76.949 44.7392 73.8089C53.741 76.8697 67.9377 69.2669 62.7942 60.3495C61.8816 59.618 61.1903 58.7641 60.8 57.797C61.6508 58.6543 62.3086 59.5077 62.7942 60.3495C68.9611 65.2928 85.2303 64.648 86.9392 55.626Z"
    stroke="currentColor" stroke-width="2.88083" stroke-linecap="round"
    stroke-linejoin="round" />
  <path
    d="M73.4158 90.4198C74.4319 90.6217 75.3349 90.6205 76.5762 90.4158C77.9529 90.2109 79.307 89.9158 80.8415 89.5075C82.2181 89.1446 83.6842 88.2173 84.9475 87.5611C85.3987 87.3122 86.9326 86.4299 87.225 85.5943C87.2925 85.3911 87.4044 84.6234 86.3434 84.6247C85.8242 84.6254 85.215 84.8293 84.9893 84.8973C84.5606 85.0333 84.1093 85.1919 83.3873 85.4862C81.7628 86.1203 78.4233 87.2532 76.0079 87.2788C74.0214 87.2812 73.6601 87.214 73.9527 86.4687C73.9976 86.3106 74.0652 86.1525 74.2453 85.8362C75.9567 82.3803 79.4073 79.8703 82.025 79.1672C82.4989 79.0538 83.1533 78.8724 83.65 78.8718C84.1014 78.8712 84.7341 79.3445 84.5316 79.8639C84.3066 80.4737 83.9918 81.4447 85.0302 81.4435C86.2266 81.442 87.1281 80.2444 87.6004 78.912C87.893 78.1667 88.1627 77.2634 87.891 76.5639C87.6644 75.887 87.2119 75.0975 85.9026 75.0991C84.5256 75.1008 82.5176 75.8934 81.8182 76.2103C79.4717 77.1839 77.5549 78.7439 76.1117 80.0098C75.1422 80.914 74.3532 81.7954 73.5191 82.7445C72.5498 83.8293 71.9641 84.8233 71.5816 85.8396C70.8394 87.985 71.1579 90.0163 73.4158 90.4198ZM92.6855 90.0345C96.049 90.0304 99.1854 88.9203 103.155 86.2517C104.193 85.5506 105.049 84.4208 105.544 83.0658C105.971 81.914 106.646 80.1524 106.532 78.9561C106.44 77.7598 105.739 76.5417 105.332 75.9327C104.993 75.4365 104.292 75.1665 103.277 75.1677C99.4617 75.1725 95.4472 78.1347 92.02 81.3219C90.7122 82.5199 89.5403 84.1015 88.9104 85.8405C88.3705 87.3536 88.4166 88.0534 89.2754 88.9101C90.0891 89.6992 91.0602 90.0366 92.6855 90.0345ZM100.775 78.6472C101.498 78.6463 102.807 78.9607 103.056 79.6151C103.51 80.9915 103.894 81.0587 103.444 82.3009C103.174 83.0236 102.768 83.7464 102.295 84.2436C101.483 85.1476 99.4974 85.737 98.3916 85.9867C96.8798 86.4401 91.3046 86.9436 92.002 85.0014C92.632 83.3076 95.3144 80.1891 98.2704 79.2824C99.1504 79.0104 99.9852 78.6482 100.775 78.6472ZM105.012 90.2449C105.486 90.2443 106.411 89.9497 106.907 89.159C108.259 87.1031 109.588 85.0021 110.985 82.8784C111.008 83.1492 111.008 83.3975 111.032 83.9393C111.01 84.4134 111.055 84.8422 111.102 85.7677C111.17 86.5351 111.171 87.3026 111.375 88.0699C111.534 88.6792 111.265 89.7856 112.145 89.8748C113.025 89.8737 114.716 88.0431 114.739 88.0205C115.46 87.2521 115.73 86.7777 116.068 86.2355C116.969 84.7445 117.871 83.3213 119.358 81.4684C119.246 82.2586 119.112 83.1166 119.022 83.7262C118.777 85.7807 118.576 87.4514 118.464 88.7383C118.442 89.2801 118.465 89.6186 119.075 89.6179C119.933 89.6168 121.466 88.3959 122.029 86.9053C122.074 86.7473 122.096 86.5892 122.231 85.957C122.926 82.4572 122.947 81.0124 123.8 77.2641C123.822 77.0383 124.271 74.9158 123.165 74.9172C123.142 74.9172 121.247 75.4388 120.48 76.3427C119.579 77.4274 118.948 78.3762 118.362 79.2574C116.514 81.9008 116.334 81.9236 114.892 84.0473C114.595 81.384 114.639 80.1198 114.885 78.3136C115.22 75.8526 115.017 75.6497 114.723 75.6501C113.369 75.6518 111.746 77.3017 111.115 78.2731C110.484 79.2672 110.011 79.9676 109.267 81.2552C108.254 82.9269 106.812 85.0958 106.159 86.3156C105.708 87.1063 104.716 88.4845 104.357 89.5008C104.177 89.9751 104.516 90.2455 105.012 90.2449ZM125.402 89.6777C127.479 89.6751 129.51 89.2888 131.429 89.0833C133.144 88.9005 133.302 88.8778 135.017 88.4016C136.055 88.1745 137.905 87.495 138.378 86.1626C138.603 85.5302 137.971 85.4859 137.677 85.4411C137.451 85.4188 137.203 85.3965 136.887 85.3969C133.298 85.4014 130.387 86.2177 127.091 86.3572C127.181 85.8605 127.316 85.3637 127.563 84.8893C128.421 84.798 129.775 84.5706 130.994 84.3433C132.867 84.0023 134.831 83.6613 136.952 83.1169C137.471 83.0034 138.464 82.7087 138.779 81.873C138.959 81.3762 138.575 81.1735 138.168 80.9257C137.581 80.5878 136.655 80.589 136.001 80.5898C133.879 80.5924 131.645 81.295 128.756 81.6372C129.003 80.9823 129.296 80.1918 129.814 79.5817C129.882 79.5364 130.13 79.4458 130.988 79.3319C131.823 79.2631 132.635 79.059 133.515 78.945C134.689 78.8081 135.502 78.6942 136.337 78.648C137.623 78.6464 139.519 78.4635 140.127 76.8374C140.509 75.7985 139.403 75.4613 137.619 75.4635L137.529 75.4636C136.604 75.4648 135.656 75.5562 134.708 75.6703C133.083 75.8529 131.999 75.8543 130.239 76.3305C130.013 76.4211 128.591 76.468 128.164 77.4844C127.241 79.6526 126.047 81.7535 125.215 84.0345C124.787 85.1863 124.36 86.6767 124.023 88.0767C123.821 88.9347 124.432 89.6789 125.402 89.6777ZM92.2109 110.674C93.5653 110.672 94.3083 109.069 94.5107 108.504C94.7357 107.894 95.0284 107.239 95.2308 106.629C95.6358 105.568 95.8828 104.574 96.1528 103.829C96.7827 102.09 97.7739 100.418 98.4713 98.5214C98.7188 97.8439 98.8977 96.5344 97.8593 96.5357C96.5049 96.5374 95.6267 98.2541 95.4242 98.8187C95.0868 99.7898 94.7721 100.896 94.4122 101.89C94.0973 102.793 93.5793 103.742 93.2193 104.713C92.9269 105.594 92.6345 106.384 92.2295 107.491C92.0496 108.033 91.8245 108.575 91.5995 109.162C91.3746 109.772 91.3757 110.675 92.2109 110.674ZM97.8535 111.209C98.8467 111.207 99.3419 110.033 99.4993 109.536C99.6568 109.152 99.8143 108.768 99.9719 108.362C100.174 107.82 100.354 107.255 100.534 106.645C100.894 105.652 101.299 104.635 101.659 103.551C102.021 103.98 102.156 104.296 102.541 104.86C103.242 105.92 103.807 106.258 104.056 106.935C104.576 107.747 105.186 108.355 105.797 108.987C106.204 109.438 106.362 109.753 106.565 109.911C106.837 110.137 106.996 110.926 107.831 110.948C108.485 110.947 109.162 110.721 110.085 108.169C110.67 106.543 111.029 104.917 111.726 103.02C111.996 102.274 112.153 101.484 112.423 100.739C112.671 100.084 112.918 99.4289 113.188 98.7288C113.481 97.8932 113.975 95.9738 112.665 95.9754C111.943 95.9763 111.199 96.4287 110.929 97.2192C110.794 97.5354 110.727 97.8966 110.704 98.1224C109.917 100.742 109.558 102.39 108.478 105.371C108.004 104.988 107.483 103.883 106.647 103.207C105.291 101.899 104.928 100.455 104.068 98.7628C103.887 98.4018 104.089 97.2277 103.118 97.2289C102.893 97.2292 102.644 97.3198 102.374 97.4104C101.246 97.8859 100.818 98.7442 100.458 99.7154C99.6478 101.929 99.0634 103.984 98.3436 105.971C98.1411 106.513 97.916 107.032 97.691 107.62C96.9486 109.652 96.5216 111.21 97.8535 111.209ZM113.787 111.053C114.396 111.053 114.87 110.601 115.23 110.239C115.907 109.674 117.215 108.498 117.327 108.205C117.552 107.55 117.145 107.054 116.49 107.054C115.768 107.055 115.023 107.237 114.595 107.599C114.054 108.051 113.242 108.932 113.017 109.587C112.725 110.377 113.222 111.054 113.787 111.053Z"
    fill="currentColor" />
  <path
    d="M185.454 62.1548L198.126 49.3349M193.863 64.2524L209.353 54.5926M194.009 72.1368L210.87 66.375"
    stroke="currentColor" stroke-width="2.89507" stroke-linecap="round" stroke-linejoin="round" />
  <path
    d="M30.3623 129.079L16.2635 140.311M22.2602 126.002L5.73744 133.763M23.0474 118.156L5.6235 121.884"
    stroke="currentColor" stroke-width="2.89507" stroke-linecap="round" stroke-linejoin="round" />
</svg>