<svg width="400" height="400" xmlns="http://www.w3.org/2000/svg">
    <!-- Created with Method Draw - http://github.com/duopixel/Method-Draw/ -->

    <g>
        <title>background</title>
        <rect fill="none" id="canvas_background" height="402" width="402" y="-1" x="-1"/>
        <g display="none" overflow="visible" y="0" x="0" height="100%" width="100%" id="canvasGrid">
            <rect fill="url(#gridpattern)" stroke-width="0" y="0" x="0" height="100%" width="100%"/>
        </g>
    </g>
    <g>
        <title>Layer 1</title>
        <ellipse stroke="#000" ry="198.000006" rx="198.000006" id="svg_6" cy="199.499983" cx="199.499983"
                 stroke-width="0" fill="#1b72de"/>
        <g stroke="null" id="svg_5">
            <path stroke="#ffffff" fill="#ffffff" id="svg_4"
                  d="m248.934202,244.735994c-1.877909,0 -20.945913,0 -42.32519,7.222729a139.109755,139.109755 0 0 0 -48.103373,28.168642c-9.678456,9.678456 -23.835005,28.890915 -30.913279,47.958919c-9.100638,24.557278 -10.11182,48.392282 -10.11182,48.392282l0,-64.282285l-36.402553,54.026011l9.534002,-56.481738s-23.546096,8.378365 -32.791188,4.333637c-0.866727,-0.288909 10.978548,-5.05591 19.068004,-14.012094a112.530113,112.530113 0 0 0 20.51255,-31.057733s-8.956184,13.57873 -19.356913,24.412823c-8.378365,8.811729 -17.767913,15.312185 -23.979459,16.178912c-13.57873,1.733455 -26.724096,-12.856457 -25.27955,-17.623458c4.044728,-15.023276 33.946825,-44.780918 45.936555,-66.882468c12.423093,-23.257186 45.214282,-102.129384 45.7921,-103.718384a151.677303,151.677303 0 0 1 48.103373,-63.993376c12.712003,-9.100638 27.590824,-17.767913 42.614099,-22.246004c16.467821,-4.911456 32.646734,-5.489274 37.847098,-5.633728c7.222729,-0.288909 33.946825,1.155637 60.670921,13.867639a112.530113,112.530113 0 0 1 49.692374,45.358736c2.311273,4.333637 4.333637,8.956184 6.211547,13.723185c0.288909,0.577818 6.93382,16.467821 9.100638,38.136008c1.300091,12.423093 0.288909,26.868551 -2.166819,41.025099a157.88885,157.88885 0 0 1 -23.979459,51.281374a134.776118,134.776118 0 0 1 -35.246916,34.958007a147.343666,147.343666 0 0 1 -46.947737,21.090368c-25.56846,5.200365 -41.602917,2.889091 -41.602917,2.889091s15.023276,-3.46691 31.635552,-11.123002c14.445457,-6.64491 30.913279,-18.201276 38.85828,-27.590824c0.288909,-0.433364 11.845275,-12.567548 22.534914,-31.491097a125.964389,125.964389 0 0 0 15.456639,-61.826558a84.505926,84.505926 0 1 0 -149.510484,54.026011c7.656092,10.689638 24.557278,21.957095 35.391371,25.712914c14.156548,5.05591 28.168642,5.344819 29.757642,5.489274l0.144455,0l-0.144455,-0.288909zm-121.775206,-28.457551c1.877909,0.577818 -6.789365,6.93382 -8.667274,8.667274c-0.577818,0.433364 -2.166819,1.877909 -3.033546,1.444546a26.001823,26.001823 0 0 0 -2.311273,-1.155637l-2.455728,-0.722273c1.155637,0.722273 2.022364,1.877909 2.600182,3.178001a6.067092,6.067092 0 1 1 -7.800547,-3.611364s19.790277,-8.378365 21.668186,-7.800547z"/>
        </g>
    </g>
</svg>