<svg width="24" height="24" viewBox="0 0 24 24" fill="none" xmlns="http://www.w3.org/2000/svg">
  <path fill-rule="evenodd" clip-rule="evenodd"
    d="M9.00001 2C9.00001 1.44772 8.55229 1 8.00001 1C7.44772 1 7.00001 1.44772 7.00001 2V3H2.00001C1.44772 3 1.00001 3.44772 1.00001 4C1.00001 4.55228 1.44772 5 2.00001 5H8.00001H10.2778C9.80621 6.97918 8.99881 8.81146 7.85558 10.4968C7.05889 9.65237 6.32982 8.57803 5.92116 7.61081C5.70622 7.10207 5.11955 6.8639 4.61081 7.07884C4.10207 7.29379 3.86391 7.88045 4.07885 8.38919C4.62181 9.67429 5.5828 11.0595 6.63824 12.1134C5.21745 13.8257 3.61113 15.0827 1.55497 16.1045C1.0604 16.3503 0.858708 16.9505 1.10449 17.445C1.35028 17.9396 1.95046 18.1413 2.44504 17.8955C5.05413 16.5989 7.04947 14.9369 8.79578 12.6057C10.5551 10.3304 11.7354 7.78826 12.3277 5H14C14.5523 5 15 4.55228 15 4C15 3.44772 14.5523 3 14 3H11.5H9.00001V2ZM14.4571 11.7071C14.8476 11.3166 14.8476 10.6834 14.4571 10.2929C14.0666 9.90237 13.4334 9.90237 13.0429 10.2929L10.2929 13.0429C9.90238 13.4334 9.90238 14.0666 10.2929 14.4571L13.0429 17.2071C13.4334 17.5976 14.0666 17.5976 14.4571 17.2071C14.8476 16.8166 14.8476 16.1834 14.4571 15.7929L13.4142 14.75H17.875C19.6009 14.75 21 16.1491 21 17.875C21 19.6009 19.6009 21 17.875 21H11C10.4477 21 10 21.4477 10 22C10 22.5523 10.4477 23 11 23H17.875C20.7055 23 23 20.7055 23 17.875C23 15.0445 20.7055 12.75 17.875 12.75H13.4142L14.4571 11.7071Z"
    fill="currentColor" />
</svg>