<svg width="24" height="24" viewBox="0 0 24 24" fill="none" xmlns="http://www.w3.org/2000/svg">
    <path d="M18 1C20.2091 1 22 2.79086 22 5C22 6.88159 20.7004 8.45815 18.9502 8.88477C18.8662 9.63317 18.6732 10.2924 18.3662 10.8662C17.9398 11.6631 17.3298 12.2366 16.6289 12.6455C15.2816 13.4313 13.5596 13.623 12.083 13.7461C10.4894 13.8789 9.17895 13.9361 8.21484 14.2842C7.76547 14.4465 7.48296 14.6445 7.30762 14.8721C7.17966 15.0381 7.06718 15.273 7.02148 15.6318C8.73577 16.0833 10 17.6439 10 19.5C10 21.7091 8.20914 23.5 6 23.5C3.79086 23.5 2 21.7091 2 19.5C2 17.6362 3.27477 16.07 5 15.626V8.87402C3.27477 8.42998 2 6.86384 2 5C2 2.79086 3.79086 1 6 1C8.20914 1 10 2.79086 10 5C10 6.86384 8.72523 8.42998 7 8.87402V12.6309C7.17499 12.544 7.35428 12.4686 7.53516 12.4033C8.82103 11.939 10.5107 11.8711 11.917 11.7539C13.4403 11.627 14.7184 11.4436 15.6211 10.917C16.0451 10.6696 16.3727 10.3524 16.6025 9.92285C16.7509 9.6456 16.8695 9.29769 16.9375 8.85645C15.2442 8.39097 14 6.84118 14 5C14 2.79086 15.7909 1 18 1ZM6 17.5C4.89543 17.5 4 18.3954 4 19.5C4 20.6046 4.89543 21.5 6 21.5C7.10457 21.5 8 20.6046 8 19.5C8 18.3954 7.10457 17.5 6 17.5ZM6 3C4.89543 3 4 3.89543 4 5C4 6.10457 4.89543 7 6 7C7.10457 7 8 6.10457 8 5C8 3.89543 7.10457 3 6 3ZM18 3C16.8954 3 16 3.89543 16 5C16 6.10457 16.8954 7 18 7C19.1046 7 20 6.10457 20 5C20 3.89543 19.1046 3 18 3Z" fill="currentColor"/>
</svg>
