<svg width="24" height="24" viewBox="0 0 24 24" fill="none" xmlns="http://www.w3.org/2000/svg">
  <path fill-rule="evenodd" clip-rule="evenodd"
    d="M9.58115 1.00001L9.55773 1C9.44753 0.999977 9.35166 0.999953 9.26018 1.00549C8.10334 1.07556 7.09033 1.80569 6.65804 2.88101C6.62385 2.96605 6.59356 3.057 6.55874 3.16154L6.55133 3.18378C6.50494 3.32296 6.49488 3.35174 6.48633 3.37301C6.34223 3.73145 6.00456 3.97482 5.61895 3.99818C5.59634 3.99955 5.5624 4.00001 5.4056 4.00001L5.34974 4H5.34973C5.03488 3.99994 4.80354 3.99989 4.60563 4.0195C2.70837 4.20748 1.20748 5.70837 1.0195 7.60562C0.9999 7.80349 0.999945 8.02554 1.00001 8.32536L1.00001 8.37723L1.00001 16.2413C1 17.0463 0.99999 17.7106 1.04421 18.2518C1.09013 18.8139 1.1887 19.3306 1.43599 19.816C1.81948 20.5686 2.4314 21.1805 3.18405 21.564C3.66939 21.8113 4.18609 21.9099 4.74819 21.9558C5.28938 22 5.95373 22 6.75869 22H17.2413C18.0463 22 18.7106 22 19.2518 21.9558C19.8139 21.9099 20.3306 21.8113 20.816 21.564C21.5686 21.1805 22.1805 20.5686 22.564 19.816C22.8113 19.3306 22.9099 18.8139 22.9558 18.2518C23 17.7106 23 17.0463 23 16.2413V8.37723L23 8.32536V8.32533C23.0001 8.02552 23.0001 7.80348 22.9805 7.60562C22.7925 5.70837 21.2917 4.20748 19.3944 4.0195C19.1965 3.99989 18.9651 3.99994 18.6503 4L18.5944 4.00001C18.4376 4.00001 18.4037 3.99955 18.3811 3.99818C17.9955 3.97482 17.6578 3.73145 17.5137 3.37301C17.5051 3.35174 17.4951 3.32295 17.4487 3.18378L17.4413 3.1616L17.4413 3.16157C17.4065 3.05702 17.3762 2.96605 17.342 2.88101C16.9097 1.80569 15.8967 1.07556 14.7399 1.00549C14.6484 0.999953 14.5525 0.999977 14.4423 1L9.58115 1.00001ZM9.38108 3.00184C9.40396 3.00045 9.43445 3.00001 9.58115 3.00001H14.4189C14.5656 3.00001 14.5961 3.00045 14.6189 3.00184C15.0046 3.02519 15.3422 3.26857 15.4863 3.62701C15.4949 3.64828 15.5049 3.67707 15.5513 3.81624L15.5587 3.83842L15.5587 3.83844C15.5936 3.943 15.6238 4.03396 15.658 4.11901C16.0903 5.19432 17.1033 5.92446 18.2602 5.99452C18.3517 6.00007 18.4521 6.00004 18.5688 6.00001L18.5944 6.00001C18.9892 6.00001 19.1116 6.00127 19.1972 6.00975C20.1458 6.10374 20.8963 6.85419 20.9903 7.80281C20.9988 7.88877 21 8.00298 21 8.37723V16.2C21 17.0566 20.9992 17.6389 20.9625 18.089C20.9266 18.5274 20.8617 18.7516 20.782 18.908C20.5903 19.2843 20.2843 19.5903 19.908 19.782C19.7516 19.8617 19.5274 19.9266 19.089 19.9625C18.6389 19.9992 18.0566 20 17.2 20H6.80001C5.94343 20 5.36114 19.9992 4.91105 19.9625C4.47264 19.9266 4.24843 19.8617 4.09203 19.782C3.71571 19.5903 3.40975 19.2843 3.218 18.908C3.13831 18.7516 3.07339 18.5274 3.03757 18.089C3.00079 17.6389 3.00001 17.0566 3.00001 16.2V8.37723C3.00001 8.00297 3.00124 7.88877 3.00976 7.80281C3.10375 6.85419 3.85419 6.10374 4.80282 6.00975C4.88845 6.00127 5.01081 6.00001 5.4056 6.00001L5.43125 6.00001C5.54794 6.00004 5.6483 6.00007 5.73985 5.99452C6.89669 5.92446 7.9097 5.19432 8.34199 4.11901C8.37618 4.03397 8.40647 3.94302 8.44129 3.83848L8.4487 3.81624C8.49509 3.67706 8.50515 3.64828 8.5137 3.62701C8.6578 3.26857 8.99547 3.02519 9.38108 3.00184ZM10.7754 9.63153C11.1242 9.2033 11.0597 8.57342 10.6315 8.22465C10.2033 7.87589 9.57341 7.94031 9.22464 8.36854C8.99479 8.65076 8.72717 8.76003 8.50002 8.76003C8.28289 8.76003 8.02123 8.65907 7.76371 8.35444C7.40716 7.93267 6.7762 7.8798 6.35443 8.23635C5.93266 8.5929 5.87979 9.22385 6.23634 9.64562C6.79882 10.311 7.58716 10.76 8.50002 10.76C9.40287 10.76 10.2153 10.3193 10.7754 9.63153ZM17.7754 9.63153C18.1242 9.2033 18.0597 8.57342 17.6315 8.22465C17.2033 7.87589 16.5734 7.94031 16.2246 8.36854C15.9948 8.65076 15.7272 8.76003 15.5 8.76003C15.2829 8.76003 15.0212 8.65907 14.7637 8.35444C14.4072 7.93267 13.7762 7.8798 13.3544 8.23635C12.9327 8.5929 12.8798 9.22385 13.2363 9.64562C13.7988 10.311 14.5872 10.76 15.5 10.76C16.4029 10.76 17.2153 10.3193 17.7754 9.63153ZM12 12.76C10.4745 12.76 9.27229 13.371 8.47435 13.9513C8.07345 14.2429 7.76355 14.5343 7.55147 14.7556C7.44502 14.8667 7.36203 14.9614 7.30338 15.0312C7.27403 15.0662 7.25067 15.0951 7.23343 15.1169L7.21213 15.1441L7.20493 15.1535L7.20219 15.1572L7.20002 15.16C6.86865 15.6019 6.95819 16.2287 7.40002 16.56C7.84046 16.8904 8.46513 16.8018 8.79731 16.3636L8.80152 16.3583C8.80748 16.3508 8.81879 16.3367 8.83533 16.317C8.86848 16.2775 8.92221 16.2159 8.99545 16.1394C9.14275 15.9857 9.36409 15.7772 9.65069 15.5688C10.2278 15.1491 11.0256 14.76 12 14.76C12.9745 14.76 13.7723 15.1491 14.3493 15.5688C14.636 15.7772 14.8573 15.9857 15.0046 16.1394C15.0778 16.2159 15.1316 16.2775 15.1647 16.317C15.1813 16.3367 15.1926 16.3508 15.1985 16.3583L15.2032 16.3642C15.5353 16.8024 16.1596 16.8904 16.6 16.56C17.0418 16.2287 17.1314 15.6019 16.8 15.16L16 15.76C16.8 15.16 16.799 15.1587 16.799 15.1587L16.7979 15.1572L16.7951 15.1535L16.7879 15.1441L16.7666 15.1169C16.7494 15.0951 16.726 15.0662 16.6967 15.0312C16.638 14.9614 16.555 14.8667 16.4486 14.7556C16.2365 14.5343 15.9266 14.2429 15.5257 13.9513C14.7278 13.371 13.5256 12.76 12 12.76Z"
    fill="currentColor" />
</svg>