<svg width="24" height="24" viewBox="0 0 24 24" fill="none" xmlns="http://www.w3.org/2000/svg">
  <path fill-rule="evenodd" clip-rule="evenodd"
    d="M22.9383 1.68276C23.1136 2.20647 22.8313 2.77316 22.3078 2.9485L20.0674 3.69899C19.6498 3.83813 19.2935 4.11805 19.0594 4.4909C18.8253 4.86374 18.7279 5.30636 18.7838 5.7431L18.7853 5.7547C18.9534 7.20077 17.8284 8.50017 16.343 8.50017H15.9632C15.5716 8.50017 15.2538 8.77056 15.1859 9.12727L15.1845 9.1345L14.9746 10.1945C14.8673 10.7362 14.3414 11.0884 13.7999 10.9811C13.2583 10.8737 12.9063 10.3476 13.0136 9.80582L13.2229 8.7491C13.4764 7.42794 14.6369 6.5002 15.9632 6.5002H16.343C16.6156 6.5002 16.8294 6.26184 16.7999 5.98952C16.6873 5.09559 16.8875 4.1901 17.3666 3.42701C17.847 2.6619 18.5781 2.08743 19.4349 1.80173L21.6731 1.05201C22.1966 0.876665 22.763 1.15906 22.9383 1.68276ZM10.6223 1.07258C11.1344 0.866389 11.7166 1.11458 11.9227 1.62692L12.2549 2.45259C12.8284 3.90386 11.9191 5.51594 10.3889 5.7851C10.3784 5.78695 10.3678 5.78864 10.3572 5.79016C10.1684 5.81713 9.99593 5.99892 9.99593 6.2302V7.00019C9.99593 7.55247 9.54842 8.00018 8.99638 8.00018C8.44435 8.00018 7.99684 7.55247 7.99684 7.00019V6.2302C7.99684 5.04877 8.85328 3.99625 10.0523 3.81356C10.3347 3.75784 10.4999 3.45521 10.3966 3.18998L10.0682 2.37359C9.8621 1.86125 10.1102 1.27876 10.6223 1.07258ZM13.9941 2.00026C13.9941 1.44798 14.4416 1.00027 14.9936 1.00027H15.0036C15.5557 1.00027 16.0032 1.44798 16.0032 2.00026C16.0032 2.55254 15.5557 3.00024 15.0036 3.00024H14.9936C14.4416 3.00024 13.9941 2.55254 13.9941 2.00026ZM20.9909 8.00018C20.9909 7.4479 21.4384 7.00019 21.9905 7.00019H22.0005C22.5525 7.00019 23 7.4479 23 8.00018C23 8.55245 22.5525 9.00016 22.0005 9.00016H21.9905C21.4384 9.00016 20.9909 8.55245 20.9909 8.00018ZM6.13509 13.3381L3.64368 20.3565L12.2826 17.2952C12.2904 17.2754 12.3033 17.2276 12.3039 17.1338C12.3051 16.9476 12.2529 16.662 12.1016 16.2842C11.8006 15.5324 11.1811 14.5999 10.2887 13.707C9.39621 12.8142 8.46414 12.1944 7.7126 11.8933C7.58468 11.842 7.46732 11.8021 7.36082 11.7718C7.38267 11.8062 7.40239 11.8424 7.41973 11.8806L7.42072 11.8827L7.42554 11.8932L7.4463 11.9377C7.46493 11.9774 7.49287 12.0362 7.52885 12.1099C7.60097 12.2577 7.70456 12.4637 7.82952 12.6948C8.08663 13.1704 8.40722 13.7015 8.71167 14.0618C9.01612 14.4221 9.48621 14.8267 9.91212 15.1595C10.1191 15.3213 10.3049 15.4578 10.4385 15.5535C10.5052 15.6013 10.5585 15.6386 10.5945 15.6636L10.635 15.6915L10.6445 15.698L10.6463 15.6993C11.0527 15.9738 11.1546 16.5283 10.8739 16.9378C10.5932 17.3473 10.0362 17.4567 9.62975 17.1822C9.62983 17.1822 9.62975 17.1822 10.138 16.4407L9.62975 17.1822L9.62769 17.1808L9.62363 17.178L9.60968 17.1685L9.55977 17.1341C9.51723 17.1046 9.45669 17.0621 9.38218 17.0088C9.23347 16.9022 9.02761 16.751 8.79741 16.5711C8.34889 16.2207 7.76229 15.7264 7.33765 15.2238C6.913 14.7212 6.52345 14.0603 6.2527 13.5595C6.21125 13.4828 6.17196 13.4087 6.13509 13.3381ZM6.50126 12.3066L6.50132 12.3065C6.53414 12.2912 6.56847 12.2753 6.60438 12.2587L6.50126 12.3066ZM13.0284 19.1526C13.1769 19.1 13.3052 19.0159 13.4085 18.9104C13.5146 18.8621 13.614 18.7943 13.7013 18.707C14.1478 18.2603 14.2997 17.6798 14.303 17.146C14.3062 16.6184 14.1685 16.0678 13.9574 15.5406C13.5337 14.4825 12.7389 13.33 11.7022 12.2929C10.6655 11.2557 9.51356 10.4605 8.45593 10.0367C7.92891 9.8255 7.37854 9.68772 6.8512 9.69095C6.3177 9.69422 5.73744 9.84617 5.29093 10.2929C5.19851 10.3853 5.12797 10.4914 5.07931 10.6046C4.9827 10.7044 4.90543 10.826 4.85593 10.9655L1.05766 21.6653C0.928658 22.0287 1.02003 22.434 1.29249 22.7068C1.56496 22.9796 1.96994 23.0714 2.3333 22.9426L13.0284 19.1526ZM18.2073 13.6069C18.4763 12.0761 20.0877 11.1664 21.5383 11.7402L21.544 11.7424L22.3636 12.0724C22.8757 12.2786 23.1238 12.8611 22.9177 13.3734C22.7116 13.8858 22.1294 14.134 21.6173 13.9278L20.8033 13.6001L20.8013 13.5992C20.5349 13.4954 20.2307 13.6627 20.1772 13.9478C19.9852 15.13 18.9578 16.0001 17.7624 16.0001H16.9927C16.4407 16.0001 15.9932 15.5524 15.9932 15.0001C15.9932 14.4478 16.4407 14.0001 16.9927 14.0001H17.7624C17.9822 14.0001 18.1711 13.8363 18.2043 13.6249L18.2073 13.6069Z"
    fill="currentColor" />
</svg>