<svg width="18" height="18" viewBox="0 0 18 18" fill="none" xmlns="http://www.w3.org/2000/svg">
    <path d="M15.9697 5.59473C16.2626 5.30183 16.7374 5.30183 17.0303 5.59473C17.323 5.88764 17.3231 6.36245 17.0303 6.65527L10.2803 13.4053C9.98745 13.6981 9.51264 13.698 9.21973 13.4053L5.46973 9.65527C5.17683 9.36238 5.17683 8.88762 5.46973 8.59473C5.76262 8.30183 6.23738 8.30183 6.53027 8.59473L9.75 11.8145L15.9697 5.59473ZM0.969727 8.46973C1.26262 8.17683 1.73738 8.17683 2.03027 8.46973L5.25 11.6895L5.56738 11.3711L6.62793 12.4316L5.78027 13.2803C5.48745 13.5731 5.01264 13.573 4.71973 13.2803L0.969727 9.53027C0.676833 9.23738 0.676833 8.76262 0.969727 8.46973ZM12.2197 4.71973C12.5126 4.42683 12.9874 4.42683 13.2803 4.71973C13.573 5.01264 13.5731 5.48745 13.2803 5.78027L9.2793 9.78027L8.21875 8.71973L12.2197 4.71973Z"
          fill="currentColor" fill-opacity="0.87"/>
</svg>
