<svg width="24" height="24" viewBox="0 0 24 24" fill="none" xmlns="http://www.w3.org/2000/svg">
  <path fill-rule="evenodd" clip-rule="evenodd"
    d="M14.847 1.37442C14.1386 1.18461 13.4269 1.06835 12.7202 1.02129C12.1692 0.984596 11.6927 1.40157 11.656 1.95264C11.6193 2.5037 12.0363 2.98018 12.5873 3.01687C13.1647 3.05532 13.7475 3.15037 14.3293 3.30627C14.9112 3.46217 15.4634 3.67126 15.9827 3.92665C16.4782 4.1704 17.0776 3.96625 17.3213 3.47067C17.5651 2.97508 17.361 2.37573 16.8654 2.13198C16.2298 1.8194 15.5553 1.56422 14.847 1.37442ZM9.10767 3.4759C9.63049 3.2979 9.91002 2.72978 9.73202 2.20696C9.55402 1.68415 8.9859 1.40462 8.46309 1.58262C7.09703 2.0477 5.83284 2.77759 4.74703 3.72808C4.33148 4.09185 4.28949 4.72363 4.65327 5.13918C5.01704 5.55474 5.64881 5.59672 6.06437 5.23295C6.95346 4.45465 7.9891 3.85673 9.10767 3.4759ZM22.9783 12.7198C23.015 12.1688 22.598 11.6923 22.0469 11.6556C21.4959 11.6189 21.0194 12.0359 20.9827 12.587C20.9443 13.1643 20.8492 13.7471 20.6933 14.329C20.5374 14.9108 20.3283 15.4631 20.0729 15.9823C19.8292 16.4779 20.0333 17.0772 20.5289 17.321C21.0245 17.5647 21.6238 17.3606 21.8676 16.865C22.1802 16.2295 22.4353 15.555 22.6252 14.8466C22.815 14.1382 22.9312 13.4265 22.9783 12.7198ZM3.92701 8.01691C4.17077 7.52133 3.96662 6.92197 3.47103 6.67822C2.97545 6.43447 2.3761 6.63862 2.13235 7.1342C1.81976 7.76973 1.56459 8.44422 1.37478 9.15259C1.18498 9.86096 1.06871 10.5727 1.02166 11.2794C0.984962 11.8304 1.40194 12.3069 1.953 12.3436C2.50407 12.3803 2.98054 11.9633 3.01724 11.4122C3.05568 10.8349 3.15074 10.2521 3.30663 9.67023C3.46253 9.08841 3.67163 8.53614 3.92701 8.01691ZM19.2529 20.2711C19.6685 19.9073 19.7104 19.2756 19.3467 18.86C18.9829 18.4445 18.3511 18.4025 17.9356 18.7663C17.0465 19.5445 16.0108 20.1425 14.8923 20.5233C14.3694 20.7013 14.0899 21.2694 14.2679 21.7922C14.4459 22.3151 15.014 22.5946 15.5368 22.4166C16.9029 21.9515 18.1671 21.2216 19.2529 20.2711ZM3.47626 14.8919C3.29827 14.3691 2.73014 14.0896 2.20733 14.2675C1.68451 14.4455 1.40499 15.0137 1.58298 15.5365C2.04807 16.9025 2.77795 18.1667 3.72845 19.2525C4.09222 19.6681 4.72399 19.7101 5.13955 19.3463C5.55511 18.9825 5.59709 18.3508 5.23332 17.9352C4.45502 17.0461 3.85709 16.0105 3.47626 14.8919ZM8.01727 20.0726C7.52169 19.8288 6.92234 20.0329 6.67859 20.5285C6.43483 21.0241 6.63898 21.6235 7.13457 21.8672C7.77009 22.1798 8.44459 22.435 9.15296 22.6248C9.86133 22.8146 10.573 22.9309 11.2797 22.9779C11.8308 23.0146 12.3073 22.5976 12.344 22.0466C12.3806 21.4955 11.9637 21.019 11.4126 20.9823C10.8352 20.9439 10.2524 20.8488 9.6706 20.6929C9.08877 20.537 8.5365 20.3279 8.01727 20.0726ZM22.7074 4.70669C23.0978 4.31597 23.0974 3.6828 22.7067 3.29247C22.316 2.90214 21.6828 2.90246 21.2925 3.29318L11.9996 12.5954L9.70708 10.3028C9.31656 9.9123 8.68339 9.9123 8.29287 10.3028C7.90234 10.6934 7.90234 11.3265 8.29287 11.717L11.2929 14.717C11.4805 14.9046 11.7349 15.01 12.0002 15.0099C12.2655 15.0099 12.5199 14.9044 12.7074 14.7167L22.7074 4.70669Z"
    fill="currentColor" />
</svg>