<svg xmlns="http://www.w3.org/2000/svg" width="24" height="24" viewBox="0 0 24 24" fill="none">
    <path d="M16.2 5.001c.825 0 1.498 0 2.042.039.554.04 1.057.126 1.532.34a3.857 3.857 0 0 1 1.766 1.58c.263.46.367.948.414 1.465.046.5.045 1.115.045 1.843v7.466c0 .728.001 1.342-.045 1.843-.047.517-.15 1.006-.414 1.465a3.858 3.858 0 0 1-1.766 1.58c-.475.214-.978.3-1.532.34-.544.04-1.217.039-2.043.039H11c-.872 0-1.483.007-2.008-.118-1.336-.319-2.454-1.267-2.847-2.57-.156-.515-.145-1.113-.145-1.868a1 1 0 0 1 2 0c0 .898.01 1.129.06 1.291.162.537.662 1.027 1.395 1.201.239.057.558.064 1.545.064h5.2c.855 0 1.442-.001 1.898-.034.447-.033.684-.091.851-.167a1.86 1.86 0 0 0 .857-.752c.064-.111.123-.281.157-.653.036-.389.037-.896.037-1.66v-7.467c0-.765-.001-1.272-.037-1.66-.034-.373-.093-.543-.157-.654a1.86 1.86 0 0 0-.857-.752c-.167-.076-.404-.134-.851-.167-.456-.033-1.043-.034-1.898-.034H8.5c-.219 0-.374.002-.5.009v2.547a1 1 0 0 1-2 0V7c0-.323.04-.672.189-.995.163-.355.427-.615.753-.777.292-.144.595-.189.829-.208C8.006 5 8.268 5 8.5 5h7.7Zm-2.908-3.987a.918.918 0 0 1 0 1.834c-1.277 0-5.568-.057-6.842.047-.554.045-.873.13-1.114.252A2.752 2.752 0 0 0 4.134 4.35c-.123.241-.208.56-.253 1.115-.043.524-.053 2.505-.055 3.456.004.03.006.062.006.094 0 .864-.048.737.023 1.598.051.632.15 1.01.299 1.303.309.607.802 1.1 1.409 1.41.293.149.67.246 1.302.298.644.053 2.467.053 3.636.053h2.227l-1.9-1.9a.901.901 0 0 1 1.273-1.274l3.437 3.438a.901.901 0 0 1 0 1.273l-3.437 3.437a.9.9 0 0 1-1.274-1.273l1.9-1.9h-2.226c-1.14 0-3.049 0-3.782-.06-.743-.06-1.385-.188-1.974-.488a5.028 5.028 0 0 1-2.196-2.197c-.3-.589-.427-1.23-.488-1.973-.075-.914-.06-.83-.06-1.745V8.99c0-.954.005-3.091.053-3.677.055-.667.17-1.255.446-1.797a4.585 4.585 0 0 1 2.003-2.003c.543-.277 1.13-.392 1.798-.447 1.323-.108 5.663-.053 6.991-.053Z"
          fill="currentColor"/>
</svg>