<svg width="24" height="24" viewBox="0 0 24 24" xmlns="http://www.w3.org/2000/svg">
    <path d="M4.73588 6.57668C5.50017 3.3816 8.46176 1 12 1C15.5382 1 18.4998 3.3816 19.2641 6.57668C21.9565 7.04052 24 9.31379 24 12.049C24 13.9769 22.984 15.6752 21.4442 16.6714C21.1509 16.8612 20.754 16.7852 20.5577 16.5017C20.3614 16.2182 20.44 15.8346 20.7333 15.6449C21.9337 14.8682 22.7219 13.5475 22.7219 12.049C22.7219 9.7977 20.9411 7.94768 18.667 7.74413C18.3775 7.71821 18.1426 7.50663 18.0954 7.22931C17.6135 4.39651 15.0673 2.23529 12 2.23529C8.93271 2.23529 6.38645 4.39651 5.90461 7.22931C5.85744 7.50663 5.62251 7.71821 5.33296 7.74413C3.05894 7.94768 1.27811 9.7977 1.27811 12.049C1.27811 13.5475 2.06626 14.8682 3.26672 15.6449C3.56002 15.8346 3.63863 16.2182 3.4423 16.5017C3.24598 16.7852 2.84906 16.8612 2.55576 16.6714C1.01599 15.6752 0 13.9769 0 12.049C0 9.31379 2.04355 7.04052 4.73588 6.57668ZM11.3609 12.9911L7.9075 16.3289C7.65793 16.5701 7.25331 16.5701 7.00374 16.3289C6.75418 16.0877 6.75418 15.6966 7.00374 15.4554L11.5481 11.0633C11.7977 10.8221 12.2023 10.8221 12.4519 11.0633L16.9963 15.4554C17.2458 15.6966 17.2458 16.0877 16.9963 16.3289C16.7467 16.5701 16.3421 16.5701 16.0925 16.3289L12.6391 12.9911V21.3824C12.6391 21.7235 12.3529 22 12 22C11.6471 22 11.3609 21.7235 11.3609 21.3824V12.9911Z"
    />
</svg>
