<svg xmlns="http://www.w3.org/2000/svg" width="24" height="24" viewBox="0 0 24 24"><defs><style>.a{fill:none;}</style></defs><path class="a" d="M0,0H24V24H0Z"/><path d="M21,9.64a.45.45,0,0,0-.06-.12,1.29,1.29,0,0,0-.09-.16l-5-6,0,0a.81.81,0,0,0-.23-.17l-.09-.07A1,1,0,0,0,15,3H9A3,3,0,0,0,6,6v6.68H3v2H6V18a3,3,0,0,0,3,3h9a3,3,0,0,0,3-3V10A.86.86,0,0,0,21,9.64ZM16,6.76,17.89,9H16ZM19,18a1,1,0,0,1-1,1H9a1.05,1.05,0,0,1-.71-.29A1,1,0,0,1,8,18V14.68H11v3l4-4-4-4v3H8V6a1,1,0,0,1,.29-.71A1.05,1.05,0,0,1,9,5h5v5a1,1,0,0,0,1,1h4Z"/></svg>