<svg width="24" height="24" viewBox="0 0 24 24" fill="none" xmlns="http://www.w3.org/2000/svg">
  <path fill-rule="evenodd" clip-rule="evenodd"
    d="M4 7C4 6.44772 4.44772 6 5 6H19C19.5523 6 20 6.44772 20 7C20 7.55228 19.5523 8 19 8H5C4.44772 8 4 7.55228 4 7ZM6.33333 12C6.33333 11.4477 6.78105 11 7.33333 11H16.6667C17.219 11 17.6667 11.4477 17.6667 12C17.6667 12.5523 17.219 13 16.6667 13H7.33333C6.78105 13 6.33333 12.5523 6.33333 12ZM8.66667 17C8.66667 16.4477 9.11438 16 9.66667 16H14.3333C14.8856 16 15.3333 16.4477 15.3333 17C15.3333 17.5523 14.8856 18 14.3333 18H9.66667C9.11438 18 8.66667 17.5523 8.66667 17Z"
    fill="currentColor" />
</svg>