<svg width="174" height="171" viewBox="0 0 174 171" fill="none" xmlns="http://www.w3.org/2000/svg">
    <path fill-rule="evenodd" clip-rule="evenodd"
          d="M87 0C87.8284 0 88.5 0.671573 88.5 1.5V13.5C88.5 14.3284 87.8284 15 87 15C86.1716 15 85.5 14.3284 85.5 13.5V1.5C85.5 0.671573 86.1716 0 87 0ZM64.7869 44.6476C59.557 51.9106 57.6144 61.8702 62.5918 72.7732C67.8519 84.2952 70.0215 90.142 71.1211 94.0228C71.1738 94.2087 71.2239 94.3901 71.2719 94.5671H85.2212V76.6163L76.8797 71.8444C76.0407 71.3645 75.8623 70.3735 76.481 69.631C77.0997 68.8885 78.2814 68.6757 79.1203 69.1556L86.8263 73.5639L94.5322 69.1556C95.3712 68.6757 96.5528 68.8886 97.1716 69.631C97.7903 70.3735 97.6118 71.3645 96.7729 71.8444L88.7212 76.4505V94.5671H101.786C101.921 94.1657 102.072 93.7477 102.242 93.3072C103.671 89.6052 106.487 84.1197 112.977 72.6389C119.082 61.8364 116.831 51.9844 110.96 44.7255C105.002 37.3593 95.3653 32.75 86.9999 32.75C78.6798 32.75 70.0656 37.3169 64.7869 44.6476ZM72.2107 98.7637C72.1667 98.5346 72.1223 98.3031 72.076 98.0671L100.841 98.0671C100.725 98.6119 100.618 99.1609 100.505 99.7351L100.505 99.7351L100.505 99.7352L100.505 99.7353C100.411 100.218 100.313 100.719 100.203 101.25L100.171 101.25H72.8286C72.7935 101.25 72.7587 101.251 72.7241 101.253C72.5226 100.389 72.3728 99.6086 72.2165 98.794L72.2107 98.7637ZM99.3348 104.75H73.8042C74.8544 107.17 76.5756 109.344 78.6556 111.008C81.228 113.066 84.2287 114.25 86.9999 114.25C92.2442 114.25 97.1866 111.32 99.3348 104.75ZM61.9467 42.6024C67.8292 34.4331 77.4651 29.25 86.9999 29.25C96.4896 29.25 107.103 34.3907 113.681 42.5245C120.347 50.7656 122.918 62.1636 116.024 74.3611C109.513 85.8803 106.829 91.1446 105.507 94.5675C104.646 96.7994 104.381 98.1651 104.006 100.101L104.005 100.101L104.005 100.102L104.005 100.102C103.805 101.134 103.574 102.327 103.203 103.901C101.023 113.168 94.3354 117.75 86.9999 117.75C83.2709 117.75 79.5217 116.183 76.4692 113.741C73.4097 111.294 70.9293 107.873 69.8172 103.981C69.3012 102.174 69.039 100.808 68.784 99.4787L68.7734 99.4232C68.5172 98.0883 68.2632 96.7752 67.7536 94.9769C66.7282 91.3577 64.6479 85.7048 59.4079 74.2268C53.8854 62.1298 56.0153 50.8394 61.9467 42.6024ZM56.5607 12.4393C55.9749 11.8536 55.0251 11.8536 54.4393 12.4393C53.8536 13.0251 53.8536 13.9749 54.4393 14.5607L62.9246 23.0459C63.5104 23.6317 64.4602 23.6317 65.0459 23.0459C65.6317 22.4602 65.6317 21.5104 65.0459 20.9246L56.5607 12.4393ZM108.954 23.046C108.368 22.4602 108.368 21.5105 108.954 20.9247L117.439 12.4394C118.025 11.8536 118.975 11.8536 119.561 12.4394C120.146 13.0252 120.146 13.9749 119.561 14.5607L111.075 23.046C110.49 23.6318 109.54 23.6318 108.954 23.046ZM87 122.75C87.9665 122.75 88.75 123.534 88.75 124.5V136.5C88.75 137.466 87.9665 138.25 87 138.25C86.0335 138.25 85.25 137.466 85.25 136.5V124.5C85.25 123.534 86.0335 122.75 87 122.75ZM17 58.75H15.25V60.5V67.75H10H8.25H2H0.25V69.5V164.067V165.817H2H76.1145C76.2291 165.912 76.3606 166.019 76.5081 166.135C77.0829 166.587 77.9079 167.188 78.9212 167.789C80.9184 168.973 83.7948 170.25 87 170.25C90.2052 170.25 93.0816 168.973 95.0788 167.789C96.0921 167.188 96.9171 166.587 97.4919 166.135C97.6394 166.019 97.7709 165.912 97.8855 165.817H172H173.75V164.067V69.5V67.75H172H165.75H164H158.75V60.5V58.75H157H129.42C128.453 58.75 127.67 59.5335 127.67 60.5C127.67 61.4665 128.453 62.25 129.42 62.25H155.25V145.675H92.6084H91.7611L91.2397 146.335L91.2394 146.335L91.2379 146.337L91.2369 146.338L91.2363 146.339L91.2357 146.34L91.2305 146.346L91.221 146.358C91.21 146.371 91.1942 146.389 91.1739 146.413C91.1194 146.476 91.0331 146.573 90.9183 146.692C90.6868 146.932 90.3493 147.254 89.9325 147.573C89.0646 148.237 88.0359 148.75 87 148.75C85.9641 148.75 84.9354 148.237 84.0675 147.573C83.6507 147.254 83.3132 146.932 83.0817 146.692C82.9668 146.573 82.8806 146.476 82.8261 146.413C82.799 146.382 82.78 146.359 82.7695 146.346L82.7643 146.34L82.7637 146.339L82.7631 146.338L82.7621 146.337L82.7606 146.335L82.7603 146.335L82.2388 145.675H81.3916H18.75V62.25H43.6014C44.5679 62.25 45.3514 61.4665 45.3514 60.5C45.3514 59.5335 44.5679 58.75 43.6014 58.75H17ZM158.75 71.25V147.425V149.175H157H93.3854C93.0646 149.504 92.6151 149.927 92.0589 150.353C90.917 151.226 89.1414 152.25 87 152.25C84.8586 152.25 83.083 151.226 81.9411 150.353C81.3849 149.927 80.9354 149.504 80.6145 149.175H17H15.25V147.425V71.25H11.75V154.675H79.7308H80.7592L81.2534 155.563L81.255 155.565L81.2595 155.573L81.2745 155.598C81.2833 155.612 81.2947 155.63 81.309 155.652C81.3586 155.729 81.4407 155.851 81.5558 156.002C81.7874 156.306 82.1438 156.719 82.6271 157.132C83.5857 157.951 85.0145 158.75 87 158.75C88.9855 158.75 90.4143 157.951 91.3729 157.132C91.8562 156.719 92.2126 156.306 92.4442 156.002C92.5593 155.851 92.6414 155.729 92.691 155.652C92.7158 155.614 92.7322 155.587 92.7405 155.573L92.745 155.566L92.7454 155.565L92.7466 155.563L93.2408 154.675H94.2692H162.25V71.25H158.75ZM165.75 71.25V156.425V158.175H164H95.1881C94.8386 158.628 94.3283 159.211 93.6464 159.793C92.2203 161.012 90.0145 162.25 87 162.25C83.9855 162.25 81.7797 161.012 80.3536 159.793C79.6717 159.211 79.1614 158.628 78.8119 158.175H10H8.25V156.425V71.25H3.75V162.317H76.7677H77.4614L77.9643 162.79L77.9647 162.79L77.9655 162.791L77.966 162.792L77.9667 162.792L77.9685 162.794L77.9965 162.82C78.0237 162.844 78.0679 162.884 78.1281 162.936C78.2487 163.041 78.4327 163.196 78.6726 163.385C79.154 163.763 79.8521 164.271 80.7069 164.778C82.446 165.81 84.6858 166.75 87 166.75C89.3142 166.75 91.554 165.81 93.2931 164.778C94.148 164.271 94.846 163.763 95.3274 163.385C95.5673 163.196 95.7513 163.041 95.8719 162.936C95.9321 162.884 95.9763 162.844 96.0036 162.82L96.0315 162.794L96.0333 162.792L96.034 162.792L96.0345 162.791L96.0353 162.79L96.0357 162.79L96.5386 162.317H97.2323H170.25V71.25H165.75Z"
          fill="currentColor"/>
</svg>
