<svg xmlns="http://www.w3.org/2000/svg" width="24" height="24" viewBox="0 0 24 24"><defs><style>.a{fill:none;}</style></defs><path class="a" d="M0,0H24V24H0Z"/><path d="M19.43,7.76l-.07-.12-.09-.16-5-6A.58.58,0,0,0,14,1.3L14,1.23a1,1,0,0,0-.45-.11h-6a3,3,0,0,0-3,3v11a3,3,0,0,0,3,3H11v1.32H8l4,4,4-4H13V18.12h3.5a3,3,0,0,0,3-3v-7A1.15,1.15,0,0,0,19.43,7.76ZM14.5,4.88l1.86,2.24H14.5Zm3,10.24a1.05,1.05,0,0,1-.29.71v.05a1,1,0,0,1-.71.29H13V12.44H11v3.73H7.5a1,1,0,0,1-.71-.29,1.06,1.06,0,0,1-.29-.76v-11a1,1,0,0,1,1-1h5v5a1,1,0,0,0,1,1h4Z"/></svg>