<svg width="24" height="24" viewBox="0 0 24 24" fill="none" xmlns="http://www.w3.org/2000/svg">
  <path fill-rule="evenodd" clip-rule="evenodd"
    d="M17.8385 3H6.1614H6.16136C5.63422 2.99998 5.17948 2.99997 4.80491 3.03057C4.40957 3.06287 4.01635 3.13419 3.63797 3.32698C3.07348 3.6146 2.61454 4.07354 2.32692 4.63803C2.13413 5.01641 2.06281 5.40963 2.03051 5.80497C1.99991 6.17955 1.99992 6.63431 1.99994 7.16146V15.2676C1.40214 15.6134 0.999941 16.2597 0.999941 17V17.3333L0.999863 17.4452C0.999325 17.9529 0.998862 18.3909 1.10216 18.7765C1.37957 19.8117 2.18821 20.6204 3.22348 20.8978C3.60901 21.0011 4.04704 21.0006 4.55477 21.0001L4.66661 21H19.3333L19.4451 21.0001C19.9528 21.0006 20.3909 21.0011 20.7764 20.8978C21.8117 20.6204 22.6203 19.8117 22.8977 18.7765C23.001 18.3909 23.0006 17.9529 23 17.4452L22.9999 17.3333L23.0001 17.2658V17.2658C23.0008 17.0309 23.0017 16.7431 22.9318 16.4824C22.7927 15.9633 22.4533 15.5297 21.9999 15.2679V7.16144C22 6.6343 22 6.17954 21.9694 5.80497C21.9371 5.40963 21.8658 5.01641 21.673 4.63803C21.3853 4.07355 20.9264 3.6146 20.3619 3.32698C19.9835 3.13419 19.5903 3.06287 19.195 3.03057C18.8204 2.99997 18.3657 2.99998 17.8385 3H17.8385ZM8.3372 15H3.99994V7.2C3.99994 6.62345 4.00072 6.25118 4.02387 5.96784C4.04606 5.69618 4.08374 5.59546 4.10893 5.54601C4.20481 5.35785 4.35779 5.20487 4.54595 5.109C4.59539 5.0838 4.69611 5.04613 4.96778 5.02393C5.25111 5.00078 5.62339 5 6.19994 5H17.7999C18.3765 5 18.7488 5.00078 19.0321 5.02393C19.3038 5.04613 19.4045 5.0838 19.4539 5.109C19.6421 5.20487 19.7951 5.35785 19.8909 5.54601C19.9161 5.59546 19.9538 5.69618 19.976 5.96784C19.9992 6.25118 19.9999 6.62345 19.9999 7.2V15H15.6627L15.6116 14.9999H15.6116C15.4217 14.9994 15.1826 14.9988 14.9473 15.0553C14.7432 15.1043 14.5481 15.1851 14.3692 15.2947C14.1628 15.4212 13.9942 15.5907 13.8602 15.7254L13.8242 15.7615L13.7615 15.8243C13.6688 15.9169 13.6224 15.963 13.5873 15.995L13.5847 15.9974L13.5811 15.9976C13.5336 15.9998 13.4682 16 13.3372 16H10.6627C10.5317 16 10.4663 15.9998 10.4188 15.9976L10.4152 15.9974L10.4126 15.995C10.3774 15.963 10.331 15.9169 10.2384 15.8243L10.1757 15.7615L10.1397 15.7254L10.1396 15.7254C10.0057 15.5907 9.83707 15.4212 9.63072 15.2947C9.45178 15.1851 9.25669 15.1043 9.05262 15.0553C8.81729 14.9988 8.57816 14.9994 8.38825 14.9999H8.38824L8.3372 15ZM15.4188 17.0024C15.4663 17.0002 15.5317 17 15.6627 17H20.6666C20.8307 17 20.9204 17.0002 20.9857 17.0032L20.9962 17.0037L20.9967 17.0143C20.9997 17.0796 20.9999 17.1693 20.9999 17.3333C20.9999 18.0177 20.9914 18.1637 20.9659 18.2588C20.8734 18.6039 20.6039 18.8735 20.2588 18.9659C20.1636 18.9914 20.0176 19 19.3333 19H4.66661C3.98225 19 3.83623 18.9914 3.74112 18.9659C3.39603 18.8735 3.12648 18.6039 3.03402 18.2588C3.00853 18.1637 2.99994 18.0177 2.99994 17.3333V17H8.3372C8.4682 17 8.53358 17.0002 8.58107 17.0024L8.58466 17.0026L8.58732 17.005C8.62243 17.037 8.66883 17.0831 8.76146 17.1757L8.82421 17.2385L8.86023 17.2746L8.86025 17.2747C8.99417 17.4093 9.16281 17.5788 9.36916 17.7053C9.5481 17.8149 9.74319 17.8957 9.94726 17.9447C10.1826 18.0012 10.4217 18.0006 10.6116 18.0001H10.6116L10.6627 18H13.3372L13.3882 18.0001H13.3883C13.5782 18.0006 13.8173 18.0012 14.0526 17.9447C14.2567 17.8957 14.4518 17.8149 14.6307 17.7053C14.8371 17.5788 15.0057 17.4093 15.1397 17.2746L15.1757 17.2385L15.2384 17.1757C15.331 17.0831 15.3775 17.037 15.4126 17.005L15.4152 17.0026L15.4188 17.0024ZM16.207 8.70711C16.5976 8.31658 16.5976 7.68342 16.207 7.29289C15.8165 6.90237 15.1834 6.90237 14.7928 7.29289L10.9999 11.0858L9.70705 9.79289C9.31652 9.40237 8.68336 9.40237 8.29283 9.79289C7.90231 10.1834 7.90231 10.8166 8.29283 11.2071L10.2928 13.2071C10.6834 13.5976 11.3165 13.5976 11.707 13.2071L16.207 8.70711Z"
    fill="currentColor" />
</svg>