<svg width="24" height="24" viewBox="0 0 24 24" fill="none" xmlns="http://www.w3.org/2000/svg">
  <mask id="path-1-outside-1_1_3" maskUnits="userSpaceOnUse" x="0.0564804" y="-0.0769196" width="24"
    height="24" fill="currentColor">
    <path fill-rule="evenodd" clip-rule="evenodd"
      d="M21.8899 7.60871V14.7692C22.6587 14.7692 23.1929 15.052 23.1929 15.8156C23.1929 16.5792 22.6587 16.7077 21.8899 16.7077V21C21.8899 22.1451 20.9517 23.0769 19.7989 23.0769H4.46476C3.31191 23.0769 2.37374 22.1451 2.37374 21V16.7077C1.60495 16.7077 1.05648 16.5402 1.05648 15.7766C1.05648 15.013 1.60495 14.7692 2.37374 14.7692V7.60733C1.3129 7.1061 0.837543 5.82603 1.1742 4.7301C1.39794 3.99972 1.78477 2.97649 2.07124 2.24541C2.38559 1.44234 3.14951 0.923109 4.01798 0.923109H20.2443C20.6661 0.92091 21.0787 1.04649 21.4269 1.28311C21.775 1.51972 22.0423 1.85613 22.1931 2.24749C22.4817 2.98549 22.8727 4.01772 23.0957 4.74395C23.4073 5.7561 23.0692 6.82295 22.2558 7.39756C22.1394 7.47995 22.0168 7.54848 21.8899 7.60871ZM3.36977 2.74664C3.09305 3.45487 2.71946 4.4428 2.50757 5.13233H2.50827C2.35841 5.62387 2.54869 6.14795 2.95296 6.35079C3.12235 6.43456 3.31139 6.47132 3.50008 6.45718C3.68877 6.44304 3.87012 6.37854 4.02495 6.27049C4.3587 6.03919 4.75586 5.91518 5.16281 5.91518C5.56977 5.91518 5.96693 6.03919 6.30067 6.27049C6.65475 6.51972 7.15451 6.52041 7.50998 6.27049C7.84373 6.03919 8.24089 5.91518 8.64784 5.91518C9.0548 5.91518 9.45196 6.03919 9.7857 6.27049C10.1398 6.51972 10.6395 6.52041 10.995 6.27049C11.3288 6.03919 11.7259 5.91518 12.1329 5.91518C12.5398 5.91518 12.937 6.03919 13.2707 6.27049C13.6248 6.51972 14.1253 6.51972 14.4793 6.27049C14.8133 6.03932 15.2105 5.91539 15.6176 5.91539C16.0246 5.91539 16.4218 6.03932 16.7558 6.27049C17.1098 6.51972 17.6103 6.51972 17.9644 6.27049C18.6286 5.80179 19.5884 5.80941 20.2408 6.27049C20.4181 6.39265 20.6287 6.45806 20.8445 6.45793C21.0603 6.45781 21.2709 6.39216 21.448 6.26979C21.7672 6.04341 21.8969 5.58303 21.7644 5.14895C21.5414 4.42757 21.1232 3.33441 20.8932 2.74803C20.843 2.61788 20.7541 2.50602 20.6383 2.42735C20.5225 2.34869 20.3853 2.30696 20.245 2.30772H4.01868C3.87844 2.3068 3.74125 2.34831 3.62534 2.42671C3.50942 2.50511 3.42028 2.6167 3.36977 2.74664ZM20.2917 21.4895C20.4225 21.3597 20.4959 21.1836 20.4959 21V16.7077H3.76776V21C3.76776 21.3822 4.08071 21.6923 4.46476 21.6923H19.7989C19.9837 21.6923 20.161 21.6194 20.2917 21.4895ZM3.76776 7.81017C4.15016 7.759 4.51478 7.61803 4.83139 7.39894C4.92879 7.33271 5.04408 7.29727 5.16212 7.29727C5.28016 7.29727 5.39544 7.33271 5.49284 7.39894C6.32228 7.98394 7.48628 7.98463 8.31642 7.39894C8.41382 7.33271 8.5291 7.29727 8.64714 7.29727C8.76519 7.29727 8.88047 7.33271 8.97787 7.39894C9.80731 7.98394 10.9713 7.98463 11.8014 7.39894C11.8988 7.33271 12.0141 7.29727 12.1322 7.29727C12.2502 7.29727 12.3655 7.33271 12.4629 7.39894C13.2923 7.98463 14.4563 7.98463 15.2858 7.39894C15.3833 7.33256 15.4987 7.29703 15.6169 7.29703C15.735 7.29703 15.8505 7.33256 15.9479 7.39894C16.7774 7.98463 17.9414 7.98463 18.7708 7.39894C18.8683 7.33256 18.9837 7.29703 19.1019 7.29703C19.2201 7.29703 19.3355 7.33256 19.433 7.39894C19.7515 7.62394 20.1139 7.76586 20.4959 7.81986V14.7692H3.76776V7.81017Z" />
  </mask>
  <path fill-rule="evenodd" clip-rule="evenodd"
    d="M21.8899 7.60871V14.7692C22.6587 14.7692 23.1929 15.052 23.1929 15.8156C23.1929 16.5792 22.6587 16.7077 21.8899 16.7077V21C21.8899 22.1451 20.9517 23.0769 19.7989 23.0769H4.46476C3.31191 23.0769 2.37374 22.1451 2.37374 21V16.7077C1.60495 16.7077 1.05648 16.5402 1.05648 15.7766C1.05648 15.013 1.60495 14.7692 2.37374 14.7692V7.60733C1.3129 7.1061 0.837543 5.82603 1.1742 4.7301C1.39794 3.99972 1.78477 2.97649 2.07124 2.24541C2.38559 1.44234 3.14951 0.923109 4.01798 0.923109H20.2443C20.6661 0.92091 21.0787 1.04649 21.4269 1.28311C21.775 1.51972 22.0423 1.85613 22.1931 2.24749C22.4817 2.98549 22.8727 4.01772 23.0957 4.74395C23.4073 5.7561 23.0692 6.82295 22.2558 7.39756C22.1394 7.47995 22.0168 7.54848 21.8899 7.60871ZM3.36977 2.74664C3.09305 3.45487 2.71946 4.4428 2.50757 5.13233H2.50827C2.35841 5.62387 2.54869 6.14795 2.95296 6.35079C3.12235 6.43456 3.31139 6.47132 3.50008 6.45718C3.68877 6.44304 3.87012 6.37854 4.02495 6.27049C4.3587 6.03919 4.75586 5.91518 5.16281 5.91518C5.56977 5.91518 5.96693 6.03919 6.30067 6.27049C6.65475 6.51972 7.15451 6.52041 7.50998 6.27049C7.84373 6.03919 8.24089 5.91518 8.64784 5.91518C9.0548 5.91518 9.45196 6.03919 9.7857 6.27049C10.1398 6.51972 10.6395 6.52041 10.995 6.27049C11.3288 6.03919 11.7259 5.91518 12.1329 5.91518C12.5398 5.91518 12.937 6.03919 13.2707 6.27049C13.6248 6.51972 14.1253 6.51972 14.4793 6.27049C14.8133 6.03932 15.2105 5.91539 15.6176 5.91539C16.0246 5.91539 16.4218 6.03932 16.7558 6.27049C17.1098 6.51972 17.6103 6.51972 17.9644 6.27049C18.6286 5.80179 19.5884 5.80941 20.2408 6.27049C20.4181 6.39265 20.6287 6.45806 20.8445 6.45793C21.0603 6.45781 21.2709 6.39216 21.448 6.26979C21.7672 6.04341 21.8969 5.58303 21.7644 5.14895C21.5414 4.42757 21.1232 3.33441 20.8932 2.74803C20.843 2.61788 20.7541 2.50602 20.6383 2.42735C20.5225 2.34869 20.3853 2.30696 20.245 2.30772H4.01868C3.87844 2.3068 3.74125 2.34831 3.62534 2.42671C3.50942 2.50511 3.42028 2.6167 3.36977 2.74664ZM20.2917 21.4895C20.4225 21.3597 20.4959 21.1836 20.4959 21V16.7077H3.76776V21C3.76776 21.3822 4.08071 21.6923 4.46476 21.6923H19.7989C19.9837 21.6923 20.161 21.6194 20.2917 21.4895ZM3.76776 7.81017C4.15016 7.759 4.51478 7.61803 4.83139 7.39894C4.92879 7.33271 5.04408 7.29727 5.16212 7.29727C5.28016 7.29727 5.39544 7.33271 5.49284 7.39894C6.32228 7.98394 7.48628 7.98463 8.31642 7.39894C8.41382 7.33271 8.5291 7.29727 8.64714 7.29727C8.76519 7.29727 8.88047 7.33271 8.97787 7.39894C9.80731 7.98394 10.9713 7.98463 11.8014 7.39894C11.8988 7.33271 12.0141 7.29727 12.1322 7.29727C12.2502 7.29727 12.3655 7.33271 12.4629 7.39894C13.2923 7.98463 14.4563 7.98463 15.2858 7.39894C15.3833 7.33256 15.4987 7.29703 15.6169 7.29703C15.735 7.29703 15.8505 7.33256 15.9479 7.39894C16.7774 7.98463 17.9414 7.98463 18.7708 7.39894C18.8683 7.33256 18.9837 7.29703 19.1019 7.29703C19.2201 7.29703 19.3355 7.33256 19.433 7.39894C19.7515 7.62394 20.1139 7.76586 20.4959 7.81986V14.7692H3.76776V7.81017Z"
    fill="currentColor" />
  <path
    d="M3.80091 8.05797C4.22243 8.00156 4.62446 7.84616 4.97365 7.60452L4.68913 7.19337C4.40511 7.38991 4.0779 7.51645 3.7346 7.56238L3.80091 8.05797ZM5.34875 7.60324C6.26452 8.24913 7.54392 8.24993 8.46054 7.60322L8.17229 7.19467C7.42864 7.71934 6.38005 7.71876 5.63694 7.19465L5.34875 7.60324ZM8.83378 7.60324C9.74954 8.24913 11.029 8.24993 11.9456 7.60321L11.6573 7.19467C10.9137 7.71934 9.86508 7.71876 9.12197 7.19465L8.83378 7.60324ZM12.3187 7.60316C13.2346 8.2499 14.5141 8.2499 15.43 7.60316L15.1416 7.19472C14.3986 7.71938 13.3501 7.71938 12.6071 7.19472L12.3187 7.60316ZM15.8037 7.60316C16.7196 8.2499 17.9991 8.2499 18.915 7.60316L18.6266 7.19472C17.8836 7.71938 16.8351 7.71938 16.0921 7.19472L15.8037 7.60316ZM19.2887 7.60313C19.6402 7.85139 20.0402 8.00792 20.4609 8.0674L20.5309 7.57232C20.1877 7.52381 19.8628 7.39651 19.5772 7.19475L19.2887 7.60313ZM21.8899 14.7692H21.3899V15.2692H21.8899V14.7692ZM21.8899 7.60871L21.6755 7.15704L21.3899 7.29262V7.60871H21.8899ZM21.8899 16.7077V16.2077H21.3899V16.7077H21.8899ZM2.37374 16.7077H2.87374V16.2077H2.37374V16.7077ZM2.37374 14.7692V15.2692H2.87374V14.7692H2.37374ZM2.37374 7.60733H2.87374V7.29057L2.58734 7.15525L2.37374 7.60733ZM1.1742 4.7301L1.65215 4.87693L1.65227 4.87655L1.1742 4.7301ZM2.07124 2.24541L2.53678 2.42783L2.53684 2.42767L2.07124 2.24541ZM20.2443 0.923109L20.2443 1.42312L20.2469 1.4231L20.2443 0.923109ZM21.4269 1.28311L21.7079 0.869563L21.7079 0.869563L21.4269 1.28311ZM22.1931 2.24749L21.7265 2.42725L21.7274 2.42957L22.1931 2.24749ZM23.0957 4.74395L22.6178 4.89074L22.6179 4.89105L23.0957 4.74395ZM22.2558 7.39756L21.9673 6.98918L21.967 6.98944L22.2558 7.39756ZM2.50757 5.13233L2.02963 4.98547L1.83085 5.63233H2.50757V5.13233ZM3.36977 2.74664L3.83548 2.9286L3.83579 2.92782L3.36977 2.74664ZM2.50827 5.13233L2.98653 5.27814L3.18342 4.63233H2.50827V5.13233ZM2.95296 6.35079L2.72871 6.7977L2.73133 6.79899L2.95296 6.35079ZM4.02495 6.27049L3.74015 5.85952L3.7388 5.86046L4.02495 6.27049ZM6.30067 6.27049L6.58848 5.86161L6.58548 5.85953L6.30067 6.27049ZM7.50998 6.27049L7.22517 5.85952L7.22241 5.86146L7.50998 6.27049ZM9.7857 6.27049L10.0735 5.86161L10.0705 5.85953L9.7857 6.27049ZM10.995 6.27049L10.7102 5.85952L10.7074 5.86146L10.995 6.27049ZM13.2707 6.27049L13.5585 5.86161L13.5555 5.85953L13.2707 6.27049ZM14.4793 6.27049L14.1947 5.85937L14.1915 5.86162L14.4793 6.27049ZM16.7558 6.27049L17.0436 5.8616L17.0404 5.85938L16.7558 6.27049ZM17.9644 6.27049L18.2522 6.67935L18.2526 6.67902L17.9644 6.27049ZM20.2408 6.27049L19.9522 6.67883L19.9571 6.6822L20.2408 6.27049ZM20.8445 6.45793L20.8442 5.95793L20.8442 5.95793L20.8445 6.45793ZM21.448 6.26979L21.7322 6.68122L21.7372 6.67765L21.448 6.26979ZM21.7644 5.14895L22.2427 5.00304L22.2421 5.00125L21.7644 5.14895ZM20.8932 2.74803L20.4266 2.92787L20.4277 2.93061L20.8932 2.74803ZM20.245 2.30772L20.245 2.80773L20.2477 2.80771L20.245 2.30772ZM4.01868 2.30772L4.01541 2.80772H4.01868V2.30772ZM3.62534 2.42671L3.90547 2.84087L3.90547 2.84087L3.62534 2.42671ZM20.2917 21.4895L20.6441 21.8443L20.6441 21.8443L20.2917 21.4895ZM20.4959 16.7077H20.9959V16.2077H20.4959V16.7077ZM3.76776 16.7077V16.2077H3.26776V16.7077H3.76776ZM4.83139 7.39894L4.55024 6.98545L4.54687 6.98778L4.83139 7.39894ZM3.76776 7.81017L3.70144 7.31459L3.26776 7.37262V7.81017H3.76776ZM5.49284 7.39894L5.78107 6.99028L5.77398 6.98547L5.49284 7.39894ZM8.31642 7.39894L8.03523 6.98541L8.02817 6.99039L8.31642 7.39894ZM8.97787 7.39894L9.2661 6.99028L9.25901 6.98547L8.97787 7.39894ZM11.8014 7.39894L11.5203 6.9854L11.5132 6.99039L11.8014 7.39894ZM12.4629 7.39894L12.7514 6.99044L12.744 6.98547L12.4629 7.39894ZM15.2858 7.39894L15.0043 6.98561L14.9974 6.9905L15.2858 7.39894ZM15.9479 7.39894L16.2364 6.99045L16.2294 6.98567L15.9479 7.39894ZM18.7708 7.39894L18.4893 6.98561L18.4824 6.9905L18.7708 7.39894ZM19.433 7.39894L19.7215 6.99049L19.7144 6.98567L19.433 7.39894ZM20.4959 7.81986H20.9959V7.38558L20.5659 7.32479L20.4959 7.81986ZM20.4959 14.7692V15.2692H20.9959V14.7692H20.4959ZM3.76776 14.7692H3.26776V15.2692H3.76776V14.7692ZM22.3899 14.7692V7.60871H21.3899V14.7692H22.3899ZM23.6929 15.8156C23.6929 15.3029 23.5046 14.8772 23.1228 14.6009C22.7703 14.346 22.3211 14.2692 21.8899 14.2692V15.2692C22.2275 15.2692 22.4298 15.3339 22.5366 15.4112C22.6141 15.4672 22.6929 15.5647 22.6929 15.8156H23.6929ZM21.8899 17.2077C22.2743 17.2077 22.719 17.1815 23.0725 16.9851C23.2645 16.8784 23.4294 16.7225 23.541 16.5078C23.6497 16.2986 23.6929 16.063 23.6929 15.8156H22.6929C22.6929 15.9499 22.6692 16.0167 22.6538 16.0465C22.6412 16.0706 22.6245 16.09 22.5869 16.1109C22.4811 16.1697 22.2743 16.2077 21.8899 16.2077V17.2077ZM22.3899 21V16.7077H21.3899V21H22.3899ZM19.7989 23.5769C21.2247 23.5769 22.3899 22.4244 22.3899 21H21.3899C21.3899 21.8658 20.6788 22.5769 19.7989 22.5769V23.5769ZM4.46476 23.5769H19.7989V22.5769H4.46476V23.5769ZM1.87374 21C1.87374 22.4244 3.03896 23.5769 4.46476 23.5769V22.5769C3.58486 22.5769 2.87374 21.8658 2.87374 21H1.87374ZM1.87374 16.7077V21H2.87374V16.7077H1.87374ZM0.55648 15.7766C0.55648 16.0264 0.601351 16.2629 0.709737 16.4733C0.820319 16.6878 0.982796 16.8473 1.17311 16.9593C1.52967 17.1693 1.97669 17.2077 2.37374 17.2077V16.2077C2.002 16.2077 1.79039 16.1623 1.68052 16.0976C1.63761 16.0724 1.61492 16.0468 1.59864 16.0152C1.58017 15.9793 1.55648 15.9086 1.55648 15.7766H0.55648ZM2.37374 14.2692C1.95379 14.2692 1.50439 14.3325 1.14835 14.5713C0.754377 14.8355 0.55648 15.2568 0.55648 15.7766H1.55648C1.55648 15.5327 1.63282 15.4504 1.70528 15.4018C1.81567 15.3278 2.0249 15.2692 2.37374 15.2692V14.2692ZM1.87374 7.60733V14.7692H2.87374V7.60733H1.87374ZM0.69624 4.58328C0.295226 5.88872 0.849002 7.43992 2.16014 8.05941L2.58734 7.15525C1.7768 6.77228 1.37986 5.76333 1.65215 4.87693L0.69624 4.58328ZM1.60571 2.063C1.31914 2.79432 0.925997 3.83325 0.696125 4.58366L1.65227 4.87655C1.86988 4.16619 2.25041 3.15867 2.53678 2.42783L1.60571 2.063ZM4.01798 0.423109C2.94541 0.423109 1.99563 1.06686 1.60564 2.06316L2.53684 2.42767C2.77556 1.81781 3.35362 1.42311 4.01798 1.42311V0.423109ZM20.2443 0.423109H4.01798V1.42311H20.2443V0.423109ZM21.7079 0.869563C21.2759 0.575981 20.7644 0.420391 20.2417 0.423116L20.2469 1.4231C20.5679 1.42143 20.8815 1.517 21.1458 1.69665L21.7079 0.869563ZM22.6597 2.06774C22.4722 1.581 22.1399 1.16317 21.7079 0.869563L21.1458 1.69665C21.4101 1.87627 21.6125 2.13127 21.7265 2.42724L22.6597 2.06774ZM23.5737 4.59716C23.3445 3.85098 22.9471 2.80291 22.6588 2.06541L21.7274 2.42957C22.0162 3.16807 22.4008 4.18446 22.6178 4.89074L23.5737 4.59716ZM22.5443 7.80594C23.5488 7.09631 23.9434 5.7981 23.5736 4.59685L22.6179 4.89105C22.8712 5.7141 22.5896 6.54958 21.9673 6.98918L22.5443 7.80594ZM22.1044 8.06039C22.251 7.99075 22.3998 7.90824 22.5447 7.80568L21.967 6.98944C21.8791 7.05165 21.7825 7.10622 21.6755 7.15704L22.1044 8.06039ZM2.98551 5.2792C3.19132 4.60945 3.55862 3.63722 3.83548 2.9286L2.90405 2.56469C2.62749 3.27253 2.2476 4.27614 2.02963 4.98547L2.98551 5.2792ZM2.50827 4.63233H2.50757V5.63233H2.50827V4.63233ZM3.17719 5.9039C3.03252 5.8313 2.89317 5.58438 2.98653 5.27814L2.03 4.98652C1.82365 5.66336 2.06487 6.46459 2.72872 6.79769L3.17719 5.9039ZM3.46273 5.95858C3.36319 5.96603 3.26361 5.94662 3.17459 5.9026L2.73133 6.79899C2.98109 6.9225 3.25958 6.9766 3.53743 6.95578L3.46273 5.95858ZM3.7388 5.86046C3.65763 5.91711 3.56226 5.95112 3.46273 5.95858L3.53743 6.95578C3.81529 6.93497 4.0826 6.83997 4.3111 6.68051L3.7388 5.86046ZM5.16281 5.41518C4.65431 5.41518 4.15775 5.57012 3.74015 5.85953L4.30975 6.68145C4.55964 6.50827 4.8574 6.41518 5.16281 6.41518V5.41518ZM6.58548 5.85953C6.16787 5.57012 5.67131 5.41518 5.16281 5.41518V6.41518C5.46823 6.41518 5.76598 6.50827 6.01587 6.68145L6.58548 5.85953ZM7.22241 5.86146C7.03963 5.98996 6.77009 5.98946 6.58847 5.86162L6.01288 6.67935C6.53941 7.04997 7.26938 7.05085 7.79755 6.67951L7.22241 5.86146ZM8.64784 5.41518C8.13934 5.41518 7.64278 5.57012 7.22518 5.85953L7.79478 6.68145C8.04467 6.50827 8.34243 6.41518 8.64784 6.41518V5.41518ZM10.0705 5.85953C9.6529 5.57012 9.15634 5.41518 8.64784 5.41518V6.41518C8.95325 6.41518 9.25101 6.50827 9.5009 6.68145L10.0705 5.85953ZM10.7074 5.86146C10.5247 5.98996 10.2551 5.98946 10.0735 5.86162L9.49791 6.67935C10.0244 7.04997 10.7544 7.05085 11.2826 6.67951L10.7074 5.86146ZM12.1329 5.41518C11.6244 5.41518 11.1278 5.57012 10.7102 5.85953L11.2798 6.68145C11.5297 6.50827 11.8275 6.41518 12.1329 6.41518V5.41518ZM13.5555 5.85953C13.1379 5.57012 12.6414 5.41518 12.1329 5.41518V6.41518C12.4383 6.41518 12.736 6.50827 12.9859 6.68145L13.5555 5.85953ZM14.1915 5.86162C14.0101 5.98934 13.74 5.98934 13.5585 5.86162L12.9829 6.67935C13.5096 7.05009 14.2404 7.05009 14.7671 6.67935L14.1915 5.86162ZM15.6176 5.41539C15.1091 5.41539 14.6125 5.5702 14.1948 5.85938L14.7639 6.68159C15.014 6.50845 15.312 6.41539 15.6176 6.41539V5.41539ZM17.0404 5.85938C16.6226 5.5702 16.126 5.41539 15.6176 5.41539V6.41539C15.9231 6.41539 16.2211 6.50845 16.4712 6.68159L17.0404 5.85938ZM17.6766 5.86162C17.4951 5.98934 17.225 5.98934 17.0436 5.86162L16.468 6.67935C16.9947 7.05009 17.7255 7.05009 18.2522 6.67935L17.6766 5.86162ZM20.5294 5.86217C19.7054 5.27986 18.5146 5.2703 17.6761 5.86195L18.2526 6.67902C18.7426 6.33329 19.4714 6.33896 19.9522 6.67881L20.5294 5.86217ZM20.8442 5.95793C20.7296 5.958 20.6181 5.92325 20.5245 5.85877L19.9571 6.6822C20.2181 6.86205 20.5278 6.95812 20.8448 6.95793L20.8442 5.95793ZM21.1638 5.8584C21.0703 5.92299 20.9588 5.95787 20.8442 5.95793L20.8448 6.95793C21.1618 6.95775 21.4714 6.86133 21.7322 6.68119L21.1638 5.8584ZM21.2862 5.29485C21.3692 5.56689 21.2675 5.78484 21.1588 5.86194L21.7372 6.67765C22.267 6.30197 22.4246 5.59916 22.2427 5.00305L21.2862 5.29485ZM20.4277 2.93061C20.6582 3.51823 21.0699 4.59528 21.2868 5.29664L22.2421 5.00125C22.0129 4.25985 21.5882 3.15059 21.3587 2.56545L20.4277 2.93061ZM20.3573 2.84096C20.3893 2.86265 20.4132 2.8931 20.4266 2.92787L21.3597 2.56819C21.2728 2.34267 21.1189 2.14939 20.9192 2.01375L20.3573 2.84096ZM20.2477 2.80771C20.2871 2.8075 20.3254 2.81924 20.3573 2.84096L20.9192 2.01375C20.7196 1.87813 20.4834 1.80641 20.2422 1.80773L20.2477 2.80771ZM4.01868 2.80772H20.245V1.80772H4.01868V2.80772ZM3.90547 2.84087C3.93756 2.81916 3.97591 2.80745 4.01541 2.80771L4.02195 1.80773C3.78098 1.80616 3.54494 1.87745 3.3452 2.01255L3.90547 2.84087ZM3.83579 2.92782C3.84932 2.89301 3.87342 2.86254 3.90547 2.84087L3.3452 2.01255C3.14542 2.14769 2.99124 2.3404 2.90374 2.56547L3.83579 2.92782ZM19.9959 21C19.9959 21.0499 19.976 21.0985 19.9394 21.1348L20.6441 21.8443C20.869 21.6209 20.9959 21.3173 20.9959 21H19.9959ZM19.9959 16.7077V21H20.9959V16.7077H19.9959ZM3.76776 17.2077H20.4959V16.2077H3.76776V17.2077ZM4.26776 21V16.7077H3.26776V21H4.26776ZM4.46476 21.1923C4.35333 21.1923 4.26776 21.1025 4.26776 21H3.26776C3.26776 21.6618 3.80809 22.1923 4.46476 22.1923V21.1923ZM19.7989 21.1923H4.46476V22.1923H19.7989V21.1923ZM19.9394 21.1348C19.9027 21.1712 19.8522 21.1923 19.7989 21.1923V22.1923C20.1153 22.1923 20.4194 22.0675 20.6441 21.8443L19.9394 21.1348ZM4.54687 6.98778C4.29544 7.16177 4.00563 7.27388 3.70144 7.31459L3.83407 8.30575C4.2947 8.24412 4.73413 8.07428 5.1159 7.8101L4.54687 6.98778ZM5.16212 6.79727C4.94403 6.79727 4.73076 6.86273 4.55025 6.98547L5.11253 7.81241C5.12682 7.80269 5.14412 7.79727 5.16212 7.79727V6.79727ZM5.77398 6.98547C5.59347 6.86273 5.3802 6.79727 5.16212 6.79727V7.79727C5.18012 7.79727 5.19741 7.80269 5.21171 7.81241L5.77398 6.98547ZM8.02817 6.99039C7.371 7.45405 6.43781 7.45357 5.78103 6.99034L5.20466 7.80754C6.20675 8.51431 7.60156 8.51522 8.60466 7.80749L8.02817 6.99039ZM8.64714 6.79727C8.42906 6.79727 8.21579 6.86273 8.03528 6.98547L8.59756 7.81241C8.61185 7.80269 8.62914 7.79727 8.64714 7.79727V6.79727ZM9.25901 6.98547C9.0785 6.86273 8.86522 6.79727 8.64714 6.79727V7.79727C8.66515 7.79727 8.68244 7.80269 8.69673 7.81241L9.25901 6.98547ZM11.5132 6.99039C10.856 7.45405 9.92284 7.45357 9.26606 6.99034L8.68969 7.80754C9.69178 8.51431 11.0866 8.51522 12.0897 7.80749L11.5132 6.99039ZM12.1322 6.79727C11.9141 6.79727 11.7008 6.86273 11.5203 6.98547L12.0826 7.81241C12.0969 7.80269 12.1142 7.79727 12.1322 7.79727V6.79727ZM12.744 6.98547C12.5635 6.86273 12.3503 6.79727 12.1322 6.79727V7.79727C12.1502 7.79727 12.1675 7.80269 12.1818 7.81241L12.744 6.98547ZM14.9974 6.9905C14.3408 7.45411 13.4079 7.45411 12.7513 6.9905L12.1745 7.80738C13.1768 8.51515 14.5719 8.51515 15.5742 7.80738L14.9974 6.9905ZM15.6169 6.79703C15.3985 6.79703 15.185 6.86265 15.0043 6.98567L15.5672 7.81221C15.5815 7.80247 15.5988 7.79703 15.6169 7.79703V6.79703ZM16.2294 6.98567C16.0487 6.86265 15.8352 6.79703 15.6169 6.79703V7.79703C15.6349 7.79703 15.6522 7.80247 15.6665 7.81221L16.2294 6.98567ZM18.4824 6.9905C17.8258 7.45411 16.8929 7.45411 16.2363 6.9905L15.6595 7.80738C16.6619 8.51515 18.0569 8.51515 19.0592 7.80738L18.4824 6.9905ZM19.1019 6.79703C18.8835 6.79703 18.67 6.86265 18.4894 6.98567L19.0522 7.81221C19.0665 7.80247 19.0839 7.79703 19.1019 7.79703V6.79703ZM19.7144 6.98567C19.5338 6.86265 19.3202 6.79703 19.1019 6.79703V7.79703C19.1199 7.79703 19.1372 7.80247 19.1515 7.81221L19.7144 6.98567ZM20.5659 7.32479C20.2615 7.28175 19.9742 7.16906 19.7214 6.99055L19.1445 7.80733C19.5288 8.07882 19.9664 8.24997 20.4259 8.31494L20.5659 7.32479ZM20.9959 14.7692V7.81986H19.9959V14.7692H20.9959ZM3.76776 15.2692H20.4959V14.2692H3.76776V15.2692ZM3.26776 7.81017V14.7692H4.26776V7.81017H3.26776Z"
    fill="currentColor" mask="url(#path-1-outside-1_1_3)" />
  <g clip-path="url(#clip0_1_3)">
    <path
      d="M11.995 9C9.235 9 7 11.24 7 14C7 16.76 9.235 19 11.995 19C14.76 19 17 16.76 17 14C17 11.24 14.76 9 11.995 9ZM15.46 12H13.985C13.825 11.375 13.595 10.775 13.295 10.22C14.215 10.535 14.98 11.175 15.46 12ZM12 10.02C12.415 10.62 12.74 11.285 12.955 12H11.045C11.26 11.285 11.585 10.62 12 10.02ZM8.13 15C8.05 14.68 8 14.345 8 14C8 13.655 8.05 13.32 8.13 13H9.82C9.78 13.33 9.75 13.66 9.75 14C9.75 14.34 9.78 14.67 9.82 15H8.13ZM8.54 16H10.015C10.175 16.625 10.405 17.225 10.705 17.78C9.785 17.465 9.02 16.83 8.54 16ZM10.015 12H8.54C9.02 11.17 9.785 10.535 10.705 10.22C10.405 10.775 10.175 11.375 10.015 12ZM12 17.98C11.585 17.38 11.26 16.715 11.045 16H12.955C12.74 16.715 12.415 17.38 12 17.98ZM13.17 15H10.83C10.785 14.67 10.75 14.34 10.75 14C10.75 13.66 10.785 13.325 10.83 13H13.17C13.215 13.325 13.25 13.66 13.25 14C13.25 14.34 13.215 14.67 13.17 15ZM13.295 17.78C13.595 17.225 13.825 16.625 13.985 16H15.46C14.98 16.825 14.215 17.465 13.295 17.78ZM14.18 15C14.22 14.67 14.25 14.34 14.25 14C14.25 13.66 14.22 13.33 14.18 13H15.87C15.95 13.32 16 13.655 16 14C16 14.345 15.95 14.68 15.87 15H14.18Z"
      fill="currentColor" />
  </g>
  <defs>
    <clipPath id="clip0_1_3">
      <rect width="19" height="13" fill="transparent" transform="translate(1 1)" />
    </clipPath>
  </defs>
</svg>
  