<svg width="24" height="24" viewBox="0 0 24 24" fill="none" xmlns="http://www.w3.org/2000/svg">
  <path fill-rule="evenodd" clip-rule="evenodd"
    d="M9.00001 2C9.00001 1.44772 8.55229 1 8.00001 1C7.44772 1 7.00001 1.44772 7.00001 2V3H2.00001C1.44772 3 1.00001 3.44772 1.00001 4C1.00001 4.55228 1.44772 5 2.00001 5H10.2791C9.81321 6.9769 9.03022 8.79868 7.97604 10.413C7.07333 9.56589 6.32624 8.56955 5.92116 7.61081C5.70622 7.10207 5.11955 6.8639 4.61081 7.07884C4.10207 7.29379 3.86391 7.88045 4.07885 8.38919C4.63949 9.71614 5.63591 10.9944 6.77483 12.0255C5.3548 13.7039 3.59424 15.0911 1.55497 16.1045C1.0604 16.3503 0.858708 16.9505 1.10449 17.445C1.35028 17.9396 1.95046 18.1413 2.44504 17.8955C4.14504 17.0507 5.67564 15.9716 7.00565 14.6965C7.0019 14.7972 7 14.8984 7 15C7 19.4183 10.5817 23 15 23C19.4183 23 23 19.4183 23 15C23 10.5817 19.4183 7 15 7C13.7528 7 12.5722 7.28541 11.5201 7.79449C11.8544 6.89586 12.1251 5.96262 12.3283 5H14C14.5523 5 15 4.55228 15 4C15 3.44772 14.5523 3 14 3H9.00001V2ZM9 15C9 11.6863 11.6863 9 15 9C18.3137 9 21 11.6863 21 15C21 18.3137 18.3137 21 15 21C11.6863 21 9 18.3137 9 15ZM14.6536 11.5635L14.6301 11.5484L14.6301 11.5484C14.511 11.4717 14.3705 11.3814 14.2438 11.3154C14.1165 11.2491 13.8469 11.12 13.5038 11.1445C13.1132 11.1724 12.754 11.3685 12.5193 11.682C12.3132 11.9573 12.276 12.2539 12.2629 12.3969C12.2499 12.5392 12.2499 12.7062 12.25 12.8478L12.25 12.8757V17.1243L12.25 17.1522C12.2499 17.2938 12.2499 17.4608 12.2629 17.6031C12.276 17.7461 12.3132 18.0427 12.5193 18.318C12.754 18.6315 13.1132 18.8276 13.5038 18.8555C13.8469 18.88 14.1165 18.7509 14.2438 18.6846C14.3705 18.6186 14.5109 18.5283 14.63 18.4516L14.6301 18.4516L14.6536 18.4365L17.958 16.3122L17.9793 16.2986C18.0817 16.2328 18.2084 16.1514 18.3118 16.0708C18.4229 15.9841 18.6255 15.8113 18.7463 15.5254C18.8882 15.1895 18.8882 14.8105 18.7463 14.4746C18.6255 14.1887 18.4229 14.0159 18.3118 13.9292C18.2084 13.8486 18.0817 13.7672 17.9793 13.7015L17.9793 13.7014L17.958 13.6878L14.6536 11.5635ZM16.3007 15L14.25 16.3183V13.6817L16.3007 15Z"
    fill="currentColor" />
</svg>