<svg width="24" height="24" viewBox="0 0 24 24" fill="none" xmlns="http://www.w3.org/2000/svg">
  <path fill-rule="evenodd" clip-rule="evenodd"
    d="M3.05493 11H7.05009C7.2743 8.23681 8.1991 5.58442 9.72571 3.28983C6.16881 4.21597 3.46801 7.26324 3.05493 11ZM12 3.5508C10.3303 5.70194 9.30879 8.28683 9.05759 11H14.9424C14.6912 8.28683 13.6697 5.70194 12 3.5508ZM14.9424 13C14.8798 13.6762 14.7693 14.3445 14.6129 15H16.6619C16.7987 14.3423 16.8952 13.6745 16.9499 13H20.9451C20.8684 13.6935 20.713 14.3632 20.4879 15H22.5859C22.8557 14.0463 23 13.04 23 12C23 5.92487 18.0751 1 12 1C5.92487 1 1 5.92487 1 12C1 14.9231 2.14015 17.5799 4 19.5499V16.1272C3.50614 15.1719 3.17838 14.1167 3.05493 13H7.05009C7.10482 13.6745 7.20128 14.3423 7.33806 15H9.38707C9.23066 14.3445 9.1202 13.6762 9.05759 13H14.9424ZM20.9451 11H16.9499C16.7257 8.23681 15.8009 5.58442 14.2743 3.28983C17.8312 4.21597 20.532 7.26324 20.9451 11ZM23 20C23 18.8954 22.1046 18 21 18C19.8954 18 19 18.8954 19 20C19 21.1046 19.8954 22 21 22C22.1046 22 23 21.1046 23 20ZM17 20C17 18.8954 16.1046 18 15 18C13.8954 18 13 18.8954 13 20C13 21.1046 13.8954 22 15 22C16.1046 22 17 21.1046 17 20ZM11 20C11 18.8954 10.1046 18 9 18C7.89543 18 7 18.8954 7 20C7 21.1046 7.89543 22 9 22C10.1046 22 11 21.1046 11 20Z"
    fill="currentColor" />
</svg>