<svg width="24" height="24" viewBox="0 0 24 24" fill="none" xmlns="http://www.w3.org/2000/svg">
<path d="M20 0C22.2091 0 24 1.79086 24 4V20C24 22.2091 22.2091 24 20 24H4C1.79086 24 0 22.2091 0 20V4C2.57702e-07 1.79086 1.79086 0 4 0H20ZM4 2C2.89543 2 2 2.89543 2 4V20C2 21.1046 2.89543 22 4 22H20C21.1046 22 22 21.1046 22 20V4C22 2.89543 21.1046 2 20 2H4ZM7.83008 7.06055C8.7446 7.06056 9.52838 7.26088 10.1816 7.66211C10.8443 8.06344 11.349 8.64244 11.6943 9.39844C12.0488 10.1542 12.2255 11.0547 12.2256 12.0996C12.2256 13.4154 11.9553 14.4984 11.4141 15.3477C10.8727 16.1877 10.1022 16.7343 9.10352 16.9863C9.91544 17.257 10.9144 17.4109 12.0996 17.4482L11.792 18.8203C10.8773 18.7736 9.92488 18.5724 8.93555 18.2178C7.94643 17.8631 7.1809 17.4616 6.63965 17.0137C5.62256 16.771 4.83434 16.2251 4.27441 15.376C3.71441 14.5173 3.43359 13.4249 3.43359 12.0996C3.43364 11.0546 3.60694 10.1543 3.95215 9.39844C4.30676 8.64256 4.81503 8.06344 5.47754 7.66211C6.14021 7.26078 6.92474 7.06055 7.83008 7.06055ZM21.0059 17H18.9062L18.416 15.376H15.042L14.5518 17H12.4521L15.8398 7.2002H17.6182L21.0059 17ZM7.83008 8.65625C7.09276 8.65625 6.50941 8.96411 6.08008 9.58008C5.66014 10.1867 5.45025 11.0265 5.4502 12.0996C5.4502 13.1729 5.66014 14.0178 6.08008 14.6338C6.50941 15.2405 7.09274 15.5439 7.83008 15.5439C8.57669 15.5439 9.1601 15.2404 9.58008 14.6338C10.0093 14.0178 10.2236 13.1728 10.2236 12.0996C10.2236 11.0265 10.0093 10.1867 9.58008 9.58008C9.1601 8.96411 8.57669 8.65628 7.83008 8.65625ZM15.5322 13.7666H17.9258L16.7363 9.84668L15.5322 13.7666Z" fill="currentColor"/>
</svg>
