<svg width="24" height="24" viewBox="0 0 24 24" fill="none" xmlns="http://www.w3.org/2000/svg">
  <path
    d="M9.10776 5.35639C6.80736 7.93811 5.22866 11.6472 5.08207 11.9967L1 10.2492L5.56696 5.68333C6.09695 5.15346 6.86375 4.91671 7.60799 5.06327L9.10776 5.35639ZM11.3405 17.3631C11.3405 17.3631 15.5579 15.6156 17.9823 13.1917C24.0716 7.10384 23.0567 2.34626 22.7297 1.27525C21.6584 0.93703 16.8998 -0.0663443 10.8105 6.02155C8.38606 8.44543 6.63822 12.6619 6.63822 12.6619L11.3405 17.3631ZM18.6476 14.8941C16.0653 17.194 12.3554 18.7723 12.0058 18.9189L13.7536 23L18.3206 18.4341C18.8506 17.9042 19.0874 17.1376 18.9408 16.3935L18.6476 14.8941ZM8.8935 18.4905C8.8935 19.4262 8.5101 20.2717 7.90118 20.8805C6.57056 22.2108 1 23 1 23C1 23 1.78935 17.4307 3.11997 16.1004C3.59222 15.6258 4.1949 15.3022 4.85146 15.1707C5.50803 15.0392 6.18888 15.1057 6.80756 15.3618C7.42623 15.6179 7.95483 16.0521 8.32623 16.6091C8.69763 17.1662 8.89508 17.821 8.8935 18.4905ZM13.4041 8.34397C13.4041 7.10384 14.419 6.08919 15.6594 6.08919C16.8998 6.08919 17.9146 7.10384 17.9146 8.34397C17.9146 9.58409 16.8998 10.5987 15.6594 10.5987C14.419 10.5987 13.4041 9.58409 13.4041 8.34397Z"
    fill="currentColor" />
</svg>