<svg width="24" height="24" viewBox="0 0 24 24" fill="none" xmlns="http://www.w3.org/2000/svg">
  <path
    d="M8.84482 4.75242C6.3353 7.56884 4.61309 11.6151 4.45317 11.9964L0 10.0901L4.98213 5.10909C5.56031 4.53105 6.39681 4.27277 7.20872 4.43266L8.84482 4.75242ZM11.2805 17.8506C11.2805 17.8506 15.8813 15.9443 18.5262 13.3001C25.169 6.65873 24.0619 1.46865 23.7051 0.300269C22.5365 -0.0686944 17.3452 -1.16328 10.7024 5.47805C8.05752 8.12229 6.15078 12.722 6.15078 12.722L11.2805 17.8506ZM19.2519 15.1572C16.4349 17.6661 12.3877 19.388 12.0063 19.5478L13.9131 24L18.8952 19.019C19.4734 18.441 19.7317 17.6046 19.5718 16.7929L19.2519 15.1572ZM8.61109 19.0805C8.61109 20.1013 8.19284 21.0237 7.52856 21.6878C6.07697 23.1391 0 24 0 24C0 24 0.86111 17.9244 2.31269 16.4732C2.82788 15.9554 3.48534 15.6024 4.2016 15.4589C4.91785 15.3155 5.6606 15.388 6.33551 15.6674C7.01043 15.9468 7.58709 16.4204 7.99225 17.0281C8.39741 17.6358 8.61281 18.3502 8.61109 19.0805ZM13.5317 8.0116C13.5317 6.65873 14.6389 5.55184 15.992 5.55184C17.3452 5.55184 18.4523 6.65873 18.4523 8.0116C18.4523 9.36446 17.3452 10.4714 15.992 10.4714C14.6389 10.4714 13.5317 9.36446 13.5317 8.0116Z"
    fill="currentColor" />
</svg>
  