<svg width="160" height="192" viewBox="0 0 160 192" fill="none" xmlns="http://www.w3.org/2000/svg">
    <path d="M1.5957 55.1442L1.57324 43.6676L1.56543 42.9733C1.53494 41.3542 1.43273 39.733 1.56543 38.0797C1.70512 36.3395 2.09351 34.9765 2.87109 34.0631L3.03223 33.8864C4.05951 32.8309 5.23846 32.8597 7.46582 32.8268H7.47852C10.6785 32.752 14.1943 32.8247 17.4814 32.8248H97.627L135.545 32.8239H135.547L147.278 32.8082H147.28C149.756 32.8026 152.147 32.7482 154.51 32.8844C156.691 33.0102 158.155 35.1042 158.201 37.7545V37.7555C158.234 39.5505 158.245 41.3376 158.248 43.1276L158.249 48.5172L158.25 68.2682V68.2692L158.264 119.935L158.188 163.464V163.467L158.186 178.184V180.593C158.195 182.123 158.246 183.447 158.199 184.703C158.153 185.944 158.013 186.933 157.712 187.713C157.428 188.449 157 189.003 156.311 189.412C155.587 189.841 154.466 190.175 152.7 190.243L52.6045 190.247H52.6035L21.3037 190.258L11.5342 190.259C9.93198 190.259 8.27038 190.389 6.55859 190.257C4.95857 190.135 3.77829 189.797 3.06152 189.194L2.92383 189.07L2.7627 188.9C1.98227 188.021 1.60935 186.662 1.60059 185.188C1.57699 181.228 1.59449 177.261 1.60254 173.285V173.282L1.60059 154.002L1.59668 91.3746V55.1471L1.5957 55.1442Z"
          stroke="currentColor" stroke-width="3"/>
    <path d="M13.0396 41.9019C21.0283 41.6795 29.8123 41.8677 37.9312 41.8677L85.6108 41.8696L126.376 41.8706H126.377L139.596 41.8618H139.597C141.942 41.8592 144.273 41.8422 146.589 41.8755H146.59C147.058 41.8822 147.329 41.9123 147.545 41.9693C147.742 42.0208 147.957 42.1114 148.264 42.3237V42.3247C148.905 42.7681 149.335 43.4433 149.387 43.9966C149.526 45.4837 149.472 47.1864 149.468 48.8569V48.8609L149.467 57.52L149.454 90.6421L149.446 149.958V149.959L149.457 168.409V168.41C149.46 170.852 149.472 173.283 149.47 175.711L149.462 178.14C149.456 179.291 149.234 180.025 148.907 180.479C148.619 180.878 148.119 181.24 147.095 181.383C145.657 181.487 143.26 181.409 141.611 181.408H141.61L130.868 181.407L97.1089 181.41L41.1626 181.407L22.9487 181.41C19.6476 181.411 16.3515 181.422 13.064 181.4H13.0649C12.1059 181.393 11.8587 181.353 11.5376 181.104L11.5317 181.098L11.5249 181.093L11.311 180.915C10.8381 180.477 10.5267 179.887 10.4351 179.242C10.3718 178.755 10.3492 177.903 10.3472 176.928C10.3462 176.454 10.3499 175.974 10.354 175.524C10.3581 175.079 10.3629 174.656 10.3628 174.313L10.3638 164.607L10.3716 132.542L10.3501 74.6021L10.3638 55.8491V55.8452C10.3568 52.2258 10.3187 48.6332 10.3569 45.0425C10.3686 43.9424 10.6472 43.2574 11.0229 42.8257C11.388 42.4064 11.9988 42.0507 13.0396 41.9019Z"
          stroke="currentColor" stroke-width="3"/>
    <path d="M79.9526 54.472C80.5053 54.9149 81.2264 55.5068 81.979 56.1263C83.4392 57.3284 85.1036 58.7062 85.6997 59.1234L85.7007 59.1244C96.4778 66.663 106.65 69.1453 119.104 70.6244C120.512 83.9127 119.644 97.596 115.17 110.137C114.489 112.046 113.974 113.709 113.241 115.397L113.238 115.402C107.501 128.758 97.5913 139.895 84.9937 147.148C83.3404 148.082 81.5286 149.143 79.9233 149.829C79.8438 149.799 79.7516 149.762 79.646 149.716C79.3226 149.577 78.9491 149.396 78.5562 149.193C78.1655 148.991 77.7721 148.777 77.4067 148.577C77.0507 148.382 76.704 148.19 76.4399 148.052C52.9303 135.727 40.2822 110.409 40.0894 84.2494C40.0562 79.7476 40.2359 75.1444 40.6284 70.5922C41.1981 70.5261 41.7812 70.4671 42.3804 70.4066C43.3848 70.3053 44.4341 70.1997 45.4751 70.0472C56.1386 68.4853 65.4328 65.3652 74.3169 58.9515C76.3927 57.4529 78.1259 55.8949 79.8931 54.4252C79.9125 54.4407 79.9326 54.456 79.9526 54.472Z"
          stroke="currentColor" stroke-width="3"/>
    <path d="M79.9092 62.9661C80.3148 63.2198 80.7982 63.552 81.3047 63.9124C82.0168 64.4192 82.8397 65.0311 83.4297 65.4573L83.9297 65.8109C90.8912 70.5475 98.909 73.7396 107.085 75.4603H107.086C108.282 75.7118 109.485 75.9152 110.65 76.1146C111.461 76.2532 112.255 76.3907 113.037 76.5423C113.168 78.0827 113.144 79.748 113.167 81.4173C113.462 102.941 105.296 124.975 87.5293 137.644C85.0337 139.424 82.5268 141.129 79.876 142.402C79.8305 142.384 79.7809 142.366 79.7285 142.344C79.4605 142.232 79.1488 142.077 78.8154 141.898C78.1461 141.538 77.4822 141.126 77.0244 140.847L77.0176 140.843L75.8691 140.135C70.1709 136.534 65.1012 132.017 60.8643 126.765L60.8633 126.764L60.3525 126.122C49.7362 112.57 45.6924 93.8447 46.6602 76.7806C46.6678 76.6455 46.6852 76.5686 46.6973 76.5316C46.7075 76.5263 46.7218 76.5183 46.7422 76.5101C46.8574 76.4634 47.0463 76.4164 47.377 76.3685C47.5368 76.3453 47.7055 76.3251 47.9023 76.3011C48.0927 76.2779 48.3062 76.2516 48.5254 76.2191C60.4427 74.4527 70.3881 70.1095 79.8164 62.9095C79.8464 62.9279 79.8775 62.9463 79.9092 62.9661Z"
          stroke="currentColor" stroke-width="3"/>
    <path d="M79.8999 82.9871H79.9028C82.354 82.9602 84.7129 83.9301 86.4351 85.6746L86.439 85.6785C89.6059 88.8597 89.3797 91.7247 89.353 96.5652L89.3452 97.8992L90.6694 98.0623C91.7445 98.1945 92.2215 98.5735 92.4897 98.9734C92.7684 99.3888 92.9524 100.021 93.0005 100.948L93.0122 101.364L93.022 111.356C93.0208 112.944 93.2293 114.741 92.98 116.432C92.8613 117.237 92.6559 117.808 92.395 118.169C92.1778 118.469 91.8889 118.677 91.354 118.733C88.2006 119.061 84.6447 118.888 81.2251 118.882H81.2192L73.0083 118.897C71.9937 118.899 71.0553 118.967 69.9888 118.923C69.0664 118.884 68.3896 118.761 67.9604 118.565L67.7915 118.476C67.6784 118.407 67.4205 118.185 67.1812 117.864C67.0696 117.714 66.9872 117.576 66.936 117.466C66.8893 117.364 66.8872 117.326 66.8892 117.344C66.6932 113.655 66.8218 110.066 66.811 106.287L66.7964 104.652C66.7955 104.237 66.7835 103.804 66.7729 103.387C66.762 102.956 66.7522 102.536 66.7534 102.121C66.7558 101.281 66.8049 100.545 66.9517 99.9294C67.0965 99.3227 67.3147 98.9273 67.5884 98.6687C67.8467 98.4247 68.2853 98.1783 69.1187 98.1091L70.5601 97.99L70.4927 96.5447C70.3074 92.5702 70.3571 89.4051 72.5015 86.6726C74.2458 84.4499 76.1917 83.4369 79.0249 83.0339C79.3154 83.005 79.6081 82.9897 79.8999 82.9871Z"
          stroke="currentColor" stroke-width="3"/>
    <path d="M79.647 87.1269C82.8005 87.0996 85.1286 89.6506 85.1733 92.9013C85.1905 94.1466 85.1959 95.3853 85.1978 96.6288C83.8608 96.6963 82.38 96.6671 80.9868 96.6659H80.9819C80.0174 96.6686 78.5033 96.6967 76.9556 96.6903C76.0472 96.6866 75.2011 96.6696 74.521 96.6357C74.4345 94.5305 74.4958 92.5246 75.0278 90.873C75.3378 89.9108 75.7928 89.12 76.4331 88.5087C77.0534 87.9165 77.9175 87.4278 79.1626 87.1483C79.3238 87.1371 79.485 87.1293 79.647 87.1269Z"
          stroke="currentColor" stroke-width="3"/>
    <path d="M78.9685 102.801C80.0204 102.704 80.8726 102.759 81.8016 103.33C82.5888 103.809 83.1372 104.598 83.3109 105.503C83.5721 106.854 83.0462 107.731 82.3677 108.791C82.8523 111.015 83.0048 111.909 83.0403 114.175C82.2318 114.329 81.9032 114.341 81.0771 114.363C79.7379 114.377 78.03 114.412 76.728 114.237C76.751 112.513 77.114 110.406 77.4355 108.694C75.7699 106.286 76.1549 103.964 78.9685 102.801Z"
          fill="currentColor"/>
    <path d="M137.751 49.8615C140.112 49.8354 142.059 51.6716 142.198 54.0022L142.206 54.2297C142.228 56.6671 140.267 58.6593 137.828 58.675C135.399 58.6905 133.415 56.7363 133.394 54.3069L133.397 54.0803C133.494 51.7554 135.397 49.8879 137.751 49.8615Z"
          stroke="currentColor" stroke-width="3"/>
    <path d="M126.724 168.684C127.541 168.663 128.31 169.055 128.773 169.721L128.862 169.857C129.283 170.557 129.321 171.42 128.97 172.151L128.895 172.296C128.466 173.053 127.661 173.523 126.788 173.523L126.543 173.512C125.334 173.389 124.386 172.376 124.369 171.136C124.352 169.813 125.401 168.72 126.724 168.684Z"
          stroke="currentColor" stroke-width="3"/>
    <path d="M138.316 168.743C139.62 168.509 140.87 169.372 141.114 170.676V170.677C141.356 171.982 140.5 173.237 139.198 173.488C137.883 173.741 136.613 172.876 136.368 171.559C136.123 170.243 136.997 168.979 138.316 168.743Z"
          stroke="currentColor" stroke-width="3"/>
    <path d="M114.389 168.771C115.611 168.529 116.798 169.263 117.146 170.431L117.205 170.67C117.436 171.895 116.693 173.074 115.523 173.413L115.284 173.47C113.99 173.706 112.75 172.856 112.504 171.565C112.259 170.274 113.101 169.025 114.389 168.771Z"
          stroke="currentColor" stroke-width="3"/>
    <path d="M119.096 1.52246C123.242 1.51602 127.285 1.4405 131.354 1.6084C132.481 1.65493 133.219 1.88925 133.862 2.26758C134.552 2.67308 135.216 3.28953 136.149 4.27148C137.24 5.4178 138.23 6.62201 139.336 7.88867V7.88965L145.161 14.5859C147.912 17.749 151.051 21.1242 153.792 24.373C151.855 24.3669 149.885 24.3962 148.099 24.3955L131.7 24.3926L44.332 24.3955L17.0527 24.3896H17.0537L8.55469 24.3857H8.55371C7.83569 24.3856 7.03005 24.3785 6.2002 24.3799C6.31539 24.2469 6.43045 24.113 6.5459 23.9795L6.54492 23.9785L16.8691 12.2539L16.8721 12.249C19.7245 8.98437 23.1047 4.70372 26.1484 2.29004C26.4813 2.02605 26.9838 1.82726 27.6709 1.70117C28.3517 1.57626 29.0842 1.54384 29.8154 1.52148L96.6074 1.5293L119.094 1.52246H119.096Z"
          stroke="currentColor" stroke-width="3"/>
</svg>
