<svg width="24" height="24" viewBox="0 0 24 24" fill="none" xmlns="http://www.w3.org/2000/svg">
  <g clip-path="url(#clip0_1523_769)">
    <path
      d="M5.11029 15.1348C5.11029 16.5092 3.98942 17.6318 2.61485 17.6318C1.24048 17.6318 0.118103 16.5092 0.118103 15.1348C0.118103 13.7604 1.24067 12.6379 2.61504 12.6379H5.11048L5.11029 15.1348ZM6.36823 15.1348C6.36823 13.7604 7.49079 12.6379 8.86516 12.6379C10.2395 12.6379 11.3621 13.7603 11.3621 15.1348V21.3851C11.3621 22.7595 10.2397 23.8821 8.86516 23.8821C7.49079 23.8821 6.36823 22.7595 6.36823 21.3851V15.1348Z"
      fill="currentColor" />
    <path
      d="M8.86516 5.11031C7.49079 5.11031 6.36823 3.98943 6.36823 2.61487C6.36823 1.24049 7.49079 0.118118 8.86516 0.118118C10.2395 0.118118 11.3621 1.24068 11.3621 2.61506V5.11049L8.86516 5.11031ZM8.86516 6.36824C10.2395 6.36824 11.3621 7.49081 11.3621 8.86518C11.3621 10.2396 10.2397 11.3621 8.86516 11.3621H2.61485C1.24048 11.3621 0.118103 10.2397 0.118103 8.86518C0.118103 7.49081 1.24067 6.36824 2.61504 6.36824H8.86516Z"
      fill="currentColor" />
    <path
      d="M18.8897 8.86518C18.8897 7.49081 20.0106 6.36824 21.3851 6.36824C22.7595 6.36824 23.8821 7.49081 23.8821 8.86518C23.8821 10.2396 22.7595 11.3621 21.3851 11.3621H18.8897V8.86518ZM17.6318 8.86518C17.6318 10.2396 16.5092 11.3621 15.1348 11.3621C13.7604 11.3621 12.6379 10.2397 12.6379 8.86518V2.61487C12.6379 1.24049 13.7603 0.118118 15.1348 0.118118C16.5092 0.118118 17.6318 1.24068 17.6318 2.61506V8.86518Z"
      fill="currentColor" />
    <path
      d="M15.1348 18.8897C16.5092 18.8897 17.6318 20.0106 17.6318 21.3851C17.6318 22.7595 16.5092 23.8821 15.1348 23.8821C13.7604 23.8821 12.6379 22.7595 12.6379 21.3851V18.8897H15.1348ZM15.1348 17.6318C13.7604 17.6318 12.6379 16.5092 12.6379 15.1348C12.6379 13.7604 13.7603 12.6379 15.1348 12.6379H21.3851C22.7595 12.6379 23.8821 13.7603 23.8821 15.1348C23.8821 16.5092 22.7595 17.6318 21.3851 17.6318H15.1348Z"
      fill="currentColor" />
  </g>
  <defs>
    <clipPath id="clip0_1523_769">
      <rect width="24" height="24" fill="currentColor" />
    </clipPath>
  </defs>
</svg>
  