<svg width="24" height="24" viewBox="0 0 24 24" fill="none" xmlns="http://www.w3.org/2000/svg">
<path fill-rule="evenodd" clip-rule="evenodd" d="M3 4C2.44772 4 2 4.44772 2 5C2 5.55228 2.44772 6 3 6H18C18.5523 6 19 5.55228 19 5C19 4.44772 18.5523 4 18 4H3ZM3 10C2.44772 10 2 10.4477 2 11C2 11.5523 2.44772 12 3 12H10C10.5523 12 11 11.5523 11 11C11 10.4477 10.5523 10 10 10H3ZM3 16C2.44772 16 2 16.4477 2 17C2 17.5523 2.44772 18 3 18H7C7.55228 18 8 17.5523 8 17C8 16.4477 7.55228 16 7 16H3ZM13.7071 13.2929L16 15.5858V9C16 8.44772 16.4477 8 17 8C17.5523 8 18 8.44772 18 9V15.5858L20.2929 13.2929C20.6834 12.9024 21.3166 12.9024 21.7071 13.2929C22.0976 13.6834 22.0976 14.3166 21.7071 14.7071L17.7071 18.7071C17.3166 19.0976 16.6834 19.0976 16.2929 18.7071L12.2929 14.7071C11.9024 14.3166 11.9024 13.6834 12.2929 13.2929C12.6834 12.9024 13.3166 12.9024 13.7071 13.2929Z" fill="currentColor"/>
</svg>
