<svg width="24" height="24" viewBox="0 0 24 24" fill="none" xmlns="http://www.w3.org/2000/svg">
  <path fill-rule="evenodd" clip-rule="evenodd"
    d="M15 1C15.4138 1 15.7848 1.25483 15.9333 1.64102L17.112 4.70544C17.4124 5.48648 17.5068 5.71155 17.6359 5.89315C17.7655 6.07535 17.9246 6.23455 18.1069 6.36411C18.2884 6.49323 18.5135 6.58763 19.2946 6.88803L22.359 8.06665C22.7452 8.21519 23 8.58623 23 9C23 9.41377 22.7452 9.78481 22.359 9.93335L19.2946 11.112C18.5135 11.4124 18.2884 11.5068 18.1069 11.6359C17.9246 11.7654 17.7655 11.9246 17.6359 12.1069C17.5068 12.2884 17.4124 12.5135 17.112 13.2946L15.9333 16.359C15.7848 16.7452 15.4138 17 15 17C14.5862 17 14.2152 16.7452 14.0667 16.359L12.888 13.2946C12.5876 12.5135 12.4932 12.2884 12.3641 12.1069C12.2345 11.9246 12.0754 11.7654 11.8931 11.6359C11.7116 11.5068 11.4865 11.4124 10.7054 11.112L7.64102 9.93335C7.25483 9.78481 7 9.41377 7 9C7 8.58623 7.25483 8.21519 7.64102 8.06665L10.7054 6.88803C11.4865 6.58763 11.7116 6.49323 11.8931 6.36411C12.0754 6.23455 12.2345 6.07535 12.3641 5.89315C12.4932 5.71155 12.5876 5.48648 12.888 4.70544L14.0667 1.64102C14.2152 1.25483 14.5862 1 15 1ZM15 4.78568L14.7547 5.4234C14.7415 5.45787 14.7284 5.49189 14.7155 5.52548C14.4719 6.15974 14.2879 6.63886 13.9941 7.05214C13.7349 7.41655 13.4166 7.73494 13.0521 7.99406C12.6389 8.28793 12.1597 8.47192 11.5255 8.7155C11.4919 8.7284 11.4579 8.74147 11.4234 8.75472L10.7857 9L11.4234 9.24528C11.4579 9.25854 11.4919 9.2716 11.5255 9.2845C12.1597 9.52808 12.6389 9.71207 13.0521 10.0059C13.4166 10.2651 13.7349 10.5834 13.9941 10.9479C14.2879 11.3611 14.4719 11.8403 14.7155 12.4745C14.7284 12.5081 14.7415 12.5421 14.7547 12.5766L15 13.2143L15.2453 12.5766C15.2585 12.5421 15.2716 12.5081 15.2845 12.4745C15.5281 11.8403 15.7121 11.3611 16.0059 10.9479C16.2651 10.5834 16.5834 10.2651 16.9479 10.0059C17.3611 9.71207 17.8403 9.52808 18.4745 9.2845C18.5081 9.2716 18.5421 9.25854 18.5766 9.24528L19.2143 9L18.5766 8.75472C18.5421 8.74146 18.5081 8.7284 18.4745 8.7155C17.8403 8.47192 17.3611 8.28793 16.9479 7.99406C16.5834 7.73494 16.2651 7.41655 16.0059 7.05214C15.7121 6.63886 15.5281 6.15974 15.2845 5.52548C15.2716 5.49189 15.2585 5.45787 15.2453 5.4234L15 4.78568ZM6.5 12C6.87877 12 7.22503 12.214 7.39443 12.5528L8.17889 14.1217C8.46137 14.6867 8.54745 14.8493 8.65204 14.9849C8.75695 15.121 8.87896 15.2431 9.01506 15.348C9.15075 15.4525 9.31333 15.5386 9.8783 15.8211L11.4472 16.6056C11.786 16.775 12 17.1212 12 17.5C12 17.8788 11.786 18.225 11.4472 18.3944L9.8783 19.1789C9.31333 19.4614 9.15075 19.5475 9.01506 19.652C8.87896 19.757 8.75695 19.879 8.65204 20.0151C8.54745 20.1507 8.46137 20.3133 8.17889 20.8783L7.39443 22.4472C7.22504 22.786 6.87877 23 6.5 23C6.12123 23 5.77497 22.786 5.60557 22.4472L4.82111 20.8783C4.53863 20.3133 4.45255 20.1507 4.34796 20.0151C4.24305 19.879 4.12104 19.757 3.98494 19.652C3.84925 19.5475 3.68667 19.4614 3.1217 19.1789L1.55279 18.3944C1.214 18.225 1 17.8788 1 17.5C1 17.1212 1.214 16.775 1.55279 16.6056L3.1217 15.8211C3.68667 15.5386 3.84925 15.4526 3.98494 15.348C4.12104 15.2431 4.24305 15.121 4.34796 14.9849C4.45255 14.8493 4.53863 14.6867 4.82111 14.1217L5.60557 12.5528C5.77496 12.214 6.12123 12 6.5 12ZM6.5 15.236C6.30478 15.6251 6.14371 15.9313 5.93198 16.206C5.72217 16.4781 5.47815 16.7222 5.20595 16.932C4.93128 17.1437 4.62509 17.3048 4.23604 17.5C4.62509 17.6952 4.93128 17.8563 5.20595 18.068C5.47814 18.2778 5.72217 18.5219 5.93198 18.794C6.14371 19.0687 6.30478 19.3749 6.5 19.764C6.69522 19.3749 6.85629 19.0687 7.06802 18.794C7.27784 18.5219 7.52186 18.2778 7.79405 18.068C8.06872 17.8563 8.37491 17.6952 8.76396 17.5C8.37491 17.3048 8.06872 17.1437 7.79405 16.932C7.52185 16.7222 7.27783 16.4781 7.06802 16.206C6.85629 15.9313 6.69522 15.6251 6.5 15.236Z"
    fill="currentColor" />
</svg>