<svg width="24" height="24" viewBox="0 0 24 24" fill="none" xmlns="http://www.w3.org/2000/svg">
  <path fill-rule="evenodd" clip-rule="evenodd"
    d="M2 4C2 3.44772 2.44772 3 3 3H20C20.5523 3 21 3.44772 21 4C21 4.55228 20.5523 5 20 5H3C2.44772 5 2 4.55228 2 4ZM2 9C2 8.44772 2.44772 8 3 8H10C10.5523 8 11 8.44772 11 9C11 9.55228 10.5523 10 10 10H3C2.44772 10 2 9.55228 2 9ZM15.1643 9C14.5932 9 14.0756 9.33635 13.8437 9.85826L12.0585 13.875H11.0833C9.93274 13.875 9 14.8077 9 15.9583V19.75C9 20.9006 9.93274 21.8333 11.0833 21.8333H18.3559C19.6515 21.8333 20.7533 20.888 20.9504 19.6075L21.5337 15.8158C21.7783 14.2257 20.548 12.7917 18.9392 12.7917H17.5V11.3357C17.5 10.0457 16.4543 9 15.1643 9ZM13.7651 14.9595L15.4524 11.1632C15.4826 11.2136 15.5 11.2726 15.5 11.3357V13.25C15.5 14.1014 16.1902 14.7917 17.0417 14.7917H18.9392C19.3223 14.7917 19.6152 15.1331 19.5569 15.5117L18.9736 19.3034C18.9267 19.6083 18.6644 19.8333 18.3559 19.8333H11.0833C11.0373 19.8333 11 19.796 11 19.75V15.9583C11 15.9123 11.0373 15.875 11.0833 15.875H12.3563C12.9656 15.875 13.5177 15.5162 13.7651 14.9595Z"
    fill="currentColor" />
</svg>