<svg width="25" height="24" viewBox="0 0 25 24" fill="none" xmlns="http://www.w3.org/2000/svg">
  <path fill-rule="evenodd" clip-rule="evenodd"
    d="M23.4483 1.68277C23.6236 2.20648 23.3412 2.77318 22.8175 2.94853L20.5761 3.69902C20.1583 3.83817 19.8019 4.1181 19.5676 4.49094C19.3334 4.86379 19.2359 5.30642 19.2919 5.74316L19.2934 5.75476C19.4616 7.20086 18.3361 8.50027 16.85 8.50027H16.47C16.0782 8.50027 15.7603 8.77066 15.6924 9.12738L15.691 9.13461L15.481 10.1946C15.3736 10.7364 14.8474 11.0885 14.3057 10.9812C13.7639 10.8739 13.4118 10.3477 13.5191 9.80594L13.7284 8.7492C13.9821 7.42803 15.1432 6.50027 16.47 6.50027H16.85C17.1227 6.50027 17.3366 6.26191 17.3071 5.98958C17.1944 5.09564 17.3947 4.19015 17.8741 3.42705C18.3547 2.66192 19.0861 2.08745 19.9433 1.80174L22.1825 1.05201C22.7062 0.876663 23.2729 1.15906 23.4483 1.68277ZM11.1267 1.07258C11.639 0.866387 12.2215 1.11458 12.4277 1.62693L12.76 2.45261C13.3338 3.9039 12.4241 5.516 10.8932 5.78516C10.8826 5.78702 10.8721 5.78871 10.8614 5.79022C10.6726 5.8172 10.5 5.99899 10.5 6.23027V7.00027C10.5 7.55256 10.0523 8.00027 9.50003 8.00027C8.94774 8.00027 8.50003 7.55256 8.50003 7.00027V6.23027C8.50003 5.04883 9.35686 3.9963 10.5564 3.8136C10.839 3.75787 11.0043 3.45524 10.9009 3.19001L10.5723 2.37361C10.3661 1.86126 10.6143 1.27877 11.1267 1.07258ZM14.5 2.00027C14.5 1.44799 14.9477 1.00027 15.5 1.00027H15.51C16.0623 1.00027 16.51 1.44799 16.51 2.00027C16.51 2.55256 16.0623 3.00027 15.51 3.00027H15.5C14.9477 3.00027 14.5 2.55256 14.5 2.00027ZM21.5 8.00027C21.5 7.44799 21.9477 7.00027 22.5 7.00027H22.51C23.0623 7.00027 23.51 7.44799 23.51 8.00027C23.51 8.55256 23.0623 9.00027 22.51 9.00027H22.5C21.9477 9.00027 21.5 8.55256 21.5 8.00027ZM4.14489 20.3568L7.21623 11.7085C7.24074 11.7009 7.28714 11.6917 7.36613 11.6912C7.55229 11.69 7.83793 11.7423 8.21567 11.8936C8.96755 12.1947 9.90005 12.8145 10.7929 13.7074C11.6857 14.6002 12.3055 15.5327 12.6067 16.2846C12.7467 16.634 12.8018 16.9046 12.8084 17.0905L12.8016 17.0879C12.7609 17.0717 12.7004 17.0475 12.6246 17.0162C12.4727 16.9534 12.2606 16.8627 12.0221 16.7523C11.5315 16.5252 10.9815 16.2382 10.6029 15.9566C10.2243 15.675 9.79117 15.2308 9.4325 14.8262C9.25817 14.6296 9.11039 14.4526 9.00651 14.3251C8.95469 14.2615 8.91409 14.2106 8.88691 14.1762L8.85655 14.1376L8.84948 14.1285L8.84802 14.1266C8.54867 13.7381 7.98893 13.6708 7.59778 13.9765C7.20655 14.2823 7.1326 14.8461 7.4319 15.2348L7.43285 15.236L7.43586 15.2399L7.44622 15.2533L7.48367 15.301C7.51579 15.3416 7.56192 15.3994 7.61983 15.4705C7.73544 15.6123 7.89918 15.8085 8.09304 16.0272C8.47075 16.4532 9.00063 17.0082 9.52867 17.4009C9.85642 17.6447 10.2442 17.8711 10.6149 18.0651L4.14489 20.3568ZM8.13972 14.6804L7.4319 15.2348C7.43185 15.2347 7.43133 15.2341 8.13972 14.6804ZM13.5339 19.1529C13.6823 19.1003 13.8106 19.0163 13.9139 18.9109C14.0202 18.8626 14.1197 18.7948 14.2071 18.7074C14.6538 18.2607 14.8058 17.6801 14.809 17.1464C14.8123 16.6188 14.6745 16.0682 14.4633 15.5409C14.0395 14.4828 13.2443 13.3303 12.2071 12.2932C11.17 11.256 10.0175 10.4608 8.95933 10.037C8.43207 9.82577 7.88146 9.68798 7.35387 9.69122C6.82014 9.69449 6.23961 9.84644 5.79289 10.2932C5.70051 10.3855 5.62998 10.4915 5.5813 10.6046C5.48459 10.7044 5.40724 10.8261 5.35769 10.9656L1.55769 21.6656C1.42863 22.029 1.52004 22.4343 1.79263 22.7071C2.06521 22.9799 2.47038 23.0716 2.83391 22.9429L13.5339 19.1529ZM18.7151 13.6071C18.9843 12.0762 20.5964 11.1665 22.0477 11.7403L22.0534 11.7426L22.8734 12.0726C23.3857 12.2788 23.6339 12.8613 23.4277 13.3736C23.2215 13.886 22.639 14.1342 22.1267 13.928L21.3124 13.6002L21.3103 13.5994C21.0438 13.4955 20.7395 13.6629 20.6859 13.948C20.4939 15.1302 19.466 16.0003 18.27 16.0003H17.5C16.9477 16.0003 16.5 15.5526 16.5 15.0003C16.5 14.448 16.9477 14.0003 17.5 14.0003H18.27C18.4899 14.0003 18.6789 13.8365 18.7122 13.625L18.7151 13.6071Z"
    fill="currentColor" />
</svg>
  