<svg width="24" height="24" viewBox="0 0 24 24" fill="none" xmlns="http://www.w3.org/2000/svg">
  <path fill-rule="evenodd" clip-rule="evenodd"
    d="M9.6001 1.00001L9.5682 1L9.56819 1C9.31581 0.999973 9.07002 0.999943 8.86187 1.01695C8.63327 1.03563 8.36354 1.07969 8.09212 1.21799C7.71579 1.40974 7.40983 1.7157 7.21808 2.09202C7.07979 2.36345 7.03572 2.63318 7.01704 2.86178C7.01321 2.90871 7.01024 2.95756 7.00794 3.00796C6.61277 3.02072 6.27434 3.05337 5.96482 3.1363C4.58445 3.50617 3.50626 4.58436 3.13639 5.96473C2.9993 6.47638 2.99962 7.06704 3.00005 7.86242L3.0001 8.00001L3.0001 17.2413C3.00008 18.0463 3.00007 18.7106 3.04429 19.2518C3.09022 19.8139 3.18878 20.3306 3.43607 20.816C3.81956 21.5686 4.43149 22.1805 5.18413 22.564C5.66947 22.8113 6.18617 22.9099 6.74827 22.9558C7.28946 23 7.95381 23 8.75877 23H15.2414C16.0464 23 16.7107 23 17.2519 22.9558C17.814 22.9099 18.3307 22.8113 18.8161 22.564C19.5687 22.1805 20.1806 21.5686 20.5641 20.816C20.8114 20.3306 20.91 19.8139 20.9559 19.2518C21.0001 18.7106 21.0001 18.0463 21.0001 17.2413V8.00001L21.0001 7.86243C21.0006 7.06704 21.0009 6.47638 20.8638 5.96473C20.4939 4.58436 19.4157 3.50617 18.0354 3.1363C17.7259 3.05337 17.3874 3.02072 16.9923 3.00797C16.99 2.95756 16.987 2.90871 16.9832 2.86178C16.9645 2.63318 16.9204 2.36345 16.7821 2.09202C16.5904 1.7157 16.2844 1.40974 15.9081 1.21799C15.6367 1.07969 15.3669 1.03563 15.1383 1.01695C14.9302 0.999943 14.6844 0.999973 14.432 1L14.432 1L9.6001 1.00001ZM6.48246 5.06815C6.60258 5.03597 6.74568 5.01867 7.00877 5.00956C7.01094 5.05378 7.01365 5.09676 7.01704 5.13824C7.03572 5.36683 7.07979 5.63656 7.21808 5.90799C7.40983 6.28431 7.71579 6.59027 8.09212 6.78202C8.36354 6.92032 8.63327 6.96438 8.86187 6.98306C9.07002 7.00007 9.31582 7.00004 9.5682 7.00001L9.6001 7.00001L14.432 7.00001C14.6844 7.00004 14.9302 7.00007 15.1383 6.98306C15.3669 6.96438 15.6367 6.92032 15.9081 6.78202C16.2844 6.59027 16.5904 6.28431 16.7821 5.90799C16.9204 5.63656 16.9645 5.36683 16.9832 5.13824C16.9865 5.09676 16.9893 5.05378 16.9914 5.00956C17.2545 5.01867 17.3976 5.03597 17.5177 5.06815C18.2079 5.25309 18.747 5.79218 18.9319 6.48237C18.9915 6.70465 19.0001 7.00565 19.0001 8.00001V17.2C19.0001 18.0566 18.9993 18.6389 18.9625 19.089C18.9267 19.5274 18.8618 19.7516 18.7821 19.908C18.5904 20.2843 18.2844 20.5903 17.9081 20.782C17.7517 20.8617 17.5275 20.9266 17.0891 20.9625C16.639 20.9992 16.0567 21 15.2001 21H8.8001C7.94352 21 7.36122 20.9992 6.91113 20.9625C6.47272 20.9266 6.24852 20.8617 6.09212 20.782C5.71579 20.5903 5.40983 20.2843 5.21808 19.908C5.13839 19.7516 5.07347 19.5274 5.03765 19.089C5.00087 18.6389 5.0001 18.0566 5.0001 17.2V8.00001C5.0001 7.00565 5.00869 6.70465 5.06824 6.48237C5.25318 5.79218 5.79227 5.25309 6.48246 5.06815ZM14.9898 3.02464C14.9993 3.14122 15.0001 3.30348 15.0001 3.60001V4.40001C15.0001 4.69653 14.9993 4.85879 14.9898 4.97537L14.9886 4.98856L14.9755 4.9897C14.8589 4.99923 14.6966 5.00001 14.4001 5.00001H9.6001C9.30357 5.00001 9.14131 4.99923 9.02473 4.9897L9.01154 4.98856L9.0104 4.97537C9.00087 4.85879 9.0001 4.69653 9.0001 4.40001V3.60001C9.0001 3.30348 9.00087 3.14122 9.0104 3.02464L9.01154 3.01145L9.02473 3.01031C9.14132 3.00078 9.30357 3.00001 9.6001 3.00001H14.4001C14.6966 3.00001 14.8589 3.00078 14.9755 3.01031L14.9886 3.01145L14.9898 3.02464ZM12.0001 9C11.4478 9 11.0001 9.44772 11.0001 10C11.0001 10.5523 11.4478 11 12.0001 11H12.0101C12.5624 11 13.0101 10.5523 13.0101 10C13.0101 9.44772 12.5624 9 12.0101 9H12.0001ZM13.0001 14C13.0001 13.4477 12.5524 13 12.0001 13C11.4478 13 11.0001 13.4477 11.0001 14V17C11.0001 17.5523 11.4478 18 12.0001 18C12.5524 18 13.0001 17.5523 13.0001 17V14Z"
    fill="currentColor" />
</svg>
  