<svg width="24" height="24" viewBox="0 0 24 24" fill="none" xmlns="http://www.w3.org/2000/svg">
  <path fill-rule="evenodd" clip-rule="evenodd"
    d="M9.59997 1.00001L9.56808 1L9.56806 1C9.31569 0.999973 9.0699 0.999943 8.86174 1.01695C8.63315 1.03563 8.36342 1.07969 8.09199 1.21799C7.71567 1.40974 7.40971 1.7157 7.21796 2.09202C7.07966 2.36345 7.0356 2.63318 7.01692 2.86178C7.01308 2.90871 7.01012 2.95756 7.00782 3.00796C6.61264 3.02072 6.27421 3.05337 5.9647 3.1363C4.58433 3.50617 3.50614 4.58436 3.13627 5.96473C2.99917 6.47638 2.99949 7.06704 2.99993 7.86242L2.99997 8.00001L2.99997 17.2413C2.99996 18.0463 2.99995 18.7106 3.04417 19.2518C3.09009 19.8139 3.18866 20.3306 3.43595 20.816C3.81944 21.5686 4.43136 22.1805 5.18401 22.564C5.66935 22.8113 6.18605 22.9099 6.74815 22.9558C7.28934 23 7.95369 23 8.75865 23H15.2413C16.0463 23 16.7106 23 17.2518 22.9558C17.8139 22.9099 18.3306 22.8113 18.8159 22.564C19.5686 22.1805 20.1805 21.5686 20.564 20.816C20.8113 20.3306 20.9099 19.8139 20.9558 19.2518C21 18.7106 21 18.0463 21 17.2413V8.00001L21 7.86243C21.0005 7.06704 21.0008 6.47638 20.8637 5.96473C20.4938 4.58436 19.4156 3.50617 18.0353 3.1363C17.7257 3.05337 17.3873 3.02072 16.9921 3.00797C16.9898 2.95756 16.9869 2.90871 16.983 2.86178C16.9644 2.63318 16.9203 2.36345 16.782 2.09202C16.5902 1.7157 16.2843 1.40974 15.908 1.21799C15.6365 1.07969 15.3668 1.03563 15.1382 1.01695C14.93 0.999943 14.6843 0.999973 14.4319 1L14.4319 1L9.59997 1.00001ZM6.48234 5.06815C6.60245 5.03597 6.74556 5.01867 7.00865 5.00956C7.01082 5.05378 7.01353 5.09676 7.01692 5.13824C7.0356 5.36683 7.07966 5.63656 7.21796 5.90799C7.40971 6.28431 7.71567 6.59027 8.09199 6.78202C8.36342 6.92032 8.63315 6.96438 8.86174 6.98306C9.0699 7.00007 9.31569 7.00004 9.56808 7.00001L9.59997 7.00001L14.4319 7.00001C14.6843 7.00004 14.93 7.00007 15.1382 6.98306C15.3668 6.96438 15.6365 6.92032 15.908 6.78202C16.2843 6.59027 16.5902 6.28431 16.782 5.90799C16.9203 5.63656 16.9644 5.36683 16.983 5.13824C16.9864 5.09676 16.9891 5.05378 16.9913 5.00956C17.2544 5.01867 17.3975 5.03597 17.5176 5.06815C18.2078 5.25309 18.7469 5.79218 18.9318 6.48237C18.9914 6.70465 19 7.00565 19 8.00001V17.2C19 18.0566 18.9992 18.6389 18.9624 19.089C18.9266 19.5274 18.8617 19.7516 18.782 19.908C18.5902 20.2843 18.2843 20.5903 17.908 20.782C17.7516 20.8617 17.5274 20.9266 17.0889 20.9625C16.6388 20.9992 16.0566 21 15.2 21H8.79997C7.94339 21 7.3611 20.9992 6.91101 20.9625C6.4726 20.9266 6.24839 20.8617 6.09199 20.782C5.71567 20.5903 5.40971 20.2843 5.21796 19.908C5.13827 19.7516 5.07335 19.5274 5.03753 19.089C5.00075 18.6389 4.99997 18.0566 4.99997 17.2V8.00001C4.99997 7.00565 5.00856 6.70465 5.06812 6.48237C5.25306 5.79218 5.79215 5.25309 6.48234 5.06815ZM14.9897 3.02464C14.9992 3.14122 15 3.30348 15 3.60001V4.40001C15 4.69653 14.9992 4.85879 14.9897 4.97537L14.9885 4.98856L14.9753 4.9897C14.8588 4.99923 14.6965 5.00001 14.4 5.00001H9.59997C9.30345 5.00001 9.14119 4.99923 9.02461 4.9897L9.01142 4.98856L9.01028 4.97537C9.00075 4.85879 8.99997 4.69653 8.99997 4.40001V3.60001C8.99997 3.30348 9.00075 3.14122 9.01028 3.02464L9.01142 3.01145L9.02461 3.01031C9.14119 3.00078 9.30345 3.00001 9.59997 3.00001H14.4C14.6965 3.00001 14.8588 3.00078 14.9753 3.01031L14.9885 3.01145L14.9897 3.02464ZM12 9C11.4477 9 11 9.44772 11 10C11 10.5523 11.4477 11 12 11H12.01C12.5623 11 13.01 10.5523 13.01 10C13.01 9.44772 12.5623 9 12.01 9H12ZM13 14C13 13.4477 12.5523 13 12 13C11.4477 13 11 13.4477 11 14V17C11 17.5523 11.4477 18 12 18C12.5523 18 13 17.5523 13 17V14Z"
    fill="currentColor" />
</svg>