<svg xmlns="http://www.w3.org/2000/svg" width="24" height="24" viewBox="0 0 24 24"><defs><style>.a{fill:none;}</style></defs><path class="a" d="M0,0H24V24H0Z"/><path d="M0,3A3,3,0,0,1,3,0H13.5a3,3,0,0,1,3,3V7.5H21a3,3,0,0,1,3,3V21a3,3,0,0,1-3,3H10.5a3,3,0,0,1-3-3V16.5H3a3,3,0,0,1-3-3ZM3,1.5A1.5,1.5,0,0,0,1.5,3V13.5A1.5,1.5,0,0,0,3,15H13.5A1.5,1.5,0,0,0,15,13.5V3a1.5,1.5,0,0,0-1.5-1.5Zm10.71,15a10.69,10.69,0,0,0,.94,1.27A11.59,11.59,0,0,1,10.5,19.7a6.82,6.82,0,0,1,.83,1.3,13.14,13.14,0,0,0,4.33-2.24A10.65,10.65,0,0,0,20.06,21,7.09,7.09,0,0,1,21,19.63a10.7,10.7,0,0,1-4.23-1.92,12.19,12.19,0,0,0,2.43-4.14H21V12H16.5v1.57h1.15a10,10,0,0,1-1.91,3.2c-.22-.24-.43-.49-.62-.74a3,3,0,0,1-1.41.46Z"/></svg>