<svg width="24" height="24" viewBox="0 0 24 24" fill="none" xmlns="http://www.w3.org/2000/svg">
  <g clip-path="url(#clip0_306_3507)">
    <path fill-rule="evenodd" clip-rule="evenodd"
      d="M6 2C6 1.44772 6.44772 1 7 1H17C17.5523 1 18 1.44772 18 2C18 2.55229 17.5523 3 17 3L7 3C6.44772 3 6 2.55228 6 2ZM7.7587 4H16.2413C17.0463 3.99999 17.7106 3.99998 18.2518 4.04419C18.8139 4.09012 19.3306 4.18868 19.816 4.43597C20.5686 4.81947 21.1805 5.43139 21.564 6.18404C21.8113 6.66937 21.9099 7.18608 21.9558 7.74817C22 8.28936 22 8.95372 22 9.75868V18.2413C22 19.0463 22 19.7106 21.9558 20.2518C21.9099 20.8139 21.8113 21.3306 21.564 21.816C21.1805 22.5686 20.5686 23.1805 19.816 23.564C19.3306 23.8113 18.8139 23.9099 18.2518 23.9558C17.7106 24 17.0463 24 16.2413 24H7.75868C6.95372 24 6.28936 24 5.74817 23.9558C5.18608 23.9099 4.66937 23.8113 4.18404 23.564C3.43139 23.1805 2.81947 22.5686 2.43597 21.816C2.18868 21.3306 2.09012 20.8139 2.04419 20.2518C1.99998 19.7106 1.99999 19.0463 2 18.2413V18.2413V9.7587V9.75869C1.99999 8.95372 1.99998 8.28937 2.04419 7.74817C2.09012 7.18608 2.18868 6.66937 2.43597 6.18404C2.81947 5.43139 3.43139 4.81947 4.18404 4.43597C4.66937 4.18868 5.18608 4.09012 5.74817 4.04419C6.28937 3.99998 6.95373 3.99999 7.7587 4ZM5.91104 6.03755C5.47262 6.07337 5.24842 6.1383 5.09202 6.21799C4.7157 6.40973 4.40973 6.7157 4.21799 7.09202C4.1383 7.24842 4.07337 7.47262 4.03755 7.91104C4.00078 8.36113 4 8.94342 4 9.8V18.2C4 19.0566 4.00078 19.6389 4.03755 20.089C4.07337 20.5274 4.1383 20.7516 4.21799 20.908C4.40973 21.2843 4.7157 21.5903 5.09202 21.782C5.24842 21.8617 5.47262 21.9266 5.91104 21.9624C6.36113 21.9992 6.94342 22 7.8 22H16.2C17.0566 22 17.6389 21.9992 18.089 21.9624C18.5274 21.9266 18.7516 21.8617 18.908 21.782C19.2843 21.5903 19.5903 21.2843 19.782 20.908C19.8617 20.7516 19.9266 20.5274 19.9624 20.089C19.9992 19.6389 20 19.0566 20 18.2V9.8C20 8.94342 19.9992 8.36113 19.9624 7.91104C19.9266 7.47262 19.8617 7.24842 19.782 7.09202C19.5903 6.7157 19.2843 6.40973 18.908 6.21799C18.7516 6.1383 18.5274 6.07337 18.089 6.03755C17.6389 6.00078 17.0566 6 16.2 6H7.8C6.94342 6 6.36113 6.00078 5.91104 6.03755ZM9 12.125C9 10.3699 10.3719 9 12 9C13.6281 9 15 10.3699 15 12.125C15 12.8042 14.7945 13.7156 14.4211 14.5281C14.0852 15.2591 13.6902 15.7468 13.3468 15.975H10.6532C10.3098 15.7468 9.91478 15.2591 9.5789 14.5281C9.20555 13.7156 9 12.8042 9 12.125ZM11.4 18.35V17.975H12.6V18.35C12.6 18.6195 12.5995 18.7731 12.592 18.8859C12.5894 18.9249 12.5865 18.9488 12.5846 18.9614C12.5781 18.9731 12.5706 18.9815 12.5635 18.9874C12.5521 18.9888 12.5357 18.9904 12.5134 18.992C12.4079 18.9994 12.2626 19 12 19C11.7374 19 11.5921 18.9994 11.4866 18.992C11.4643 18.9904 11.4479 18.9888 11.4365 18.9874C11.4294 18.9815 11.4219 18.9731 11.4154 18.9614C11.4135 18.9488 11.4106 18.9249 11.408 18.8859C11.4005 18.7731 11.4 18.6195 11.4 18.35ZM7.76156 15.3631C8.12755 16.1597 8.6684 16.9958 9.4 17.5382L9.4 18.3768C9.39998 18.6099 9.39996 18.831 9.41233 19.0179C9.42573 19.2204 9.45674 19.4534 9.55325 19.6937C9.7579 20.2032 10.1545 20.6175 10.6656 20.8359C10.9088 20.9397 11.1446 20.9729 11.3462 20.9871C11.5306 21 11.7477 21 11.9722 21H11.9724H12.0276H12.0278C12.2523 21 12.4694 21 12.6538 20.9871C12.8554 20.9729 13.0912 20.9397 13.3344 20.8359C13.8455 20.6175 14.2421 20.2032 14.4467 19.6937C14.5433 19.4534 14.5743 19.2204 14.5877 19.0179C14.6 18.831 14.6 18.6099 14.6 18.3768L14.6 17.5382C15.3316 16.9958 15.8725 16.1597 16.2384 15.3631C16.7119 14.3327 17 13.1373 17 12.125C17 9.32377 14.7902 7 12 7C9.20979 7 7 9.32377 7 12.125C7 13.1373 7.28809 14.3327 7.76156 15.3631Z"
      fill="currentColor" />
  </g>
  <defs>
    <clipPath id="clip0_306_3507">
      <rect width="24" height="24" fill="white" />
    </clipPath>
  </defs>
</svg>