<svg width="76" height="33" viewBox="0 0 76 33" fill="none" xmlns="http://www.w3.org/2000/svg">
  <path
    d="M67.1707 16.5124C70.7475 16.5124 73.6471 13.473 73.6471 9.72377C73.6471 5.97452 70.7475 2.93515 67.1707 2.93515C63.5939 2.93515 60.6943 5.97452 60.6943 9.72377C60.6943 13.473 63.5939 16.5124 67.1707 16.5124Z"
    stroke="white" stroke-width="4" stroke-linecap="round" stroke-linejoin="round" />
  <path
    d="M11.2402 17.6438L14.5433 19.6085C14.9238 19.8455 15.3794 19.9728 15.8465 19.9728C16.3137 19.9728 16.7692 19.8455 17.1498 19.6085L19.1496 18.2922C19.5385 18.0371 20.0116 17.8992 20.4978 17.8992C20.984 17.8992 21.457 18.0371 21.846 18.2922L23.8458 19.6085C24.2241 19.8411 24.6753 19.9658 25.1378 19.9658C25.6003 19.9658 26.0514 19.8411 26.4298 19.6085L29.7553 17.6438"
    stroke="white" stroke-width="4" stroke-linecap="round" stroke-linejoin="round" />
  <path
    d="M2.35303 30.0648L18.0491 6.04944C18.653 5.51177 19.3758 5.22283 20.117 5.22283C20.8583 5.22283 21.5811 5.51177 22.1849 6.04944L37.902 30.0648"
    stroke="white" stroke-width="4" stroke-linecap="round" stroke-linejoin="round" />
  <path
    d="M34.1753 22.8725L42.8179 14.5275C43.5341 14.0298 44.3915 13.7623 45.2707 13.7623C46.1499 13.7623 47.0073 14.0298 47.7235 14.5275L60.837 30.0648"
    stroke="white" stroke-width="4" stroke-linecap="round" stroke-linejoin="round" />
</svg>
  