<svg width="64" height="64" viewBox="0 0 64 64" fill="none" xmlns="http://www.w3.org/2000/svg">
<g clip-path="url(#clip0_481_464)">
<path d="M39.2354 54.9214L27.6829 32.5431L22.2375 21.9885V15.3824C22.2388 14.7185 21.9955 14.0775 21.5541 13.5817L12.8761 3.81899C11.8816 2.69869 10.1673 2.5967 9.04696 3.59119C7.92667 4.58568 7.82468 6.30005 8.81916 7.42034L14.9914 14.3627C12.6247 12.6344 9.4356 12.5502 6.98101 14.1513C4.52642 15.7524 3.31813 18.7049 3.94598 21.5674C4.57383 24.43 6.90692 26.6058 9.80628 27.0325L3.50391 33.3349C2.92423 33.9217 2.64115 34.7392 2.73386 35.5588C2.82656 36.3784 3.2851 37.1121 3.9812 37.5546L11.3032 42.1322C10.8105 42.6032 10.48 43.2186 10.3595 43.8895L8.19001 55.8217C8.03285 56.6706 8.22027 57.5471 8.71084 58.2575C9.20141 58.968 9.95472 59.4537 10.8042 59.6075C10.997 59.6465 11.1934 59.6647 11.39 59.6617C12.9627 59.666 14.3117 58.5411 14.59 56.9932L16.4992 46.5037L23.9579 42.0324C24.2148 41.8794 24.5234 41.8393 24.8109 41.9214C25.0984 42.0035 25.3392 42.2007 25.4765 42.4663L33.4429 57.9044C34.0066 58.983 35.1222 59.6598 36.3392 59.6617C36.8592 59.6606 37.3718 59.538 37.8361 59.3037C39.4321 58.4795 40.0584 56.518 39.2354 54.9214ZM16.2714 39.0624C16.0776 38.7841 15.8259 38.551 15.5337 38.379L9.75205 34.7668L14.8395 29.6793L18.7771 37.5546L16.2714 39.0624Z" fill="#A31621"/>
<path fill-rule="evenodd" clip-rule="evenodd" d="M37.8361 59.3036C37.3718 59.5379 36.8592 59.6605 36.3392 59.6616C35.1221 59.6597 34.0066 58.9829 33.4429 57.9043L25.4798 42.4651C25.3425 42.1995 25.1016 42.0024 24.8141 41.9202C24.5267 41.8381 24.218 41.8783 23.9611 42.0312L16.4992 46.5036L14.59 56.9931C14.3117 58.541 12.9627 59.6659 11.39 59.6616C11.1934 59.6646 10.997 59.6464 10.8042 59.6074C9.95471 59.4536 9.2014 58.9679 8.71083 58.2575C8.22026 57.5471 8.03284 56.6705 8.19 55.8216L10.3595 43.8894C10.48 43.2185 10.8105 42.6032 11.3032 42.1321L12.6592 42.9782C13.0915 43.249 13.5917 43.3919 14.1019 43.3904C14.5194 43.3886 14.9311 43.2922 15.3059 43.1084L15.6856 42.8806C15.972 42.6772 16.2153 42.4191 16.4015 42.1213C16.9929 41.1723 16.9413 39.9576 16.2714 39.0623L18.7771 37.5545L27.6829 32.543L39.2354 54.9213C40.0584 56.5179 39.4321 58.4794 37.8361 59.3036Z" fill="#4E8098"/>
<path fill-rule="evenodd" clip-rule="evenodd" d="M17.8985 20.0683C17.8985 23.9623 14.7418 27.1191 10.8477 27.1191C10.4986 27.1235 10.1499 27.0944 9.80633 27.0323C6.08764 26.477 3.45892 23.1014 3.83156 19.36C4.20419 15.6186 7.44707 12.8278 11.2022 13.0169C14.9574 13.2059 17.9036 16.3083 17.8985 20.0683Z" fill="#D0D1D3"/>
<path d="M54.8332 19.8874V11.6116C54.833 11.2973 54.7501 10.9885 54.5929 10.7163C54.4357 10.4442 54.2096 10.2181 53.9373 10.061L46.7707 5.92266C46.4983 5.7654 46.1893 5.68262 45.8748 5.68262C45.5603 5.68262 45.2514 5.7654 44.979 5.92266L37.8123 10.061C37.54 10.2182 37.3138 10.4444 37.1566 10.7167C36.9993 10.9891 36.9165 11.298 36.9165 11.6125V19.8874C36.9167 20.2017 36.9995 20.5105 37.1568 20.7827C37.314 21.0548 37.5401 21.2809 37.8123 21.438L44.979 25.5754C45.2514 25.7327 45.5603 25.8155 45.8748 25.8155C46.1893 25.8155 46.4983 25.7327 46.7707 25.5754L53.9373 21.438C54.2096 21.2809 54.4357 21.0548 54.5929 20.7827C54.7501 20.5105 54.833 20.2017 54.8332 19.8874Z" fill="url(#paint0_linear_481_464)"/>
<path d="M46.7708 25.5764L53.9375 21.4381C54.2099 21.2808 54.436 21.0547 54.5933 20.7823C54.7505 20.51 54.8333 20.201 54.8333 19.8865V11.6117C54.8332 11.2973 54.7503 10.9886 54.5931 10.7164C54.4358 10.4442 54.2097 10.2182 53.9375 10.061L46.7708 5.9227C46.4986 5.76522 46.1895 5.6824 45.875 5.68262V25.8165C46.1895 25.8167 46.4986 25.7339 46.7708 25.5764Z" fill="url(#paint1_linear_481_464)"/>
<path d="M54.587 10.7059L45.8751 15.736L37.1631 10.7059C37.3189 10.4373 37.543 10.2148 37.8126 10.0609L44.9792 5.92212C45.2519 5.76582 45.5608 5.68359 45.8751 5.68359C46.1894 5.68359 46.4982 5.76582 46.7709 5.92212L53.9376 10.0609C54.2072 10.2148 54.4313 10.4373 54.587 10.7059Z" fill="url(#paint2_linear_481_464)"/>
<path d="M46.8734 9.98304C46.9943 10.0241 47.0994 10.102 47.1739 10.2057C47.2484 10.3094 47.2886 10.4338 47.2889 10.5615C47.2893 10.6892 47.2497 10.8138 47.1758 10.918C47.1019 11.0221 46.9972 11.1005 46.8766 11.1422C46.5671 11.2999 46.2248 11.3821 45.8775 11.3821C45.5302 11.3821 45.1878 11.2999 44.8784 11.1422C44.3243 10.8224 44.3185 10.3029 44.869 9.98304C45.1795 9.82535 45.5229 9.74316 45.8712 9.74316C46.2195 9.74316 46.5629 9.82535 46.8734 9.98304Z" fill="url(#paint3_linear_481_464)"/>
<path d="M43.4114 20.9338C43.6537 21.0912 43.8553 21.3036 43.9998 21.5538C44.1443 21.804 44.2275 22.0849 44.2428 22.3734C44.2428 22.9059 43.8665 23.1196 43.406 22.8535C43.1627 22.6959 42.9602 22.4827 42.8152 22.2316C42.6703 21.9805 42.5869 21.6986 42.572 21.409C42.5738 20.8796 42.9483 20.6664 43.4114 20.9338Z" fill="url(#paint4_linear_481_464)"/>
<path d="M41.3999 17.3842C41.6423 17.5415 41.844 17.7539 41.9884 18.0042C42.1329 18.2544 42.2161 18.5352 42.2313 18.8238C42.2313 19.3563 41.8555 19.57 41.3946 19.3039C41.1512 19.1462 40.9487 18.933 40.8037 18.6818C40.6587 18.4306 40.5754 18.1486 40.5605 17.859C40.5619 17.33 40.9363 17.1163 41.3999 17.3842Z" fill="url(#paint5_linear_481_464)"/>
<path d="M39.3882 13.8342C39.6303 13.9917 39.8318 14.2043 39.9762 14.4544C40.1206 14.7046 40.2038 14.9854 40.2191 15.2738C40.2191 15.8069 39.8433 16.0201 39.3824 15.754C39.139 15.5963 38.9365 15.3832 38.7916 15.1321C38.6466 14.881 38.5632 14.5991 38.5483 14.3095C38.5497 13.7796 38.9246 13.5668 39.3882 13.8342Z" fill="url(#paint6_linear_481_464)"/>
<path d="M48.6726 16.4265C49.1362 16.1577 49.5107 16.3723 49.512 16.9048C49.497 17.1941 49.4136 17.4758 49.2686 17.7266C49.1236 17.9774 48.9212 18.1902 48.678 18.3476C48.2175 18.6136 47.8399 18.4018 47.8381 17.8728C47.8532 17.583 47.9367 17.3008 48.0817 17.0494C48.2268 16.7981 48.4292 16.5846 48.6726 16.4265Z" fill="url(#paint7_linear_481_464)"/>
<path d="M52.0169 14.4958C52.4805 14.227 52.8554 14.4416 52.8568 14.9742C52.8415 15.2632 52.7579 15.5445 52.613 15.7951C52.468 16.0456 52.2657 16.2583 52.0227 16.4156C51.5618 16.6816 51.1874 16.468 51.186 15.939C51.2007 15.6499 51.2837 15.3684 51.4281 15.1176C51.5725 14.8667 51.7743 14.6537 52.0169 14.4958Z" fill="url(#paint8_linear_481_464)"/>
<path d="M48.6834 20.2702C49.147 20.0015 49.5214 20.216 49.5232 20.7486C49.5076 21.0376 49.4238 21.3188 49.2788 21.5693C49.1338 21.8198 48.9316 22.0325 48.6888 22.19C48.2283 22.4556 47.8507 22.2442 47.8494 21.7147C47.8645 21.4252 47.948 21.1434 48.0929 20.8923C48.2379 20.6413 48.4402 20.4281 48.6834 20.2702Z" fill="url(#paint9_linear_481_464)"/>
<path d="M52.0281 18.3386C52.4917 18.0698 52.8662 18.2844 52.8675 18.8169C52.8523 19.106 52.7688 19.3874 52.6238 19.6379C52.4788 19.8885 52.2765 20.1011 52.0335 20.2583C51.573 20.5244 51.1986 20.3107 51.1968 19.7818C51.2116 19.4927 51.2946 19.2112 51.4391 18.9603C51.5836 18.7095 51.7854 18.4964 52.0281 18.3386Z" fill="url(#paint10_linear_481_464)"/>
<g clip-path="url(#clip1_481_464)">
<path d="M59.6351 31.5781L61.5088 25.7464C61.5799 25.5249 61.5914 25.2885 61.5422 25.0611C61.493 24.8337 61.3849 24.6232 61.2287 24.4508L57.1155 19.912C56.9591 19.7395 56.7602 19.6112 56.5385 19.54C56.3169 19.4688 56.0805 19.4572 55.8529 19.5064L49.8658 20.7999C49.6382 20.849 49.4277 20.9572 49.2552 21.1135C49.0827 21.2698 48.9544 21.4688 48.8832 21.6904L47.0096 27.5214C46.9386 27.743 46.9271 27.9793 46.9762 28.2067C47.0254 28.4341 47.1336 28.6446 47.2898 28.817L51.4032 33.3552C51.5595 33.5277 51.7585 33.656 51.9801 33.7272C52.2017 33.7984 52.4382 33.81 52.6657 33.7609L58.6527 32.468C58.8801 32.4189 59.0906 32.3108 59.263 32.1546C59.4355 31.9984 59.5638 31.7996 59.6351 31.5781Z" fill="url(#paint11_linear_481_464)"/>
<path d="M52.6656 33.7615L58.6527 32.468C58.8802 32.4189 59.0908 32.3107 59.2633 32.1544C59.4358 31.9981 59.5641 31.7991 59.6353 31.5775L61.5088 25.7464C61.5799 25.5249 61.5914 25.2885 61.5422 25.0611C61.4931 24.8337 61.3849 24.6233 61.2287 24.4509L57.1155 19.9121C56.9593 19.7394 56.7603 19.6111 56.5386 19.54L51.9799 33.7279C52.2015 33.7992 52.438 33.8108 52.6656 33.7615Z" fill="url(#paint12_linear_481_464)"/>
<path d="M61.5403 25.0525L54.2623 26.6246L49.262 21.1074C49.4326 20.9535 49.6409 20.8474 49.8658 20.8L55.853 19.5062C56.0806 19.4578 56.3168 19.4697 56.5383 19.5409C56.7598 19.6121 56.9588 19.7399 57.1156 19.9118L61.2286 24.4509C61.3838 24.6205 61.4913 24.828 61.5403 25.0525Z" fill="url(#paint13_linear_481_464)"/>
<path d="M56.2686 22.7966C56.3445 22.853 56.4009 22.9316 56.4299 23.0216C56.4589 23.1115 56.4591 23.2083 56.4304 23.2984C56.4017 23.3884 56.3456 23.4673 56.27 23.5239C56.1943 23.5806 56.1028 23.6121 56.0083 23.6142C55.7546 23.6553 55.4947 23.6357 55.25 23.557C55.0053 23.4784 54.7826 23.343 54.6003 23.1618C54.2822 22.811 54.3958 22.4435 54.8561 22.3428C55.1106 22.302 55.3712 22.3218 55.6166 22.4007C55.8621 22.4796 56.0854 22.6152 56.2686 22.7966Z" fill="url(#paint14_linear_481_464)"/>
<path d="M51.3496 29.7294C51.4846 29.8952 51.5786 30.0905 51.6238 30.2996C51.6689 30.5086 51.664 30.7253 51.6094 30.9321C51.4888 31.3074 51.1753 31.3727 50.9111 31.081C50.7753 30.9148 50.6809 30.7187 50.6356 30.509C50.5903 30.2992 50.5954 30.0816 50.6504 29.8742C50.7716 29.5015 51.0837 29.4361 51.3496 29.7294Z" fill="url(#paint15_linear_481_464)"/>
<path d="M50.7357 26.7725C50.8709 26.9382 50.9649 27.1336 51.0101 27.3426C51.0552 27.5517 51.0503 27.7684 50.9956 27.9752C50.875 28.3505 50.5618 28.4159 50.2973 28.1241C50.1615 27.9578 50.0671 27.7617 50.0218 27.5519C49.9765 27.3421 49.9816 27.1245 50.0367 26.917C50.1575 26.5446 50.4697 26.4788 50.7357 26.7725Z" fill="url(#paint16_linear_481_464)"/>
<path d="M50.1221 23.8155C50.257 23.9813 50.3509 24.1767 50.396 24.3857C50.4411 24.5946 50.4362 24.8113 50.3816 25.0181C50.2609 25.3937 49.9478 25.4588 49.6833 25.167C49.5475 25.0008 49.4531 24.8047 49.4078 24.595C49.3625 24.3852 49.3676 24.1676 49.4226 23.9602C49.5436 23.5871 49.8559 23.5221 50.1221 23.8155Z" fill="url(#paint17_linear_481_464)"/>
<path d="M56.0777 27.7443C56.4652 27.6598 56.6805 27.8958 56.5608 28.2714C56.4848 28.4719 56.3622 28.6514 56.2033 28.7953C56.0443 28.9392 55.8535 29.0434 55.6465 29.0992C55.2618 29.1825 55.0436 28.9477 55.1622 28.5745C55.2384 28.3737 55.3611 28.1938 55.5202 28.0495C55.6793 27.9052 55.8704 27.8006 56.0777 27.7443Z" fill="url(#paint18_linear_481_464)"/>
<path d="M58.8713 27.1409C59.2588 27.0565 59.4744 27.2926 59.3548 27.6682C59.2786 27.8684 59.156 28.0477 58.9971 28.1914C58.8382 28.3352 58.6475 28.4392 58.4407 28.495C58.0557 28.5782 57.8402 28.3428 57.959 27.9698C58.0348 27.7694 58.157 27.5898 58.3156 27.4457C58.4741 27.3017 58.6646 27.1972 58.8713 27.1409Z" fill="url(#paint19_linear_481_464)"/>
<path d="M55.215 30.4551C55.6026 30.3707 55.8179 30.6066 55.6985 30.9823C55.6221 31.1825 55.4994 31.3617 55.3405 31.5054C55.1816 31.649 54.9909 31.7531 54.7842 31.8091C54.3995 31.892 54.1813 31.6576 54.3003 31.2842C54.3765 31.0836 54.4991 30.9039 54.6581 30.7598C54.8171 30.6157 55.0079 30.5113 55.215 30.4551Z" fill="url(#paint20_linear_481_464)"/>
<path d="M58.009 29.8519C58.3966 29.7675 58.6119 30.0035 58.4922 30.3791C58.4161 30.5793 58.2935 30.7587 58.1346 30.9024C57.9757 31.0462 57.785 31.1502 57.5782 31.206C57.1934 31.2892 56.9779 31.0539 57.0965 30.6807C57.1723 30.4803 57.2946 30.3008 57.4532 30.1567C57.6118 30.0127 57.8023 29.9082 58.009 29.8519Z" fill="url(#paint21_linear_481_464)"/>
</g>
</g>
<defs>
<linearGradient id="paint0_linear_481_464" x1="32.2868" y1="7.13517" x2="46.9722" y2="16.4451" gradientUnits="userSpaceOnUse">
<stop stop-color="#EDF1F2"/>
<stop offset="1" stop-color="#C6CBCC"/>
</linearGradient>
<linearGradient id="paint1_linear_481_464" x1="51.9429" y1="12.353" x2="43.6883" y2="17.2478" gradientUnits="userSpaceOnUse">
<stop stop-color="#C6CBCC"/>
<stop offset="1" stop-color="#9FA5A6"/>
</linearGradient>
<linearGradient id="paint2_linear_481_464" x1="37.2688" y1="10.7099" x2="59.7318" y2="10.7099" gradientUnits="userSpaceOnUse">
<stop stop-color="#EDF0EF"/>
<stop offset="1" stop-color="#C6CBCC"/>
</linearGradient>
<linearGradient id="paint3_linear_481_464" x1="45.0598" y1="10.0507" x2="46.8954" y2="11.2023" gradientUnits="userSpaceOnUse">
<stop stop-color="#3E4154"/>
<stop offset="1" stop-color="#1B2129"/>
</linearGradient>
<linearGradient id="paint4_linear_481_464" x1="42.8188" y1="20.8724" x2="43.9968" y2="22.9131" gradientUnits="userSpaceOnUse">
<stop stop-color="#3E4154"/>
<stop offset="1" stop-color="#1B2129"/>
</linearGradient>
<linearGradient id="paint5_linear_481_464" x1="40.8069" y1="17.3228" x2="41.9849" y2="19.3631" gradientUnits="userSpaceOnUse">
<stop stop-color="#3E4154"/>
<stop offset="1" stop-color="#1B2129"/>
</linearGradient>
<linearGradient id="paint6_linear_481_464" x1="38.7947" y1="13.7733" x2="39.9732" y2="15.8136" gradientUnits="userSpaceOnUse">
<stop stop-color="#3E4154"/>
<stop offset="1" stop-color="#1B2129"/>
</linearGradient>
<linearGradient id="paint7_linear_481_464" x1="48.0845" y1="17.045" x2="49.267" y2="17.7277" gradientUnits="userSpaceOnUse">
<stop stop-color="#3E4154"/>
<stop offset="1" stop-color="#1B2129"/>
</linearGradient>
<linearGradient id="paint8_linear_481_464" x1="51.4301" y1="15.1139" x2="52.6122" y2="15.7965" gradientUnits="userSpaceOnUse">
<stop stop-color="#3E4154"/>
<stop offset="1" stop-color="#1B2129"/>
</linearGradient>
<linearGradient id="paint9_linear_481_464" x1="48.0953" y1="20.8883" x2="49.2782" y2="21.5714" gradientUnits="userSpaceOnUse">
<stop stop-color="#3E4154"/>
<stop offset="1" stop-color="#1B2129"/>
</linearGradient>
<linearGradient id="paint10_linear_481_464" x1="51.4409" y1="18.9567" x2="52.6229" y2="19.6389" gradientUnits="userSpaceOnUse">
<stop stop-color="#3E4154"/>
<stop offset="1" stop-color="#1B2129"/>
</linearGradient>
<linearGradient id="paint11_linear_481_464" x1="46.6345" y1="17.4871" x2="54.875" y2="27.3726" gradientUnits="userSpaceOnUse">
<stop stop-color="#EDF1F2"/>
<stop offset="1" stop-color="#C6CBCC"/>
</linearGradient>
<linearGradient id="paint12_linear_481_464" x1="59.3042" y1="25.6144" x2="52.3791" y2="27.1946" gradientUnits="userSpaceOnUse">
<stop stop-color="#C6CBCC"/>
<stop offset="1" stop-color="#9FA5A6"/>
</linearGradient>
<linearGradient id="paint13_linear_481_464" x1="49.3356" y1="21.1342" x2="65.1648" y2="26.2202" gradientUnits="userSpaceOnUse">
<stop stop-color="#EDF0EF"/>
<stop offset="1" stop-color="#C6CBCC"/>
</linearGradient>
<linearGradient id="paint14_linear_481_464" x1="54.9752" y1="22.4337" x2="56.008" y2="23.6608" gradientUnits="userSpaceOnUse">
<stop stop-color="#3E4154"/>
<stop offset="1" stop-color="#1B2129"/>
</linearGradient>
<linearGradient id="paint15_linear_481_464" x1="50.9459" y1="29.552" x2="51.3139" y2="31.2567" gradientUnits="userSpaceOnUse">
<stop stop-color="#3E4154"/>
<stop offset="1" stop-color="#1B2129"/>
</linearGradient>
<linearGradient id="paint16_linear_481_464" x1="50.3317" y1="26.595" x2="50.6999" y2="28.2994" gradientUnits="userSpaceOnUse">
<stop stop-color="#3E4154"/>
<stop offset="1" stop-color="#1B2129"/>
</linearGradient>
<linearGradient id="paint17_linear_481_464" x1="49.7176" y1="23.6382" x2="50.0861" y2="25.3427" gradientUnits="userSpaceOnUse">
<stop stop-color="#3E4154"/>
<stop offset="1" stop-color="#1B2129"/>
</linearGradient>
<linearGradient id="paint18_linear_481_464" x1="55.5232" y1="28.047" x2="56.2019" y2="28.7958" gradientUnits="userSpaceOnUse">
<stop stop-color="#3E4154"/>
<stop offset="1" stop-color="#1B2129"/>
</linearGradient>
<linearGradient id="paint19_linear_481_464" x1="58.3178" y1="27.4436" x2="58.9962" y2="28.1923" gradientUnits="userSpaceOnUse">
<stop stop-color="#3E4154"/>
<stop offset="1" stop-color="#1B2129"/>
</linearGradient>
<linearGradient id="paint20_linear_481_464" x1="54.6606" y1="30.7575" x2="55.3396" y2="31.5067" gradientUnits="userSpaceOnUse">
<stop stop-color="#3E4154"/>
<stop offset="1" stop-color="#1B2129"/>
</linearGradient>
<linearGradient id="paint21_linear_481_464" x1="57.4553" y1="30.1546" x2="58.1338" y2="30.9029" gradientUnits="userSpaceOnUse">
<stop stop-color="#3E4154"/>
<stop offset="1" stop-color="#1B2129"/>
</linearGradient>
<clipPath id="clip0_481_464">
<rect width="64" height="64" fill="white"/>
</clipPath>
<clipPath id="clip1_481_464">
<rect width="15.9134" height="15.9134" fill="white" transform="translate(49.1179 16.625) rotate(17.8126)"/>
</clipPath>
</defs>
</svg>
