<svg width="1025" height="1024" viewBox="0 0 1025 1024" fill="none" xmlns="http://www.w3.org/2000/svg">
<g clip-path="url(#clip0_480_81)">
<path opacity="0.35" d="M130.408 63.9541L146.896 80.4423L-1.49988 228.838V195.862L130.408 63.9541Z" fill="url(#paint0_linear_480_81)"/>
<path d="M-1.49988 63.9539V-2H64.454L-1.49988 63.9539Z" fill="#E6E6E7"/>
<path opacity="0.35" d="M262.315 195.86L278.804 212.349L146.896 344.256L130.408 327.768L262.315 195.86Z" fill="url(#paint1_linear_480_81)"/>
<path opacity="0.35" d="M328.268 525.63L344.758 542.118L212.85 674.026L196.362 657.538L328.268 525.63Z" fill="url(#paint2_linear_480_81)"/>
<path opacity="0.35" d="M196.362 958.046L212.85 974.534L163.384 1024H130.408L196.362 958.046Z" fill="url(#paint3_linear_480_81)"/>
<path opacity="0.35" d="M328.268 694.228L344.758 677.74L476.664 809.648L460.176 826.136L328.268 694.228Z" fill="url(#paint4_linear_480_81)"/>
<path opacity="0.35" d="M-1.5 760.184V727.208L146.896 875.604L130.408 892.092L-1.5 760.184Z" fill="url(#paint5_linear_480_81)"/>
<path opacity="0.35" d="M130.408 591.583L146.896 608.071L-1.5 756.467V723.491L130.408 591.583Z" fill="url(#paint6_linear_480_81)"/>
<path opacity="0.35" d="M723.992 -2H756.968L476.665 278.304L460.176 261.815L723.992 -2Z" fill="url(#paint7_linear_480_81)"/>
<path opacity="0.35" d="M328.269 -2L360.781 -1.53455L212.85 146.396L196.362 129.908L328.269 -2Z" fill="url(#paint8_linear_480_81)"/>
<path d="M64.4525 129.907L-1.50061 195.86L64.4525 261.813L130.406 195.86L64.4525 129.907Z" fill="#E6E6E7"/>
<path d="M130.406 63.9531L64.4531 129.906L130.406 195.859L196.359 129.906L130.406 63.9531Z" fill="#D0D1D3"/>
<path d="M328.269 -2L262.316 63.9539L196.362 -2H328.269Z" fill="#E6E6E7"/>
<path d="M262.317 459.672L196.364 393.719L130.411 459.672L196.364 525.625L262.317 459.672Z" fill="#E6E6E7"/>
<path d="M328.271 525.625L262.317 459.672L196.364 525.625L262.317 591.578L328.271 525.625Z" fill="#D0D1D3"/>
<path d="M658.038 63.9539L592.084 -2H723.992L658.038 63.9539Z" fill="#E6E6E7"/>
<path d="M64.4538 393.722L-1.50012 459.675V327.769L64.4538 393.722Z" fill="#D0D1D3"/>
<path d="M64.4508 261.812L-1.50232 327.766L64.4508 393.719L130.404 327.766L64.4508 261.812Z" fill="#E6E6E7"/>
<path d="M130.408 63.9539L64.4541 -2H196.362L130.408 63.9539Z" fill="#E6E6E7"/>
<path d="M262.314 63.9522L196.361 -2.00098L130.408 63.9522L196.361 129.905L262.314 63.9522Z" fill="#D0D1D3"/>
<path d="M130.411 459.678L196.364 393.725L130.411 327.771L64.4581 393.725L130.411 459.678Z" fill="#E6E6E7"/>
<path d="M64.4571 525.634L130.41 459.681L64.4571 393.727L-1.49603 459.681L64.4571 525.634Z" fill="#D0D1D3"/>
<path d="M460.173 -1.99613L394.22 63.957L460.173 129.91L526.126 63.957L460.173 -1.99613Z" fill="#E6E6E7"/>
<path d="M592.084 -2L526.13 63.9539L460.176 -2H592.084Z" fill="#D0D1D3"/>
<path d="M64.4546 129.907L130.408 63.9541L64.4546 -1.99904L-1.49857 63.9541L64.4546 129.907Z" fill="#E6E6E7"/>
<path d="M-1.49988 63.9541L64.454 129.908L-1.49988 195.862V63.9541Z" fill="#D0D1D3"/>
<path d="M64.4581 657.54L130.411 591.587L64.4581 525.634L-1.49503 591.587L64.4581 657.54Z" fill="#D0D1D3"/>
<path d="M-1.5 591.584L64.4539 657.538L-1.5 723.492V591.584Z" fill="#E6E6E7"/>
<path d="M394.225 195.865L460.179 261.818L526.132 195.865L460.179 129.912L394.225 195.865Z" fill="#E6E6E7"/>
<path d="M328.271 129.91L394.225 195.863L460.178 129.91L394.225 63.957L328.271 129.91Z" fill="#D0D1D3"/>
<path d="M130.405 195.862L64.4523 261.815L130.405 327.769L196.359 261.815L130.405 195.862Z" fill="#E6E6E7"/>
<path d="M196.359 129.909L130.406 195.862L196.359 261.815L262.312 195.862L196.359 129.909Z" fill="#D0D1D3"/>
<path d="M592.089 129.903L658.042 63.9502L592.089 -2.00295L526.135 63.9502L592.089 129.903Z" fill="#E6E6E7"/>
<path d="M526.135 195.858L592.088 129.905L526.135 63.9521L460.182 129.905L526.135 195.858Z" fill="#D0D1D3"/>
<path d="M262.308 760.181L196.355 826.134L262.308 892.087L328.261 826.134L262.308 760.181Z" fill="#D0D1D3"/>
<path d="M328.261 694.228L262.308 760.181L328.261 826.134L394.214 760.181L328.261 694.228Z" fill="#E6E6E7"/>
<path d="M262.32 892.087L196.367 826.134L130.413 892.087L196.367 958.04L262.32 892.087Z" fill="#E6E6E7"/>
<path d="M328.273 958.04L262.32 892.087L196.367 958.04L262.32 1023.99L328.273 958.04Z" fill="#D0D1D3"/>
<path d="M394.232 892.095L460.185 826.142L394.232 760.188L328.278 826.142L394.232 892.095Z" fill="#E6E6E7"/>
<path d="M328.278 958.05L394.231 892.097L328.278 826.144L262.325 892.097L328.278 958.05Z" fill="#D0D1D3"/>
<path d="M-1.50527 892.098L64.4479 958.051L130.401 892.098L64.4479 826.144L-1.50527 892.098Z" fill="#E6E6E7"/>
<path d="M-1.5 760.183L64.4539 826.136L-1.5 892.09V760.183Z" fill="#D0D1D3"/>
<path d="M394.232 1024L460.185 958.048L394.232 892.095L328.279 958.048L394.232 1024Z" fill="#E6E6E7"/>
<path d="M262.315 1024L328.268 958.045L394.222 1024H262.315Z" fill="#D0D1D3"/>
<path d="M130.408 1024H-1.5L64.4539 958.046L130.408 1024Z" fill="#E6E6E7"/>
<path d="M130.4 892.086L64.4471 958.039L130.4 1023.99L196.353 958.039L130.4 892.086Z" fill="#D0D1D3"/>
<path d="M460.167 826.136L394.214 892.089L460.167 958.042L526.12 892.089L460.167 826.136Z" fill="#E6E6E7"/>
<path d="M526.121 760.182L460.168 826.135L526.121 892.088L592.074 826.135L526.121 760.182Z" fill="#D0D1D3"/>
<path d="M130.405 591.588L196.359 657.541L262.312 591.588L196.359 525.635L130.405 591.588Z" fill="#E6E6E7"/>
<path d="M64.4514 525.633L130.405 591.586L196.358 525.633L130.405 459.68L64.4514 525.633Z" fill="#D0D1D3"/>
<path opacity="0.35" d="M64.454 -2L97.4305 30.9765L-1.49988 129.908V63.9539L64.454 -2Z" fill="url(#paint9_linear_480_81)"/>
<path opacity="0.35" d="M196.362 129.908L163.384 162.884L31.4767 30.9765L64.4541 -2L196.362 129.908Z" fill="url(#paint10_linear_480_81)"/>
<path opacity="0.35" d="M658.038 63.9539L625.06 96.9304L559.107 30.9765L592.084 -2L658.038 63.9539Z" fill="url(#paint11_linear_480_81)"/>
<path opacity="0.35" d="M-1.5 393.722L31.4765 426.699L-1.5 459.676V393.722Z" fill="url(#paint12_linear_480_81)"/>
<path opacity="0.35" d="M-1.5 760.184L31.4765 793.161L-1.5 826.137V760.184Z" fill="url(#paint13_linear_480_81)"/>
<path opacity="0.35" d="M328.269 -2L295.292 30.9765L262.316 -2H328.269Z" fill="url(#paint14_linear_480_81)"/>
<path opacity="0.35" d="M130.408 892.092L163.384 925.069L97.4305 991.023L64.454 958.046L130.408 892.092Z" fill="url(#paint15_linear_480_81)"/>
<path opacity="0.35" d="M723.992 -2L691.014 30.9765L658.038 -2H723.992Z" fill="url(#paint16_linear_480_81)"/>
<path opacity="0.35" d="M592.084 826.139L608.572 842.627L427.2 1024H394.222L592.084 826.139Z" fill="url(#paint17_linear_480_81)"/>
<path d="M328.268 900.651C332.996 900.651 336.828 896.819 336.828 892.092C336.828 887.365 332.996 883.533 328.268 883.533C323.541 883.533 319.709 887.365 319.709 892.092C319.709 896.819 323.541 900.651 328.268 900.651Z" fill="white"/>
<path d="M262.315 534.189C267.043 534.189 270.875 530.357 270.875 525.629C270.875 520.902 267.043 517.07 262.315 517.07C257.588 517.07 253.756 520.902 253.756 525.629C253.756 530.357 257.588 534.189 262.315 534.189Z" fill="white"/>
<path d="M196.362 204.421C201.089 204.421 204.921 200.589 204.921 195.862C204.921 191.135 201.089 187.303 196.362 187.303C191.635 187.303 187.802 191.135 187.802 195.862C187.802 200.589 191.635 204.421 196.362 204.421Z" fill="white"/>
<path d="M20.4584 336.328C25.1855 336.328 29.0176 332.496 29.0176 327.769C29.0176 323.042 25.1855 319.21 20.4584 319.21C15.7314 319.21 11.8993 323.042 11.8993 327.769C11.8993 332.496 15.7314 336.328 20.4584 336.328Z" fill="white"/>
<path d="M108.449 336.328C113.176 336.328 117.009 332.496 117.009 327.769C117.009 323.042 113.176 319.21 108.449 319.21C103.722 319.21 99.8903 323.042 99.8903 327.769C99.8903 332.496 103.722 336.328 108.449 336.328Z" fill="white"/>
<path d="M394.222 94.4708C398.949 94.4708 402.781 90.6388 402.781 85.9117C402.781 81.1846 398.949 77.3525 394.222 77.3525C389.495 77.3525 385.663 81.1846 385.663 85.9117C385.663 90.6388 389.495 94.4708 394.222 94.4708Z" fill="white"/>
<path d="M394.222 182.462C398.949 182.462 402.781 178.63 402.781 173.903C402.781 169.176 398.949 165.344 394.222 165.344C389.495 165.344 385.663 169.176 385.663 173.903C385.663 178.63 389.495 182.462 394.222 182.462Z" fill="white"/>
<path d="M328.269 768.743C332.996 768.743 336.828 764.911 336.828 760.184C336.828 755.457 332.996 751.625 328.269 751.625C323.542 751.625 319.709 755.457 319.709 760.184C319.709 764.911 323.542 768.743 328.269 768.743Z" fill="white"/>
<path d="M284.273 768.743C289 768.743 292.832 764.911 292.832 760.184C292.832 755.457 289 751.625 284.273 751.625C279.546 751.625 275.714 755.457 275.714 760.184C275.714 764.911 279.546 768.743 284.273 768.743Z" fill="white"/>
<path d="M372.265 768.743C376.992 768.743 380.824 764.911 380.824 760.184C380.824 755.457 376.992 751.625 372.265 751.625C367.538 751.625 363.706 755.457 363.706 760.184C363.706 764.911 367.538 768.743 372.265 768.743Z" fill="white"/>
<path d="M196.362 900.652C201.089 900.652 204.921 896.82 204.921 892.093C204.921 887.366 201.089 883.534 196.362 883.534C191.634 883.534 187.802 887.366 187.802 892.093C187.802 896.82 191.634 900.652 196.362 900.652Z" fill="white"/>
<path d="M196.362 856.656C201.089 856.656 204.921 852.824 204.921 848.097C204.921 843.37 201.089 839.538 196.362 839.538C191.635 839.538 187.802 843.37 187.802 848.097C187.802 852.824 191.635 856.656 196.362 856.656Z" fill="white"/>
<path d="M196.362 944.647C201.089 944.647 204.921 940.815 204.921 936.088C204.921 931.36 201.089 927.528 196.362 927.528C191.634 927.528 187.802 931.36 187.802 936.088C187.802 940.815 191.634 944.647 196.362 944.647Z" fill="white"/>
<path d="M130.408 534.189C135.135 534.189 138.967 530.357 138.967 525.629C138.967 520.902 135.135 517.07 130.408 517.07C125.681 517.07 121.849 520.902 121.849 525.629C121.849 530.357 125.681 534.189 130.408 534.189Z" fill="white"/>
<path d="M86.4124 534.189C91.1395 534.189 94.9716 530.357 94.9716 525.629C94.9716 520.902 91.1395 517.07 86.4124 517.07C81.6853 517.07 77.8533 520.902 77.8533 525.629C77.8533 530.357 81.6853 534.189 86.4124 534.189Z" fill="white"/>
<path d="M174.403 534.189C179.13 534.189 182.962 530.357 182.962 525.629C182.962 520.902 179.13 517.07 174.403 517.07C169.676 517.07 165.844 520.902 165.844 525.629C165.844 530.357 169.676 534.189 174.403 534.189Z" fill="white"/>
<path d="M64.4539 468.236C69.181 468.236 73.0131 464.404 73.0131 459.677C73.0131 454.95 69.181 451.118 64.4539 451.118C59.7268 451.118 55.8948 454.95 55.8948 459.677C55.8948 464.404 59.7268 468.236 64.4539 468.236Z" fill="white"/>
<path d="M64.4539 512.232C69.181 512.232 73.0131 508.4 73.0131 503.672C73.0131 498.945 69.181 495.113 64.4539 495.113C59.7268 495.113 55.8948 498.945 55.8948 503.672C55.8948 508.4 59.7268 512.232 64.4539 512.232Z" fill="white"/>
<path d="M64.4539 424.24C69.181 424.24 73.0131 420.408 73.0131 415.681C73.0131 410.954 69.181 407.122 64.4539 407.122C59.7268 407.122 55.8948 410.954 55.8948 415.681C55.8948 420.408 59.7268 424.24 64.4539 424.24Z" fill="white"/>
<path d="M526.13 138.467C530.857 138.467 534.689 134.635 534.689 129.908C534.689 125.181 530.857 121.349 526.13 121.349C521.403 121.349 517.571 125.181 517.571 129.908C517.571 134.635 521.403 138.467 526.13 138.467Z" fill="white"/>
<path d="M482.135 138.467C486.862 138.467 490.694 134.635 490.694 129.908C490.694 125.181 486.862 121.349 482.135 121.349C477.408 121.349 473.576 125.181 473.576 129.908C473.576 134.635 477.408 138.467 482.135 138.467Z" fill="white"/>
<path d="M576.179 123.855C579.521 127.198 579.521 132.617 576.179 135.96C572.836 139.302 567.416 139.302 564.074 135.96C560.732 132.617 560.732 127.198 564.074 123.855C567.416 120.513 572.835 120.513 576.179 123.855Z" fill="white"/>
<path d="M20.4584 900.652C25.1855 900.652 29.0176 896.82 29.0176 892.093C29.0176 887.366 25.1855 883.534 20.4584 883.534C15.7314 883.534 11.8993 887.366 11.8993 892.093C11.8993 896.82 15.7314 900.652 20.4584 900.652Z" fill="white"/>
<path d="M108.449 900.652C113.176 900.652 117.009 896.82 117.009 892.093C117.009 887.366 113.176 883.534 108.449 883.534C103.722 883.534 99.8903 887.366 99.8903 892.093C99.8903 896.82 103.722 900.652 108.449 900.652Z" fill="white"/>
<path d="M64.4539 856.656C69.181 856.656 73.0131 852.824 73.0131 848.097C73.0131 843.37 69.181 839.538 64.4539 839.538C59.7268 839.538 55.8948 843.37 55.8948 848.097C55.8948 852.824 59.7268 856.656 64.4539 856.656Z" fill="white"/>
<path d="M64.4539 944.647C69.181 944.647 73.0131 940.815 73.0131 936.088C73.0131 931.36 69.181 927.528 64.4539 927.528C59.7268 927.528 55.8948 931.36 55.8948 936.088C55.8948 940.815 59.7268 944.647 64.4539 944.647Z" fill="white"/>
<path d="M152.367 72.5138C157.094 72.5138 160.926 68.6817 160.926 63.9547C160.926 59.2276 157.094 55.3955 152.367 55.3955C147.639 55.3955 143.807 59.2276 143.807 63.9547C143.807 68.6817 147.639 72.5138 152.367 72.5138Z" fill="white"/>
<path d="M240.357 72.5138C245.085 72.5138 248.917 68.6817 248.917 63.9547C248.917 59.2276 245.085 55.3955 240.357 55.3955C235.63 55.3955 231.798 59.2276 231.798 63.9547C231.798 68.6817 235.63 72.5138 240.357 72.5138Z" fill="white"/>
<path d="M196.362 28.5177C201.089 28.5177 204.921 24.6856 204.921 19.9586C204.921 15.2315 201.089 11.3994 196.362 11.3994C191.635 11.3994 187.803 15.2315 187.803 19.9586C187.803 24.6856 191.635 28.5177 196.362 28.5177Z" fill="white"/>
<path d="M196.362 116.509C201.089 116.509 204.921 112.677 204.921 107.95C204.921 103.223 201.089 99.3906 196.362 99.3906C191.635 99.3906 187.803 103.223 187.803 107.95C187.803 112.677 191.635 116.509 196.362 116.509Z" fill="white"/>
<path d="M460.176 900.652C464.903 900.652 468.735 896.82 468.735 892.093C468.735 887.366 464.903 883.534 460.176 883.534C455.449 883.534 451.617 887.366 451.617 892.093C451.617 896.82 455.449 900.652 460.176 900.652Z" fill="white"/>
<path d="M416.181 900.652C420.908 900.652 424.74 896.82 424.74 892.093C424.74 887.366 420.908 883.534 416.181 883.534C411.454 883.534 407.622 887.366 407.622 892.093C407.622 896.82 411.454 900.652 416.181 900.652Z" fill="white"/>
<path d="M504.172 900.652C508.899 900.652 512.731 896.82 512.731 892.093C512.731 887.366 508.899 883.534 504.172 883.534C499.445 883.534 495.613 887.366 495.613 892.093C495.613 896.82 499.445 900.652 504.172 900.652Z" fill="white"/>
<path d="M460.176 856.656C464.903 856.656 468.735 852.824 468.735 848.097C468.735 843.37 464.903 839.538 460.176 839.538C455.449 839.538 451.617 843.37 451.617 848.097C451.617 852.824 455.449 856.656 460.176 856.656Z" fill="white"/>
<path d="M460.176 944.647C464.903 944.647 468.735 940.815 468.735 936.088C468.735 931.36 464.903 927.528 460.176 927.528C455.449 927.528 451.617 931.36 451.617 936.088C451.617 940.815 455.449 944.647 460.176 944.647Z" fill="white"/>
<path d="M42.4564 226.419C47.1834 226.419 51.0155 222.587 51.0155 217.86C51.0155 213.133 47.1834 209.301 42.4564 209.301C37.7293 209.301 33.8972 213.133 33.8972 217.86C33.8972 222.587 37.7293 226.419 42.4564 226.419Z" fill="white"/>
<path d="M20.4584 204.421C25.1855 204.421 29.0176 200.589 29.0176 195.862C29.0176 191.135 25.1855 187.303 20.4584 187.303C15.7314 187.303 11.8993 191.135 11.8993 195.862C11.8993 200.589 15.7314 204.421 20.4584 204.421Z" fill="white"/>
<path d="M108.449 204.421C113.176 204.421 117.009 200.589 117.009 195.862C117.009 191.135 113.176 187.303 108.449 187.303C103.722 187.303 99.8903 191.135 99.8903 195.862C99.8903 200.589 103.722 204.421 108.449 204.421Z" fill="white"/>
<path d="M64.454 160.426C69.1811 160.426 73.0132 156.594 73.0132 151.867C73.0132 147.14 69.1811 143.308 64.454 143.308C59.727 143.308 55.8949 147.14 55.8949 151.867C55.8949 156.594 59.727 160.426 64.454 160.426Z" fill="white"/>
<path d="M64.454 248.416C69.1811 248.416 73.0132 244.584 73.0132 239.857C73.0132 235.13 69.1811 231.298 64.454 231.298C59.727 231.298 55.8949 235.13 55.8949 239.857C55.8949 244.584 59.727 248.416 64.454 248.416Z" fill="white"/>
<path d="M86.4517 182.423C91.1788 182.423 95.0109 178.591 95.0109 173.864C95.0109 169.137 91.1788 165.305 86.4517 165.305C81.7246 165.305 77.8926 169.137 77.8926 173.864C77.8926 178.591 81.7246 182.423 86.4517 182.423Z" fill="white"/>
<path opacity="0.35" d="M592.084 -2L625.061 30.9765L493.154 162.884L460.176 129.908L592.084 -2Z" fill="url(#paint18_linear_480_81)"/>
<path opacity="0.35" d="M460.176 129.908L427.2 162.884L361.246 96.9306L394.222 63.9541L460.176 129.908Z" fill="url(#paint19_linear_480_81)"/>
<path d="M510.185 26.0496C513.527 22.7073 513.527 17.2875 510.185 13.9452C506.843 10.6029 501.423 10.6029 498.081 13.9452C494.738 17.2884 494.738 22.7073 498.081 26.0496C501.423 29.3919 506.842 29.3919 510.185 26.0496Z" fill="white"/>
<path d="M488.187 4.05267C489.859 2.38107 490.695 0.190994 490.695 -2H473.577C473.577 0.19008 474.412 2.38107 476.083 4.05267C479.425 7.39494 484.844 7.39494 488.187 4.05267Z" fill="white"/>
<path d="M576.178 4.05267C577.85 2.38107 578.685 0.190994 578.685 -2H561.567C561.567 0.19008 562.402 2.38107 564.074 4.05267C567.416 7.39494 572.835 7.39494 576.178 4.05267Z" fill="white"/>
<path d="M520.078 35.9423C516.735 39.2845 516.735 44.7044 520.078 48.0467C523.421 51.3889 528.84 51.3889 532.182 48.0467C535.524 44.7044 535.524 39.2845 532.182 35.9423C528.84 32.6 523.421 32.6 520.078 35.9423Z" fill="white"/>
<path opacity="0.35" d="M592.084 -2L559.108 30.9765L526.13 -2H592.084Z" fill="url(#paint20_linear_480_81)"/>
<path opacity="0.35" d="M262.316 63.9539L229.338 96.9304L130.408 -2H196.362L262.316 63.9539Z" fill="url(#paint21_linear_480_81)"/>
<path d="M4.55279 91.9643C7.89598 88.6221 7.89598 83.2022 4.55279 79.8599C2.8812 78.1883 0.691117 77.3525 -1.49988 77.3525V94.4717C0.691117 94.4717 2.8812 93.6359 4.55279 91.9643Z" fill="white"/>
<path d="M4.55279 167.85C2.8812 166.179 0.691116 165.343 -1.49988 165.343V182.462C0.691116 182.462 2.8812 181.626 4.55279 179.955C7.89506 176.612 7.89506 171.193 4.55279 167.85Z" fill="white"/>
<path d="M42.4955 138.468C47.2226 138.468 51.0547 134.636 51.0547 129.909C51.0547 125.182 47.2226 121.35 42.4955 121.35C37.7685 121.35 33.9364 125.182 33.9364 129.909C33.9364 134.636 37.7685 138.468 42.4955 138.468Z" fill="white"/>
<path d="M26.5506 157.958C29.8928 154.616 29.8928 149.196 26.5506 145.853C23.2074 142.511 17.7884 142.511 14.4462 145.853C11.1039 149.196 11.1039 154.616 14.4462 157.958C17.7884 161.301 23.2074 161.301 26.5506 157.958Z" fill="white"/>
<path opacity="0.35" d="M130.408 63.9541L163.384 96.9306L31.4766 228.838L-1.49988 195.862L130.408 63.9541Z" fill="url(#paint22_linear_480_81)"/>
<path opacity="0.35" d="M196.362 129.908L229.338 162.885L97.4305 294.792L64.454 261.816L196.362 129.908Z" fill="url(#paint23_linear_480_81)"/>
<path opacity="0.35" d="M130.408 327.768L97.4303 360.745L31.4764 294.791L64.4538 261.814L130.408 327.768Z" fill="url(#paint24_linear_480_81)"/>
<path opacity="0.35" d="M130.408 327.769L163.384 360.745L31.4765 492.653L-1.5 459.675L130.408 327.769Z" fill="url(#paint25_linear_480_81)"/>
<path opacity="0.35" d="M196.362 393.722L229.338 426.699L97.4305 558.607L64.454 525.629L196.362 393.722Z" fill="url(#paint26_linear_480_81)"/>
<path opacity="0.35" d="M64.454 525.63L97.4305 492.653L163.384 558.607L130.408 591.584L64.454 525.63Z" fill="url(#paint27_linear_480_81)"/>
<path d="M4.55267 651.487C2.88107 649.815 0.690994 648.979 -1.5 648.979V666.098C0.690994 666.098 2.88107 665.262 4.55267 663.591C7.89494 660.249 7.89494 654.83 4.55267 651.487Z" fill="white"/>
<path d="M42.4954 666.099C47.2225 666.099 51.0546 662.267 51.0546 657.54C51.0546 652.813 47.2225 648.98 42.4954 648.98C37.7683 648.98 33.9363 652.813 33.9363 657.54C33.9363 662.267 37.7683 666.099 42.4954 666.099Z" fill="white"/>
<path d="M4.55267 619.595C7.89586 616.253 7.89586 610.833 4.55267 607.491C2.88107 605.819 0.690995 604.983 -1.5 604.983V622.103C0.690995 622.103 2.88107 621.267 4.55267 619.595Z" fill="white"/>
<path d="M4.55267 695.482C2.88107 693.81 0.690994 692.975 -1.5 692.975V710.094C0.690994 710.094 2.88107 709.258 4.55267 707.586C7.89494 704.244 7.89494 698.825 4.55267 695.482Z" fill="white"/>
<path opacity="0.35" d="M-1.5 657.538L31.4765 690.515L-1.5 723.492V657.538Z" fill="url(#paint28_linear_480_81)"/>
<path opacity="0.35" d="M130.408 459.676L163.384 426.699L295.292 558.607L262.315 591.583L130.408 459.676Z" fill="url(#paint29_linear_480_81)"/>
<path d="M14.4058 1017.95C12.7342 1019.62 11.8993 1021.81 11.8993 1024H29.0176C29.0176 1021.81 28.1818 1019.62 26.5102 1017.95C23.1679 1014.61 17.749 1014.61 14.4058 1017.95Z" fill="white"/>
<path d="M102.397 1017.95C100.725 1019.62 99.8894 1021.81 99.8894 1024H117.009C117.009 1021.81 116.173 1019.62 114.501 1017.95C111.159 1014.61 105.74 1014.61 102.397 1017.95Z" fill="white"/>
<path opacity="0.35" d="M130.408 892.091L163.384 859.114L229.338 925.068L196.362 958.045L130.408 892.091Z" fill="url(#paint30_linear_480_81)"/>
<path opacity="0.35" d="M196.362 826.139L229.338 793.162L361.246 925.07L328.268 958.046L196.362 826.139Z" fill="url(#paint31_linear_480_81)"/>
<path opacity="0.35" d="M394.222 760.184L427.2 793.161L295.292 925.069L262.315 892.091L394.222 760.184Z" fill="url(#paint32_linear_480_81)"/>
<path d="M322.217 1017.95C320.545 1019.62 319.71 1021.81 319.71 1024H336.829C336.829 1021.81 335.993 1019.62 334.322 1017.95C330.979 1014.6 325.559 1014.6 322.217 1017.95Z" fill="white"/>
<path opacity="0.35" d="M262.315 1024L295.292 991.024L328.268 1024H262.315Z" fill="url(#paint33_linear_480_81)"/>
<path opacity="0.35" d="M394.222 892.091L427.2 859.114L493.154 925.068L460.176 958.045L394.222 892.091Z" fill="url(#paint34_linear_480_81)"/>
<path opacity="0.35" d="M460.176 826.139L493.154 859.116L361.246 991.024L328.268 958.046L460.176 826.139Z" fill="url(#paint35_linear_480_81)"/>
</g>
<defs>
<linearGradient id="paint0_linear_480_81" x1="72.6982" y1="154.641" x2="56.2097" y2="138.152" gradientUnits="userSpaceOnUse">
<stop stop-color="white"/>
<stop offset="1" stop-color="#BBBCBF"/>
</linearGradient>
<linearGradient id="paint1_linear_480_81" x1="212.85" y1="278.302" x2="196.361" y2="261.814" gradientUnits="userSpaceOnUse">
<stop stop-color="white"/>
<stop offset="1" stop-color="#BBBCBF"/>
</linearGradient>
<linearGradient id="paint2_linear_480_81" x1="278.804" y1="608.072" x2="262.315" y2="591.584" gradientUnits="userSpaceOnUse">
<stop stop-color="white"/>
<stop offset="1" stop-color="#BBBCBF"/>
</linearGradient>
<linearGradient id="paint3_linear_480_81" x1="179.873" y1="1007.51" x2="163.384" y2="991.023" gradientUnits="userSpaceOnUse">
<stop stop-color="white"/>
<stop offset="1" stop-color="#BBBCBF"/>
</linearGradient>
<linearGradient id="paint4_linear_480_81" x1="410.711" y1="743.694" x2="394.223" y2="760.183" gradientUnits="userSpaceOnUse">
<stop stop-color="white"/>
<stop offset="1" stop-color="#BBBCBF"/>
</linearGradient>
<linearGradient id="paint5_linear_480_81" x1="72.698" y1="801.406" x2="56.2095" y2="817.894" gradientUnits="userSpaceOnUse">
<stop stop-color="white"/>
<stop offset="1" stop-color="#BBBCBF"/>
</linearGradient>
<linearGradient id="paint6_linear_480_81" x1="72.698" y1="682.269" x2="56.2096" y2="665.781" gradientUnits="userSpaceOnUse">
<stop stop-color="white"/>
<stop offset="1" stop-color="#BBBCBF"/>
</linearGradient>
<linearGradient id="paint7_linear_480_81" x1="616.817" y1="138.152" x2="600.328" y2="121.663" gradientUnits="userSpaceOnUse">
<stop stop-color="white"/>
<stop offset="1" stop-color="#BBBCBF"/>
</linearGradient>
<linearGradient id="paint8_linear_480_81" x1="286.815" y1="72.4307" x2="270.327" y2="55.9423" gradientUnits="userSpaceOnUse">
<stop stop-color="white"/>
<stop offset="1" stop-color="#BBBCBF"/>
</linearGradient>
<linearGradient id="paint9_linear_480_81" x1="47.9655" y1="80.4424" x2="14.9886" y2="47.4655" gradientUnits="userSpaceOnUse">
<stop stop-color="white"/>
<stop offset="1" stop-color="#BBBCBF"/>
</linearGradient>
<linearGradient id="paint10_linear_480_81" x1="97.4309" y1="96.9306" x2="130.408" y2="63.9537" gradientUnits="userSpaceOnUse">
<stop stop-color="white"/>
<stop offset="1" stop-color="#BBBCBF"/>
</linearGradient>
<linearGradient id="paint11_linear_480_81" x1="592.084" y1="63.9537" x2="625.061" y2="30.9769" gradientUnits="userSpaceOnUse">
<stop stop-color="white"/>
<stop offset="1" stop-color="#BBBCBF"/>
</linearGradient>
<linearGradient id="paint12_linear_480_81" x1="14.9883" y1="410.21" x2="-17.9886" y2="443.187" gradientUnits="userSpaceOnUse">
<stop stop-color="white"/>
<stop offset="1" stop-color="#BBBCBF"/>
</linearGradient>
<linearGradient id="paint13_linear_480_81" x1="14.9883" y1="809.649" x2="-17.9886" y2="776.672" gradientUnits="userSpaceOnUse">
<stop stop-color="white"/>
<stop offset="1" stop-color="#BBBCBF"/>
</linearGradient>
<linearGradient id="paint14_linear_480_81" x1="278.804" y1="14.4885" x2="311.781" y2="-18.4884" gradientUnits="userSpaceOnUse">
<stop stop-color="white"/>
<stop offset="1" stop-color="#BBBCBF"/>
</linearGradient>
<linearGradient id="paint15_linear_480_81" x1="130.408" y1="958.046" x2="97.4307" y2="925.069" gradientUnits="userSpaceOnUse">
<stop stop-color="white"/>
<stop offset="1" stop-color="#BBBCBF"/>
</linearGradient>
<linearGradient id="paint16_linear_480_81" x1="674.526" y1="14.4884" x2="707.503" y2="-18.4884" gradientUnits="userSpaceOnUse">
<stop stop-color="white"/>
<stop offset="1" stop-color="#BBBCBF"/>
</linearGradient>
<linearGradient id="paint17_linear_480_81" x1="509.642" y1="941.558" x2="493.153" y2="925.069" gradientUnits="userSpaceOnUse">
<stop stop-color="white"/>
<stop offset="1" stop-color="#BBBCBF"/>
</linearGradient>
<linearGradient id="paint18_linear_480_81" x1="559.107" y1="96.9306" x2="526.13" y2="63.9537" gradientUnits="userSpaceOnUse">
<stop stop-color="white"/>
<stop offset="1" stop-color="#BBBCBF"/>
</linearGradient>
<linearGradient id="paint19_linear_480_81" x1="394.223" y1="129.908" x2="427.2" y2="96.9309" gradientUnits="userSpaceOnUse">
<stop stop-color="white"/>
<stop offset="1" stop-color="#BBBCBF"/>
</linearGradient>
<linearGradient id="paint20_linear_480_81" x1="542.619" y1="14.4885" x2="575.596" y2="-18.4884" gradientUnits="userSpaceOnUse">
<stop stop-color="white"/>
<stop offset="1" stop-color="#BBBCBF"/>
</linearGradient>
<linearGradient id="paint21_linear_480_81" x1="179.873" y1="47.4653" x2="212.85" y2="14.4884" gradientUnits="userSpaceOnUse">
<stop stop-color="white"/>
<stop offset="1" stop-color="#BBBCBF"/>
</linearGradient>
<linearGradient id="paint22_linear_480_81" x1="97.4307" y1="162.885" x2="64.4539" y2="129.908" gradientUnits="userSpaceOnUse">
<stop stop-color="white"/>
<stop offset="1" stop-color="#BBBCBF"/>
</linearGradient>
<linearGradient id="paint23_linear_480_81" x1="163.384" y1="228.839" x2="130.408" y2="195.862" gradientUnits="userSpaceOnUse">
<stop stop-color="white"/>
<stop offset="1" stop-color="#BBBCBF"/>
</linearGradient>
<linearGradient id="paint24_linear_480_81" x1="64.4537" y1="327.768" x2="97.4306" y2="294.791" gradientUnits="userSpaceOnUse">
<stop stop-color="white"/>
<stop offset="1" stop-color="#BBBCBF"/>
</linearGradient>
<linearGradient id="paint25_linear_480_81" x1="97.4305" y1="426.699" x2="64.4536" y2="393.722" gradientUnits="userSpaceOnUse">
<stop stop-color="white"/>
<stop offset="1" stop-color="#BBBCBF"/>
</linearGradient>
<linearGradient id="paint26_linear_480_81" x1="163.385" y1="492.653" x2="130.408" y2="459.676" gradientUnits="userSpaceOnUse">
<stop stop-color="white"/>
<stop offset="1" stop-color="#BBBCBF"/>
</linearGradient>
<linearGradient id="paint27_linear_480_81" x1="130.408" y1="525.63" x2="97.4308" y2="558.607" gradientUnits="userSpaceOnUse">
<stop stop-color="white"/>
<stop offset="1" stop-color="#BBBCBF"/>
</linearGradient>
<linearGradient id="paint28_linear_480_81" x1="14.9883" y1="674.026" x2="-17.9886" y2="707.003" gradientUnits="userSpaceOnUse">
<stop stop-color="white"/>
<stop offset="1" stop-color="#BBBCBF"/>
</linearGradient>
<linearGradient id="paint29_linear_480_81" x1="229.338" y1="492.653" x2="196.361" y2="525.63" gradientUnits="userSpaceOnUse">
<stop stop-color="white"/>
<stop offset="1" stop-color="#BBBCBF"/>
</linearGradient>
<linearGradient id="paint30_linear_480_81" x1="196.361" y1="892.091" x2="163.384" y2="925.068" gradientUnits="userSpaceOnUse">
<stop stop-color="white"/>
<stop offset="1" stop-color="#BBBCBF"/>
</linearGradient>
<linearGradient id="paint31_linear_480_81" x1="295.292" y1="859.116" x2="262.315" y2="892.093" gradientUnits="userSpaceOnUse">
<stop stop-color="white"/>
<stop offset="1" stop-color="#BBBCBF"/>
</linearGradient>
<linearGradient id="paint32_linear_480_81" x1="361.246" y1="859.115" x2="328.269" y2="826.138" gradientUnits="userSpaceOnUse">
<stop stop-color="white"/>
<stop offset="1" stop-color="#BBBCBF"/>
</linearGradient>
<linearGradient id="paint33_linear_480_81" x1="311.78" y1="1007.51" x2="278.803" y2="1040.49" gradientUnits="userSpaceOnUse">
<stop stop-color="white"/>
<stop offset="1" stop-color="#BBBCBF"/>
</linearGradient>
<linearGradient id="paint34_linear_480_81" x1="460.176" y1="892.091" x2="427.2" y2="925.068" gradientUnits="userSpaceOnUse">
<stop stop-color="white"/>
<stop offset="1" stop-color="#BBBCBF"/>
</linearGradient>
<linearGradient id="paint35_linear_480_81" x1="427.2" y1="925.07" x2="394.223" y2="892.093" gradientUnits="userSpaceOnUse">
<stop stop-color="white"/>
<stop offset="1" stop-color="#BBBCBF"/>
</linearGradient>
<clipPath id="clip0_480_81">
<rect width="1026" height="1026" fill="white" transform="translate(-1.5 -2)"/>
</clipPath>
</defs>
</svg>
