<svg width="260" height="202" viewBox="0 0 260 202" fill="none" xmlns="http://www.w3.org/2000/svg">
<g id="Final view - ShapeUp 1">
<g id="Dev settings - light">
<g id="Mouse-watching">
<g id="Mouse-dev">
<g id="upperbody">
<g id="t-shirt">
<path id="Subtract" d="M102.801 153.26C111.172 152.977 119.593 153.232 125.443 153.764C149.013 155.905 172.126 162.473 185.081 174.951C188.17 177.927 190.675 181.239 192.476 184.898H36.2744C38.9166 178.087 42.658 173.144 48.1191 169.146C55.4009 163.816 65.7068 160.186 80.4189 155.982C86.0949 154.361 94.4334 153.542 102.801 153.26Z" fill="#00C6BC" stroke="#2C3C52" stroke-width="1.3" stroke-linecap="round"/>
</g>
<path id="neck" d="M106.771 138.949C113.703 137.506 123.414 137.608 135.005 141.292C135.532 143.619 135.817 147.346 135.823 150.781C135.827 152.58 135.754 154.277 135.604 155.624C135.53 156.298 135.437 156.874 135.329 157.325C135.217 157.796 135.103 158.065 135.021 158.181C129.052 166.646 113.896 173.451 97.8438 168.596C95.9641 168.027 94.7489 166.597 93.9932 164.948C93.2349 163.294 92.9746 161.488 92.9746 160.332C92.9747 158.839 93.2609 156.666 93.7051 154.094C94.1475 151.531 94.7379 148.616 95.3311 145.65C95.5417 144.597 96.5623 143.291 98.54 142.036C100.49 140.799 103.267 139.679 106.771 138.949Z" fill="#F0F2F4" stroke="#2C3C52" stroke-width="1.3" stroke-linecap="round"/>
</g>
<g id="head">
<g id="ears">
<g id="ear">
<path id="Vector" d="M239.718 68.0777C241.625 96.9399 221.076 121.726 193.918 123.52C166.759 125.314 143.129 103.446 141.223 74.5834C139.316 45.7212 159.88 20.9168 187.039 19.123C214.198 17.3291 237.828 39.1971 239.734 68.0594L239.718 68.0777Z" fill="#F0F4F8" stroke="#2C3C52" stroke-width="1.3"/>
<path id="Vector 80" d="M193.176 34.2682C193.533 34.241 193.802 33.9282 193.777 33.5695C193.751 33.2108 193.441 32.9421 193.084 32.9692L193.13 33.6187L193.176 34.2682ZM163.56 56.2362C163.418 56.5672 163.57 56.9497 163.899 57.0907C164.228 57.2316 164.609 57.0775 164.751 56.7465L164.155 56.4914L163.56 56.2362ZM193.13 33.6187L193.084 32.9692C186.864 33.4426 181.475 34.5209 176.631 37.8947C171.79 41.2662 167.573 46.8725 163.56 56.2362L164.155 56.4914L164.751 56.7465C168.714 47.5011 172.805 42.1414 177.367 38.964C181.926 35.7889 187.036 34.7355 193.176 34.2682L193.13 33.6187Z" fill="#2C3C52"/>
</g>
<g id="ear2">
<path id="Vector_2" d="M48.8476 17.3239C62.8336 16.1182 72.8751 20.3395 79.709 27.9597C86.568 35.6081 90.2648 46.7577 91.3646 59.5157C92.4627 72.2546 90.3143 84.1875 84.4415 93.2172C78.5839 102.223 68.9789 108.409 55.0016 109.614C27.0651 112.022 6.81224 92.3349 4.62767 66.9927C2.44786 41.7028 20.8589 19.7365 48.8476 17.3239Z" fill="#F0F4F8" stroke="#2C3C52" stroke-width="1.3"/>
<path id="Vector 81" d="M69.4457 57.7619C69.3749 58.1162 69.603 58.449 69.9552 58.5053C70.3074 58.5616 70.6503 58.3201 70.7212 57.9659L70.0834 57.8639L69.4457 57.7619ZM58.5545 30.8877C58.2428 30.7221 57.8453 30.8458 57.6665 31.1639C57.4878 31.4821 57.5955 31.8743 57.9071 32.0399L58.2308 31.4638L58.5545 30.8877ZM70.0834 57.8639L70.7212 57.9659C72.3745 49.6983 70.0189 36.9808 58.5545 30.8877L58.2308 31.4638L57.9071 32.0399C68.7443 37.7997 71.0247 49.8661 69.4457 57.7619L70.0834 57.8639Z" fill="#2C3C52"/>
</g>
</g>
<path id="Vector_3" fill-rule="evenodd" clip-rule="evenodd" d="M127.142 151.369C153.523 144.22 172.762 126.304 175.504 100.25C179.075 66.3157 154.771 35.9453 121.212 32.4139C87.6527 28.8825 57.5602 53.5289 53.9894 87.4629C51.2477 113.517 64.9396 137.454 86.6193 148.785C91.0466 155.829 97.3867 159.726 107.438 159.108C117.49 158.491 120.664 153.124 127.142 151.369Z" fill="#F1F5F9" stroke="#2C3C52" stroke-width="1.3" stroke-miterlimit="10"/>
<g id="mouth">
<path id="3" d="M105.672 115.643C106.592 120.373 100.158 124.672 97.5984 124.672C95.0384 124.672 89.7907 122.075 89.0569 118.302C88.1883 113.836 93.1576 113.598 96.3676 112.984C99.3988 112.405 104.88 111.571 105.672 115.643Z" fill="#F8C4D5" stroke="#2C3C52" stroke-width="1.3"/>
<path id="2" d="M97.6162 125.654C98.0981 129.946 99.127 134.504 101.043 137.649" stroke="#2C3C52" stroke-width="1.3" stroke-linecap="round"/>
<path id="1" d="M122.465 129.606C117.5 133.623 113.798 136.111 108.232 137.296C102.666 138.48 86.7694 139.024 82.5344 129.368" stroke="#2C3C52" stroke-width="1.3" stroke-linecap="round"/>
<path id="4" d="M109.893 143.229C108.287 144.007 107.087 144.486 105.269 144.693C103.451 144.901 98.2431 144.925 96.8035 142.968" stroke="#F9CB54" stroke-width="1.3" stroke-linecap="round"/>
<path id="5" d="M109.893 143.229C108.287 144.007 107.087 144.486 105.269 144.693C103.451 144.901 98.2434 144.925 96.8038 142.968" stroke="#2C3C52" stroke-width="1.3" stroke-linecap="round"/>
<path id="6" d="M118.75 127.939C119.883 127.941 121.264 128.003 122.199 128.456C123.133 128.909 124.926 130.599 124.567 132.38" stroke="#2C3C52" stroke-width="1.3" stroke-linecap="round"/>
</g>
</g>
<g id="glasses-dev">
<path id="Vector_4" d="M134.4 120.152C148.648 119.452 159.602 107.152 158.866 92.6774C158.13 78.2033 145.982 67.0367 131.734 67.7363C117.486 68.4358 106.532 80.7365 107.268 95.2107C108.004 109.685 120.151 120.851 134.4 120.152Z" fill="#EF6694" stroke="#2C3C52" stroke-width="1.3"/>
<path id="Vector_5" d="M71.7768 117.592C84.3328 116.975 93.9464 105.365 93.2493 91.6595C92.5523 77.9542 81.8086 67.3435 69.2527 67.96C56.6967 68.5764 47.0831 80.1866 47.7801 93.8919C48.4772 107.597 59.2208 118.208 71.7768 117.592Z" fill="#EF6694" stroke="#2C3C52" stroke-width="1.3"/>
<path id="Vector 74" d="M107.001 91.7165C102.01 89.9757 98.8423 90.2837 93.7096 91.7163" stroke="#2C3C52" stroke-width="1.3" stroke-linecap="round"/>
<path id="Vector 75" d="M175.456 92.7475C169.554 93.9173 165.178 93.226 159.412 92.7474" stroke="#2C3C52" stroke-width="1.3" stroke-linecap="round"/>
<path id="Subtract_2" d="M73.5177 87.6334C79.1575 87.8854 83.8455 91.2264 85.4792 95.6733C82.6977 94.0442 79.1496 92.9134 75.2247 92.5786C69.2425 92.0683 63.8089 93.5249 60.4659 96.1554C61.8188 91.0261 67.2113 87.3516 73.5177 87.6334Z" fill="#2C3C52"/>
<path id="Subtract_3" d="M132.726 88.4125C139.031 88.9535 144.255 92.6313 146.677 97.5939C143.396 95.5623 139.331 94.1001 134.832 93.5209C127.444 92.57 120.586 94.216 116.104 97.5171C118.746 91.633 125.351 87.7797 132.726 88.4125Z" fill="#2C3C52"/>
</g>
</g>
<g id="Group 27243">
<path id="Vector_6" d="M33.9122 174.098C40.0022 172.203 42.8987 179.537 44.561 184.558L38.0013 184.558C38.0004 184.297 38.7982 180.992 38.4998 182.425C37.2882 188.241 33.5963 199.017 31.1671 200.176C19.0886 205.941 21.5592 177.941 33.9122 174.098Z" fill="#F0F4F8" stroke="#2C3C52" stroke-width="1.3"/>
<path id="Vector_7" d="M24.3046 173C27.3243 173 28.5403 173.476 30.0694 175.196C25.1337 181.194 22.5673 187.145 22.1085 194.961C21.8415 199.51 19.9124 200.726 18.1977 200.974C8.1084 201.275 13.1828 175.201 24.3046 173Z" fill="#F0F4F8" stroke="#2C3C52" stroke-width="1.3"/>
<path id="Vector_8" d="M11.9517 176.843C14.4223 174.647 18.9022 174.377 20.0002 174.926C19.1767 176.024 18.7787 175.91 16.5002 179.426C14.2218 182.941 12.5842 188.94 12.5002 194.926C12.4486 198.61 6.98144 198.2 6.46153 194.865C5.3583 187.786 9.44727 179.07 11.9517 176.843Z" fill="#F0F4F8" stroke="#2C3C52" stroke-width="1.3"/>
</g>
<g id="Group 27245">
<path id="Vector_9" d="M164.636 174.098C170.726 172.203 173.622 179.537 175.285 184.558L168.725 184.558C168.724 184.297 169.522 180.992 169.223 182.425C168.012 188.241 164.32 199.017 161.891 200.176C149.812 205.941 152.283 177.941 164.636 174.098Z" fill="#F0F4F8" stroke="#2C3C52" stroke-width="1.3"/>
<path id="Vector_10" d="M155.028 173C158.048 173 159.264 173.476 160.793 175.196C155.857 181.194 153.291 187.145 152.832 194.961C152.565 199.51 150.636 200.726 148.921 200.974C138.832 201.275 143.906 175.201 155.028 173Z" fill="#F0F4F8" stroke="#2C3C52" stroke-width="1.3"/>
<path id="Vector_11" d="M142.675 176.843C145.146 174.647 149.626 174.377 150.724 174.926C149.9 176.024 149.502 175.91 147.224 179.426C144.945 182.941 143.308 188.94 143.224 194.926C143.172 198.61 137.705 198.2 137.185 194.865C136.082 187.786 140.171 179.07 142.675 176.843Z" fill="#F0F4F8" stroke="#2C3C52" stroke-width="1.3"/>
</g>
</g>
</g>
</g>
</svg>
