<svg width="165" height="129" viewBox="0 0 165 129" fill="none" xmlns="http://www.w3.org/2000/svg">
<path d="M141.629 49.0347H141.579L113.107 61.1925L74.1503 77.8272C73.9981 77.8912 73.8347 77.9246 73.6696 77.9255C73.5045 77.9263 73.3408 77.8946 73.1879 77.8321L32.9965 61.1578L3.82448 49.0545L3.77992 49.0347H3.73029C3.26999 49.0352 2.82869 49.2182 2.50321 49.5437C2.17773 49.8692 1.99465 50.3105 1.99414 50.7708V126.169C1.99465 126.629 2.17773 127.07 2.50321 127.396C2.82869 127.721 3.26999 127.904 3.73029 127.905H141.629C142.089 127.904 142.53 127.721 142.856 127.396C143.181 127.07 143.364 126.629 143.365 126.169V50.7708C143.364 50.3105 143.181 49.8692 142.856 49.5437C142.53 49.2182 142.089 49.0352 141.629 49.0347Z" fill="#1F2D40"/>
<path d="M3.31409 49.5267C3.24947 49.5153 3.19202 49.4787 3.15433 49.4249C3.11665 49.3712 3.10181 49.3047 3.11303 49.24M3.31409 49.5267L3.21423 49.0799C3.16064 49.1178 3.12426 49.1754 3.11303 49.24M3.31409 49.5267C3.37871 49.5382 3.44526 49.5236 3.49913 49.4861L3.31409 49.5267ZM3.11303 49.24L2.76819 49.1802C2.74114 49.336 2.77689 49.4963 2.86779 49.6259C2.95863 49.7554 3.09711 49.8437 3.25294 49.8714L3.25296 49.8714C3.40877 49.899 3.56918 49.8638 3.69905 49.7734L3.70012 49.7726L71.7972 2.00666M3.11303 49.24L2.76819 49.1802C2.79525 49.0243 2.88293 48.8855 3.01219 48.7941L3.01324 48.7934L71.111 1.027L71.1117 1.02654C71.4618 0.782104 71.8785 0.650705 72.3055 0.650003C72.7326 0.649301 73.1496 0.779334 73.5005 1.02261L73.5011 1.02305L142.093 48.7922L142.093 48.7923C142.197 48.8651 142.276 48.9693 142.317 49.0899C142.358 49.2103 142.36 49.3408 142.322 49.4623C142.283 49.5838 142.208 49.6899 142.105 49.7652C142.002 49.8404 141.878 49.881 141.751 49.881L71.7972 2.00666M71.7972 2.00666C71.7974 2.00652 71.7976 2.00638 71.7978 2.00623L71.7972 2.00666Z" fill="#8995A5" stroke="#8995A5" stroke-width="0.7"/>
<path d="M7.3916 51.2243L72.3753 3.06323L137.852 54.651L75.7236 91.4817L41.9931 83.7934L7.3916 51.2243Z" fill="white" fill-opacity="0.16"/>
<path d="M73.2882 78.0495C73.0442 78.0498 72.8025 78.0025 72.5766 77.9102L32.499 61.2808V9.22807C32.4996 8.76778 32.6826 8.32651 33.0081 8.00104C33.3336 7.67557 33.7749 7.49248 34.2351 7.49194H111.121C111.581 7.49248 112.023 7.67557 112.348 8.00104C112.674 8.32651 112.857 8.76778 112.857 9.22807V61.3171L112.782 61.3493L74.0213 77.902C73.7892 77.9996 73.54 78.0497 73.2882 78.0495Z" fill="#1F2D40"/>
<path d="M73.2893 78.5232C73.6044 78.5234 73.9163 78.4606 74.2067 78.3384L74.2085 78.3376L113.12 61.7206L113.332 61.6299V61.3987V9.22781V9.22742C113.331 8.64156 113.098 8.07989 112.684 7.66562C112.27 7.25136 111.708 7.01834 111.122 7.01768H111.122L34.2361 7.01768L34.2357 7.01768C33.6499 7.01834 33.0882 7.25136 32.6739 7.66562C32.2597 8.07989 32.0266 8.64156 32.026 9.22742V9.22781V61.3634V61.5971L32.2418 61.6866L72.3962 78.348L72.3981 78.3488C72.681 78.4642 72.9837 78.5235 73.2893 78.5232ZM73.2893 78.5232C73.2891 78.5232 73.289 78.5232 73.2888 78.5232L73.2892 78.1732L73.2896 78.5232C73.2895 78.5232 73.2894 78.5232 73.2893 78.5232ZM72.8522 77.2422C72.8518 77.2421 72.8514 77.2419 72.8511 77.2418L33.222 60.7983L33.222 9.22823C33.222 9.22817 33.222 9.22811 33.222 9.22805C33.2224 8.95915 33.3294 8.70137 33.5195 8.51122C33.7097 8.32108 33.9674 8.2141 34.2363 8.21374H111.122C111.391 8.2141 111.648 8.32108 111.839 8.51122L112.085 8.26438L111.839 8.51122C112.029 8.70141 112.136 8.95927 112.136 9.22823V60.8402L73.7418 77.2365C73.7414 77.2367 73.741 77.2368 73.7405 77.237C73.4567 77.3558 73.1374 77.3576 72.8522 77.2422Z" fill="#8995A5" stroke="#8995A5" stroke-width="0.7"/>
<mask id="path-6-outside-1_2004_38943" maskUnits="userSpaceOnUse" x="0.621094" y="48.0347" width="144" height="81" fill="black">
<rect fill="white" x="0.621094" y="48.0347" width="144" height="81"/>
<path d="M141.256 49.0347H141.206L112.734 61.1925L73.7773 77.8272C73.625 77.8912 73.4617 77.9246 73.2965 77.9255C73.1314 77.9263 72.9677 77.8946 72.8149 77.8321L32.6235 61.1578L3.45146 49.0545L3.40688 49.0347H3.35721C2.89692 49.0352 2.45564 49.2182 2.13016 49.5437C1.80469 49.8692 1.6216 50.3105 1.62109 50.7708V126.169C1.6216 126.629 1.80469 127.07 2.13016 127.396C2.45564 127.721 2.89692 127.904 3.35721 127.905H141.256C141.716 127.904 142.157 127.721 142.483 127.396C142.808 127.07 142.991 126.629 142.992 126.169V50.7708C142.991 50.3105 142.808 49.8692 142.483 49.5437C142.157 49.2182 141.716 49.0352 141.256 49.0347ZM142.496 126.169C142.496 126.497 142.365 126.813 142.132 127.045C141.9 127.278 141.585 127.409 141.256 127.409H3.35721C3.02836 127.409 2.71301 127.278 2.48048 127.045C2.24794 126.813 2.11727 126.497 2.11714 126.169V50.7708C2.11759 50.4501 2.24196 50.142 2.46429 49.9109C2.68662 49.6798 2.98967 49.5436 3.3101 49.5307L32.6235 61.6935L72.624 78.291C73.057 78.4672 73.5422 78.4645 73.9732 78.2835L112.734 61.7308L141.305 49.5307C141.625 49.5445 141.927 49.6811 142.149 49.9121C142.371 50.1431 142.495 50.4506 142.496 50.7708V126.169Z"/>
</mask>
<path d="M141.256 49.0347H141.206L112.734 61.1925L73.7773 77.8272C73.625 77.8912 73.4617 77.9246 73.2965 77.9255C73.1314 77.9263 72.9677 77.8946 72.8149 77.8321L32.6235 61.1578L3.45146 49.0545L3.40688 49.0347H3.35721C2.89692 49.0352 2.45564 49.2182 2.13016 49.5437C1.80469 49.8692 1.6216 50.3105 1.62109 50.7708V126.169C1.6216 126.629 1.80469 127.07 2.13016 127.396C2.45564 127.721 2.89692 127.904 3.35721 127.905H141.256C141.716 127.904 142.157 127.721 142.483 127.396C142.808 127.07 142.991 126.629 142.992 126.169V50.7708C142.991 50.3105 142.808 49.8692 142.483 49.5437C142.157 49.2182 141.716 49.0352 141.256 49.0347ZM142.496 126.169C142.496 126.497 142.365 126.813 142.132 127.045C141.9 127.278 141.585 127.409 141.256 127.409H3.35721C3.02836 127.409 2.71301 127.278 2.48048 127.045C2.24794 126.813 2.11727 126.497 2.11714 126.169V50.7708C2.11759 50.4501 2.24196 50.142 2.46429 49.9109C2.68662 49.6798 2.98967 49.5436 3.3101 49.5307L32.6235 61.6935L72.624 78.291C73.057 78.4672 73.5422 78.4645 73.9732 78.2835L112.734 61.7308L141.305 49.5307C141.625 49.5445 141.927 49.6811 142.149 49.9121C142.371 50.1431 142.495 50.4506 142.496 50.7708V126.169Z" fill="#8995A5"/>
<path d="M141.256 49.0347L141.257 48.3347H141.256V49.0347ZM141.206 49.0347V48.3347H141.063L140.931 48.3909L141.206 49.0347ZM112.734 61.1925L112.459 60.5488V60.5488L112.734 61.1925ZM73.7773 77.8272L74.0487 78.4724L74.0522 78.471L73.7773 77.8272ZM72.8149 77.8321L72.5466 78.4787L72.5501 78.4801L72.8149 77.8321ZM32.6235 61.1578L32.3552 61.8044L32.3552 61.8044L32.6235 61.1578ZM3.45146 49.0545L3.1669 49.6941L3.17501 49.6977L3.1832 49.7011L3.45146 49.0545ZM3.40688 49.0347L3.69143 48.3951L3.55558 48.3347H3.40688V49.0347ZM3.35721 49.0347V48.3347L3.35644 48.3347L3.35721 49.0347ZM1.62109 50.7708L0.921094 50.77V50.7708H1.62109ZM1.62109 126.169H0.921093L0.921094 126.169L1.62109 126.169ZM3.35721 127.905L3.35644 128.605H3.35721V127.905ZM141.256 127.905V128.605H141.257L141.256 127.905ZM142.992 126.169L143.692 126.169V126.169H142.992ZM142.992 50.7708H143.692V50.77L142.992 50.7708ZM142.496 126.169L143.196 126.169V126.169H142.496ZM141.256 127.409V128.109H141.256L141.256 127.409ZM3.35721 127.409L3.35693 128.109H3.35721V127.409ZM2.11714 126.169H1.41714L1.41714 126.169L2.11714 126.169ZM2.11714 50.7708L1.41714 50.7698V50.7708H2.11714ZM3.3101 49.5307L3.57838 48.8842L3.43602 48.8251L3.28203 48.8313L3.3101 49.5307ZM32.6235 61.6935L32.8917 61.047L32.8917 61.047L32.6235 61.6935ZM72.624 78.291L72.3557 78.9375L72.3602 78.9394L72.624 78.291ZM73.9732 78.2835L74.2442 78.929L74.2481 78.9273L73.9732 78.2835ZM112.734 61.7308L112.459 61.087L112.459 61.087L112.734 61.7308ZM141.305 49.5307L141.336 48.8314L141.177 48.8245L141.03 48.8869L141.305 49.5307ZM142.496 50.7708H143.196L143.196 50.7692L142.496 50.7708ZM141.256 48.3347H141.206V49.7347H141.256V48.3347ZM140.931 48.3909L112.459 60.5488L113.008 61.8363L141.481 49.6784L140.931 48.3909ZM112.459 60.5488L73.5024 77.1834L74.0522 78.471L113.008 61.8363L112.459 60.5488ZM73.5058 77.182C73.4385 77.2103 73.3661 77.2251 73.2929 77.2255L73.3001 78.6255C73.5572 78.6241 73.8116 78.5721 74.0487 78.4724L73.5058 77.182ZM73.2929 77.2255C73.2198 77.2258 73.1473 77.2118 73.0796 77.1841L72.5501 78.4801C72.7881 78.5774 73.043 78.6268 73.3001 78.6255L73.2929 77.2255ZM73.0831 77.1856L32.8917 60.5113L32.3552 61.8044L72.5466 78.4787L73.0831 77.1856ZM32.8917 60.5113L3.71971 48.4079L3.1832 49.7011L32.3552 61.8044L32.8917 60.5113ZM3.73601 48.415L3.69143 48.3951L3.12232 49.6742L3.1669 49.6941L3.73601 48.415ZM3.40688 48.3347H3.35721V49.7347H3.40688V48.3347ZM3.35644 48.3347C2.71076 48.3354 2.09175 48.5922 1.63519 49.0488L2.62514 50.0387C2.81953 49.8443 3.08308 49.735 3.35799 49.7347L3.35644 48.3347ZM1.63519 49.0488C1.17863 49.5053 0.92181 50.1243 0.921094 50.77L2.32109 50.7716C2.3214 50.4967 2.43074 50.2331 2.62514 50.0387L1.63519 49.0488ZM0.921094 50.7708V126.169H2.32109V50.7708H0.921094ZM0.921094 126.169C0.92181 126.815 1.17863 127.434 1.63519 127.891L2.62514 126.901C2.43074 126.706 2.3214 126.443 2.32109 126.168L0.921094 126.169ZM1.63519 127.891C2.09175 128.347 2.71076 128.604 3.35644 128.605L3.35799 127.205C3.08308 127.204 2.81954 127.095 2.62514 126.901L1.63519 127.891ZM3.35721 128.605H141.256V127.205H3.35721V128.605ZM141.257 128.605C141.902 128.604 142.521 128.347 142.978 127.891L141.988 126.901C141.793 127.095 141.53 127.204 141.255 127.205L141.257 128.605ZM142.978 127.891C143.434 127.434 143.691 126.815 143.692 126.169L142.292 126.168C142.292 126.443 142.182 126.706 141.988 126.901L142.978 127.891ZM143.692 126.169V50.7708H142.292V126.169H143.692ZM143.692 50.77C143.691 50.1244 143.434 49.5053 142.978 49.0488L141.988 50.0387C142.182 50.2331 142.292 50.4967 142.292 50.7716L143.692 50.77ZM142.978 49.0488C142.521 48.5922 141.902 48.3354 141.257 48.3347L141.255 49.7347C141.53 49.735 141.793 49.8443 141.988 50.0387L142.978 49.0488ZM141.796 126.168C141.796 126.312 141.739 126.449 141.637 126.55L142.627 127.54C142.991 127.176 143.196 126.683 143.196 126.169L141.796 126.168ZM141.637 126.55C141.536 126.652 141.399 126.709 141.255 126.709L141.256 128.109C141.77 128.108 142.264 127.904 142.627 127.54L141.637 126.55ZM141.256 126.709H3.35721V128.109H141.256V126.709ZM3.3575 126.709C3.2142 126.709 3.07678 126.652 2.97545 126.55L1.9855 127.54C2.34924 127.904 2.84252 128.108 3.35693 128.109L3.3575 126.709ZM2.97545 126.55C2.87415 126.449 2.81719 126.312 2.81714 126.168L1.41714 126.169C1.41734 126.683 1.62174 127.176 1.9855 127.54L2.97545 126.55ZM2.81714 126.169V50.7708H1.41714V126.169H2.81714ZM2.81713 50.7718C2.81733 50.6317 2.87167 50.4971 2.96875 50.3962L1.95982 49.4256C1.61225 49.7869 1.41784 50.2685 1.41714 50.7698L2.81713 50.7718ZM2.96875 50.3962C3.06585 50.2953 3.19821 50.2358 3.33818 50.2301L3.28203 48.8313C2.78113 48.8514 2.30738 49.0643 1.95982 49.4256L2.96875 50.3962ZM3.04183 50.1773L32.3552 62.3401L32.8917 61.047L3.57838 48.8842L3.04183 50.1773ZM32.3552 62.3401L72.3557 78.9375L72.8923 77.6444L32.8917 61.047L32.3552 62.3401ZM72.3602 78.9394C72.9648 79.1854 73.6423 79.1816 74.2442 78.929L73.7023 77.6381C73.4421 77.7473 73.1492 77.7489 72.8878 77.6426L72.3602 78.9394ZM74.2481 78.9273L113.008 62.3745L112.459 61.087L73.6983 77.6398L74.2481 78.9273ZM113.008 62.3745L141.58 50.1745L141.03 48.8869L112.459 61.087L113.008 62.3745ZM141.275 50.2301C141.415 50.2361 141.547 50.2958 141.644 50.3969L142.654 49.4273C142.308 49.0664 141.835 48.8529 141.336 48.8314L141.275 50.2301ZM141.644 50.3969C141.741 50.4979 141.795 50.6324 141.796 50.7724L143.196 50.7692C143.195 50.2689 143.001 49.7883 142.654 49.4273L141.644 50.3969ZM141.796 50.7708V126.169H143.196V50.7708H141.796Z" fill="#8995A5" mask="url(#path-6-outside-1_2004_38943)"/>
<path d="M78.1306 32.0713H50.8485C50.3228 32.0706 49.8189 31.8612 49.4474 31.4892C49.0759 31.1172 48.8672 30.6129 48.8672 30.0872C48.8672 29.5614 49.0759 29.0572 49.4474 28.6852C49.8189 28.3131 50.3228 28.1038 50.8485 28.103H78.1306C78.6564 28.1038 79.1603 28.3131 79.5318 28.6852C79.9033 29.0572 80.112 29.5614 80.112 30.0872C80.112 30.6129 79.9033 31.1172 79.5318 31.4892C79.1603 31.8612 78.6564 32.0706 78.1306 32.0713Z" fill="#8995A5"/>
<path d="M92.5157 43.5684H50.8485C50.3228 43.5677 49.8188 43.3583 49.4473 42.9863C49.0758 42.6142 48.8672 42.11 48.8672 41.5843C48.8672 41.0585 49.0758 40.5543 49.4473 40.1822C49.8188 39.8102 50.3228 39.6008 50.8485 39.6001H92.5157C93.0414 39.6008 93.5454 39.8102 93.9169 40.1822C94.2884 40.5543 94.497 41.0585 94.497 41.5843C94.497 42.11 94.2884 42.6142 93.9169 42.9863C93.5454 43.3583 93.0414 43.5677 92.5157 43.5684Z" fill="#ADEADE"/>
<path d="M92.5185 55.0652H50.8513C50.3251 55.0652 49.8204 54.8562 49.4483 54.4841C49.0762 54.112 48.8672 53.6073 48.8672 53.0811C48.8672 52.5548 49.0762 52.0502 49.4483 51.6781C49.8204 51.306 50.3251 51.0969 50.8513 51.0969H92.5185C93.0447 51.0969 93.5494 51.306 93.9215 51.6781C94.2936 52.0502 94.5027 52.5548 94.5027 53.0811C94.5027 53.6073 94.2936 54.112 93.9215 54.4841C93.5494 54.8562 93.0447 55.0652 92.5185 55.0652Z" fill="#8995A5"/>
<path d="M143.417 108.924C154.994 108.924 164.379 99.5393 164.379 87.9622C164.379 76.3851 154.994 67 143.417 67C131.84 67 122.455 76.3851 122.455 87.9622C122.455 99.5393 131.84 108.924 143.417 108.924Z" fill="#ADEADE"/>
<path fill-rule="evenodd" clip-rule="evenodd" d="M154.412 81.1312C154.868 81.5818 154.868 82.3123 154.412 82.763L141.579 95.4553C141.123 95.9059 140.385 95.9059 139.929 95.4553L134.096 89.686C133.64 89.2354 133.64 88.5048 134.096 88.0542C134.551 87.6036 135.29 87.6036 135.746 88.0542L140.754 93.0076L152.762 81.1312C153.218 80.6806 153.957 80.6806 154.412 81.1312Z" fill="#1F2D40"/>
</svg>
