<svg width="229" height="200" viewBox="0 0 229 200" fill="none" xmlns="http://www.w3.org/2000/svg">
  <ellipse cx="170.904" cy="31.2" rx="26.6719" ry="30.4" fill="white" />
  <ellipse cx="59.041" cy="31.2" rx="27.8662" ry="30.4" fill="white" />
  <path
    d="M2.21484 192.429C3.01189 192.295 3.84214 192.062 4.63919 192.062C19.2517 192.028 33.831 192.028 48.4435 192.062C49.0745 192.062 49.7055 192.295 50.3364 192.429C34.2959 192.429 18.2554 192.429 2.21484 192.429Z"
    fill="#9DA7B4" />
  <path
    d="M181.218 192.429C182.015 192.295 182.845 192.062 183.642 192.062C198.354 192.028 213.033 192.062 227.745 192.062C227.181 192.195 226.616 192.495 226.052 192.495C211.207 192.495 196.362 192.495 181.55 192.495C181.45 192.495 181.351 192.462 181.218 192.429Z"
    fill="#9DA7B4" />
  <path
    d="M46.7173 4.57426C55.2191 -0.227126 67.5733 1.13994 75.5437 7.77518C81.9533 13.1434 84.9422 20.3788 86.4699 28.3478C86.5363 28.7479 86.3371 29.3481 86.0382 29.6815C80.8574 36.15 78.4995 43.6522 78.0013 51.8212C77.9681 52.2547 77.9017 52.6882 77.8353 53.1216C74.946 51.988 73.053 47.4867 74.1489 44.2857C74.7135 42.7186 75.4441 41.2182 76.1083 39.7177C77.2375 37.217 77.4367 34.5829 76.208 32.1489C74.0825 27.9143 73.9829 23.6464 75.5437 19.2452C75.8426 18.4449 75.8094 17.5113 75.9091 16.6444C74.7135 15.5774 74.0825 15.6441 73.1194 17.2446C70.0973 22.1793 67.9718 27.5476 68.4036 33.4159C68.636 36.5835 67.8722 39.2843 66.6434 42.0184C66.3777 42.6186 66.112 43.2521 65.9128 43.8856C65.5807 44.9526 66.112 45.4861 67.1084 45.5861C67.6065 45.6194 68.1047 45.5194 68.5696 45.4527C71.4257 45.0193 71.4257 45.0193 72.1895 47.6867C73.3851 50.1207 74.5474 52.5881 75.8759 55.2889C72.8869 58.023 69.101 60.0903 64.5844 60.6571C63.4552 60.357 62.3593 60.057 61.2301 59.7902C55.7505 58.5232 50.7357 56.1225 46.4516 52.5214C33.5328 41.5849 31.8059 22.6461 42.4664 9.47568C43.828 7.77518 45.2892 6.20807 46.7173 4.57426Z"
    fill="#F0F2F4" />
  <path
    d="M164.945 60.6904C160.362 60.2903 156.576 58.0897 153.123 55.2555C154.351 53.255 155.514 51.3211 156.676 49.3872C156.875 47.9201 157.075 46.453 157.241 44.9859C158.569 45.1193 159.864 45.3193 161.193 45.3193C163.252 45.3527 163.617 44.8525 162.753 42.9186C161.027 39.1509 160.495 35.2498 160.628 31.1152C160.794 26.0138 158.735 21.4791 155.945 17.3113C155.613 16.8111 154.617 16.7111 153.953 16.4443C152.259 17.0445 153.289 18.3115 153.521 19.0784C155.015 23.7131 155.148 28.1477 152.857 32.6157C151.894 34.5162 152.06 36.6168 152.857 38.5841C153.455 40.0845 154.218 41.4849 154.75 43.0187C155.182 44.3191 155.547 45.6861 155.613 47.0198C155.713 49.4872 153.886 51.121 152.624 52.9882C152.292 53.1883 151.993 53.3883 151.462 53.6884C151.196 51.3211 150.997 49.0871 150.698 46.8531C149.901 40.6847 147.311 35.2831 143.658 30.3484C142.927 29.3481 142.728 28.5478 142.96 27.3475C144.521 19.7453 147.576 13.0434 153.587 7.90854C161.857 0.806493 174.012 0.172976 182.514 4.74096C183.277 5.67456 183.975 6.64151 184.805 7.50843C191.547 14.7438 194.602 23.3463 193.24 33.1492C191.414 46.4863 181.086 57.1227 167.901 59.8235C166.905 59.9569 165.942 60.357 164.945 60.6904Z"
    fill="#F0F2F4" />
  <path
    d="M86.3695 167.321C81.8529 165.021 77.4027 162.553 73.8825 158.786C67.34 151.75 64.7164 143.748 67.5725 134.145C70.1629 125.376 72.5873 116.54 76.9046 108.404C79.4618 103.603 82.4507 99.2018 86.7016 95.7341C87.5983 95.0006 88.5614 94.367 89.6905 93.5001C89.8566 94.7338 89.923 95.7675 90.1887 96.7344C90.3547 97.3679 90.8529 97.9014 91.185 98.4682C91.4174 97.8014 91.816 97.1679 91.816 96.501C91.7828 93.1667 91.6499 89.8324 91.5503 86.5315C91.5503 86.198 91.6167 85.8646 91.6831 85.2311C93.5761 86.2647 95.3363 87.1983 97.03 88.2653C97.3953 88.4987 97.4617 89.3656 97.4285 89.9324C97.196 94.267 96.9636 98.5683 96.6315 102.903C95.7348 115.273 96.2994 127.443 101.181 139.047C101.879 140.714 102.775 142.348 103.572 143.981C101.58 143.515 99.6204 143.014 97.6278 142.614C96.5983 142.414 95.5355 142.481 94.4728 142.414C92.3806 140.78 91.185 138.747 90.7865 136.012C90.1887 131.578 89.292 127.177 88.4285 122.742C88.3289 122.242 87.6979 121.808 87.3326 121.375C87.1333 121.908 86.6684 122.509 86.7348 123.009C87.1001 125.576 87.5983 128.143 88.0632 130.711C88.4617 132.878 88.8603 135.045 89.2256 137.246C87.3326 135.546 85.8049 133.712 84.1776 131.978C83.8455 131.611 83.0817 131.611 82.5171 131.444C82.65 131.978 82.6167 132.611 82.9156 133.012C83.7791 134.179 84.8086 135.279 86.0706 136.746C85.0411 136.446 84.5429 136.279 84.0116 136.179C81.6204 135.779 79.2293 135.346 76.8382 135.045C76.4396 135.012 75.9747 135.612 75.543 135.912C75.9747 136.179 76.3732 136.579 76.805 136.646C78.4987 136.946 80.2256 137.013 81.8861 137.379C85.2071 138.08 88.1629 139.547 90.8197 141.714C90.2551 141.747 89.6905 141.714 89.1924 141.581C85.6721 140.78 82.1518 141.014 78.7312 142.047C78.1998 142.214 77.8013 142.781 77.3363 143.181C77.9673 143.315 78.5651 143.481 79.1961 143.581C79.3289 143.615 79.495 143.481 79.661 143.448C83.3806 142.548 87.1333 142.448 90.7865 143.748C92.613 144.381 94.3067 145.482 96.0337 146.349C93.9414 146.582 92.0817 146.315 90.2219 146.415C85.0411 146.682 81.2219 149.183 78.9636 153.884C78.7976 154.251 79.03 154.851 79.0965 155.318C79.5282 155.085 80.126 154.985 80.3584 154.618C84.5761 147.682 92.9451 145.749 99.4211 150.083C98.2588 151.384 96.8307 152.584 95.9008 154.084C94.2735 156.752 94.0743 159.786 94.7053 162.787C95.3695 165.888 96.3326 168.955 97.2292 172.223C93.5761 170.556 89.9894 168.922 86.3695 167.321Z"
    fill="white" />
  <path
    d="M131.37 129.01C133.23 120.975 133.429 112.839 132.931 104.67C132.632 99.8019 132.3 94.9338 131.968 90.0657C131.868 88.7987 132.3 88.0318 133.529 87.5316C134.791 87.0315 135.92 86.1979 137.547 85.2977C137.547 87.8651 137.58 90.1657 137.547 92.4664C137.514 93.9668 137.282 95.4673 137.282 96.9677C137.282 97.4678 137.713 97.9347 137.913 98.4348C138.278 97.968 138.842 97.5679 138.942 97.0677C139.175 95.9341 139.141 94.7671 139.241 93.3667C142.296 95.0672 144.588 97.2678 146.647 99.7018C152.259 106.404 155.547 114.339 158.304 122.542C159.765 126.91 161.126 131.311 162.256 135.779C164.348 144.015 162.189 151.35 156.643 157.552C154.418 160.019 151.728 162.287 148.872 163.954C143.525 167.021 137.913 169.589 132.001 172.556C132.167 171.689 132.234 171.423 132.267 171.189C133.031 168.722 133.994 166.254 134.525 163.754C135.621 158.419 135.056 153.551 129.61 150.383C130.44 150.016 131.071 149.683 131.702 149.45C138.477 146.882 145.983 147.982 149.005 154.784C149.171 155.118 149.835 155.218 150.267 155.418C150.3 154.918 150.532 154.351 150.333 153.951C148.772 150.65 146.348 148.283 142.794 147.149C139.639 146.149 136.484 146.315 133.197 146.915C134.259 145.982 135.355 145.082 136.617 144.515C140.868 142.514 145.285 142.581 149.735 143.715C150.3 143.848 150.964 143.481 151.595 143.348C151.13 142.948 150.698 142.281 150.2 142.214C147.311 141.881 144.422 141.647 141.499 141.414C141.001 141.381 140.503 141.514 140.005 141.581C139.573 141.647 139.141 141.714 138.71 141.781C142.263 138.713 146.381 137.313 150.865 136.879C151.728 136.779 153.355 137.479 153.289 136.046C153.222 134.612 151.595 135.145 150.665 135.279C148.208 135.612 145.75 136.146 143.259 136.612C144.189 135.546 145.186 134.512 146.016 133.345C146.348 132.878 146.348 132.111 146.481 131.511C145.916 131.744 145.318 131.844 144.853 132.178C144.322 132.545 143.924 133.145 143.492 133.612C142.396 134.812 141.333 136.046 140.237 137.246C140.005 136.512 140.071 135.979 140.171 135.445C140.868 131.478 141.632 127.477 142.296 123.475C142.396 122.875 141.931 122.175 141.732 121.541C141.366 122.075 140.802 122.542 140.669 123.109C139.839 127.343 139.108 131.611 138.344 135.879C137.946 137.98 137.913 140.247 135.687 141.481C133.828 141.381 131.968 141.28 130.108 141.247C129.776 141.247 129.278 141.481 129.178 141.747C128.647 143.081 127.75 142.848 126.754 142.481C128.282 137.913 129.809 133.478 131.37 129.01Z"
    fill="white" />
  <path
    d="M142.395 169.789C149.469 166.621 156.709 164.554 164.547 166.588C164.945 166.688 165.476 166.321 165.941 166.154C165.576 165.754 165.277 165.087 164.879 165.021C162.388 164.62 159.864 164.32 157.34 164.02C158.934 163.02 158.436 161.186 159 159.752C164.181 159.519 169.395 158.719 174.51 159.152C184.107 159.986 189.952 169.722 186.399 178.691C182.646 188.194 175.44 194.362 165.842 197.297C162.986 198.163 159.532 198.23 156.676 196.096C155.58 195.296 154.285 194.729 152.989 194.229C151.761 193.762 150.432 193.529 149.17 193.195C149.17 193.129 149.104 192.995 149.137 192.929C150.93 189.794 149.868 187.494 146.314 187.06C144.62 186.86 142.86 186.694 141.2 186.994C136.75 187.827 132.532 186.593 128.248 185.893C127.75 185.827 127.285 185.76 126.787 185.66C126.122 185.426 125.458 185.193 124.827 184.96C126.288 183.993 127.882 183.159 129.211 182.059C133.528 178.458 137.779 174.79 142.03 171.089C142.296 170.856 142.296 170.222 142.395 169.789Z"
    fill="white" />
  <path
    d="M74.2815 190.395C74.6136 191.428 74.9125 192.462 75.145 193.229C72.7871 194.496 70.4624 195.896 67.9716 196.997C66.776 197.53 65.2152 197.863 64.0196 197.563C55.2521 195.463 44.492 186.26 42.3997 176.491C40.6728 168.455 46.1525 160.019 54.289 159.186C59.0048 158.685 63.8535 159.519 68.6358 159.752C68.3037 160.186 67.6395 160.819 67.7391 160.986C68.3701 162.053 69.2004 163.02 69.9642 164.054C68.1709 164.387 66.3775 164.654 64.6174 165.054C64.1524 165.154 63.7871 165.754 63.3886 166.121C63.9532 166.288 64.5509 166.754 65.0159 166.621C69.931 165.187 74.7465 165.888 79.5952 167.021C89.525 169.355 96.6984 176.091 104.27 182.526C103.075 183.093 101.912 183.693 100.717 184.193C95.2372 186.494 89.6247 187.694 83.6136 187.127C81.2889 186.927 78.8978 187.16 76.573 187.494C75.1782 187.661 74.0491 188.627 74.2815 190.395Z"
    fill="white" />
  <path
    d="M148.938 48.687C147.477 47.1866 146.282 45.5528 144.721 44.3524C136.319 37.8506 124.296 41.3516 120.511 51.3545C120.012 52.6215 119.448 53.0216 118.153 52.9883C115.795 52.8882 113.404 52.9216 111.012 52.9883C109.95 53.0216 109.518 52.6215 109.119 51.6545C106.529 45.0526 100.651 40.8848 94.1084 41.0181C89.0604 41.1182 84.9424 43.2521 81.721 47.1199C81.3225 47.6201 80.8907 48.1202 80.3926 48.7537C81.09 34.2495 93.3778 19.1785 112.507 18.0782C132.931 16.9445 147.809 32.0155 148.938 48.687Z"
    fill="#F9F9FB" />
  <path
    d="M147.809 68.1927C146.348 72.3939 144.355 75.7949 141.732 78.8291C139.008 81.9634 135.787 84.4307 132.034 86.2313C131.503 86.498 130.805 86.7647 130.54 87.1982C128.149 91.166 124.097 92.2997 120.045 93.1666C114.499 94.3669 109.053 93.8668 103.839 91.4661C101.879 90.5658 100.053 89.4322 98.8572 87.4983C98.4587 86.8648 97.6284 86.398 96.8978 86.0645C89.6912 82.5302 84.8093 76.8952 81.8536 69.4931C81.754 69.2597 81.6875 68.9929 81.5215 68.4261C87.3333 74.1278 93.7761 76.1617 101.016 72.6273C108.223 69.093 110.746 62.7578 110.149 54.8555C113.27 54.8555 116.226 54.8555 119.282 54.8555C118.717 63.3246 121.573 69.9265 129.743 73.1608C136.617 75.8949 142.529 73.661 147.809 68.1927ZM126.09 77.0619C125.492 77.9622 125.093 78.529 124.695 79.0959C123.532 80.763 121.341 81.5632 119.448 81.0631C117.355 80.5296 115.761 78.7624 115.529 76.7952C115.429 75.8283 115.496 75.1281 116.625 74.7279C117.654 74.3278 118.617 73.761 119.448 73.0274C121.274 71.427 121.108 69.2263 119.149 67.7926C117.023 66.2255 112.274 66.1588 110.115 67.6259C108.023 69.093 107.824 71.427 109.783 73.0941C110.647 73.8277 111.71 74.3612 112.772 74.7946C113.669 75.1614 113.901 75.6282 113.835 76.5285C113.669 78.4957 112.108 80.4296 110.149 80.9964C107.99 81.5966 105.831 80.7297 104.569 78.7624C104.27 78.2956 103.938 77.7955 103.573 77.2287C102.809 78.6624 103.407 80.3629 105.3 81.3965C106.562 82.0967 108.09 82.4968 109.518 82.5635C111.876 82.6302 113.37 80.9631 114.599 79.0959C118.186 82.8303 120.51 83.5305 123.566 81.83C125.492 80.7964 126.521 79.0625 126.09 77.0619ZM117.754 83.5638C116.591 83.9973 115.662 84.6641 114.732 84.6641C113.735 84.6641 112.739 84.0973 111.676 83.7639C111.876 85.331 112.639 85.9979 114.3 86.0979C116.293 86.1979 117.289 85.5644 117.754 83.5638Z"
    fill="#F9F9FB" />
  <path
    d="M104.469 48.0537C111.742 56.1894 108.056 68.5263 98.6906 71.6938C92.9785 73.6277 87.1999 72.0273 83.5136 67.5927C79.4951 62.7913 78.7645 56.156 81.6206 50.7545C84.7423 44.7861 91.9157 40.7182 99.4877 44.0859C98.8235 44.3193 98.126 44.5193 97.4951 44.7861C95.9674 45.3862 94.4065 45.9197 92.9785 46.6866C92.3807 47.02 92.0818 47.887 91.6501 48.4871C91.7829 48.5872 91.9489 48.7205 92.0818 48.8206C92.3807 48.7205 92.7128 48.6538 92.9453 48.4871C96.698 45.7864 100.517 45.6196 104.469 48.0537ZM102.809 54.7223C101.879 54.2221 100.916 53.822 100.052 53.2218C96.2663 50.7211 91.3512 51.488 88.3622 55.2558C91.7829 55.1557 95.0043 56.5895 98.4249 55.5225C99.7534 55.1224 101.381 55.5892 102.842 55.6559C104.336 56.5228 105.831 57.3897 107.458 58.3566C106.495 56.2227 104.768 55.3224 102.809 54.7223Z"
    fill="#F6A7C2" />
  <path
    d="M121.141 57.9897C121.24 53.8219 122.403 50.1208 125.69 47.32C127.683 47.0199 129.709 46.2864 131.635 46.5531C133.561 46.8198 135.321 48.0535 137.181 48.8538C137.314 48.6871 137.447 48.5203 137.58 48.3536C136.949 47.6868 136.417 46.7198 135.653 46.4197C133.528 45.5862 131.303 45.0527 129.144 44.3858C134.392 41.7851 139.406 42.3519 143.856 46.053C148.738 50.0875 150.399 55.4557 148.871 61.5908C147.377 67.5258 143.458 71.1602 137.414 72.2605C129.244 73.761 121.24 67.059 121.174 58.7233C123.266 57.623 125.358 56.4893 127.451 55.389C129.31 55.5557 131.17 55.8558 133.03 55.8224C135.587 55.7891 138.144 55.4557 140.735 55.2556C140.768 55.0556 140.768 54.8555 140.801 54.6554C138.775 53.7218 136.849 52.4215 134.724 51.9547C133.229 51.6212 131.436 52.3214 129.842 52.8216C128.746 53.155 127.816 53.8886 126.786 54.4554C125.79 54.7888 124.694 54.9222 123.864 55.4557C122.868 56.0892 122.037 57.0895 121.141 57.9897Z"
    fill="#F6A7C2" />
  <path
    d="M119.813 146.716C119.248 143.515 118.584 140.314 118.152 137.113C116.591 125.876 116.724 114.54 116.824 103.203C116.824 102.703 116.824 102.203 116.79 101.703C117.322 101.402 117.82 100.969 118.385 100.769C120.111 100.202 121.905 99.802 123.565 99.1351C126.853 97.8014 129.012 95.4674 129.477 91.7663C129.51 91.5329 129.676 91.2995 129.942 90.666C130.34 95.234 130.672 99.3352 131.038 103.47C131.735 111.005 131.436 118.507 130.34 126.01C129.477 129.21 128.846 132.511 127.65 135.579C126.421 138.747 124.628 141.714 123.067 144.748C121.573 144.648 120.61 145.515 119.813 146.716Z"
    fill="white" />
  <path
    d="M76.5725 192.062C75.3769 190.128 75.6758 189.194 77.8345 188.761C79.2293 188.494 80.7238 188.327 82.1186 188.561C86.5355 189.394 90.7864 188.594 95.1038 187.861C96.2993 187.661 97.5613 187.827 98.7901 187.861C100.55 187.894 102.31 187.961 104.104 187.994C103.971 188.261 103.871 188.561 103.705 188.928C109.285 190.728 114.731 191.295 120.111 188.561C121.34 187.927 122.569 187.327 123.797 186.694C125.325 187.027 126.886 187.327 128.414 187.661C132.731 188.628 137.048 189.461 141.532 188.661C143.059 188.394 144.753 188.528 146.314 188.828C147.078 188.961 148.34 190.128 148.24 190.295C147.742 191.395 146.945 192.395 146.148 193.362C146.048 193.462 145.318 192.996 144.886 192.795C143.724 192.329 142.594 191.762 141.432 191.428C141.067 191.328 140.535 191.829 140.104 192.062C140.469 192.395 140.834 192.795 141.266 193.029C141.731 193.262 142.362 193.262 142.827 193.496C145.019 194.663 145.152 195.53 143.491 197.43C142.329 196.83 141.2 196.13 140.004 195.696C139.506 195.53 138.775 195.896 138.144 196.03C138.51 196.463 138.808 196.93 139.24 197.263C139.639 197.597 140.17 197.764 140.569 198.264C140.037 198.297 139.539 198.364 139.008 198.364C136.118 198.364 133.262 198.297 130.373 198.397C126.653 198.53 123.2 197.964 119.879 196.03C116.425 193.996 112.572 193.996 109.085 195.963C105.499 198.03 101.779 198.53 97.7938 198.397C93.5761 198.264 89.3916 198.33 85.1739 198.297C84.5761 198.297 83.9784 198.23 83.3142 197.897C83.9119 197.63 84.5761 197.43 85.1075 197.063C85.4396 196.83 85.5724 196.296 85.8049 195.896C85.3732 195.73 84.8418 195.363 84.5097 195.463C83.1813 195.963 81.9193 196.63 80.5577 197.297C79.0965 196.33 79.03 194.863 80.6905 193.796C81.4212 193.329 82.3511 193.229 83.1481 192.829C83.4802 192.662 83.6463 192.229 83.8787 191.929C83.5798 191.728 83.2477 191.328 83.0153 191.362C81.9525 191.562 80.6905 191.628 79.9599 192.262C78.5983 193.529 77.6352 193.429 76.5725 192.062Z"
    fill="#F0F2F4" />
  <path
    d="M110.78 127.276C110.348 131.178 109.916 135.079 109.518 138.98C109.219 141.781 109.019 144.581 108.787 147.382C108.422 147.182 107.957 147.049 107.691 146.715C103.042 140.747 100.65 133.845 99.2224 126.51C97.4622 117.407 97.7943 108.271 98.691 99.135C98.9567 96.5009 99.0563 93.8668 99.3552 91.166C100.252 97.9347 105.067 99.9019 110.78 100.769C111.211 100.902 111.61 101.036 112.274 101.236C112.042 105.47 111.842 109.771 111.61 114.073C111.477 116.407 111.311 118.707 111.178 121.041C111.078 123.109 110.912 125.209 110.78 127.276Z"
    fill="white" />
  <path
    d="M115.529 165.854C116.293 164.787 117.123 163.754 117.853 162.653C118.152 162.22 118.252 161.653 118.451 161.153C117.887 161.22 117.256 161.153 116.724 161.353C116.359 161.486 116.093 161.953 115.794 162.32C114.167 157.185 118.02 155.985 121.507 154.551C120.61 153.151 119.647 153.684 118.75 153.984C118.02 154.218 117.256 154.751 116.857 153.584C116.459 152.517 116.06 151.417 117.256 150.583C118.75 149.583 120.577 149.783 122.005 150.883C123.4 151.95 124.794 153.017 126.289 153.951C128.68 155.451 129.909 159.719 128.547 162.953C127.318 165.921 125.924 168.788 124.529 171.689C123.732 173.323 122.104 173.323 120.643 173.223C119.68 173.156 118.75 172.69 117.787 172.389C117.588 172.123 117.355 171.856 117.023 171.489C117.621 171.456 118.02 171.456 118.418 171.422C119.215 171.422 120.079 171.623 120.776 171.356C121.473 171.089 121.972 170.356 122.536 169.789C121.806 169.722 121.075 169.689 120.344 169.622C119.481 169.722 118.617 169.789 117.355 169.922C118.152 168.855 118.85 168.122 119.315 167.255C119.547 166.855 119.381 166.221 119.414 165.687C118.949 165.888 118.385 165.954 118.053 166.288C117.322 166.988 116.691 167.821 115.628 168.488C115.628 167.655 115.562 166.754 115.529 165.854Z"
    fill="#F0F2F4" />
  <path
    d="M110.813 150.016C112.042 150.35 113.171 150.783 112.905 152.45C112.706 153.684 112.307 154.384 110.813 153.917C109.983 153.651 108.986 153.884 108.056 153.884C108.023 154.084 107.99 154.284 107.957 154.518C108.455 154.751 108.953 155.051 109.451 155.251C114.931 157.552 113.702 156.818 113.669 162.253C113.138 161.82 112.806 161.42 112.374 161.22C111.975 161.053 111.51 161.12 111.045 161.086C111.145 161.52 111.112 162.12 111.377 162.353C113.005 163.72 113.901 165.387 114.101 167.488C114.067 167.955 114.034 168.422 113.968 169.255C112.938 168.122 112.208 167.221 111.344 166.421C111.045 166.121 110.448 166.154 109.983 166.054C110.016 166.521 109.916 167.088 110.149 167.455C110.481 168.055 111.045 168.555 111.477 169.122C112.075 169.855 111.577 170.022 110.946 170.122C109.949 169.922 108.953 169.655 107.924 169.522C107.625 169.489 107.293 169.789 106.961 169.955C107.127 170.322 107.259 170.956 107.492 170.989C108.721 171.256 109.983 171.389 111.211 171.556C111.577 171.589 111.942 171.589 112.573 171.656C110.913 173.356 109.186 173.49 107.259 173.19C105.599 172.923 104.868 171.989 104.337 170.456C103.606 168.388 102.676 166.388 101.647 164.42C100.186 161.586 100.219 158.785 101.547 155.985C101.813 155.418 102.278 154.851 102.743 154.418C104.337 153.084 105.898 151.683 107.658 150.616C108.488 150.016 109.75 150.183 110.813 150.016Z"
    fill="#F0F2F4" />
  <path
    d="M72.2555 47.6869C71.4916 45.0195 71.4916 45.0195 68.6355 45.453C68.1374 45.5196 67.6392 45.6197 67.1743 45.5863C66.178 45.4863 65.6466 44.9528 65.9787 43.8858C66.178 43.2523 66.4105 42.6188 66.7094 42.0186C67.9381 39.2845 68.702 36.5837 68.4695 33.4161C68.0378 27.5478 70.1632 22.2129 73.1853 17.2448C74.1484 15.6444 74.8126 15.5777 75.975 16.6446C75.5433 17.0781 74.9123 17.4449 74.713 17.9784C72.9861 22.613 72.1226 27.281 74.5802 31.9491C76.1743 34.9499 75.4768 37.8508 74.0488 40.6849C72.9197 42.9189 71.9566 45.1195 72.2555 47.6869Z"
    fill="#D1D6DC" />
  <path
    d="M129.742 176.391C122.934 181.392 115.263 184.393 107.027 185.86C105.1 186.194 103.108 186.26 101.115 186.427C101.082 186.26 101.016 186.127 100.982 185.96C102.643 185.227 104.27 184.36 105.964 183.726C112.872 181.125 119.813 178.591 126.754 176.024C128.348 175.624 129.975 175.257 131.37 174.89C131.038 175.19 130.407 175.791 129.742 176.391Z"
    fill="white" />
  <path
    d="M99.5877 172.956C98.5249 169.655 97.1965 166.388 96.4991 163.02C96.0674 160.886 96.2999 158.486 96.798 156.352C97.3626 153.784 99.0895 152.117 101.946 152.15C101.846 152.484 101.846 152.884 101.647 153.117C98.4585 156.818 98.06 161.22 100.451 165.521C101.414 167.288 102.112 169.222 102.909 171.089C103.34 172.156 103.839 173.323 102.444 174.157C100.983 175.024 100.385 173.657 99.5877 172.956Z"
    fill="white" />
  <path
    d="M127.517 174.357C126.355 173.757 125.956 172.823 126.455 171.589C127.119 169.889 127.65 168.122 128.547 166.521C131.702 160.886 131.503 157.585 127.517 152.617C129.278 152.017 130.706 152.517 131.801 154.284C133.661 157.252 133.794 160.486 132.864 163.754C131.968 166.888 130.838 169.956 129.809 173.056C129.012 173.49 128.281 173.923 127.517 174.357Z"
    fill="white" />
  <path
    d="M124.794 184.993C123.432 184.693 122.037 184.36 120.51 184.026C124.096 181.725 127.451 179.558 130.772 177.424C132.698 175.957 134.558 174.39 136.55 173.056C138.41 171.823 140.436 170.856 142.395 169.755C142.262 170.222 142.296 170.822 141.997 171.089C137.746 174.79 133.495 178.458 129.178 182.059C127.849 183.226 126.255 184.026 124.794 184.993Z"
    fill="white" />
  <path
    d="M115.761 172.723C118.451 175.957 121.806 175.157 125.226 174.39C124.96 174.59 124.695 174.824 124.396 174.924C121.573 176.024 118.75 177.158 115.861 178.124C115.097 178.391 114.101 178.425 113.304 178.191C110.448 177.358 107.625 176.324 104.802 175.39C104.603 175.124 104.37 174.857 104.171 174.623C104.503 174.523 104.868 174.323 105.2 174.39C106.496 174.557 107.791 175.024 109.086 174.957C111.477 174.857 113.503 173.923 114.499 171.423C115.031 171.956 115.396 172.323 115.761 172.723Z"
    fill="#D1D6DC" />
  <path
    d="M152.624 52.955C153.886 51.0878 155.713 49.454 155.613 46.9866C155.547 45.6529 155.181 44.2858 154.75 42.9855C154.252 41.485 153.455 40.0513 152.857 38.5509C152.093 36.5836 151.894 34.483 152.857 32.5825C155.115 28.1479 155.015 23.6799 153.521 19.0452C153.289 18.3117 152.259 17.0113 153.953 16.4111C155.945 22.0461 157.373 27.6477 154.218 33.416C153.322 35.0498 153.82 36.8837 154.517 38.5842C155.447 40.7181 156.344 42.8521 157.274 44.986C157.074 46.4531 156.875 47.9202 156.709 49.3873C156.277 49.6874 155.812 49.9875 155.414 50.3209C154.451 51.1878 153.554 52.0881 152.624 52.955Z"
    fill="#9DA7B4" />
  <path
    d="M102.543 150.283C99.8527 147.682 97.1959 145.082 94.5059 142.481C95.5686 142.547 96.6313 142.481 97.6608 142.681C99.6534 143.048 101.613 143.581 103.605 144.048C104.535 145.382 105.465 146.715 106.628 148.416C105.2 149.083 103.871 149.683 102.543 150.283Z"
    fill="white" />
  <path
    d="M78.2994 164.82C75.5098 164.554 72.7533 164.32 69.9637 164.054C69.1998 163.053 68.3696 162.086 67.7386 160.986C67.639 160.819 68.3032 160.186 68.6353 159.752C70.9268 159.519 72.9526 159.919 74.6131 161.82C75.6426 162.987 77.0707 163.82 78.2994 164.82Z"
    fill="white" />
  <path
    d="M101.447 176.091C104.735 177.224 107.99 178.325 111.277 179.458C108.488 181.759 106.927 181.959 104.17 179.925C101.812 178.158 99.7202 176.057 97.5283 174.09C98.8567 174.757 100.152 175.424 101.447 176.091Z"
    fill="white" />
  <path
    d="M145.484 197.863C145.883 196.963 146.248 196.096 146.68 195.096C149.935 194.562 152.824 195.863 155.58 197.863C152.226 197.863 148.872 197.863 145.484 197.863Z"
    fill="#F9F9FB" />
  <path
    d="M102.344 92.533C106.097 94.5669 109.617 96.4674 113.336 98.5013C109.75 99.2682 102.311 96.4674 102.344 92.533Z"
    fill="white" />
  <path
    d="M104.47 48.0536C100.518 45.6196 96.6651 45.7863 92.9124 48.4871C92.6799 48.6538 92.3478 48.7205 92.0489 48.8205C91.9161 48.7205 91.75 48.5871 91.6172 48.4871C92.0489 47.8869 92.3478 47.02 92.9456 46.6866C94.3736 45.9197 95.9677 45.3862 97.4622 44.786C98.1264 44.5193 98.7906 44.3192 99.4548 44.0858C101.149 45.3862 102.809 46.7199 104.47 48.0536Z"
    fill="#9DA7B4" />
  <path
    d="M126.753 92.7666C125.624 96.1009 120.908 98.7684 116.292 98.7017C119.381 95.8342 122.967 94.4338 126.753 92.7666Z"
    fill="white" />
  <path
    d="M159.001 159.753C158.436 161.153 158.967 163.02 157.34 164.021C155.281 164.321 153.222 164.621 151.229 164.921C152.956 163.354 154.617 161.687 156.477 160.219C157.074 159.753 158.137 159.886 159.001 159.753Z"
    fill="white" />
  <path
    d="M129.144 44.3525C131.336 45.0193 133.561 45.5528 135.653 46.3864C136.417 46.6865 136.949 47.6534 137.58 48.3203C137.447 48.487 137.314 48.6537 137.181 48.8204C135.355 48.0202 133.561 46.7865 131.635 46.5198C129.709 46.253 127.683 46.9866 125.69 47.2867C126.853 46.3197 127.982 45.3528 129.144 44.3525Z"
    fill="#9DA7B4" />
  <path
    d="M77.6022 195.096C77.9011 196.13 78.1668 196.963 78.4325 197.93C75.7092 197.93 73.0524 197.93 69.9971 197.93C72.3882 196.063 74.8126 195.296 77.6022 195.096Z"
    fill="#F0F2F4" />
  <path
    d="M108.753 197.964C112.705 195.663 116.292 195.73 120.177 197.964C116.325 197.964 112.738 197.964 108.753 197.964Z"
    fill="#D1D6DC" />
  <path
    d="M111.144 171.456C109.916 171.289 108.654 171.156 107.425 170.889C107.192 170.823 107.06 170.222 106.894 169.856C107.226 169.689 107.558 169.389 107.857 169.422C108.886 169.555 109.882 169.822 110.879 170.022C110.978 170.489 111.078 170.989 111.144 171.456Z"
    fill="#9DA7B4" />
  <path
    d="M121.141 57.9898C122.037 57.1229 122.834 56.0893 123.864 55.4224C124.694 54.8889 125.79 54.7555 126.786 54.4221C127.019 54.7555 127.218 55.0556 127.451 55.3891C125.358 56.4894 123.266 57.623 121.174 58.7234C121.174 58.4566 121.141 58.2232 121.141 57.9898Z"
    fill="#9DA7B4" />
  <path
    d="M119.995 169.807C119.995 169.479 121.875 169.74 122.605 169.807C122.041 170.34 121.42 171.274 120.722 171.54C120.025 171.807 118.835 171.446 118.038 171.446C118.669 170.845 119.364 170.407 119.995 169.807Z"
    fill="#9DA7B4" />
  <path
    d="M157.274 45.0193C156.344 42.8854 155.447 40.7514 154.517 38.6175C153.787 36.917 153.322 35.0831 154.218 33.4493C157.373 27.681 155.945 22.0794 153.953 16.4444C154.65 16.7111 155.613 16.8112 155.945 17.3113C158.735 21.4792 160.794 26.0138 160.628 31.1153C160.495 35.2832 161.026 39.151 162.753 42.9187C163.617 44.8526 163.252 45.3527 161.193 45.3194C159.897 45.3194 158.569 45.1193 157.274 45.0193Z"
    fill="#D1D6DC" />
  <path
    d="M135.654 141.347C132.931 144.181 130.241 147.016 127.518 149.85C126.521 150.883 125.558 150.883 124.661 149.683C124.23 149.116 123.632 148.683 123.101 148.183C124.363 146.182 125.558 144.281 126.754 142.348C127.75 142.714 128.68 142.948 129.178 141.614C129.278 141.347 129.776 141.114 130.108 141.114C131.968 141.147 133.827 141.247 135.654 141.347Z"
    fill="white" />
  <path
    d="M123.831 186.694C122.603 187.294 121.374 187.927 120.145 188.561C114.765 191.328 109.319 190.762 103.739 188.928C103.905 188.561 104.005 188.294 104.138 187.994C108.522 186.927 112.872 185.86 117.256 184.827C117.555 184.76 117.92 184.76 118.219 184.86C120.079 185.46 121.938 186.094 123.831 186.694Z"
    fill="#D1D6DC" />
  <path fill-rule="evenodd" clip-rule="evenodd"
    d="M2.21512 192.428L0.919922 191.628C1.04427 191.535 1.16538 191.428 1.28629 191.322C1.55287 191.087 1.81847 190.853 2.11549 190.761C2.50451 190.646 2.92507 190.674 3.35543 190.702C3.54957 190.715 3.74592 190.728 3.94205 190.728H46.119H48.643C48.4391 190.469 48.2741 190.248 48.1299 190.056C47.9218 189.778 47.7568 189.558 47.5803 189.361C44.3589 185.693 41.7021 181.725 40.7058 176.824C38.6799 166.754 46.2187 157.252 56.4142 157.118C59.2154 157.095 62.0327 157.331 64.8437 157.567C66.0651 157.669 67.2855 157.771 68.5027 157.852C68.7253 157.864 68.9478 157.881 69.1858 157.9C69.587 157.93 70.0321 157.964 70.595 157.985C69.9972 157.085 69.5654 156.418 69.1337 155.751C64.8164 149.116 63.5212 142.014 65.6466 134.312C68.1706 125.142 70.8274 116.04 75.3108 107.604C78.6318 101.336 82.8163 95.8339 88.927 91.9662C89.3255 91.6994 89.5912 90.9992 89.6576 90.4657C89.8569 88.6319 89.9897 86.8313 90.0561 84.9975C90.0561 84.464 89.8569 83.7638 89.4916 83.4304C81.7868 76.495 78.0673 67.7925 77.9676 57.4562C77.9676 57.2913 77.9423 57.1265 77.9072 56.8987C77.8855 56.7579 77.8601 56.5929 77.8348 56.3892C77.6719 56.4801 77.5189 56.561 77.3744 56.6374C76.9886 56.8416 76.6635 57.0135 76.3735 57.2561C65.0156 66.2587 49.7057 63.9247 39.9087 54.3886C28.0195 42.9187 26.3922 24.3466 36.0563 11.2429C48.012 -4.99517 73.0525 -3.32802 83.3809 14.3771C85.5396 18.0448 86.868 22.046 87.8311 26.1472C87.8896 26.3821 87.9738 26.5911 88.0384 26.7515L88.0635 26.814C105.798 12.5099 123.432 12.5432 141.167 26.814C141.349 26.1854 141.519 25.5529 141.69 24.9191C142.017 23.704 142.346 22.4843 142.761 21.2791C146.447 10.7761 153.089 3.17386 164.314 0.706481C179.823 -2.6945 194.237 6.47481 198.189 21.9459C202.373 38.3507 193.738 55.5223 178.329 61.1239C169.462 64.3582 161.026 63.3246 153.322 57.6562C152.89 57.3228 152.425 57.0227 151.96 56.7227C151.919 56.702 151.853 56.7069 151.761 56.7136C151.704 56.7178 151.638 56.7227 151.561 56.7227C151.482 57.4782 151.418 58.2396 151.353 59.0035C151.201 60.8016 151.048 62.6131 150.698 64.3915C149.237 71.8604 145.617 78.1622 139.971 83.297C139.506 83.7304 139.174 84.564 139.174 85.2309C139.141 86.9314 139.274 88.6652 139.473 90.3657C139.506 90.8325 139.805 91.466 140.17 91.6994C147.211 95.934 151.595 102.403 155.115 109.571C159.333 118.174 162.222 127.276 164.314 136.612C165.875 143.648 164.082 150.15 160.096 156.085C159.966 156.289 159.828 156.487 159.682 156.699C159.494 156.97 159.291 157.262 159.067 157.618C159.268 157.631 159.454 157.653 159.63 157.674C159.92 157.708 160.181 157.739 160.429 157.718C161.403 157.652 162.377 157.589 163.351 157.526C165.299 157.4 167.248 157.274 169.196 157.118C174.709 156.685 179.823 157.585 184.008 161.52C189.82 166.988 190.949 174.757 186.864 182.226C185.877 184.015 184.627 185.646 183.382 187.273C182.91 187.889 182.438 188.504 181.982 189.128C181.835 189.349 181.658 189.549 181.439 189.797C181.262 189.998 181.057 190.23 180.82 190.528C181.091 190.544 181.343 190.56 181.581 190.575C182.332 190.623 182.937 190.661 183.543 190.661H225.222C225.274 190.661 225.326 190.661 225.378 190.661C225.446 190.66 225.514 190.659 225.582 190.659C226.069 190.653 226.569 190.648 227.048 190.728C227.713 190.828 228.443 191.028 227.879 192.028H183.775C183.211 192.028 182.629 192.146 182.055 192.261C181.819 192.309 181.583 192.356 181.351 192.395C178.96 192.328 177.067 193.329 175.24 194.863C174.265 195.679 173.16 196.315 171.97 197C171.459 197.295 170.931 197.599 170.392 197.93C170.697 197.945 170.959 197.966 171.195 197.985C171.497 198.009 171.758 198.03 172.019 198.03H172.04C183.59 198.03 195.173 198.03 206.724 198.063C206.898 198.063 207.091 198.042 207.29 198.019C208.076 197.931 208.949 197.833 209.082 199.03C209.115 199.264 207.487 199.897 206.624 199.931C186.432 199.964 166.207 199.964 146.015 199.931H107.492C85.0746 199.897 62.6577 199.864 40.2408 199.864C36.3284 199.864 32.4307 199.894 28.5281 199.923L28.5214 199.923L28.5047 199.923C26.5516 199.938 24.5974 199.953 22.6394 199.964C22.5113 199.964 22.3775 199.973 22.242 199.982C21.921 200.003 21.5913 200.024 21.311 199.931C20.9797 199.812 20.6989 199.575 20.4207 199.339C20.3085 199.244 20.1967 199.15 20.0822 199.064C20.1977 198.975 20.3107 198.878 20.4239 198.782C20.7342 198.518 21.0457 198.252 21.4106 198.13C21.7997 198.015 22.2204 198.043 22.6508 198.071C22.8448 198.084 23.0412 198.097 23.2372 198.097C33.9641 198.097 44.7242 198.097 55.4511 198.13H59.071C57.7191 197.244 56.4403 196.414 55.206 195.612C53.5598 194.542 51.9927 193.524 50.4364 192.495C50.2471 192.455 50.0577 192.406 49.8684 192.357C49.4267 192.243 48.9851 192.128 48.5434 192.128C33.9309 192.095 19.3516 192.095 4.7391 192.128C4.13723 192.106 3.58025 192.204 3.02798 192.301C2.75753 192.348 2.48803 192.396 2.21512 192.428ZM111.012 170.722C110.97 170.48 110.929 170.239 110.879 169.989C111.51 169.889 112.008 169.755 111.41 168.988C111.266 168.813 111.116 168.647 110.967 168.483C110.636 168.117 110.311 167.759 110.082 167.321C109.954 167.085 109.949 166.767 109.945 166.445C109.942 166.267 109.94 166.087 109.916 165.921C110.045 165.949 110.184 165.969 110.325 165.989C110.69 166.041 111.062 166.095 111.277 166.288C111.886 166.852 112.429 167.466 113.057 168.176L113.058 168.177C113.32 168.474 113.598 168.788 113.901 169.122C113.967 168.291 114.001 167.824 114.034 167.359L114.034 167.355L114.154 167.226C113.93 165.186 113.038 163.559 111.444 162.22C111.26 162.059 111.219 161.722 111.178 161.386C111.16 161.236 111.142 161.087 111.111 160.953C111.241 160.963 111.377 160.964 111.514 160.965C111.833 160.967 112.161 160.97 112.44 161.086C112.763 161.236 113.048 161.497 113.38 161.8L113.38 161.801C113.492 161.904 113.609 162.011 113.735 162.12C113.741 161.124 113.788 160.335 113.826 159.697C113.893 158.574 113.932 157.917 113.673 157.414C113.308 156.705 112.35 156.304 110.041 155.337C109.873 155.267 109.699 155.194 109.517 155.118C109.218 154.998 108.92 154.842 108.621 154.686C108.421 154.582 108.222 154.478 108.023 154.384C108.056 154.184 108.089 153.984 108.123 153.751C108.419 153.751 108.723 153.727 109.025 153.703C109.671 153.653 110.314 153.603 110.879 153.784C112.373 154.251 112.772 153.551 112.971 152.317C113.237 150.65 112.108 150.25 110.879 149.883L110.857 149.856C110.669 149.879 110.471 149.9 110.267 149.921C109.349 150.017 108.328 150.123 107.691 150.516C106.21 151.414 104.871 152.547 103.534 153.679C103.281 153.892 103.029 154.106 102.776 154.317C102.278 154.718 101.846 155.284 101.58 155.885C100.252 158.685 100.218 161.486 101.68 164.32C102.676 166.254 103.639 168.288 104.37 170.355C104.901 171.889 105.632 172.823 107.292 173.09C109.218 173.39 110.945 173.256 112.606 171.556C111.875 171.522 111.51 171.489 111.145 171.456C111.095 171.206 111.053 170.964 111.012 170.722ZM115.561 167.136C115.539 166.732 115.517 166.328 115.5 165.924L115.628 165.788C115.768 165.601 115.907 165.415 116.047 165.23L116.051 165.224C116.705 164.353 117.351 163.492 117.953 162.587C118.152 162.298 118.263 161.95 118.373 161.601C118.429 161.427 118.484 161.253 118.551 161.086C118.419 161.094 118.287 161.098 118.156 161.102C117.692 161.116 117.238 161.131 116.824 161.286C116.573 161.378 116.384 161.627 116.183 161.893C116.092 162.014 115.998 162.139 115.894 162.253C114.39 157.409 117.704 156.067 121.011 154.727C121.08 154.699 121.149 154.671 121.218 154.643C121.348 154.59 121.477 154.537 121.606 154.484C120.813 153.275 119.967 153.553 119.162 153.818C119.057 153.853 118.953 153.887 118.849 153.918C118.723 153.952 118.596 153.997 118.47 154.041C117.866 154.252 117.286 154.455 116.956 153.517L116.941 153.476C116.547 152.422 116.142 151.339 117.355 150.517C118.849 149.516 120.676 149.683 122.104 150.817C123.466 151.917 124.894 152.951 126.388 153.884C128.779 155.385 130.008 159.653 128.646 162.887C127.503 165.648 126.216 168.322 124.919 171.017L124.628 171.623C123.831 173.257 122.237 173.257 120.742 173.156C119.924 173.1 118.543 172.851 117.746 172.375L117.753 172.356C117.698 172.292 117.644 172.228 117.59 172.163C117.554 172.12 117.519 172.077 117.482 172.033C117.342 171.862 117.19 171.677 116.99 171.456C117.251 171.441 117.475 171.433 117.677 171.426L117.678 171.426C117.937 171.416 118.161 171.408 118.384 171.389C118.834 171.006 119.268 170.607 119.707 170.204L119.708 170.203C119.918 170.01 120.129 169.816 120.344 169.622C119.671 169.674 118.998 169.746 118.136 169.839C117.892 169.865 117.633 169.893 117.355 169.922C117.618 169.57 117.869 169.255 118.106 168.959C118.586 168.357 119.003 167.836 119.314 167.255C119.469 166.988 119.447 166.619 119.425 166.244C119.414 166.056 119.403 165.866 119.414 165.687C119.262 165.753 119.1 165.804 118.938 165.855C118.605 165.959 118.276 166.063 118.052 166.288C117.85 166.482 117.655 166.686 117.456 166.895C116.938 167.437 116.396 168.006 115.628 168.488C115.611 168.038 115.587 167.588 115.562 167.138L115.561 167.136ZM115.109 172.033C115.246 172.176 115.375 172.311 115.501 172.445C115.477 172.439 115.452 172.434 115.428 172.429C118.118 175.663 121.872 175.09 125.325 174.324C125.232 174.382 125.139 174.448 125.045 174.516C124.87 174.641 124.689 174.77 124.495 174.857C123.661 175.172 122.827 175.494 121.991 175.815L121.99 175.816C119.997 176.583 117.995 177.353 115.96 178.058C115.163 178.325 114.167 178.358 113.403 178.125C111.464 177.559 109.541 176.901 107.622 176.244C106.715 175.934 105.808 175.624 104.901 175.324L104.792 175.346L104.727 175.27C104.546 175.058 104.345 174.824 104.17 174.59C104.31 174.565 104.445 174.52 104.576 174.476C104.789 174.405 104.995 174.336 105.2 174.357C105.671 174.417 106.142 174.513 106.613 174.609C107.437 174.777 108.261 174.945 109.086 174.923C111.477 174.857 113.503 173.89 114.499 171.389C114.726 171.632 114.925 171.84 115.109 172.033ZM101.414 176.024L101.537 175.999C103.391 176.644 105.255 177.279 107.125 177.916L107.13 177.918L107.133 177.919C108.535 178.396 109.94 178.874 111.344 179.358C108.521 181.659 106.96 181.859 104.237 179.825C102.54 178.553 100.98 177.109 99.4224 175.665L99.4216 175.664C98.8728 175.156 98.3242 174.648 97.7697 174.147L101.414 176.024ZM98.3255 173.29L98.3159 173.295C98.5944 173.164 98.9021 173.077 99.2066 172.991C99.3236 172.958 99.4401 172.925 99.5543 172.89C99.7359 173.05 99.9049 173.239 100.073 173.428C100.675 174.101 101.269 174.767 102.41 174.09C103.756 173.266 103.318 172.149 102.89 171.061L102.875 171.022C102.72 170.643 102.568 170.262 102.415 169.879C101.816 168.377 101.212 166.863 100.418 165.454C98.0598 161.119 98.4251 156.718 101.613 153.05C101.747 152.893 101.791 152.661 101.836 152.424C101.858 152.309 101.88 152.193 101.912 152.084C101.908 152.072 101.903 152.061 101.898 152.05C99.0573 152.049 97.3575 153.741 96.8311 156.252C96.3661 158.419 96.1004 160.82 96.5322 162.92C97.0245 165.298 97.8314 167.625 98.6372 169.95C98.9728 170.918 99.3083 171.886 99.6207 172.856C99.5065 172.892 99.39 172.925 99.273 172.958C98.9477 173.05 98.6186 173.143 98.3255 173.29ZM102.576 150.217L102.574 150.221C103.149 149.96 103.718 149.694 104.301 149.421C105.042 149.074 105.805 148.716 106.628 148.349C105.466 146.682 104.536 145.348 103.606 143.981C103.353 143.462 103.089 142.946 102.825 142.429C102.259 141.32 101.69 140.206 101.215 139.046C96.3329 127.443 95.7683 115.273 96.665 102.903C96.9971 98.6014 97.2296 94.2668 97.462 89.9322C97.4952 89.3654 97.3956 88.4985 97.0635 88.2651C95.7211 87.393 94.3369 86.6466 92.878 85.8598C92.4962 85.6539 92.1093 85.4453 91.7166 85.2309C91.6925 85.4614 91.6683 85.6523 91.6473 85.8178C91.6107 86.107 91.5838 86.3192 91.5838 86.5313C91.6091 87.376 91.6364 88.2185 91.6638 89.0601L91.664 89.0666C91.7445 91.5445 91.8247 94.0134 91.8495 96.5008C91.8495 96.9649 91.6565 97.4128 91.4608 97.867C91.3752 98.0655 91.2892 98.2652 91.2185 98.468C91.1126 98.2873 90.9899 98.1066 90.8664 97.9248C90.6025 97.5364 90.3353 97.143 90.2222 96.7342C90.0278 96.0269 89.9401 95.2838 89.842 94.4529L89.842 94.4522C89.806 94.1475 89.7686 93.8309 89.724 93.4999C89.3272 93.7959 88.9574 94.0647 88.6068 94.3195L88.606 94.3201C87.9301 94.8115 87.3254 95.251 86.7351 95.7339C82.4842 99.1682 79.4621 103.603 76.9381 108.404C72.9388 115.941 70.5638 124.049 68.1766 132.2C67.9867 132.848 67.7968 133.497 67.606 134.145C64.7832 143.748 67.3736 151.75 73.916 158.785C77.4137 162.529 81.8295 164.989 86.3163 167.277C86.3453 167.281 86.3743 167.284 86.4031 167.288C88.4277 168.202 90.442 169.116 92.4692 170.035L92.4722 170.037C94.0684 170.761 95.6725 171.489 97.296 172.223C97.0368 171.278 96.7719 170.353 96.5104 169.439C95.8674 167.192 95.2442 165.015 94.772 162.787C94.141 159.786 94.3403 156.752 95.9676 154.084C96.605 153.056 97.4763 152.169 98.3358 151.293C98.7303 150.891 99.1222 150.492 99.4879 150.083C93.0119 145.749 84.6429 147.682 80.4252 154.618C80.2911 154.865 79.9612 154.991 79.6283 155.118C79.4667 155.18 79.3043 155.242 79.1632 155.318C79.1434 155.168 79.1086 155.013 79.0741 154.858C78.9934 154.496 78.9141 154.141 79.0304 153.884C81.3219 149.183 85.1079 146.682 90.2887 146.415C91.0694 146.373 91.8502 146.396 92.6481 146.419C93.7508 146.451 94.8866 146.484 96.1004 146.349C95.5011 146.054 94.9134 145.731 94.3267 145.41C93.1903 144.787 92.0579 144.166 90.8532 143.748C87.2333 142.481 83.4806 142.548 79.7278 143.448C79.6619 143.461 79.5961 143.49 79.5323 143.518C79.4352 143.561 79.343 143.601 79.2629 143.581C78.8564 143.517 78.4637 143.425 78.0671 143.332C77.848 143.28 77.6276 143.229 77.4031 143.181C77.5446 143.059 77.68 142.922 77.8149 142.785C78.123 142.473 78.4283 142.163 78.7979 142.048C82.2518 141.047 85.7389 140.78 89.2591 141.581C89.7905 141.714 90.3219 141.747 90.8865 141.714C88.2296 139.58 85.2739 138.113 81.9529 137.38C81.0152 137.172 80.0563 137.061 79.0941 136.949C78.3525 136.863 77.609 136.777 76.8717 136.646C76.5267 136.596 76.2183 136.363 75.9193 136.137C75.8156 136.059 75.7124 135.981 75.6097 135.912C75.748 135.816 75.8896 135.69 76.0314 135.563C76.3324 135.293 76.634 135.023 76.9049 135.046C78.8176 135.286 80.7303 135.611 82.6429 135.936L82.6436 135.936C83.1219 136.018 83.6001 136.099 84.0783 136.179C84.3662 136.233 84.6444 136.317 85.0025 136.425C85.3054 136.516 85.6659 136.624 86.1374 136.746C85.7876 136.341 85.4597 135.967 85.1502 135.615C84.3138 134.662 83.6127 133.863 82.9824 133.012C82.7823 132.744 82.7311 132.371 82.6792 131.994C82.6536 131.808 82.6278 131.621 82.5839 131.444C82.7603 131.497 82.953 131.532 83.1456 131.568C83.5694 131.647 83.9932 131.726 84.2444 131.978C84.702 132.465 85.1517 132.961 85.6038 133.459L85.6047 133.46C86.7603 134.733 87.932 136.024 89.2924 137.246C88.8938 135.079 88.4953 132.912 88.13 130.711C88.037 130.198 87.9427 129.684 87.8484 129.171C87.4711 127.117 87.0939 125.063 86.8016 123.009C86.7531 122.643 86.9704 122.225 87.1816 121.818C87.2596 121.667 87.3367 121.519 87.3994 121.375C87.5255 121.536 87.6832 121.689 87.8398 121.841C88.137 122.13 88.4301 122.414 88.4953 122.742C88.5783 123.165 88.6617 123.588 88.745 124.012C89.5285 127.99 90.3129 131.974 90.8532 136.012C91.2185 138.747 92.4473 140.78 94.5396 142.414C95.8846 143.715 97.2213 145.015 98.558 146.315C99.8947 147.616 101.231 148.916 102.576 150.217ZM74.1658 164.404C75.5363 164.528 76.9068 164.651 78.2853 164.783C77.919 164.494 77.542 164.219 77.1657 163.945C76.2585 163.283 75.3551 162.624 74.6134 161.786C72.9529 159.886 70.9603 159.486 68.6356 159.719C67.1588 159.647 65.6756 159.521 64.192 159.395L64.1912 159.395C60.8708 159.112 57.548 158.83 54.2887 159.152C46.1522 159.986 40.6726 168.455 42.3995 176.457C44.4917 186.227 55.2518 195.396 64.0193 197.53C65.2481 197.83 66.7758 197.497 67.9713 196.963C69.6172 196.236 71.1905 195.363 72.7487 194.499L72.7504 194.498C73.5498 194.055 74.3454 193.614 75.1448 193.195C75.1063 193.069 75.0651 192.934 75.0218 192.794C74.9772 192.65 74.9303 192.499 74.8818 192.342C74.7002 191.758 74.4962 191.101 74.3044 190.441L74.2813 190.395C74.0489 188.628 75.2112 187.694 76.6061 187.461C78.9308 187.127 81.3219 186.894 83.6466 187.094C89.6245 187.627 95.2702 186.427 100.75 184.16C101.588 183.809 102.41 183.409 103.239 183.006C103.592 182.834 103.946 182.662 104.303 182.493C103.647 181.935 102.994 181.375 102.342 180.816C95.4676 174.923 88.6976 169.12 79.6282 166.988C74.7795 165.854 69.964 165.154 65.0489 166.588C64.7124 166.684 64.2888 166.484 63.879 166.29C63.7227 166.216 63.5683 166.143 63.4216 166.088C63.5425 165.976 63.6604 165.847 63.7789 165.716C64.051 165.417 64.3265 165.114 64.6504 165.021C65.7934 164.761 66.9645 164.557 68.1271 164.355L68.1283 164.355C68.7556 164.246 69.3805 164.137 69.9972 164.021C71.3923 164.154 72.779 164.279 74.1658 164.404ZM76.606 192.062C76.285 192.087 76.0108 192.052 75.7725 191.972C75.9961 192.03 76.2493 192.043 76.5396 191.995C75.3441 190.028 75.6097 189.128 77.8016 188.694C79.1965 188.428 80.7241 188.228 82.0857 188.494C86.3046 189.29 90.3719 188.596 94.4903 187.893L94.4952 187.892C94.687 187.859 94.8789 187.827 95.0709 187.794C95.9485 187.647 96.8619 187.698 97.7717 187.749C98.1011 187.767 98.4307 187.785 98.7573 187.794C99.6663 187.811 100.567 187.836 101.463 187.862L101.467 187.862C102.338 187.887 103.204 187.911 104.071 187.927C104.789 187.753 105.505 187.578 106.222 187.404L106.232 187.401C109.887 186.51 113.526 185.623 117.189 184.76C117.488 184.693 117.853 184.693 118.152 184.793C119.099 185.093 120.037 185.402 120.975 185.71C121.913 186.019 122.851 186.327 123.798 186.627C124.562 186.794 125.334 186.952 126.106 187.111L126.111 187.112C126.849 187.263 127.586 187.414 128.317 187.573L128.447 187.727C132.764 188.694 137.082 189.528 141.565 188.727C143.126 188.461 144.787 188.627 146.347 188.894C147.078 189.028 148.373 190.161 148.274 190.361C147.776 191.495 146.978 192.495 146.181 193.429C146.113 193.497 145.752 193.302 145.392 193.107C145.224 193.016 145.057 192.926 144.919 192.862C144.608 192.733 144.297 192.597 143.985 192.46L143.983 192.46C143.162 192.1 142.331 191.736 141.466 191.495C141.206 191.424 140.863 191.655 140.532 191.879C140.396 191.97 140.262 192.061 140.137 192.128C140.269 192.239 140.394 192.357 140.518 192.474C140.767 192.709 141.011 192.939 141.3 193.095C141.52 193.206 141.777 193.257 142.037 193.308C142.325 193.364 142.616 193.422 142.86 193.562C145.052 194.729 145.185 195.596 143.525 197.497C143.191 197.325 142.864 197.144 142.537 196.964C141.723 196.517 140.914 196.072 140.038 195.763C139.671 195.625 139.225 195.773 138.776 195.921C138.575 195.988 138.373 196.055 138.178 196.096C138.307 196.238 138.428 196.393 138.55 196.548C138.772 196.83 138.995 197.115 139.274 197.33C139.423 197.455 139.59 197.556 139.762 197.66C140.051 197.835 140.353 198.017 140.602 198.33C140.421 198.342 140.243 198.357 140.067 198.372L140.065 198.372C139.726 198.401 139.391 198.43 139.041 198.43C138.216 198.43 137.394 198.425 136.573 198.419L136.568 198.419C134.515 198.406 132.469 198.392 130.407 198.464C126.687 198.63 123.233 198.063 119.912 196.096C116.458 194.029 112.606 194.029 109.119 196.03C105.565 198.063 101.813 198.597 97.8273 198.464C95.0159 198.352 92.2192 198.36 89.4177 198.367C88.0163 198.371 86.6137 198.375 85.2075 198.364C84.6097 198.364 84.0451 198.297 83.3477 197.963C83.5257 197.884 83.7096 197.81 83.8941 197.737C84.3292 197.563 84.768 197.387 85.141 197.13C85.3662 196.949 85.4998 196.661 85.6349 196.369C85.6991 196.231 85.7636 196.092 85.8384 195.963C85.7102 195.913 85.5731 195.843 85.4351 195.773C85.1085 195.605 84.7767 195.436 84.5433 195.529C83.5807 195.892 82.6704 196.342 81.7113 196.816C81.3469 196.996 80.9753 197.18 80.5912 197.363C79.13 196.396 79.0636 194.929 80.7241 193.862C81.1552 193.587 81.6557 193.427 82.1574 193.268C82.5059 193.157 82.8549 193.046 83.1816 192.895C83.3883 192.803 83.5473 192.552 83.7026 192.306C83.7718 192.196 83.8405 192.088 83.9123 191.995C83.8135 191.929 83.7112 191.841 83.61 191.754C83.4049 191.578 83.2045 191.406 83.0488 191.428C82.8316 191.47 82.6026 191.507 82.3696 191.544C81.498 191.682 80.57 191.829 79.9935 192.328C78.5986 193.529 77.6355 193.429 76.606 192.062ZM128.248 185.993C127.78 185.899 127.341 185.835 126.876 185.772L126.753 185.627C126.122 185.393 125.458 185.16 124.794 184.927C124.17 184.789 123.539 184.645 122.891 184.496C122.126 184.321 121.337 184.14 120.51 183.96C122.581 182.631 124.575 181.347 126.529 180.088L126.548 180.076C127.932 179.184 129.298 178.305 130.657 177.432C130.695 177.473 130.734 177.515 130.772 177.558C131.376 177.097 131.971 176.627 132.565 176.157C133.864 175.13 135.16 174.105 136.55 173.19C137.811 172.353 139.148 171.64 140.489 170.924L140.49 170.923C141.127 170.583 141.765 170.243 142.395 169.889C149.469 166.688 156.709 164.654 164.547 166.688C164.828 166.758 165.175 166.597 165.518 166.437C165.662 166.37 165.805 166.303 165.941 166.254C165.849 166.143 165.757 166.012 165.664 165.878C165.42 165.531 165.167 165.169 164.879 165.121C163.202 164.851 161.509 164.642 159.812 164.433L159.811 164.433C158.988 164.331 158.164 164.229 157.34 164.12L157.335 164.121L157.334 164.121C155.277 164.421 153.22 164.721 151.229 165.021C151.601 164.677 151.973 164.328 152.346 163.978C153.674 162.731 155.025 161.464 156.477 160.319C156.891 159.996 157.528 159.96 158.167 159.925C158.451 159.909 158.735 159.893 159.001 159.852C160.633 159.779 162.27 159.649 163.905 159.519C167.458 159.237 171.007 158.955 174.51 159.252C184.107 160.086 189.952 169.822 186.399 178.791C182.646 188.261 175.473 194.462 165.842 197.397C162.986 198.264 159.532 198.297 156.676 196.196C155.58 195.396 154.285 194.829 152.99 194.329C152.113 193.996 151.202 193.782 150.282 193.565L150.281 193.565C149.912 193.478 149.541 193.391 149.17 193.295C149.17 193.271 149.161 193.237 149.151 193.2C149.135 193.139 149.116 193.071 149.137 193.029C150.964 189.894 149.901 187.594 146.314 187.16C144.621 186.927 142.86 186.794 141.2 187.094C137.664 187.756 134.275 187.113 130.883 186.47C130.006 186.304 129.128 186.137 128.248 185.993ZM130.856 175.516C130.57 175.774 130.229 176.081 129.876 176.4C129.842 176.364 129.809 176.328 129.776 176.291C122.968 181.259 115.329 184.26 107.06 185.76C105.64 186.002 104.204 186.103 102.775 186.204C102.231 186.243 101.688 186.281 101.148 186.327C101.132 186.244 101.107 186.169 101.082 186.094C101.057 186.019 101.032 185.944 101.016 185.86C101.452 185.659 101.885 185.453 102.318 185.247C103.535 184.669 104.748 184.093 105.997 183.626C110.853 181.798 115.726 180.002 120.603 178.205L120.606 178.204C122.579 177.477 124.553 176.75 126.526 176.02L126.52 176.035C127.386 175.817 128.342 175.636 129.257 175.462L129.258 175.462C130.026 175.316 130.767 175.176 131.403 175.023C131.265 175.148 131.077 175.317 130.856 175.516ZM128.49 173.776C128.158 173.919 127.826 174.062 127.525 174.21C126.383 173.61 126.026 172.681 126.488 171.456C126.669 170.991 126.841 170.519 127.013 170.047C127.47 168.789 127.928 167.527 128.58 166.388C131.735 160.786 131.536 157.452 127.551 152.484C129.311 151.884 130.739 152.417 131.835 154.151C133.694 157.119 133.827 160.353 132.897 163.62C132.047 166.594 130.933 169.948 129.942 172.932L129.885 173.101C129.86 173.119 129.834 173.138 129.809 173.156C129.427 173.373 128.959 173.575 128.49 173.776ZM132.266 171.156C132.241 171.179 132.216 171.203 132.19 171.226C132.398 170.573 132.631 169.879 132.87 169.168C133.509 167.266 134.192 165.234 134.558 163.487C135.654 158.186 135.089 153.317 129.643 150.117C129.779 150.054 129.911 149.993 130.039 149.934L130.04 149.933L130.04 149.933C130.658 149.648 131.185 149.404 131.735 149.183C138.51 146.616 146.015 147.716 149.038 154.518C149.152 154.749 149.506 154.868 149.856 154.985C150.012 155.038 150.167 155.09 150.3 155.151C150.31 154.992 150.341 154.826 150.371 154.661C150.437 154.308 150.502 153.957 150.366 153.684C148.805 150.383 146.381 148.016 142.827 146.882C139.672 145.882 136.517 146.049 133.229 146.649C134.292 145.715 135.421 144.848 136.65 144.248C140.901 142.214 145.285 142.314 149.768 143.448C150.151 143.538 150.579 143.399 151.012 143.258C151.218 143.191 151.424 143.124 151.628 143.081C151.484 142.957 151.342 142.807 151.201 142.657C150.888 142.325 150.577 141.993 150.233 141.948C147.85 141.645 145.445 141.456 143.054 141.268L143.053 141.268C142.545 141.228 142.038 141.188 141.532 141.147C141.176 141.123 140.82 141.185 140.464 141.246C140.322 141.27 140.18 141.295 140.038 141.314L138.742 141.514C142.296 138.446 146.414 137.046 150.897 136.613C151.116 136.596 151.384 136.626 151.66 136.657C152.476 136.749 153.371 136.85 153.322 135.779C153.264 134.545 152.051 134.768 151.121 134.94C150.97 134.967 150.828 134.994 150.698 135.012C148.899 135.256 147.099 135.608 145.287 135.962C144.624 136.091 143.959 136.221 143.292 136.346C143.527 136.077 143.765 135.81 144.005 135.542C144.714 134.749 145.428 133.951 146.049 133.078C146.286 132.744 146.354 132.274 146.422 131.801C146.449 131.613 146.476 131.425 146.514 131.244C146.364 131.301 146.208 131.351 146.049 131.403C145.641 131.535 145.221 131.671 144.886 131.911C144.476 132.194 144.145 132.596 143.817 132.995C143.72 133.113 143.623 133.231 143.525 133.345C142.977 133.945 142.437 134.554 141.897 135.162C141.358 135.771 140.818 136.379 140.27 136.979C140.071 136.246 140.104 135.712 140.204 135.179C140.365 134.296 140.528 133.414 140.69 132.534C141.265 129.425 141.837 126.327 142.329 123.209C142.396 122.808 142.21 122.376 142.02 121.936C141.926 121.717 141.831 121.496 141.765 121.275C141.657 121.422 141.529 121.57 141.399 121.719C141.09 122.076 140.772 122.442 140.702 122.842C140.219 125.307 139.78 127.782 139.341 130.263L139.341 130.264C139.026 132.045 138.71 133.829 138.377 135.612C138.329 135.889 138.287 136.169 138.244 136.449C137.964 138.299 137.681 140.172 135.72 141.214C133.031 144.047 130.309 146.881 127.586 149.714L127.584 149.716C126.587 150.783 125.658 150.75 124.728 149.55C124.457 149.187 124.094 148.871 123.712 148.538C123.532 148.381 123.348 148.22 123.167 148.049C124.12 146.498 125.072 144.987 126.01 143.5C126.281 143.069 126.551 142.641 126.82 142.214C127.697 139.649 128.585 137.094 129.472 134.544L129.472 134.543C130.129 132.653 130.786 130.765 131.436 128.877L131.411 128.795C133.232 120.818 133.425 112.744 132.931 104.636C132.632 99.7684 132.3 94.9003 131.967 90.0323C131.868 88.7652 132.3 87.9983 133.528 87.4982C134.403 87.1514 135.215 86.6602 136.172 86.0804C136.596 85.8241 137.048 85.5504 137.547 85.2642C137.547 86.1554 137.555 87.0074 137.562 87.835L137.562 87.8366C137.577 89.4237 137.59 90.9211 137.547 92.433C137.531 93.1255 137.474 93.818 137.416 94.5105C137.348 95.3184 137.281 96.1263 137.281 96.9343C137.281 97.2807 137.472 97.6112 137.667 97.9478C137.754 98.0971 137.841 98.2477 137.912 98.4014C138.012 98.2828 138.127 98.1643 138.243 98.0444C138.551 97.7259 138.869 97.3977 138.942 97.0343C139.101 96.2574 139.135 95.4649 139.173 94.5923C139.191 94.1916 139.209 93.7739 139.24 93.3332C142.296 95.0337 144.587 97.2343 146.646 99.6684C152.292 106.37 155.58 114.306 158.303 122.508C159.764 126.876 161.126 131.278 162.255 135.745C164.381 143.981 162.222 151.317 156.643 157.518C154.418 160.019 151.761 162.253 148.871 163.92C145.059 166.107 141.112 168.04 137.018 170.045C135.37 170.852 133.697 171.671 132.001 172.523C132.062 172.204 132.105 171.971 132.138 171.79C132.196 171.48 132.224 171.324 132.266 171.156ZM130.407 125.943L130.427 126.013C130.192 126.893 129.974 127.781 129.755 128.669C129.192 130.955 128.629 133.242 127.783 135.412C126.905 137.676 125.738 139.838 124.574 141.994C124.11 142.855 123.645 143.716 123.2 144.582C122.768 145.198 122.328 145.815 121.888 146.432C121.448 147.049 121.008 147.666 120.576 148.283C120.477 148.249 120.385 148.208 120.294 148.166C120.203 148.124 120.111 148.083 120.012 148.049L119.912 146.549C119.749 145.623 119.58 144.701 119.411 143.779L119.411 143.778C118.997 141.51 118.582 139.245 118.252 136.946C116.715 126.084 116.814 115.161 116.912 104.264L116.923 103.036C116.923 102.786 116.915 102.536 116.907 102.286C116.899 102.062 116.892 101.838 116.89 101.614C117.02 101.532 117.148 101.446 117.275 101.361L117.277 101.36C117.659 101.103 118.037 100.849 118.451 100.702C119.105 100.487 119.768 100.297 120.43 100.106C121.517 99.794 122.6 99.4826 123.632 99.0682C126.953 97.7345 129.111 95.4005 129.543 91.6994C129.561 91.5736 129.617 91.4575 129.707 91.2728C129.784 91.1148 129.886 90.9065 130.008 90.5991C130.176 92.5394 130.332 94.3907 130.484 96.1906L130.485 96.1974C130.693 98.6635 130.893 101.033 131.104 103.403C131.768 110.972 131.469 118.474 130.407 125.943ZM110.813 100.735L110.829 100.725C110.973 100.762 111.136 100.8 111.309 100.84C111.635 100.915 111.998 100.999 112.34 101.102C112.218 103.322 112.106 105.559 111.993 107.805L111.992 107.808C111.89 109.847 111.787 111.893 111.676 113.939C111.61 115.106 111.535 116.265 111.46 117.423C111.389 118.524 111.318 119.625 111.254 120.734C111.225 120.73 111.207 120.702 111.207 120.637C111.136 121.761 111.053 122.992 110.971 124.211C110.899 125.268 110.828 126.316 110.767 127.277C110.77 127.342 110.773 127.407 110.776 127.472C110.357 131.264 109.938 135.055 109.551 138.847C109.288 141.613 109.058 144.379 108.829 147.146C108.686 147.072 108.519 147.028 108.356 146.985C108.102 146.918 107.856 146.853 107.724 146.682C103.075 140.714 100.65 133.812 99.2554 126.476C97.5284 117.407 97.8605 108.238 98.724 99.1016C98.8128 98.0951 98.8871 97.0887 98.9617 96.0786C99.0822 94.4449 99.2035 92.8015 99.3882 91.1326C100.285 97.9012 105.1 99.8684 110.813 100.735ZM112.472 131.146C112.483 131.179 112.494 131.212 112.506 131.244C112.075 136.313 111.643 141.381 111.178 146.449C111.078 147.082 110.979 147.716 110.945 147.983C111.611 148.398 112.208 148.764 112.768 149.108L112.77 149.109L112.771 149.11C113.245 149.4 113.693 149.675 114.134 149.95V155.585C114.203 155.596 114.33 155.612 114.478 155.631C114.753 155.665 115.102 155.708 115.296 155.751C115.266 153.765 115.235 152.087 115.205 150.408L115.196 149.95L115.201 149.947C115.963 149.448 116.726 148.948 117.654 148.349C117.608 148.164 117.554 147.956 117.497 147.734C117.431 147.478 117.36 147.201 117.289 146.916C117.266 146.66 117.248 146.401 117.23 146.141C117.193 145.623 117.156 145.104 117.089 144.615C115.23 132.878 114.532 121.041 114.665 109.171V107.171C114.34 109.13 114.184 111.071 114.028 113.021L114.028 113.022C113.976 113.66 113.925 114.299 113.868 114.94C113.569 118.507 113.237 122.108 112.905 125.676C112.895 125.588 112.884 125.5 112.874 125.413C112.814 126.275 112.753 127.208 112.692 128.14C112.625 129.166 112.558 130.193 112.492 131.126C112.485 131.133 112.478 131.14 112.472 131.146ZM125.724 47.2866C122.436 50.0874 121.274 53.7885 121.174 57.9563V58.6899C121.274 67.0256 129.244 73.7276 137.414 72.2271C143.425 71.1268 147.344 67.4924 148.871 61.5574C150.432 55.4223 148.772 50.0541 143.857 46.0196C139.407 42.3518 134.392 41.785 129.145 44.3524C127.986 45.3498 126.86 46.3141 125.734 47.2783L125.727 47.2836L125.724 47.2866ZM99.4546 44.0523C91.9159 40.6847 84.7425 44.7859 81.5875 50.7209C78.7647 56.1225 79.4953 62.7577 83.4805 67.5591C87.2001 71.9937 92.9454 73.5942 98.6576 71.6603C108.023 68.4927 111.709 56.1558 104.436 48.0201C104.105 47.7558 103.773 47.49 103.44 47.2232L103.436 47.2205C102.13 46.1757 100.803 45.114 99.4546 44.0523ZM182.547 4.67429C174.045 0.106308 161.923 0.773166 153.62 7.84187C147.609 12.9767 144.554 19.712 142.993 27.2808C142.761 28.4812 142.96 29.2814 143.691 30.2817C147.344 35.2164 149.901 40.618 150.731 46.7864C150.927 48.2497 151.08 49.7129 151.237 51.2135L151.237 51.2145C151.32 52.0047 151.403 52.8053 151.495 53.6218L152.657 52.9216C153.122 52.4886 153.578 52.0557 154.034 51.6227L154.036 51.6212L154.038 51.6188C154.494 51.1861 154.95 50.7535 155.414 50.3208C155.702 50.0558 156.024 49.843 156.344 49.6322C156.467 49.5512 156.589 49.4705 156.709 49.3872C156.249 50.1533 155.783 50.9141 155.314 51.6801L155.313 51.682L155.312 51.6832C154.598 52.8498 153.877 54.0284 153.156 55.2556C156.643 58.0897 160.395 60.2903 164.978 60.6905C165.063 60.7137 165.148 60.7388 165.234 60.764C165.515 60.8471 165.802 60.9316 166.108 60.9572C172.384 61.4907 178.196 60.0903 183.443 56.6226C194.137 49.5539 199.517 36.4835 196.761 23.8798C194.901 15.4107 190.451 8.70879 182.547 4.67429ZM72.2555 47.6867C71.9566 45.1193 72.9529 42.9187 74.0488 40.718C75.4769 37.8839 76.1411 34.983 74.5802 31.9822C72.1226 27.2808 72.9861 22.6461 74.713 18.0115C74.8512 17.6415 75.197 17.3518 75.5399 17.0643C75.6916 16.9373 75.8427 16.8106 75.975 16.6778C75.9277 16.9867 75.9014 17.304 75.8752 17.6208C75.8279 18.1931 75.7807 18.7634 75.6097 19.2785C74.0488 23.6798 74.1484 27.9143 76.2739 32.1822C77.5027 34.6496 77.3034 37.2504 76.1743 39.7511C75.9625 40.24 75.7407 40.7221 75.5195 41.2029C75.0467 42.2303 74.5769 43.2515 74.2149 44.3191C73.0857 47.52 74.9787 52.0213 77.9012 53.155C77.9676 52.7215 78.034 52.288 78.0673 51.8546C78.5654 43.6856 80.9233 36.1834 86.1041 29.7149C86.3698 29.3814 86.6023 28.7812 86.5359 28.3811C84.975 20.4122 82.0193 13.1767 75.5765 7.80853C67.606 1.17328 55.285 -0.193779 46.75 4.60761C43.0637 6.34144 40.0748 8.97553 37.6836 12.2098C27.7206 25.6137 30.5102 45.286 43.7611 55.3889C49.9382 60.0903 56.9123 62.0242 64.6503 60.6571C69.1669 60.0903 72.9529 58.023 75.9418 55.2889C74.6134 52.5881 73.4178 50.1207 72.2555 47.6867ZM148.938 48.687C147.809 32.0155 132.931 16.9445 112.539 18.1115C93.4104 19.1785 81.1226 34.2828 80.4252 48.787C80.6433 48.5242 80.8423 48.2742 81.0334 48.0342C81.2787 47.7261 81.5109 47.4343 81.7536 47.1532C84.975 43.2854 89.0931 41.1515 94.141 41.0515C100.683 40.9181 106.528 45.086 109.152 51.6879C109.551 52.6548 109.982 53.0549 111.045 53.0216C113.436 52.9216 115.794 52.9216 118.185 53.0216C119.48 53.0883 120.045 52.6882 120.543 51.3878C124.329 41.3849 136.351 37.8839 144.753 44.3858C145.762 45.1781 146.625 46.1448 147.516 47.142C147.975 47.6554 148.441 48.1771 148.938 48.687ZM147.809 68.1926C142.528 73.6609 136.617 75.8948 129.742 73.1607C121.573 69.9265 118.717 63.3246 119.281 54.8554H110.148C110.746 62.7244 108.222 69.0929 101.016 72.6272C93.7757 76.1949 87.3329 74.1277 81.5211 68.426C81.5608 68.5614 81.5947 68.6796 81.6248 68.7844C81.7208 69.1183 81.7774 69.3153 81.8532 69.493C84.8421 76.8951 89.724 82.5301 96.8975 86.0645C97.6281 86.4312 98.4583 86.8647 98.8569 87.4982C100.052 89.4321 101.879 90.5658 103.838 91.466C109.052 93.8667 114.499 94.3668 120.045 93.1665C124.097 92.2996 128.148 91.1659 130.539 87.1981C130.781 86.7736 131.38 86.5145 131.886 86.2955C131.936 86.2737 131.986 86.2523 132.034 86.2312C135.787 84.4307 139.008 81.9633 141.731 78.829C144.355 75.8282 146.347 72.3938 147.809 68.1926ZM145.484 197.863H155.58C152.823 195.863 149.934 194.562 146.68 195.096C146.248 196.13 145.883 196.963 145.484 197.863ZM102.344 92.533C102.311 96.4675 109.717 99.2683 113.337 98.5014C110.462 96.9294 107.706 95.4371 104.87 93.9013L104.863 93.8977C104.032 93.4475 103.194 92.9937 102.344 92.533ZM125.665 93.2422L125.663 93.2432C122.28 94.7175 119.083 96.1107 116.292 98.7014C120.908 98.7681 125.624 96.1007 126.753 92.7664C126.389 92.927 126.026 93.085 125.665 93.2422ZM77.6023 195.096C74.8459 195.263 72.3883 196.063 69.9972 197.93H78.4326C78.2062 197.198 78.0179 196.542 77.81 195.817L77.8097 195.816L77.8082 195.811C77.7422 195.581 77.6742 195.344 77.6023 195.096ZM108.753 197.963H120.178C116.292 195.729 112.706 195.663 108.753 197.963Z"
    fill="#9DA7B4" />
  <path fill-rule="evenodd" clip-rule="evenodd"
    d="M117.222 147.05C117.355 147.549 117.488 148.082 117.587 148.482L117.587 148.483C116.691 149.083 115.927 149.583 115.13 150.083C114.798 150.083 114.432 150.083 114.1 150.116C113.104 149.516 112.141 148.916 110.912 148.149C110.912 147.849 111.012 147.216 111.111 146.582C111.111 146.582 111.111 146.582 111.112 146.582L111.112 146.582C111.543 141.514 111.975 136.446 112.44 131.378C112.506 130.444 112.581 129.519 112.656 128.594C112.731 127.668 112.805 126.743 112.872 125.809C113.204 122.242 113.536 118.641 113.835 115.073C113.869 114.632 113.901 114.19 113.934 113.748C114.089 111.612 114.247 109.458 114.632 107.304V109.305C114.466 121.175 115.163 133.012 117.056 144.748C117.145 145.26 117.174 145.771 117.204 146.282C117.219 146.538 117.233 146.793 117.255 147.049C117.244 147.049 117.233 147.049 117.222 147.05Z"
    fill="#F0F2F4" />
  <path
    d="M119.812 146.715C120.61 145.548 121.573 144.681 123.1 144.715C122.237 145.949 121.34 147.182 120.477 148.416C120.277 148.349 120.111 148.249 119.912 148.182C119.879 147.682 119.846 147.216 119.812 146.715Z"
    fill="#F9F9FB" />
  <path
    d="M114.101 150.083C114.433 150.083 114.798 150.083 115.13 150.05C115.163 151.85 115.197 153.684 115.23 155.851C114.931 155.818 114.3 155.718 114.067 155.685C114.101 153.551 114.101 151.817 114.101 150.083Z"
    fill="#F0F2F4" />
  <path
    d="M126.089 77.062C126.521 79.0959 125.492 80.7964 123.599 81.83C120.51 83.5305 118.185 82.8303 114.632 79.0959C113.403 80.9631 111.909 82.6302 109.551 82.5636C108.123 82.5302 106.595 82.0968 105.333 81.3966C103.44 80.3629 102.842 78.6624 103.606 77.2287C103.971 77.7955 104.303 78.2957 104.602 78.7625C105.864 80.7297 108.023 81.5966 110.182 80.9964C112.174 80.4296 113.735 78.4957 113.868 76.5285C113.934 75.6282 113.702 75.1281 112.805 74.7946C111.743 74.3612 110.68 73.8277 109.816 73.0942C107.857 71.4604 108.056 69.093 110.148 67.6259C112.307 66.1255 117.056 66.2255 119.182 67.7926C121.141 69.2264 121.307 71.427 119.481 73.0275C118.65 73.7277 117.654 74.3278 116.658 74.728C115.562 75.1614 115.462 75.8616 115.562 76.7952C115.794 78.7625 117.388 80.4963 119.481 81.0631C121.374 81.5633 123.565 80.7297 124.728 79.0959C125.093 78.5291 125.492 77.9289 126.089 77.062ZM114.599 67.7926C113.403 68.1261 112.108 68.2928 111.012 68.8596C109.551 69.5931 109.484 70.9935 110.713 72.0939C113.137 74.2612 116.226 74.1945 118.551 71.9605C119.68 70.8602 119.58 69.5598 118.152 68.8596C117.089 68.3595 115.861 68.1594 114.599 67.7926Z"
    fill="#9DA7B4" />
  <path
    d="M117.753 83.5639C117.255 85.5311 116.292 86.198 114.299 86.0646C112.672 85.9646 111.875 85.2977 111.676 83.7306C112.705 84.064 113.735 84.6642 114.731 84.6309C115.661 84.6642 116.591 84.0307 117.753 83.5639Z"
    fill="#9DA7B4" />
  <path
    d="M102.842 55.6559C101.348 55.5892 99.7534 55.1224 98.425 55.5225C95.0044 56.5561 91.783 55.1557 88.3623 55.2558C91.3512 51.488 96.2663 50.7211 100.052 53.2219C100.916 53.7887 101.879 54.2221 102.809 54.7223C102.842 55.0224 102.842 55.3558 102.842 55.6559Z"
    fill="#9DA7B4" />
  <path
    d="M102.842 55.6557C102.842 55.3222 102.842 55.0222 102.809 54.6887C104.768 55.2889 106.495 56.2225 107.458 58.3564C105.831 57.4228 104.336 56.5226 102.842 55.6557Z"
    fill="#9DA7B4" />
  <path
    d="M127.451 55.3891C127.219 55.0556 127.02 54.7222 126.787 54.4221C127.783 53.8553 128.747 53.1217 129.842 52.7883C131.437 52.3215 133.197 51.6213 134.724 51.9214C136.85 52.3882 138.776 53.6886 140.802 54.6222C140.769 54.8222 140.769 55.0223 140.735 55.2224C138.178 55.4224 135.621 55.7225 133.031 55.7892C131.171 55.8225 129.311 55.5224 127.451 55.3891Z"
    fill="#9DA7B4" />
  <path
    d="M114.599 67.7927C115.894 68.1595 117.09 68.3596 118.186 68.8597C119.614 69.5599 119.713 70.8603 118.584 71.9606C116.26 74.1946 113.171 74.2613 110.747 72.094C109.518 70.9936 109.551 69.5932 111.046 68.8597C112.108 68.2929 113.403 68.1262 114.599 67.7927Z"
    fill="white" />
</svg>
  