<svg width="36" height="37" viewBox="0 0 36 37" fill="none" xmlns="http://www.w3.org/2000/svg">
  <g clip-path="url(#clip0_1351_38125)">
    <path
      d="M7.66553 23.2022C7.66553 25.2638 5.98421 26.9476 3.92237 26.9476C1.86081 26.9476 0.177246 25.2638 0.177246 23.2022C0.177246 21.1407 1.86109 19.4568 3.92265 19.4568H7.66581L7.66553 23.2022ZM9.55243 23.2022C9.55243 21.1407 11.2363 19.4568 13.2978 19.4568C15.3594 19.4568 17.0432 21.1404 17.0432 23.2022V32.5777C17.0432 34.6393 15.3597 36.3231 13.2978 36.3231C11.2363 36.3231 9.55243 34.6393 9.55243 32.5777V23.2022Z"
      fill="#DE1C59" />
    <path
      d="M13.2978 8.16547C11.2363 8.16547 9.55243 6.48415 9.55243 4.42231C9.55243 2.36075 11.2363 0.677185 13.2978 0.677185C15.3594 0.677185 17.0432 2.36103 17.0432 4.42259V8.16575L13.2978 8.16547ZM13.2978 10.0524C15.3594 10.0524 17.0432 11.7362 17.0432 13.7978C17.0432 15.8593 15.3597 17.5432 13.2978 17.5432H3.92237C1.86081 17.5432 0.177246 15.8596 0.177246 13.7978C0.177246 11.7362 1.86109 10.0524 3.92265 10.0524H13.2978Z"
      fill="#35C5F0" />
    <path
      d="M28.3345 13.7978C28.3345 11.7362 30.0158 10.0524 32.0777 10.0524C34.1392 10.0524 35.8231 11.7362 35.8231 13.7978C35.8231 15.8593 34.1392 17.5432 32.0777 17.5432H28.3345V13.7978ZM26.4476 13.7978C26.4476 15.8593 24.7638 17.5432 22.7022 17.5432C20.6406 17.5432 18.9568 15.8596 18.9568 13.7978V4.42231C18.9568 2.36075 20.6403 0.677185 22.7022 0.677185C24.7638 0.677185 26.4476 2.36103 26.4476 4.42259V13.7978Z"
      fill="#2EB57D" />
    <path
      d="M22.7022 28.8345C24.7638 28.8345 26.4476 30.5158 26.4476 32.5777C26.4476 34.6393 24.7638 36.3231 22.7022 36.3231C20.6406 36.3231 18.9568 34.6393 18.9568 32.5777V28.8345H22.7022ZM22.7022 26.9476C20.6406 26.9476 18.9568 25.2638 18.9568 23.2022C18.9568 21.1407 20.6403 19.4568 22.7022 19.4568H32.0777C34.1392 19.4568 35.8231 21.1404 35.8231 23.2022C35.8231 25.2638 34.1392 26.9476 32.0777 26.9476H22.7022Z"
      fill="#EBB02E" />
  </g>
  <defs>
    <clipPath id="clip0_1351_38125">
      <rect width="36" height="36" fill="white" transform="translate(0 0.5)" />
    </clipPath>
  </defs>
</svg>
  