<svg xmlns="http://www.w3.org/2000/svg" xmlns:xlink="http://www.w3.org/1999/xlink" width="140.17mm" height="105.97mm" viewBox="0 0 397.34 300.39"><defs><style>.a,.ah,.e{fill:#fff;}.a,.b{stroke:#c4c4c4;}.b,.h{fill:#e0e0e0;}.c{fill:#f1f0f0;}.d{fill:#c4c4c4;}.f{fill:#7b74a2;}.g{fill:#a9a5a5;}.i{fill:#bcbbbb;}.j{fill:none;}.k{fill:#f4f4f5;}.l{fill:#8d3758;}.m{fill:url(#a);}.n{fill:url(#b);}.o{fill:#db5e83;}.p{fill:#aa4465;}.q{fill:url(#c);}.r{fill:url(#d);}.s{fill:#fce5ee;}.t{fill:url(#e);}.u,.v{opacity:0.4;}.ae,.v{isolation:isolate;}.v{fill:url(#f);}.w{fill:url(#g);}.x{fill:#691036;}.y{fill:#240e15;}.z{fill:#1d75bc;}.aa{fill:url(#h);}.ab{fill:url(#i);}.ac{fill:url(#j);}.ad,.ae{opacity:0.21;}.ae{fill:#f1f2f2;}.af{fill:#591539;}.ag{fill:#8a2960;}.ah{fill-rule:evenodd;}.ai{fill:#b03f84;}.aj{fill:#ca57a0;}.ak{fill:url(#k);}.al{fill:url(#l);}.am{fill:#d6d4d4;}.an{fill:#f3a2b5;}</style><linearGradient id="a" x1="316.57" y1="160.21" x2="365.1" y2="160.21" gradientTransform="matrix(1, 0, 0, -1, -79.23, 285.23)" gradientUnits="userSpaceOnUse"><stop offset="0" stop-color="#db5e83"/><stop offset="1" stop-color="#aa4465"/></linearGradient><radialGradient id="b" cx="1.79" cy="451.95" r="1" gradientTransform="matrix(105.91, 0, 0, -105.91, 45.76, 48019.33)" gradientUnits="userSpaceOnUse"><stop offset="0" stop-color="#f5a5b8"/><stop offset="1" stop-color="#db5e83"/></radialGradient><linearGradient id="c" x1="236.71" y1="141.82" x2="388.55" y2="141.82" gradientTransform="matrix(1, 0, 0, -1, -79.23, 285.23)" gradientUnits="userSpaceOnUse"><stop offset="0" stop-color="#f9c9d8"/><stop offset="1" stop-color="#f5a5b8"/></linearGradient><linearGradient id="d" x1="210.66" y1="96.02" x2="263.36" y2="96.02" xlink:href="#a"/><linearGradient id="e" x1="232.17" y1="84.94" x2="232.17" y2="112.73" xlink:href="#c"/><linearGradient id="f" x1="334.33" y1="166.71" x2="311.91" y2="145.52" gradientTransform="matrix(1, 0, 0, -1, -79.23, 285.23)" gradientUnits="userSpaceOnUse"><stop offset="0" stop-color="#aa4465"/><stop offset="1" stop-color="#691036"/></linearGradient><linearGradient id="g" x1="330.13" y1="165.58" x2="303.38" y2="134.02" gradientTransform="matrix(1, 0, 0, -1, -79.23, 285.23)" xlink:href="#b"/><radialGradient id="h" cx="19.27" cy="406.61" r="1" gradientTransform="matrix(4.59, 0, 0, -4.59, 209.92, 2066.34)" gradientUnits="userSpaceOnUse"><stop offset="0" stop-color="#fff"/><stop offset="0.96" stop-color="#2aace2"/><stop offset="1" stop-color="#2aace2"/></radialGradient><radialGradient id="i" cx="21.04" cy="402.04" r="1" gradientTransform="matrix(4.18, 0, 0, -4.18, 231.63, 1876.58)" xlink:href="#h"/><radialGradient id="j" cx="9.96" cy="430.77" r="1" gradientTransform="matrix(9.36, 0, 0, -9.36, 236.73, 4255.73)" gradientUnits="userSpaceOnUse"><stop offset="0" stop-color="#2d2d2d"/><stop offset="1"/></radialGradient><linearGradient id="k" x1="299.64" y1="94.7" x2="352.79" y2="94.7" xlink:href="#a"/><linearGradient id="l" x1="303.55" y1="94.63" x2="348.72" y2="94.63" xlink:href="#f"/></defs><path class="a" d="M271.43,346.29l-1-116.77,152.79,14.26v37.63Z" transform="translate(-29 -46.74)"/><path class="b" d="M49.63,265.28l-11-4.22V217.87c7.51,2.73,61.58,20.62,115.62,38.46l33.29,11c42.18,13.92,78,25.75,82.73,27.4l.46,51.7L49.63,265.28Z" transform="translate(-29 -46.74)"/><path class="c" d="M176.65,169.84,29.44,205.62V222L271,314.53V197.4Z" transform="translate(-29 -46.74)"/><path class="d" d="M29.81,221.64l240.76,92.28V197.68l-94-27.45L29.81,205.91ZM271,314.91l-.15,0L29.26,222.29a.4.4,0,0,1-.26-.37V205.59a.42.42,0,0,1,.31-.4l147.21-35.78a.5.5,0,0,1,.21,0L271.08,197a.41.41,0,0,1,.29.39V314.5a.42.42,0,0,1-.17.33A.4.4,0,0,1,271,314.91Z" transform="translate(-29 -46.74)"/><path class="e" d="M426,242.61,271.2,197.4V314.53l154.77-57Z" transform="translate(-29 -46.74)"/><path class="d" d="M271.57,197.91v116l154-56.7V242.88Zm-.4,117a.35.35,0,0,1-.23-.07.38.38,0,0,1-.18-.33V197.37a.42.42,0,0,1,.16-.33.45.45,0,0,1,.36-.06l154.77,45.21a.4.4,0,0,1,.29.39V257.5a.4.4,0,0,1-.26.38l-154.77,57A.36.36,0,0,1,271.17,314.9Z" transform="translate(-29 -46.74)"/><path class="d" d="M29.44,205.57l163-48.43,233.33,85.43L270.46,300.82Z" transform="translate(-29 -46.74)"/><path class="f" d="M413.89,227.82l-39-3.53-171-63.1a16,16,0,0,0-3-.25c-1.09,0-2.18.16-3.26.29L49.4,183.59s-1.75,18.22-.27,23.14h0c.08,1.16,1.41,2.51,5.46,3.85l210.45,82.07a33,33,0,0,0,9.42,0l.41-.09,138.06-51c.11-.11.22-.23.32-.35a2.22,2.22,0,0,0,.58-1.91A29.79,29.79,0,0,0,413.89,227.82Z" transform="translate(-29 -46.74)"/><path class="g" d="M412.75,241.12l.2-.22a1.77,1.77,0,0,0,.47-1.46.49.49,0,0,1,0-.24,28.82,28.82,0,0,0,.11-10.88L375,224.82a.61.61,0,0,1-.13,0L204,161.73a14.63,14.63,0,0,0-2.62-.25h-.28a29.44,29.44,0,0,0-3.2.29L50,184.06c-.25,2.72-1.54,18-.27,22.42a.54.54,0,0,1,.05.21c0,.64.77,1.94,5.12,3.38l210.4,82.05a31,31,0,0,0,9.18,0l.33-.06,137.93-50.91ZM265.1,293.18l-.13,0L54.54,211.09c-3.72-1.23-5.63-2.62-5.82-4.22-1.49-5,.18-22.58.25-23.34a.54.54,0,0,1,.45-.48L197.71,160.7a32,32,0,0,1,3.31-.3h.32a16.74,16.74,0,0,1,2.89.29l170.91,63.07L414,217.81c.24,0,.81.28.83.53.43,7,.21,18.64-.32,21a2.76,2.76,0,0,1-.71,2.25c-.07.09-.16.18-.34.37a.48.48,0,0,1-.2.14l-138.16,51-.41.08a26.2,26.2,0,0,1-4.52.36A41.35,41.35,0,0,1,265.1,293.18Z" transform="translate(-29 -46.74)"/><path class="h" d="M413.87,217.81l-39,6.48-171-63.1a16.91,16.91,0,0,0-3-.25c-1.09,0-2.18.16-3.26.29L49.4,183.59s-1.75,18.22-.27,23.14h0c.08,1.16,1.41,2.51,5.46,3.85l210.45,82.07a33,33,0,0,0,9.42,0l.41-.09,138.06-51,.32-.34a2.24,2.24,0,0,0,.58-1.91C414.32,237.18,414.8,223.29,413.87,217.81Z" transform="translate(-29 -46.74)"/><path class="e" d="M413.31,216.49,203.78,139.17a16,16,0,0,0-3-.26c-1.1,0-2.18.16-3.27.29L50.14,182.61c-1.66,1.39-2.53,3.67,4.3,5.95L264.9,270.62a32.26,32.26,0,0,0,9.41,0l.42-.09,138.06-51c.1-.11.21-.22.31-.35A2,2,0,0,0,413.31,216.49Z" transform="translate(-29 -46.74)"/><path class="i" d="M203.8,139.69a16.61,16.61,0,0,0-2.61-.24h-.3c-1.09,0-2.19.16-3.13.26L50.51,183.09c-.68.6-1,1.16-.88,1.69s.93,1.88,5.11,3.27l210.4,82a31.5,31.5,0,0,0,9.19,0l.32-.06L412.58,219.1l.21-.24a1.5,1.5,0,0,0,.27-1.93Zm61.14,131.46-.13,0L54.38,189.07c-3.62-1.21-5.52-2.55-5.81-4.08a2.94,2.94,0,0,1,1.33-2.8.82.82,0,0,1,.19-.09l147.46-43.44c1-.12,2.17-.25,3.31-.29h.33a16.73,16.73,0,0,1,2.88.29L413.6,216a.57.57,0,0,1,.26.2,2.61,2.61,0,0,1-.23,3.36,4.44,4.44,0,0,1-.35.38.48.48,0,0,1-.2.14L274.93,271l-.42.09a27.41,27.41,0,0,1-4.52.36A41.51,41.51,0,0,1,264.94,271.15Z" transform="translate(-29 -46.74)"/><rect class="j" x="54.05" width="0.3" height="0.3"/><rect class="j" x="54.05" width="0.3" height="0.3"/><path class="k" d="M262.77,268.25a15.57,15.57,0,0,0,9.31-.26c6.39-2.2,14.7-5.72,14.7-5.72l118.71-48.81S299,249.7,282.68,255.58s-22.32,2.22-22.32,2.22L99.75,206.08s151.6,55.52,158.81,61Z" transform="translate(-29 -46.74)"/><path class="l" d="M261.32,208.81l-33.09,19.46-12.16-9.76,30.75-17.31Z" transform="translate(-29 -46.74)"/><path class="m" d="M237.43,110.84c-2.52,4.75,48.44,33.27,48.44,33.27A43,43,0,0,0,270.49,114c-7.26-6-14.57-8.11-20.5-8.11C243.55,105.92,238.74,108.37,237.43,110.84Z" transform="translate(-29 -46.74)"/><path class="n" d="M153.47,126.25c-16.31,21.26-27.73,56.92-4.69,73.44a93.21,93.21,0,0,0,48.34,16.76s27.12-2.95,34.64.55l7.51,3.51,8.7-13.84-.82,15.2s54,19.39,83.36,7.68c0,0,.45-28-24.13-63.07a190.3,190.3,0,0,0-27-30.63c-24.59-22.68-50.48-30.79-72.65-30.79C182.08,105.06,162.05,115.06,153.47,126.25Z" transform="translate(-29 -46.74)"/><path class="o" d="M211.54,158.57s-6.32-2.58-10.64-2.14-12.73-3.51-14.52-8.5-4.6-6.11-4.6-6.11l16.85-.3Z" transform="translate(-29 -46.74)"/><path class="p" d="M309.75,169.58c-5.88-10.75-20.49-28.07-39.9-42.5-15.35-11.42-38.56-24.67-62-23a87.39,87.39,0,0,0-15.4,2.47c-15.05,3.91-24.16,11.32-29.16,16.86a37.65,37.65,0,0,0-7.36,11.3l-.64,1.82,1.93-.61c4.23-1.1,35.67,10.56,42.62,15.78,3.47,2.61,15.37,11.14,26.73,18.85,22.61,15.34,24.46,14.86,25.35,14.63,3.4-.88,24.63-4.23,24.84-4.27l.18,0,.15-.08c1.85-.89,11.15-5.41,12.6-6.63a7,7,0,0,0,1.56-2.14,11,11,0,0,1,3.4-4,2,2,0,0,1,.71-.32c3.2-.83,10.39,2.06,12.89,3.24l3,1.44Z" transform="translate(-29 -46.74)"/><path class="q" d="M208.4,103.9c-41.36,3-50.92,29.88-50.92,29.88,4.72-1.49,37.13,11.08,43.6,15.94s47.66,34.22,51.16,33.31,25-4.29,25-4.29,10.94-5.29,12.35-6.47,1.54-3.67,5-6.2,14.75,2.8,14.75,2.8c-12.11-22.16-56.56-65.12-96.9-65.12C211.07,103.75,209.74,103.8,208.4,103.9Z" transform="translate(-29 -46.74)"/><rect class="j" x="54.05" width="0.3" height="0.3"/><rect class="j" x="54.05" width="0.3" height="0.3"/><path class="r" d="M151.16,159.47c-15.11,3.18-20.32,12.27-19.67,25.29a45.71,45.71,0,0,0,7,21.67c6.61,10.9,29.44,21.62,41.13,2.44a29.13,29.13,0,0,0,4-21.21,43.68,43.68,0,0,0-5.12-14,32.29,32.29,0,0,0-5-6.53c-3.93-3.92-9.92-8.13-17.67-8.13A22.53,22.53,0,0,0,151.16,159.47Z" transform="translate(-29 -46.74)"/><path class="s" d="M168.2,180c-2.3-4.22-11.27-18.32-25.55-12.49a8.74,8.74,0,0,0-3.72,2.89c-3.24,4.39-9.23,16.11,2.39,32.86,0,0,9.37,13.79,23.41,8.31,12.34-4.82,6.13-24.65,4.44-29.39A14.63,14.63,0,0,0,168.2,180Z" transform="translate(-29 -46.74)"/><path class="t" d="M145.54,168.85a12.06,12.06,0,0,0-7.75,5.79c-3,5.24-5.91,15.46,3.66,29.26,0,0,8.94,13.18,22.36,7.94,12.28-4.79,5.33-25.15,4.06-28.56a8.15,8.15,0,0,0-.46-1.05c-1.37-2.64-7.76-13.8-18.29-13.8A15.71,15.71,0,0,0,145.54,168.85Z" transform="translate(-29 -46.74)"/><path class="p" d="M149.64,193.05c1.15,2.09,3.05,3.15,4.24,2.38s1.22-3.08.07-5.17-3-3.15-4.24-2.38S148.49,191,149.64,193.05Z" transform="translate(-29 -46.74)"/><rect class="j" x="54.05" width="0.3" height="0.31"/><rect class="j" x="54.05" width="0.3" height="0.31"/><g class="u"><path class="v" d="M205,123.6l-1.09,9.09s30.65,18.72,35.5,23.7h18.81l11-9-.66-13.67S236.44,113,226.33,113.09l-14.21,4.15Z" transform="translate(-29 -46.74)"/></g><path class="w" d="M227.27,114.28l-13.43,3.92-6.72,6-1,8.59s29,17.7,33.55,22.41h17.78l10.45-8.52-.62-12.93s-30.26-19.49-39.9-19.49Z" transform="translate(-29 -46.74)"/><path class="p" d="M311.57,223.58v-2.35l-12.16-.5v3.77Z" transform="translate(-29 -46.74)"/><path class="p" d="M311.29,225l-11.45,3.15.88,3.18,11.33-4.07Z" transform="translate(-29 -46.74)"/><path class="x" d="M299.41,221.57h11.78l.17,2,.21,0v-2.35l-12.16-.5Z" transform="translate(-29 -46.74)"/><path class="x" d="M300.07,228.92l11-3.43,1,1.73-.76-2.26-11.45,3.15Z" transform="translate(-29 -46.74)"/><path class="p" d="M293.33,169.18l14.42,16.28.24-.22-.3.13h0a2.82,2.82,0,0,1,.16,1,3.87,3.87,0,0,1-.17,1.13.82.82,0,0,0,0,.21,4,4,0,0,0,.12.71,58,58,0,0,0,1.91,5.54c2.78,7.27,7.46,18.2,7.46,18.2l.3-.12-.32.08,2,7.51.63-.17-2-7.53v0l-.41-.95c-.91-2.13-3.17-7.49-5.2-12.55-1-2.53-2-5-2.69-6.94-.35-1-.64-1.81-.83-2.46-.1-.33-.18-.61-.23-.83a2.89,2.89,0,0,1-.08-.46v0l-.09,0,.08,0h0l-.09,0,.08,0a4.51,4.51,0,0,0,.2-1.32,3.41,3.41,0,0,0-.21-1.26l0-.05-14.45-16.32Z" transform="translate(-29 -46.74)"/><path class="p" d="M259,204l8.16.94,5.85.66c1.66.19,2.87.32,3.19.33v-.33h-.32v7.09l8.75-5.94-.18-.27.07.31s7.62-1.69,16.43-4,18.82-5,23.63-7.3l-.27-.59c-4.71,2.2-14.72,5-23.52,7.26-4.4,1.13-8.51,2.12-11.51,2.82l-3.58.83-1.33.3h-.06l-7.78,5.29v-6.17h-.31c-.26,0-1.49-.14-3.15-.32l-8.87-1-3.65-.43-1.48-.17Z" transform="translate(-29 -46.74)"/><path class="p" d="M141.85,146.82l1.37.23A144.05,144.05,0,0,1,162.84,152c8.62,2.86,17.95,7.05,23.86,12.86l.23-.23h-.32V175L205,177.65l0-.32-.23.24A184.08,184.08,0,0,0,220,190c8.65,6.31,19.44,12.92,28.19,14l.08-.64c-8.5-1-19.28-7.6-27.89-13.9-4.3-3.15-8.07-6.23-10.77-8.53-1.34-1.14-2.42-2.09-3.16-2.76l-.85-.77-.29-.27-.08-.07-18-2.62v-9.93l-.1-.1c-6.91-6.77-18.2-11.3-27.77-14.16a141.88,141.88,0,0,0-17.44-4Z" transform="translate(-29 -46.74)"/><path class="y" d="M328.11,201.37a2.67,2.67,0,0,1-.24.32,6.85,6.85,0,0,1-1.82,1.82,6.28,6.28,0,0,1-1.64.64,10.69,10.69,0,0,1-2.52.33h-.15c-.41,0-.81,0-1.21,0l-.44,0-.52,0-.95-.12-1.1-.13c-.41-.05-.8-.09-1.21-.11a7.83,7.83,0,0,0-5.11,1.19c-1,.72-2,1.49-3,2.23a30.58,30.58,0,0,1-7.91,4.65,10.66,10.66,0,0,1-9.11-.54c-7.69-4.46-5.4-15.47,1.27-19.27s13.61,1.07,16.57-.53,4.28-4.88,7.58-6a9.45,9.45,0,0,1,6.58,0,10.57,10.57,0,0,1,6.09,7.06A10,10,0,0,1,328.11,201.37Z" transform="translate(-29 -46.74)"/><rect class="j" x="54.05" width="0.3" height="0.3"/><rect class="j" x="54.05" width="0.3" height="0.3"/><path class="z" d="M291.61,202.62a6.13,6.13,0,0,0,6.9,5.75,7,7,0,0,0,6-7.34,6.13,6.13,0,0,0-6.91-5.75A7,7,0,0,0,291.61,202.62Z" transform="translate(-29 -46.74)"/><path class="aa" d="M298,197.22a4.87,4.87,0,0,0-4.2,5.15,4.3,4.3,0,0,0,4.85,4,4.88,4.88,0,0,0,4.2-5.16,4.31,4.31,0,0,0-4.3-4.07A3.48,3.48,0,0,0,298,197.22Z" transform="translate(-29 -46.74)"/><path class="z" d="M313.75,195.89a5.57,5.57,0,0,0,6.29,5.24,6.34,6.34,0,0,0,5.46-6.69,5.58,5.58,0,0,0-6.3-5.24A6.34,6.34,0,0,0,313.75,195.89Z" transform="translate(-29 -46.74)"/><path class="ab" d="M319.31,191a4.46,4.46,0,0,0-3.83,4.7,3.91,3.91,0,0,0,4.42,3.68,4.44,4.44,0,0,0,3.83-4.7,3.91,3.91,0,0,0-3.91-3.71A4.36,4.36,0,0,0,319.31,191Z" transform="translate(-29 -46.74)"/><path class="ac" d="M323.63,217.05c-5.93,1.54-9.9,6.56-8.86,11.21s6.68,7.18,12.61,5.64,9.9-6.56,8.86-11.21c-.82-3.72-4.62-6.09-9.14-6.09A14.13,14.13,0,0,0,323.63,217.05Z" transform="translate(-29 -46.74)"/><g class="ad"><path class="ae" d="M316.43,226.29c.62,2.77,4,4.28,7.55,3.37s5.91-3.92,5.29-6.7-4-4.29-7.54-3.37S315.81,223.51,316.43,226.29Z" transform="translate(-29 -46.74)"/></g><path class="af" d="M278,196.85a17.87,17.87,0,0,1,5.41-7.63c4-3.36,9.45-4.13,14.51-4.47l5.77-.39a17.06,17.06,0,0,0,3.5-.48,40.1,40.1,0,0,0,4.07-1.69,15.51,15.51,0,0,1,2-.64,15.74,15.74,0,0,1,5.64-.3,15.5,15.5,0,0,1,2.76.62,8.21,8.21,0,0,1,1.7.79c.17.1.93.47.59.7a1.37,1.37,0,0,1-.32.16c-.23.09-.48.14-.71.24l-.48.21a1.52,1.52,0,0,0-.4.36,16.2,16.2,0,0,0-1.68,2.11,5.27,5.27,0,0,1-1.48,1.79c-.41.26-.83.5-1.21.79a56.19,56.19,0,0,0-6.6,5.82,56.92,56.92,0,0,0-10.16,14.31c-.66,1.32-1.26,2.65-1.81,4a24.39,24.39,0,0,1-1.22,2.71,5.62,5.62,0,0,1-.78,1.2,8.94,8.94,0,0,1-.91,1,4.27,4.27,0,0,1-.79.48,6.76,6.76,0,0,1-1.65.63,7.43,7.43,0,0,1-1.94.13,13.66,13.66,0,0,1-4.15-.87,16.71,16.71,0,0,1-10.78-15.6A18.79,18.79,0,0,1,278,196.85Z" transform="translate(-29 -46.74)"/><path class="ag" d="M331.28,198.5a19,19,0,0,1-1.09,5.74c-1.26,3.47-3.78,6-7.58,6.4-1.78.16-3.55-.45-5.34-.57-4.21-.27-8.08,2.14-11.54,4.55s-7.13,5-11.34,5.21A14.55,14.55,0,0,1,288,218.5a16.19,16.19,0,0,1-6.85-5.2c-3.4-4.68-3.2-11.22-1-16.58a14.45,14.45,0,0,1,2.1-3.76c1.85-2.31,4.61-3.68,7.38-4.74a49.76,49.76,0,0,1,11.46-2.88c2.13-.28,4.41-.24,6.5-.71a31,31,0,0,0,4.86-1.66,15.17,15.17,0,0,1,7.07-1.14,11.3,11.3,0,0,1,6.54,2.77,13.42,13.42,0,0,1,2.08,2.49A19.53,19.53,0,0,1,331.28,198.5Z" transform="translate(-29 -46.74)"/><path class="ah" d="M292.46,219.27l.07-.5a7.22,7.22,0,0,0,.8.08l0,.5Z" transform="translate(-29 -46.74)"/><path class="ah" d="M291.16,219l.12-.48.79.17-.09.49C291.7,219.17,291.43,219.1,291.16,219Z" transform="translate(-29 -46.74)"/><path class="ah" d="M289.43,218.59l.16-.47c.25.09.51.18.77.25l-.14.47C290,218.77,289.69,218.68,289.43,218.59Z" transform="translate(-29 -46.74)"/><path class="ah" d="M296.93,218.94l-.13-.47c.26-.07.52-.15.77-.24l.16.47C297.47,218.79,297.2,218.87,296.93,218.94Z" transform="translate(-29 -46.74)"/><path class="ah" d="M295.57,219.3l-.07-.49c.27,0,.53-.08.79-.14l.1.48C296.12,219.21,295.85,219.25,295.57,219.3Z" transform="translate(-29 -46.74)"/><path class="ah" d="M294.2,219.41v-.49a7.14,7.14,0,0,0,.8,0l0,.49A5.91,5.91,0,0,1,294.2,219.41Z" transform="translate(-29 -46.74)"/><path class="ah" d="M301,217.23l-.25-.43.7-.41.26.42Z" transform="translate(-29 -46.74)"/><path class="ah" d="M299.63,218l-.22-.44.72-.37.23.43C300.12,217.72,299.87,217.84,299.63,218Z" transform="translate(-29 -46.74)"/><path class="ah" d="M298.28,218.57l-.17-.46.74-.31.2.45C298.8,218.37,298.54,218.47,298.28,218.57Z" transform="translate(-29 -46.74)"/><path class="ah" d="M305.29,213.89l.29.41-.68.47-.28-.41Z" transform="translate(-29 -46.74)"/><path class="ah" d="M304,214.76l.28.41-.68.46-.27-.41Z" transform="translate(-29 -46.74)"/><path class="ah" d="M302.28,216.49l-.27-.42.69-.44.27.41Z" transform="translate(-29 -46.74)"/><path class="ah" d="M308.34,212.35l-.25-.43c.24-.14.47-.29.72-.42l.24.43C308.81,212.06,308.58,212.21,308.34,212.35Z" transform="translate(-29 -46.74)"/><path class="ah" d="M307.06,213.13l-.27-.42.7-.45.26.42Z" transform="translate(-29 -46.74)"/><path class="ah" d="M306.6,213.13l.28.4-.68.47-.28-.4Z" transform="translate(-29 -46.74)"/><path class="ah" d="M312.6,210.39l-.17-.46c.26-.11.53-.18.8-.27l.14.47C313.11,210.22,312.85,210.29,312.6,210.39Z" transform="translate(-29 -46.74)"/><path class="ah" d="M310.9,211l-.2-.45.76-.33.19.46Z" transform="translate(-29 -46.74)"/><path class="ah" d="M310.13,210.85l.23.43-.74.39-.23-.42Z" transform="translate(-29 -46.74)"/><path class="ah" d="M316.77,209.61v-.49l.85,0,0,.5Z" transform="translate(-29 -46.74)"/><path class="ah" d="M315.1,209.69l-.07-.49a7.89,7.89,0,0,1,.85-.08l0,.49C315.64,209.62,315.37,209.66,315.1,209.69Z" transform="translate(-29 -46.74)"/><path class="ah" d="M313.85,210l-.12-.48.41-.11.41-.08.1.49-.4.07Z" transform="translate(-29 -46.74)"/><path class="ah" d="M321.11,210.15l.06-.49c.26,0,.53.05.79.06v.49Z" transform="translate(-29 -46.74)"/><path class="ah" d="M320.7,209.58l-.09.49-.8-.14.08-.49Z" transform="translate(-29 -46.74)"/><path class="ah" d="M318.07,209.71l.06-.48c.28,0,.56.07.83.12l-.08.48Z" transform="translate(-29 -46.74)"/><path class="ah" d="M325.67,209.41l-.22-.44c.23-.13.47-.25.69-.4l.26.42C326.17,209.14,325.92,209.28,325.67,209.41Z" transform="translate(-29 -46.74)"/><path class="ah" d="M324.27,210l-.12-.48.38-.11.36-.13.19.46-.4.14Z" transform="translate(-29 -46.74)"/><path class="ah" d="M322.45,210.26l0-.5a7.11,7.11,0,0,0,.79-.1l.08.48A7.54,7.54,0,0,1,322.45,210.26Z" transform="translate(-29 -46.74)"/><path class="ah" d="M328.91,206.38l-.42-.26c.14-.23.28-.45.4-.69l.44.23Q329.14,206,328.91,206.38Z" transform="translate(-29 -46.74)"/><path class="ah" d="M328,207.57l-.37-.33c.17-.2.34-.4.5-.62l.4.29C328.35,207.14,328.17,207.35,328,207.57Z" transform="translate(-29 -46.74)"/><path class="ah" d="M326.62,208.61l-.3-.39a7.34,7.34,0,0,0,.6-.51l.34.35A8.42,8.42,0,0,1,326.62,208.61Z" transform="translate(-29 -46.74)"/><path class="ah" d="M330.27,202.21l-.48-.12c.07-.26.12-.52.17-.79l.49.1C330.39,201.67,330.34,201.94,330.27,202.21Z" transform="translate(-29 -46.74)"/><path class="ah" d="M330.26,203.64l-.47-.15q.13-.39.24-.78l.47.14C330.43,203.11,330.35,203.38,330.26,203.64Z" transform="translate(-29 -46.74)"/><path class="ah" d="M329.37,205.07l-.45-.2c.12-.24.21-.5.31-.74l.46.17A7.35,7.35,0,0,1,329.37,205.07Z" transform="translate(-29 -46.74)"/><path class="ah" d="M331.17,197.79h-.49c0-.27,0-.54,0-.81l.49,0C331.17,197.24,331.17,197.52,331.17,197.79Z" transform="translate(-29 -46.74)"/><path class="ah" d="M330.72,199.33l-.49,0c0-.27,0-.54,0-.81l.49,0C330.75,198.78,330.74,199.05,330.72,199.33Z" transform="translate(-29 -46.74)"/><path class="ah" d="M330.71,200.77l-.48-.07c0-.27.07-.54.1-.81l.5.06C330.79,200.22,330.76,200.5,330.71,200.77Z" transform="translate(-29 -46.74)"/><path class="ah" d="M330.48,193.32l-.48.11c-.07-.26-.13-.52-.21-.78l.48-.14C330.34,192.78,330.4,193.05,330.48,193.32Z" transform="translate(-29 -46.74)"/><path class="ah" d="M330.86,194.85l-.49.08c-.05-.27-.09-.53-.14-.8l.48-.1C330.77,194.31,330.81,194.58,330.86,194.85Z" transform="translate(-29 -46.74)"/><path class="ah" d="M330.8,196.27l-.49,0c0-.27-.05-.54-.08-.8l.49-.07C330.75,195.72,330.77,196,330.8,196.27Z" transform="translate(-29 -46.74)"/><path class="ah" d="M328.88,189.12l-.44.23c-.13-.24-.24-.48-.38-.71l.43-.25C328.63,188.63,328.75,188.88,328.88,189.12Z" transform="translate(-29 -46.74)"/><path class="ah" d="M329.71,190.56l-.46.19c-.11-.25-.2-.5-.33-.74l.45-.21C329.5,190.05,329.6,190.31,329.71,190.56Z" transform="translate(-29 -46.74)"/><path class="ah" d="M330.09,191.89l-.47.15c-.09-.25-.16-.51-.26-.76l.46-.18C329.92,191.36,330,191.63,330.09,191.89Z" transform="translate(-29 -46.74)"/><path class="ah" d="M326.38,185.5l-.36.34a7.4,7.4,0,0,0-.57-.55l.33-.37A8.21,8.21,0,0,1,326.38,185.5Z" transform="translate(-29 -46.74)"/><path class="ah" d="M327.22,186.66l-.4.29-.5-.63.38-.32Z" transform="translate(-29 -46.74)"/><path class="ah" d="M328.05,187.89l-.42.27c-.15-.23-.29-.46-.44-.68l.4-.28C327.75,187.42,327.9,187.66,328.05,187.89Z" transform="translate(-29 -46.74)"/><path class="ah" d="M322.48,183l-.18.47c-.25-.1-.5-.18-.75-.26l.13-.47C322,182.83,322.22,182.91,322.48,183Z" transform="translate(-29 -46.74)"/><path class="ah" d="M323.8,183.66l-.24.44c-.23-.13-.47-.25-.71-.36l.2-.45C323.3,183.4,323.55,183.53,323.8,183.66Z" transform="translate(-29 -46.74)"/><path class="ah" d="M325.1,184.42l-.3.39c-.21-.16-.43-.31-.65-.45l.26-.42Q324.77,184.17,325.1,184.42Z" transform="translate(-29 -46.74)"/><path class="ah" d="M318,182.31v.5c-.27,0-.54,0-.8,0l0-.49C317.48,182.33,317.76,182.32,318,182.31Z" transform="translate(-29 -46.74)"/><path class="ah" d="M319.79,182.37l-.05.49c-.26,0-.53,0-.8-.05l0-.5Z" transform="translate(-29 -46.74)"/><path class="ah" d="M321.14,182.58l-.11.48c-.26-.06-.52-.11-.79-.15l.08-.49Z" transform="translate(-29 -46.74)"/><path class="ah" d="M313.65,183.07l.15.47-.75.28-.19-.46Z" transform="translate(-29 -46.74)"/><path class="ah" d="M315.41,182.64l.11.48-.78.2-.14-.47Q315,182.73,315.41,182.64Z" transform="translate(-29 -46.74)"/><path class="ah" d="M316.73,182.42l.06.49-.8.13-.09-.49Z" transform="translate(-29 -46.74)"/><path class="ah" d="M309.74,184.59l.15.47-.8.25-.13-.48Q309.35,184.72,309.74,184.59Z" transform="translate(-29 -46.74)"/><path class="ah" d="M310.43,184.91l-.17-.46.78-.29.17.45Z" transform="translate(-29 -46.74)"/><path class="ah" d="M311.75,184.38l-.19-.45.77-.31.18.45Z" transform="translate(-29 -46.74)"/><path class="ah" d="M304.66,186l0-.48.82-.08.05.48Z" transform="translate(-29 -46.74)"/><path class="ah" d="M306.73,185.35l.08.49L306,186l-.06-.49C306.19,185.43,306.46,185.4,306.73,185.35Z" transform="translate(-29 -46.74)"/><path class="ah" d="M308.45,185l.12.48c-.27.06-.54.13-.82.18l-.09-.48Z" transform="translate(-29 -46.74)"/><path class="ah" d="M301.09,185.9l.07.49-.81.11-.07-.48Z" transform="translate(-29 -46.74)"/><path class="ah" d="M301.63,186.35l-.05-.48.81-.08.05.48Z" transform="translate(-29 -46.74)"/><path class="ah" d="M302.92,186.24l0-.5.82-.06,0,.51Z" transform="translate(-29 -46.74)"/><path class="ah" d="M296.05,187.33l-.11-.49.79-.18.12.48Z" transform="translate(-29 -46.74)"/><path class="ah" d="M297.34,187.09l-.1-.49.8-.16.1.49Z" transform="translate(-29 -46.74)"/><path class="ah" d="M298.62,186.74l-.08-.49.81-.14.08.5Z" transform="translate(-29 -46.74)"/><path class="ah" d="M291.75,188.58l-.15-.48.77-.25.16.48Z" transform="translate(-29 -46.74)"/><path class="ah" d="M293,188.12l-.14-.47.78-.23.14.47Z" transform="translate(-29 -46.74)"/><path class="ah" d="M294.33,187.78l-.13-.48.79-.21.13.48Z" transform="translate(-29 -46.74)"/><path class="ah" d="M288,189.48l.2.45c-.24.11-.49.22-.73.35l-.22-.45C287.5,189.71,287.75,189.59,288,189.48Z" transform="translate(-29 -46.74)"/><path class="ah" d="M289.32,188.93l.19.46-.76.31-.19-.45Z" transform="translate(-29 -46.74)"/><path class="ah" d="M290.46,189.14l-.17-.47.77-.28.17.47Z" transform="translate(-29 -46.74)"/><path class="ah" d="M284.41,191.76l.31.38c-.2.17-.4.34-.59.53l-.35-.36A8.27,8.27,0,0,1,284.41,191.76Z" transform="translate(-29 -46.74)"/><path class="ah" d="M285.33,190.89l.28.41c-.23.14-.45.31-.66.46l-.3-.39C284.88,191.2,285.1,191,285.33,190.89Z" transform="translate(-29 -46.74)"/><path class="ah" d="M286.68,190.13l.23.43-.7.4-.25-.42C286.19,190.39,286.43,190.26,286.68,190.13Z" transform="translate(-29 -46.74)"/><path class="ah" d="M281.54,195.34l.44.22c-.12.24-.24.48-.35.73l-.45-.2C281.29,195.83,281.42,195.58,281.54,195.34Z" transform="translate(-29 -46.74)"/><path class="ah" d="M282.49,194l.41.28c-.15.22-.29.45-.42.68l-.43-.25A7.56,7.56,0,0,1,282.49,194Z" transform="translate(-29 -46.74)"/><path class="ah" d="M283,192.84l.37.33c-.18.2-.36.4-.52.61l-.39-.3C282.65,193.26,282.84,193.05,283,192.84Z" transform="translate(-29 -46.74)"/><path class="ah" d="M280.07,199.46l.48.12c-.08.26-.13.53-.19.79l-.48-.1C279.94,200,280,199.72,280.07,199.46Z" transform="translate(-29 -46.74)"/><path class="ah" d="M280.56,198.05l.47.16c-.08.26-.17.51-.25.77l-.47-.14C280.39,198.57,280.48,198.31,280.56,198.05Z" transform="translate(-29 -46.74)"/><path class="ah" d="M281.05,196.64l.45.19c-.1.25-.2.5-.29.75l-.46-.17C280.85,197.15,280.94,196.89,281.05,196.64Z" transform="translate(-29 -46.74)"/><path class="ah" d="M279.52,204.74l-.51,0,0-.81.51,0Z" transform="translate(-29 -46.74)"/><path class="ah" d="M279.52,202.39l.5.06a7,7,0,0,0-.08.8l-.5,0C279.46,202.94,279.48,202.66,279.52,202.39Z" transform="translate(-29 -46.74)"/><path class="ah" d="M279.94,201.87l-.5-.1.15-.79.5.09Z" transform="translate(-29 -46.74)"/><path class="ah" d="M280.12,209l-.5.12-.18-.79.5-.11Z" transform="translate(-29 -46.74)"/><path class="ah" d="M279.44,206.9l.49-.06c0,.27.09.53.13.79l-.48.09C279.53,207.45,279.47,207.18,279.44,206.9Z" transform="translate(-29 -46.74)"/><path class="ah" d="M279.44,205.34l.5,0a7.34,7.34,0,0,0,.05.81l-.49,0C279.46,205.89,279.46,205.62,279.44,205.34Z" transform="translate(-29 -46.74)"/><path class="ah" d="M281.18,212.42l.42-.26c.15.22.28.45.44.66l-.39.3C281.48,212.89,281.34,212.65,281.18,212.42Z" transform="translate(-29 -46.74)"/><path class="ah" d="M281.57,211.68l-.48.23-.34-.72.48-.23Z" transform="translate(-29 -46.74)"/><path class="ah" d="M279.88,209.82l.46-.16c.05.13.09.25.13.38l.16.37-.45.19-.17-.38C280,210.09,279.92,210,279.88,209.82Z" transform="translate(-29 -46.74)"/><path class="ah" d="M284.22,215.8l.3-.39c.21.17.43.33.65.48l-.28.41C284.66,216.13,284.43,216,284.22,215.8Z" transform="translate(-29 -46.74)"/><path class="ah" d="M283.35,214.79l.34-.36a7.7,7.7,0,0,0,.6.54l-.32.38C283.76,215.17,283.55,215,283.35,214.79Z" transform="translate(-29 -46.74)"/><path class="ah" d="M282.05,213.67l.38-.32c.17.2.34.41.53.6l-.36.34C282.41,214.09,282.22,213.88,282.05,213.67Z" transform="translate(-29 -46.74)"/><path class="ah" d="M288.12,218l.2-.45.75.31-.18.46C288.64,218.24,288.38,218.15,288.12,218Z" transform="translate(-29 -46.74)"/><path class="ah" d="M286.82,217.37l.23-.44c.25.12.48.25.73.36l-.22.45Z" transform="translate(-29 -46.74)"/><path class="ah" d="M285.52,216.59l.27-.42a7.92,7.92,0,0,0,.69.42l-.25.43C286,216.88,285.75,216.74,285.52,216.59Z" transform="translate(-29 -46.74)"/><path class="ai" d="M330.4,197.79a17.15,17.15,0,0,1-1,5.12c-1.12,3.1-3.37,5.4-6.76,5.71-1.6.15-3.17-.4-4.77-.5-3.76-.25-7.22,1.9-10.31,4s-6.35,4.48-10.12,4.66a13.09,13.09,0,0,1-5.66-1.19,14.65,14.65,0,0,1-6.12-4.64c-3-4.18-2.85-10-.92-14.8a12.85,12.85,0,0,1,1.87-3.36,15.13,15.13,0,0,1,6.58-4.23A44.74,44.74,0,0,1,303.44,186c1.91-.25,3.94-.21,5.81-.64a28.07,28.07,0,0,0,4.34-1.47,13.49,13.49,0,0,1,6.3-1,10.07,10.07,0,0,1,5.84,2.47,12,12,0,0,1,1.86,2.22A17.5,17.5,0,0,1,330.4,197.79Z" transform="translate(-29 -46.74)"/><path class="aj" d="M330.06,197.29a16,16,0,0,1-.91,4.8c-1.06,2.91-3.16,5.06-6.34,5.35-1.5.14-3-.37-4.48-.47-3.52-.23-6.76,1.79-9.65,3.81s-6,4.2-9.49,4.36a12.28,12.28,0,0,1-5.32-1.11,13.72,13.72,0,0,1-5.73-4.35c-2.84-3.92-2.67-9.39-.87-13.88a12.18,12.18,0,0,1,1.76-3.15,14.09,14.09,0,0,1,6.17-4,42.42,42.42,0,0,1,9.59-2.42c1.79-.23,3.69-.19,5.45-.59a26.6,26.6,0,0,0,4.06-1.38,12.67,12.67,0,0,1,5.92-1,9.4,9.4,0,0,1,5.47,2.32,10.86,10.86,0,0,1,1.74,2.08A16.3,16.3,0,0,1,330.06,197.29Z" transform="translate(-29 -46.74)"/><path class="af" d="M264.84,202.59a9.09,9.09,0,0,1-2.35-1.28,8.79,8.79,0,0,1-2.58-4,24.68,24.68,0,0,0,8.28,12.89A21.68,21.68,0,0,0,282.66,215,19.57,19.57,0,0,1,279,200.73a7.8,7.8,0,0,1-2.24,1.82,15,15,0,0,1-2.83.89,16.15,16.15,0,0,1-5.84.05A17.3,17.3,0,0,1,264.84,202.59Z" transform="translate(-29 -46.74)"/><path class="ak" d="M242.69,171.22c-14.48,3.76-24.29,15.44-21.92,26.1s16,16.26,30.52,12.51,24.29-15.44,21.92-26.1c-1.87-8.42-10.78-13.68-21.56-13.68A35.81,35.81,0,0,0,242.69,171.22Z" transform="translate(-29 -46.74)"/><path class="al" d="M243.25,174.19c-12.3,3.19-20.65,13.12-18.63,22.18s13.63,13.82,25.94,10.63,20.64-13.12,18.63-22.18c-1.59-7.15-9.16-11.62-18.33-11.62A30.54,30.54,0,0,0,243.25,174.19Z" transform="translate(-29 -46.74)"/><path class="am" d="M328.33,162.26a.33.33,0,0,1-.36,0,.55.55,0,0,1-.16-.4l-.11-2.22a1.79,1.79,0,0,1,.09-.67c.07-.19.13-.33.16-.43L334,144.22l-6.21,3a.3.3,0,0,1-.34,0,.5.5,0,0,1-.16-.38l-.1-2.22a1.13,1.13,0,0,1,.11-.55.78.78,0,0,1,.33-.34l9.62-4.59a.33.33,0,0,1,.37,0,.53.53,0,0,1,.17.41l.1,2.19a1.64,1.64,0,0,1-.05.55,3.2,3.2,0,0,1-.16.47L331.8,157l6.39-3.05a.33.33,0,0,1,.37,0,.54.54,0,0,1,.15.41l.11,2.22a1.07,1.07,0,0,1-.11.54.77.77,0,0,1-.35.36Z" transform="translate(-29 -46.74)"/><path class="am" d="M319.39,143.81a.24.24,0,0,1-.28,0,.39.39,0,0,1-.12-.31l-.08-1.71a1.38,1.38,0,0,1,.06-.51l.13-.34,4.67-11L319,132.18a.24.24,0,0,1-.27,0,.37.37,0,0,1-.12-.29l-.08-1.72a.78.78,0,0,1,.09-.42.57.57,0,0,1,.25-.26l7.42-3.54a.24.24,0,0,1,.28,0,.36.36,0,0,1,.13.31l.08,1.69a1.21,1.21,0,0,1,0,.43,1.69,1.69,0,0,1-.12.36l-4.53,11,4.93-2.36a.24.24,0,0,1,.27,0,.41.41,0,0,1,.13.31l.08,1.72a.76.76,0,0,1-.09.42.62.62,0,0,1-.26.27Z" transform="translate(-29 -46.74)"/><path class="am" d="M329.19,129.69a.18.18,0,0,1-.22,0,.3.3,0,0,1-.1-.24l-.07-1.36a1.31,1.31,0,0,1,.06-.41,2.07,2.07,0,0,1,.1-.26l3.7-8.75-3.8,1.81a.18.18,0,0,1-.21,0,.34.34,0,0,1-.1-.24l-.06-1.35a.8.8,0,0,1,.07-.34.45.45,0,0,1,.2-.21l5.89-2.81a.19.19,0,0,1,.22,0,.31.31,0,0,1,.11.25l.06,1.34a1.27,1.27,0,0,1,0,.34,2,2,0,0,1-.1.29l-3.59,8.73,3.9-1.87a.21.21,0,0,1,.23,0,.36.36,0,0,1,.09.25l.07,1.36a.72.72,0,0,1-.07.33.41.41,0,0,1-.21.22Z" transform="translate(-29 -46.74)"/><path class="am" d="M329,169c.24,2.13,1.65,3.72,3.14,3.55s2.51-2,2.27-4.16-1.65-3.72-3.14-3.55S328.72,166.89,329,169Z" transform="translate(-29 -46.74)"/><path class="am" d="M325,177.93c.16,1.41,1.1,2.47,2.09,2.36s1.67-1.35,1.51-2.77-1.1-2.47-2.09-2.36S324.88,176.51,325,177.93Z" transform="translate(-29 -46.74)"/><ellipse class="s" cx="216.07" cy="226.78" rx="8.22" ry="12" transform="translate(-103.11 62.1) rotate(-24.27)"/><path class="an" d="M218.6,238.89c-3.95,0-8.3-3.3-10.63-8.46-2.87-6.37-1.57-13.19,2.9-15.2,2.21-1,4.82-.69,7.36.85a15.89,15.89,0,0,1,6,7c2.87,6.37,1.57,13.19-2.9,15.21A6.51,6.51,0,0,1,218.6,238.89Zm-5-22.91a5.19,5.19,0,0,0-2.17.46c-3.8,1.71-4.8,7.74-2.23,13.44s7.76,9,11.55,7.23,4.8-7.74,2.24-13.44h0a14.48,14.48,0,0,0-5.43-6.45A7.68,7.68,0,0,0,213.58,216Z" transform="translate(-29 -46.74)"/><path class="p" d="M215,229.14c.72,1,1.68,1.34,2.15.82s.28-1.75-.44-2.73-1.68-1.34-2.15-.81S214.32,228.16,215,229.14Z" transform="translate(-29 -46.74)"/></svg>