<svg width="19" height="20" viewBox="0 0 19 20" fill="none" xmlns="http://www.w3.org/2000/svg">
  <path
    d="M3.31505 0.0998794C4.10605 -0.0131206 5.21505 0.244879 6.64805 1.06588L6.92005 1.22688L7.08005 1.32688L7.47705 1.24388C8.99085 0.951367 10.544 0.924297 12.0671 1.16388L12.5231 1.24388L12.9191 1.32688L13.0801 1.22688C14.4651 0.38688 15.5671 0.0568795 16.4021 0.0788795L16.5661 0.0868794L16.7131 0.10388L16.7891 0.11788L16.8391 0.128879L16.9831 0.17588C17.2188 0.273336 17.4084 0.457214 17.5131 0.68988C17.9223 1.60158 18.0601 2.61188 17.9101 3.59988L17.8631 3.86688L17.8171 4.06288L17.9401 4.22588C18.5141 5.02088 18.8701 5.95388 18.9701 6.93288L18.9931 7.22788L19.0001 7.49988C19.0001 11.3549 17.3411 13.3829 14.3561 14.1799L14.1111 14.2409L13.9791 14.2699L13.9931 14.4309L14.001 14.5879L14.005 14.9529L14.0031 15.1659L14.0001 18.9999C14 19.2448 13.9101 19.4812 13.7473 19.6643C13.5846 19.8473 13.3603 19.9642 13.1171 19.9929L13.0001 19.9999H7.00005C6.75512 19.9998 6.51871 19.9099 6.33568 19.7472C6.15264 19.5844 6.03571 19.3601 6.00705 19.1169L6.00005 18.9999V18.2659C4.18205 18.5259 2.97005 17.8419 1.89005 16.3879L1.35505 15.6219C1.07505 15.2259 0.900051 15.0429 0.766051 14.9779L0.71805 14.9589C0.470461 14.8784 0.264007 14.7046 0.142568 14.4743C0.0211279 14.244 -0.00572369 13.9755 0.0677197 13.7257C0.141163 13.476 0.309111 13.2647 0.53587 13.1368C0.762628 13.0089 1.03032 12.9745 1.28205 13.0409C1.92405 13.2289 2.35605 13.6089 2.85205 14.2799L3.39005 15.0489C4.15005 16.1279 4.75005 16.5079 5.99905 16.2399L6.00005 15.5619L5.98205 15.3939C5.95252 15.1202 5.9455 14.8447 5.96105 14.5699L5.97805 14.3849L5.99705 14.2649L5.88905 14.2409C2.91305 13.5309 1.18605 11.6679 1.01405 8.10188L1.00405 7.79188L1.00005 7.49988C1.00121 6.41646 1.31662 5.35663 1.90805 4.44888L2.06005 4.22688L2.18205 4.06388L2.13705 3.86788C1.95677 2.98944 2.00672 2.07931 2.28205 1.22588L2.38205 0.943879L2.48805 0.690879C2.59245 0.458399 2.78166 0.274547 3.01705 0.17688L3.16105 0.12988L3.31505 0.0998794Z"
    fill="currentColor" />
</svg>