<svg width="258" height="45" viewBox="0 0 258 45" fill="none" xmlns="http://www.w3.org/2000/svg">
<g id="Logo / Desktop">
<path id="bg" fill-rule="evenodd" clip-rule="evenodd" d="M147.909 0H0V45H228.034V30H243V14.9464L258 15V0H147.909Z" fill="#0075FF"/>
<path id="text" fill-rule="evenodd" clip-rule="evenodd" d="M30 15V30H27.0291L27 24H18.0474V30H15V15H30ZM199 15V18.0319H205V30H208V18H214V15H199ZM173.02 30H188V21H176V18.0319H188V15H173.02V24H185V27H173.02V30ZM135 30H132V18L123 18.0319V30H120V15H135V30ZM109 30H93V15H109V30ZM96 27V18H106V27H96ZM162 30H146V15H162V30ZM149 27V18H159V27H149ZM82 30V27H70V18.0319H82V15H67V30H82ZM41 30H56V27H44V15H41V30ZM18 18.0319H27V21H18V18.0319Z" fill="white"/>
</g>
</svg>
