<svg width="201" height="54" viewBox="0 0 201 54" fill="none" xmlns="http://www.w3.org/2000/svg">
  <path fill-rule="evenodd" clip-rule="evenodd"
    d="M8.81704 16.5194H8.50048L8.88035 24.1838V45.0703H0.649902V0.899455H8.24724L28.0883 30.3337H28.4048L27.835 25.0332V0.899455H36.0655V45.0703H28.4681L8.81704 16.5194ZM53.3207 1.71878C52.3499 2.64426 51.8646 3.75903 51.8646 5.06312C51.8646 6.40928 52.3499 7.51353 53.3207 8.37591C54.2915 9.23829 55.6421 9.66947 57.3726 9.66947C59.1454 9.66947 60.5593 9.23829 61.6145 8.37591C62.6697 7.51353 63.1973 6.40928 63.1973 5.06312C63.1973 3.75903 62.6697 2.64426 61.6145 1.71878C60.5593 0.7933 59.1454 0.330566 57.3726 0.330566C55.6421 0.330566 54.2915 0.7933 53.3207 1.71878ZM53.3869 38.2543H42.7691V45.1954H72.3404V38.2543H61.6174V13.645H42.7691V20.5861H53.3869V38.2543ZM75.2911 20.5312H69.0233V13.59H75.2911V6.39648L83.5216 4.06173V13.59H100.109V20.5312H83.5216V29.5546C83.5216 32.7939 84.1336 35.1391 85.3576 36.5904C86.5816 38.0418 88.291 38.7674 90.4858 38.7674C91.6254 38.7674 92.6595 38.6307 93.5881 38.3573C94.5166 38.0838 95.3502 37.7368 96.0889 37.3161C96.8275 36.8954 97.5028 36.4327 98.1148 35.9279C98.7268 35.4231 99.2861 34.9603 99.7926 34.5396L103.591 40.2188C102.874 41.0601 101.977 41.8278 100.9 42.522C99.8242 43.2161 98.6635 43.826 97.4184 44.3519C96.1733 44.8777 94.8754 45.2879 93.5247 45.5824C92.1741 45.8768 90.8446 46.0241 89.5361 46.0241C84.8089 46.0241 81.2529 44.7095 78.8682 42.0802C76.4835 39.451 75.2911 35.2759 75.2911 29.5546V20.5312ZM107.619 38.232H115.47V20.5636H107.619V13.6225H121.865L122.814 17.7872H123.067C124.249 16.399 125.6 15.2421 127.119 14.3166C128.639 13.3911 130.412 12.9284 132.438 12.9284C134.97 12.9284 136.964 13.8539 138.42 15.7048C139.877 17.5558 140.605 20.6477 140.605 24.9807H133.197C133.197 23.4663 132.976 22.362 132.532 21.6679C132.089 20.9738 131.382 20.6267 130.412 20.6267C128.723 20.6267 127.362 21.0474 126.328 21.8888C125.294 22.7301 124.418 23.6977 123.701 24.7914V38.232H137.439V45.1731H107.619V38.232ZM168.145 13.9043C166.076 13.1054 163.711 12.7059 161.051 12.7059C158.559 12.7059 156.279 13.0738 154.21 13.8097C152.141 14.5456 150.378 15.6284 148.922 17.0581C147.465 18.4878 146.335 20.2433 145.533 22.3248C144.731 24.4063 144.33 26.7716 144.33 29.4207C144.33 31.9437 144.699 34.2249 145.438 36.2643C146.177 38.3038 147.264 40.0593 148.7 41.5311C150.136 43.0028 151.888 44.1382 153.957 44.9371C156.026 45.7361 158.391 46.1355 161.051 46.1355C163.542 46.1355 165.822 45.7676 167.891 45.0317C169.96 44.2958 171.723 43.2131 173.18 41.7834C174.637 40.3537 175.766 38.5981 176.568 36.5166C177.371 34.4352 177.772 32.0699 177.772 29.4207C177.772 26.8977 177.402 24.6165 176.663 22.5771C175.924 20.5377 174.837 18.7821 173.402 17.3104C171.966 15.8386 170.214 14.7033 168.145 13.9043ZM157.185 21.7273C158.367 21.3488 159.655 21.1596 161.048 21.1596C162.78 21.1596 164.258 21.3699 165.482 21.7904C166.707 22.2109 167.72 22.789 168.522 23.5249C169.325 24.2608 169.905 25.1333 170.264 26.1425C170.623 27.1517 170.802 28.245 170.802 29.4224C170.802 32.0716 169.905 34.111 168.111 35.5407C166.316 36.9704 163.962 37.6852 161.048 37.6852C157.67 37.6852 155.2 36.9178 153.638 35.383C152.076 33.8482 151.295 31.8613 151.295 29.4224C151.295 28.1189 151.537 26.9625 152.023 25.9533C152.508 24.9441 153.195 24.0821 154.081 23.3672C154.968 22.6524 156.003 22.1057 157.185 21.7273ZM177.048 45.3039H200.819V52.0556H177.048V45.3039Z"
    fill="#cccccc" />
</svg>
  