<svg
              width="1em"
              height="1em"
              viewBox="0 0 56 56"
              fill="none"
              xmlns="http://www.w3.org/2000/svg"
              class="sc-ab580b4e-4 kULxSs"
            >
              <path
                d="M8 47.86c-1.183-1.183-2.066-2.471-2.65-3.864a10.583 10.583 0 0 1-.831-4.312c.03-1.482.374-2.95 1.033-4.402.659-1.453 1.64-2.83 2.942-4.133l6.896-6.85 2.56 2.515-6.872 6.873C9.88 34.9 9.034 36.203 8.539 37.595c-.494 1.378-.599 2.755-.314 4.133.284 1.362 1.003 2.613 2.156 3.75 1.138 1.139 2.389 1.85 3.751 2.135 1.378.3 2.755.202 4.133-.292 1.392-.494 2.695-1.34 3.908-2.538l6.85-6.873 2.539 2.56-6.85 6.896c-1.303 1.302-2.681 2.283-4.134 2.942-1.452.659-2.92 1.003-4.402 1.033a10.433 10.433 0 0 1-4.29-.83C10.493 49.925 9.198 49.042 8 47.86ZM47.666 8.194c1.183 1.183 2.067 2.478 2.65 3.885.585 1.393.862 2.83.832 4.313-.03 1.467-.375 2.927-1.033 4.38-.66 1.437-1.64 2.808-2.943 4.11L40.3 31.755l-2.583-2.538 6.873-6.873c1.198-1.198 2.044-2.493 2.538-3.886.51-1.392.614-2.77.315-4.132-.285-1.378-1.004-2.636-2.157-3.774-1.138-1.123-2.395-1.827-3.773-2.111-1.363-.3-2.74-.202-4.133.292-1.377.494-2.665 1.34-3.863 2.538l-6.873 6.873-2.538-2.583 6.873-6.896c1.303-1.287 2.673-2.26 4.11-2.92 1.453-.658 2.913-1.003 4.38-1.033 1.482-.03 2.92.247 4.313.831 1.392.584 2.687 1.468 3.885 2.65Zm-7.344 15.7c1.302 1.333 1.961 2.643 1.976 3.93.03 1.273-.636 2.584-1.999 3.931l-8.737 8.715c-1.348 1.363-2.666 2.037-3.953 2.022-1.273-.015-2.568-.674-3.886-1.977l-8.378-8.378c-1.303-1.318-1.962-2.613-1.977-3.886-.014-1.287.66-2.605 2.022-3.953l8.715-8.737c1.348-1.363 2.658-2.03 3.93-2 1.288.016 2.591.675 3.909 1.978l8.378 8.355Zm-10.445-5.638c-.629-.644-1.213-.936-1.752-.876-.539.045-1.138.405-1.797 1.078L18.265 26.5c-.674.674-1.04 1.28-1.1 1.82-.046.524.254 1.108.898 1.752l7.726 7.726c.644.644 1.228.944 1.752.899.54-.06 1.138-.427 1.797-1.1l8.064-8.064c.673-.66 1.033-1.25 1.078-1.775.06-.539-.232-1.13-.876-1.774l-7.727-7.727Zm-2.066 7.255c-.494 0-.928-.187-1.303-.561-.374-.375-.561-.802-.561-1.28 0-.54.18-.997.539-1.37.374-.39.823-.585 1.347-.585s.974.187 1.348.562c.374.374.554.823.539 1.347 0 .524-.18.974-.539 1.348-.36.36-.816.54-1.37.54Zm-4.313 4.402c-.554 0-1.018-.187-1.392-.561a1.85 1.85 0 0 1-.54-1.325 1.877 1.877 0 0 1 1.91-1.91c.524 0 .966.188 1.325.562.374.374.562.831.562 1.37 0 .494-.188.929-.562 1.303a1.74 1.74 0 0 1-1.303.561Zm8.693 0c-.524 0-.974-.187-1.348-.561-.36-.39-.539-.854-.539-1.393 0-.479.187-.906.562-1.28.374-.374.808-.561 1.302-.561.554 0 1.011.187 1.37.561.375.36.562.801.562 1.325 0 .524-.187.974-.562 1.348-.359.374-.808.561-1.347.561Zm-4.358 4.38a1.877 1.877 0 0 1-1.91-1.91c.001-.508.18-.95.54-1.324.374-.374.839-.562 1.393-.562.509 0 .943.188 1.302.562.375.374.562.809.562 1.303 0 .539-.187.995-.561 1.37-.36.374-.802.561-1.326.561Z"
                fill="#48b4a0"
              ></path>
            </svg>