<svg
              width="1em"
              height="1em"
              viewBox="0 0 56 56"
              fill="none"
              xmlns="http://www.w3.org/2000/svg"
              class="sc-ab580b4e-4 kULxSs"
            >
              <path
                d="M3.525 16.953c0-.404.015-1.04.045-1.909.045-.868.112-1.79.202-2.762.105-.974.247-1.827.427-2.56.21-.854.591-1.43 1.145-1.73a2.351 2.351 0 0 1 1.774-.203c.63.165 1.161.502 1.595 1.011 1.243 1.408 2.606 2.403 4.088 2.987 1.482.584 3.092.877 4.83.877 2.05 0 4.012-.173 5.884-.517a31.087 31.087 0 0 1 5.593-.517c2.65 0 5.09.404 7.322 1.213 2.246.794 4.185 1.924 5.817 3.392a15.086 15.086 0 0 1 3.819 5.166c.913 1.976 1.37 4.148 1.37 6.513 0 2.456-.457 4.71-1.37 6.761a15.537 15.537 0 0 1-3.819 5.323c-1.632 1.498-3.57 2.658-5.817 3.482-2.246.823-4.717 1.235-7.412 1.235-3.863 0-7.36-.651-10.49-1.954-3.129-1.318-5.817-3.197-8.063-5.638-2.231-2.44-3.945-5.36-5.143-8.76-1.198-3.413-1.797-7.217-1.797-11.41Zm3.391 0c0 3.729.51 7.09 1.528 10.085 1.033 2.995 2.515 5.556 4.447 7.682 1.932 2.126 4.252 3.759 6.963 4.897 2.725 1.138 5.78 1.707 9.164 1.707 2.965 0 5.57-.57 7.816-1.707 2.261-1.138 4.028-2.71 5.301-4.717 1.273-2.022 1.91-4.35 1.91-6.986 0-2.515-.637-4.739-1.91-6.67-1.273-1.947-3.032-3.467-5.278-4.56-2.246-1.108-4.83-1.662-7.75-1.662-.763 0-1.542.045-2.335.135-.794.09-1.64.194-2.538.314-.989.135-2.037.27-3.145.404a31.78 31.78 0 0 1-3.459.18c-1.812 0-3.631-.307-5.458-.92-1.827-.63-3.369-1.52-4.627-2.674-.224-.21-.36-.164-.404.135a15.571 15.571 0 0 0-.202 2.066c-.015.78-.023 1.543-.023 2.291Zm9.748 5.234c-.12-.345-.097-.629.068-.854a.77.77 0 0 1 .651-.336c.27-.015.524.142.764.471.868 1.123 1.85 2.022 2.942 2.695a15.54 15.54 0 0 0 3.594 1.595c1.303.375 2.665.681 4.088.921 4.133.674 7.532 1.617 10.197 2.83 2.665 1.213 4.754 2.823 6.267 4.83a59.415 59.415 0 0 1 1.886 2.74 42.106 42.106 0 0 1 1.932 3.144 21.613 21.613 0 0 1 1.483 3.122c.389 1.003.584 1.894.584 2.673 0 .928-.292 1.73-.877 2.403-.584.674-1.287 1.011-2.11 1.011a1.98 1.98 0 0 1-1.101-.337c-.33-.21-.584-.584-.764-1.123a118.06 118.06 0 0 1-1.236-4.2 29.434 29.434 0 0 0-1.28-3.729 13.142 13.142 0 0 0-1.976-3.301 15.303 15.303 0 0 0-2.449-2.471 14.243 14.243 0 0 0-2.92-1.842c-1.078-.524-2.335-1.01-3.773-1.46a74.07 74.07 0 0 0-5.009-1.348 35.88 35.88 0 0 1-4.874-1.55c-1.482-.598-2.755-1.362-3.818-2.29-1.048-.944-1.804-2.142-2.269-3.594Z"
                fill="#48b4a0"
              ></path>
            </svg>