<svg xmlns="http://www.w3.org/2000/svg" xmlns:xlink="http://www.w3.org/1999/xlink" viewBox="0 0 500 500"><defs><clipPath id="freepik--clip-path--inject-40"><path d="M237.34,259.7s.9,13.61-.36,15.94-9.13,4.12-13.79,4.84-11.28,1.07-13.07,4.3-1.44,10.57.89,16.12,13.26,34.39,13.26,34.39l-14,33.67s19.53,23.65,31.53,27.05,28.12-8.42,31.7-13.26a20.45,20.45,0,0,0,3.76-10.39L263.49,333.5S276,303.72,276.9,297.63s1.46-13.16-3-15.13-14-3.28-16.84-4.71-3.94-2.15-4.12-5.91.18-12,.18-12S241.82,262.21,237.34,259.7Z" style="fill:#fff;stroke:#263238;stroke-linecap:round;stroke-linejoin:round"></path></clipPath><clipPath id="freepik--clip-path-2--inject-40"><path d="M270.86,315.28c-3.36-3.78-7.6-10.25-7.52-17.92a153.62,153.62,0,0,1,.84-17.57c-1.18-.27-2.32-.53-3.35-.79-1,6.11-4.24,19-14.77,19.16-11,.21-13.73-13.78-14.41-19.59-.6.19-1.23.37-1.86.54h0c-.63.17-1.27.32-1.91.47,5.75,12.15-6.15,31.53-10.39,37.8.19.52.39,1,.59,1.55.05.12.09.25.14.37.18.46.35.91.52,1.36l.05.12c.61,1.62,1.22,3.2,1.79,4.69v0c.17.45.34.89.51,1.31l.07.21,1,2.51c0,.14.1.28.16.42l1.42,3.74.31.83.23.6.07.17-14,33.67s19.53,23.65,31.53,27.05,28.12-8.42,31.7-13.26a20.45,20.45,0,0,0,3.76-10.39L263.49,333.5S267.3,324.43,270.86,315.28Z" style="fill:#92E3A9;stroke:#263238;stroke-linecap:round;stroke-linejoin:round"></path></clipPath><clipPath id="freepik--clip-path-3--inject-40"><path d="M243.43,222.62s-3.58,1.26-7.16,8.06A32.83,32.83,0,0,0,233,252.89c1.61,7.71,7.35,12.18,12.9,12.54s11.1-7,12.18-12.89-1.79-19.35-5.2-24.9A10.64,10.64,0,0,0,243.43,222.62Z" style="fill:#fff;stroke:#263238;stroke-linecap:round;stroke-linejoin:round"></path></clipPath><clipPath id="freepik--clip-path-4--inject-40"><path d="M218.14,281.94s-7.44-1.06-10.63,5.32-6.65,38.28-6.65,38.28-4,2.66-8.5,5.32-13.3,8.24-17.81,9.84-8.51,2.92-8.51,2.92a37.84,37.84,0,0,1-2.66-5.58c-.27-1.33-3.19-1.86-4.52-3.19s-3.19-3.46-3.19-1.33-.27,3.45,1.86,4.25,3.72,3.72,3.72,3.72-11.69-.13-10.9.93a19.68,19.68,0,0,0,5.85,5.19,30,30,0,0,0,13.56,3.45c4.79,0,35.09-9.83,37.48-12.49s10.11-30.84,10.11-30.84" style="fill:#fff;stroke:#263238;stroke-linecap:round;stroke-linejoin:round"></path></clipPath><clipPath id="freepik--clip-path-5--inject-40"><path d="M268.34,281.94s7.44-1.06,10.63,5.32,6.65,38.28,6.65,38.28,4,2.66,8.5,5.32,13.29,8.24,17.81,9.84,8.51,2.92,8.51,2.92A37.84,37.84,0,0,0,323.1,338c.27-1.33,3.19-1.86,4.52-3.19s3.19-3.46,3.19-1.33.27,3.45-1.86,4.25-3.72,3.72-3.72,3.72,11.69-.13,10.9.93a19.68,19.68,0,0,1-5.85,5.19,30,30,0,0,1-13.56,3.45c-4.79,0-35.09-9.83-37.48-12.49s-10.11-30.84-10.11-30.84" style="fill:#fff;stroke:#263238;stroke-linecap:round;stroke-linejoin:round"></path></clipPath><clipPath id="freepik--clip-path-6--inject-40"><path d="M273.52,382.75a20.45,20.45,0,0,0,3.76-10.39l-3-8.49c-24.54,4.3-52.18,1-61.69-.42L210.29,369s19.53,23.65,31.53,27.05S269.94,387.59,273.52,382.75Z" style="fill:#fff;stroke:#263238;stroke-linecap:round;stroke-linejoin:round"></path></clipPath><clipPath id="freepik--clip-path-7--inject-40"><path d="M257.72,381.87s20.95-17.81,38.28-24.66c0,0,17.54-8.46,21.16-1.81s-13.5,26.6-18.94,30-18.34,9.88-27.2,11.69-19,2.29-24.39-.61" style="fill:#fff;stroke:#263238;stroke-linecap:round;stroke-linejoin:round"></path></clipPath><clipPath id="freepik--clip-path-8--inject-40"><path d="M241.24,393.61s19.08-6.75,30.48-18.38,33.49-25.12,40.94-23.73,9.3,4.42,6.51,13-14.89,20-26.28,23.73-32.8,7.67-41.41,9.3-12.8,3.72-23.26,3.72-21.64-.69-24.66-6.74,1.86-5.82,12.56-3.72A213.13,213.13,0,0,0,241.24,393.61Z" style="fill:#fff;stroke:#263238;stroke-linecap:round;stroke-linejoin:round"></path></clipPath><clipPath id="freepik--clip-path-9--inject-40"><path d="M241.17,393.6a209.7,209.7,0,0,1-25-2.78c-10.7-2.1-15.59-2.33-12.56,3.72s14.19,6.74,24.66,6.74a58,58,0,0,0,14.66-1.77A10.83,10.83,0,0,1,241.17,393.6Z" style="fill:#fff;stroke:#263238;stroke-linecap:round;stroke-linejoin:round"></path></clipPath><clipPath id="freepik--clip-path-10--inject-40"><path d="M235.28,381.12c-13.73-11.4-47.54-34-55.92-34s-11.63,9.54-11.63,9.54-.93,3.49,6.05,10.23,28.38,24.9,45.13,29.32,20.94,2.32,20.94,2.32" style="fill:#fff;stroke:#263238;stroke-linecap:round;stroke-linejoin:round"></path></clipPath><clipPath id="freepik--clip-path-11--inject-40"><path d="M186.69,356.71s17.55,7.85,23.6,12.25,19.79,17.2,27.23,21.16,14.19,6.74,19.31,6.74,29.77-3.25,33.73-1.16-2.09,7-7.44,8.84S258,402.21,251,401.75s-30.47-3.72-46.75-9.31-34.67-26.75-36.76-30.7,1.75-8.25,1.75-8.25" style="fill:#fff;stroke:#263238;stroke-linecap:round;stroke-linejoin:round"></path></clipPath><clipPath id="freepik--clip-path-12--inject-40"><path d="M290.56,395.7c-4-2.09-28.61,1.16-33.73,1.16a17.22,17.22,0,0,1-2.42-.19,10.06,10.06,0,0,1-1.48,5.26c8.15.92,25.26,4.32,30.19,2.61C288.47,402.68,294.51,397.79,290.56,395.7Z" style="fill:#fff;stroke:#263238;stroke-linecap:round;stroke-linejoin:round"></path></clipPath></defs><g id="freepik--background-simple--inject-40"><path d="M428.07,243.54c-3.65-29.38-12.47-57.5-23-77.37-25.22-47.76-94.75-76.52-147-64.83-44.49,10-65.59,55.11-105.65,72.77-36.84,16.24-70,29.06-87.2,67C29,321.41,119.82,401.24,197.08,389.9c24.38-3.58,46.11-15,71.18-11.79,50.87,6.56,67.86,15.9,112.62-6.11C425,350.3,434.46,295,428.07,243.54Z" style="fill:#92E3A9"></path><path d="M428.07,243.54c-3.65-29.38-12.47-57.5-23-77.37-25.22-47.76-94.75-76.52-147-64.83-44.49,10-65.59,55.11-105.65,72.77-36.84,16.24-70,29.06-87.2,67C29,321.41,119.82,401.24,197.08,389.9c24.38-3.58,46.11-15,71.18-11.79,50.87,6.56,67.86,15.9,112.62-6.11C425,350.3,434.46,295,428.07,243.54Z" style="fill:#fff;opacity:0.8"></path></g><g id="freepik--Clouds--inject-40"><path d="M298.4,162.06c-5.9-3.21-8.57-.53-10.72-3.21s5.9-9.65-10.18-16.61c0,0-1.07-15-23-15.54s-16.07,15-22,18.75-7.5-2.14-13.39,1.61-3.22,11.25-8,12.32-11.25-4.82-17.14-1.07-5.89,7-8.57,7-8-2.15-11.25,0-7,4.82-7,4.82H302.68S304.29,165.28,298.4,162.06Z" style="fill:#92E3A9"></path><path d="M418.38,235.66c-3.33-1.82-4.85-.31-6.06-1.82s3.33-5.47-5.77-9.41c0,0-.61-8.5-13.05-8.8s-9.1,8.5-12.44,10.62-4.25-1.21-7.58.91-1.83,6.37-4.56,7-6.37-2.73-9.71-.61-3.33,3.95-4.85,3.95-4.55-1.22-6.37,0-3.95,2.73-3.95,2.73h76.77S421.72,237.48,418.38,235.66Z" style="fill:#92E3A9"></path><path d="M298.4,162.06c-5.9-3.21-8.57-.53-10.72-3.21s5.9-9.65-10.18-16.61c0,0-1.07-15-23-15.54s-16.07,15-22,18.75-7.5-2.14-13.39,1.61-3.22,11.25-8,12.32-11.25-4.82-17.14-1.07-5.89,7-8.57,7-8-2.15-11.25,0-7,4.82-7,4.82H302.68S304.29,165.28,298.4,162.06Z" style="fill:#fff;opacity:0.5"></path><path d="M418.38,235.66c-3.33-1.82-4.85-.31-6.06-1.82s3.33-5.47-5.77-9.41c0,0-.61-8.5-13.05-8.8s-9.1,8.5-12.44,10.62-4.25-1.21-7.58.91-1.83,6.37-4.56,7-6.37-2.73-9.71-.61-3.33,3.95-4.85,3.95-4.55-1.22-6.37,0-3.95,2.73-3.95,2.73h76.77S421.72,237.48,418.38,235.66Z" style="fill:#fff;opacity:0.5"></path></g><g id="freepik--Trees--inject-40"><path d="M306,389h51.13c-1-6.25-5-5.15-5.53-14.84-.27-4.88,4.25-10.92,3.86-17.33-.33-5.28-5.53-10.7-5.94-16.74-.36-5.45,4.08-11.5,3.65-17.37-.41-5.56-5.68-10.89-6.15-16.66s3.89-11.74,3.38-17.43-5.88-10.93-6.45-16.54c-.59-5.77,3.62-12,3-17.51-.69-5.86-6.22-10.92-7-16.32-.83-6,3.09-12.44,2.17-17.63-1.13-6.36-7-11-8.29-15.66-2.32-8.74-2-17.17-4.77-17.71-2.93-.59-3.59,7.67-5.81,16.9-1.12,4.64-6.91,9.34-7.86,15.71-.77,5.15,3.32,11.42,2.65,17.41-.6,5.36-6,10.51-6.51,16.34-.5,5.49,3.88,11.53,3.45,17.27-.42,5.57-5.65,10.88-6,16.54s4.15,11.59,3.84,17.18-5.45,11.14-5.71,16.65c-.28,5.83,4.32,11.71,4.09,17.12-.24,6-5.31,11.48-5.5,16.72-.22,6.36,4.45,12.22,4.3,17.06-.31,10.51-5.12,8.34-5.29,16.79Z" style="fill:#92E3A9"></path><path d="M306,389h51.13c-1-6.25-5-5.15-5.53-14.84-.27-4.88,4.25-10.92,3.86-17.33-.33-5.28-5.53-10.7-5.94-16.74-.36-5.45,4.08-11.5,3.65-17.37-.41-5.56-5.68-10.89-6.15-16.66s3.89-11.74,3.38-17.43-5.88-10.93-6.45-16.54c-.59-5.77,3.62-12,3-17.51-.69-5.86-6.22-10.92-7-16.32-.83-6,3.09-12.44,2.17-17.63-1.13-6.36-7-11-8.29-15.66-2.32-8.74-2-17.17-4.77-17.71-2.93-.59-3.59,7.67-5.81,16.9-1.12,4.64-6.91,9.34-7.86,15.71-.77,5.15,3.32,11.42,2.65,17.41-.6,5.36-6,10.51-6.51,16.34-.5,5.49,3.88,11.53,3.45,17.27-.42,5.57-5.65,10.88-6,16.54s4.15,11.59,3.84,17.18-5.45,11.14-5.71,16.65c-.28,5.83,4.32,11.71,4.09,17.12-.24,6-5.31,11.48-5.5,16.72-.22,6.36,4.45,12.22,4.3,17.06-.31,10.51-5.12,8.34-5.29,16.79Z" style="fill:#fff;opacity:0.4"></path><line x1="327.97" y1="204.1" x2="327.97" y2="386.68" style="fill:none;stroke:#263238;stroke-linecap:round;stroke-linejoin:round"></line><polyline points="335.95 223.24 327.63 230.43 320.82 221.35" style="fill:none;stroke:#263238;stroke-linecap:round;stroke-linejoin:round"></polyline><polyline points="335.95 255.02 327.63 262.21 320.82 253.13" style="fill:none;stroke:#263238;stroke-linecap:round;stroke-linejoin:round"></polyline><polyline points="335.95 284.91 327.63 292.1 320.82 283.01" style="fill:none;stroke:#263238;stroke-linecap:round;stroke-linejoin:round"></polyline><polyline points="335.95 320.47 327.63 327.66 320.82 318.58" style="fill:none;stroke:#263238;stroke-linecap:round;stroke-linejoin:round"></polyline><polyline points="335.95 356.41 327.63 363.6 320.82 354.52" style="fill:none;stroke:#263238;stroke-linecap:round;stroke-linejoin:round"></polyline><path d="M273.83,389h34.62c-.67-4.23-3.38-3.49-3.75-10.05-.18-3.3,2.88-7.39,2.62-11.73-.22-3.58-3.75-7.24-4-11.33-.25-3.7,2.76-7.79,2.47-11.77-.28-3.76-3.85-7.37-4.17-11.28s2.64-7.95,2.29-11.8-4-7.4-4.37-11.2,2.46-8.12,2-11.86c-.46-4-4.21-7.39-4.71-11-.57-4.07,2.08-8.42,1.46-11.94-.76-4.3-4.77-7.42-5.61-10.6-1.57-5.92-1.38-11.62-3.23-12s-2.43,5.19-3.93,11.45c-.76,3.14-4.68,6.32-5.32,10.63-.53,3.49,2.25,7.73,1.79,11.79-.4,3.63-4.05,7.12-4.41,11.07-.33,3.71,2.63,7.8,2.34,11.68s-3.83,7.38-4.07,11.21,2.81,7.85,2.6,11.63-3.69,7.54-3.87,11.27c-.19,3.95,2.92,7.93,2.77,11.59-.16,4.06-3.6,7.78-3.72,11.32-.15,4.31,3,8.28,2.91,11.56-.21,7.12-3.47,5.64-3.59,11.37Z" style="fill:#92E3A9"></path><path d="M273.83,389h34.62c-.67-4.23-3.38-3.49-3.75-10.05-.18-3.3,2.88-7.39,2.62-11.73-.22-3.58-3.75-7.24-4-11.33-.25-3.7,2.76-7.79,2.47-11.77-.28-3.76-3.85-7.37-4.17-11.28s2.64-7.95,2.29-11.8-4-7.4-4.37-11.2,2.46-8.12,2-11.86c-.46-4-4.21-7.39-4.71-11-.57-4.07,2.08-8.42,1.46-11.94-.76-4.3-4.77-7.42-5.61-10.6-1.57-5.92-1.38-11.62-3.23-12s-2.43,5.19-3.93,11.45c-.76,3.14-4.68,6.32-5.32,10.63-.53,3.49,2.25,7.73,1.79,11.79-.4,3.63-4.05,7.12-4.41,11.07-.33,3.71,2.63,7.8,2.34,11.68s-3.83,7.38-4.07,11.21,2.81,7.85,2.6,11.63-3.69,7.54-3.87,11.27c-.19,3.95,2.92,7.93,2.77,11.59-.16,4.06-3.6,7.78-3.72,11.32-.15,4.31,3,8.28,2.91,11.56-.21,7.12-3.47,5.64-3.59,11.37Z" style="fill:#fff;opacity:0.4"></path><line x1="288.69" y1="263.81" x2="288.69" y2="387.44" style="fill:none;stroke:#263238;stroke-linecap:round;stroke-linejoin:round"></line><polyline points="294.1 276.77 288.46 281.64 283.85 275.49" style="fill:none;stroke:#263238;stroke-linecap:round;stroke-linejoin:round"></polyline><polyline points="294.1 298.29 288.46 303.16 283.85 297.01" style="fill:none;stroke:#263238;stroke-linecap:round;stroke-linejoin:round"></polyline><polyline points="294.1 318.53 288.46 323.4 283.85 317.25" style="fill:none;stroke:#263238;stroke-linecap:round;stroke-linejoin:round"></polyline><polyline points="294.1 342.61 288.46 347.48 283.85 341.33" style="fill:none;stroke:#263238;stroke-linecap:round;stroke-linejoin:round"></polyline><polyline points="294.1 366.95 288.46 371.81 283.85 365.67" style="fill:none;stroke:#263238;stroke-linecap:round;stroke-linejoin:round"></polyline></g><g id="freepik--Plants--inject-40"><path d="M143.36,332.06c-2.56,3.8-6.13,8.74-8,12.71.73-2.62,1.44-5.09,2.08-7.32a48.14,48.14,0,0,1,6.6-10c3.83-4.1,5.47-6.73,3.41-7-1.43-.16-5.61,5.41-8.23,10.94.57-1.89,1-3.34,1.29-4.18.13-.38.25-.8.37-1.25a110.76,110.76,0,0,0,7.39-11.85c3.87-7.23,5.12-14.05,2.54-11.12-2.38,2.7-6.51,16.13-9.8,22.45.28-1.09.54-2.29.78-3.48.46-1.15,1.07-2.32,1.42-3.38.53-1.63,1-3.28,1.39-4.95a34.55,34.55,0,0,0,.94-8,16.17,16.17,0,0,0-2.47-8.92c-.45-.67-3.16-4.73-4-2.64a2.27,2.27,0,0,0-.06,1.07c.4,3.46,1.65,6.63,2.43,10,1.16,5,.38,13.49,0,17.09-.15.57-.33,1.27-.55,2.09.54-6.27-2.18-13.69-4.69-15-3.11-1.61-.06,4.7,2.34,10.2a16.46,16.46,0,0,1,1.56,7.73c-.49,1.8-1.06,3.84-1.64,5.9q-.18.42-.33.84a17.37,17.37,0,0,0,.33-4.08c-.23-3.6-4.31-10.8-7-9.78s1.87,4.81,4.32,9.23a13.37,13.37,0,0,1,1.42,7.93c0,.16-.06.32-.08.48-.28.94-.56,1.84-.83,2.7-.63,2-1.22,3.9-1.79,5.75a28.93,28.93,0,0,0,.91-8.2c-.34-5.27-3.43-10.25-6-10.93s2.31,7.92,3.95,12.75a17.38,17.38,0,0,1,.43,8.72c-.79,2.61-1.53,5.19-2.29,7.92a66.87,66.87,0,0,0-.23-10.72c-.5-5.86-4-9.61-6.39-9.46s.1,3.49,3.57,10.61a23.82,23.82,0,0,1,2.36,12.06c-.31,1.15-.63,2.33-.95,3.57-.37,1.4-.68,2.93-.93,4.5-.35-1.39-.87-3.44-1.47-5.69a50.87,50.87,0,0,1-1.52-7.62c-.33-3-1.12-6.72-4-8.28a1.66,1.66,0,0,0-2.46.66,3.27,3.27,0,0,0-.18,2,22.33,22.33,0,0,0,2,5.86,6.71,6.71,0,0,0-.76,3.59c0,.47,0,.93.07,1.4-.26-.48-.5-.92-.74-1.31a8.69,8.69,0,0,0-1.54-1.9,23.34,23.34,0,0,0,.23-3.34c0-1.46-1.71-5.17-3.24-2.42-.62,1.1-.5,3.26-.56,4.7-.42.39-.55,1.2-.19,2.48a31.49,31.49,0,0,0,.51,9.93c-.17-.31-.35-.62-.53-.93a74.35,74.35,0,0,1-1.32-11.63c-.2-6.46.83-11.76-.93-13.74s-2.74,5-2,12.63a31.66,31.66,0,0,0,2.75,10.07c-1.72-3.1-3.43-6.26-5-9.31A23.52,23.52,0,0,1,106,343.82c.51-5.62.88-10.22-1.25-13.39s-2.58-1.11-1.53,5.49c.71,4.53,1.48,10.58,2.79,14.78-1.25-2.41-2.42-4.7-3.47-6.78a48.22,48.22,0,0,1-2-11.79c0-5.61-.6-8.65-2.26-7.42-1.15.86-.41,7.79,1.45,13.62-.87-1.78-1.53-3.14-1.9-3.94-.17-.36-.37-.75-.59-1.16a109.7,109.7,0,0,0-2.68-13.71c-2.11-7.92-5.86-13.76-5.74-9.86.11,3.6,6.25,16.23,8.17,23.1-.54-1-1.18-2.05-1.81-3.08-.45-1.15-.8-2.42-1.27-3.43-.72-1.56-1.5-3.09-2.37-4.57a34.39,34.39,0,0,0-4.75-6.48,16.17,16.17,0,0,0-7.9-4.83c-.78-.19-5.53-1.3-4.72.8a2.24,2.24,0,0,0,.68.82c2.65,2.26,5.74,3.72,8.6,5.65,4.29,2.89,9.49,9.6,11.65,12.51l1,1.91c-3.88-4.95-10.93-8.53-13.66-7.76-3.37.95,3.17,3.48,8.68,5.86a16.48,16.48,0,0,1,6.41,4.58c.87,1.66,1.85,3.53,2.82,5.43.11.29.22.57.34.84a17.33,17.33,0,0,0-2.55-3.2c-2.62-2.47-10.51-5-11.8-2.37s4.66,2.24,9.47,3.8a13.3,13.3,0,0,1,6.44,4.83l.27.4c.44.88.85,1.73,1.24,2.54.91,1.91,1.77,3.69,2.62,5.43a28.63,28.63,0,0,0-4.94-6.61c-3.84-3.63-9.5-5.16-11.84-3.9s7.09,4.21,11.58,6.62a17.27,17.27,0,0,1,6.27,6.08c1.21,2.45,2.42,4.84,3.73,7.36a66.3,66.3,0,0,0-7.48-7.68c-4.37-3.95-9.47-4.3-11.12-2.55s2.45,2.47,9.85,5.31a23.72,23.72,0,0,1,9.95,7.21l1.74,3.26c.69,1.28,1.51,2.6,2.4,3.92-1.21-.78-3-1.93-5-3.16a51.11,51.11,0,0,1-6.31-4.53c-2.28-2-5.4-4.15-8.61-3.29a1.66,1.66,0,0,0-1.34,2.17,3.19,3.19,0,0,0,1.26,1.6c3,2.35,7.09,3.47,10.61,4.86a78.85,78.85,0,0,0,9.91,3.16c.83,1.2,1.71,2.39,2.58,3.52l-1.58,0c-1.87.05-10.31-3.77-14.6-5s-8.29,1.1-3.8,3.52,16.71,1.88,16.71,1.88l3.53-.11c.82,1.06,1.63,2.07,2.4,3H105.57v4.64h3.31l2.68,16.52h22.25l2.69-16.52h3.31v-4.64h-11.1a41.73,41.73,0,0,1,.16-6,14.65,14.65,0,0,1,2.44-2c4.87-3.36,13.13-3.64,15.33-10.12.53-1.56-.07-3.57-1.94-3.48a5.9,5.9,0,0,0-3.6,2.21c-2.79,3.22-4.89,6.55-8.51,9-.16.11-2.45,1.93-3.58,3.06.12-1.06.28-2.19.49-3.4a33,33,0,0,1,3-4.42c3-3.68,7.47-5.84,10.68-9.35,1-1.07,2.28-4.94-.72-4-1.34.43-2.91,2.45-3.95,3.37-2.95,2.64-6,5.49-7.9,9,.08-.35.16-.69.25-1a72.42,72.42,0,0,1,7-9.41c4.26-4.85,8.63-8,8.7-10.68s-5.42,1.8-10.09,7.88a31.35,31.35,0,0,0-4.85,9.23c.85-3.45,1.76-6.92,2.66-10.25a23.47,23.47,0,0,1,5.77-9c4.21-3.77,7.62-6.87,8.22-10.64S147.1,326.52,143.36,332.06Zm-23.57,42.68c-.63-.86-1.28-1.79-2-2.81a33.72,33.72,0,0,1-.83-5.28,21.79,21.79,0,0,1,.21-4.56,53.29,53.29,0,0,0,3.6,4,20.18,20.18,0,0,1-.48,3.94A46.37,46.37,0,0,0,119.79,374.74Zm3.61,4.37c-.85-.91-1.79-2-2.8-3.31a14.14,14.14,0,0,1,.43-3.11,22.2,22.2,0,0,1,1.74-4.65c1.57,1.49,2.73,2.48,2.73,2.48l2.65,2.33c-.21,2.32-.33,4.49-.4,6.26Zm4.79-6.68c-.19-.16-.54-.46-1.19-1s-1.86-2.9-3.16-5.56a32.17,32.17,0,0,0,1.47-3.45c1.4,2.61,2.67,4.63,3.39,5.73C128.49,369.55,128.32,371,128.19,372.43Z" style="fill:#92E3A9"></path><path d="M84.75,244s41.86-36.28,56.68-95.1" style="fill:none;stroke:#92E3A9;stroke-linecap:round;stroke-linejoin:round"></path><path d="M91.87,236.25a6.38,6.38,0,0,0-1.22-5.56c-2.14-2.64-5.84-1.82-5.06-3.55s2.62-3.1,4.49-2.54A5.44,5.44,0,0,1,93,227.07s1.2-3.37,3.92-3.38,2.39,4.71,2.39,4.71,3.49-2.71,5-.92a3.22,3.22,0,0,1,.07,3.87s3-.65,4,2.05a43,43,0,0,1,1.47,4.92s-6.23-2.71-9.79-2.12S91,239.17,91.87,236.25Z" style="fill:#92E3A9"></path><path d="M91.87,236.25a6.38,6.38,0,0,0-1.22-5.56c-2.14-2.64-5.84-1.82-5.06-3.55s2.62-3.1,4.49-2.54A5.44,5.44,0,0,1,93,227.07s1.2-3.37,3.92-3.38,2.39,4.71,2.39,4.71,3.49-2.71,5-.92a3.22,3.22,0,0,1,.07,3.87s3-.65,4,2.05a43,43,0,0,1,1.47,4.92s-6.23-2.71-9.79-2.12S91,239.17,91.87,236.25Z" style="fill:#fff;opacity:0.5"></path><path d="M105.65,218.19a6.34,6.34,0,0,0-1.23-5.55c-2.13-2.64-5.84-1.82-5-3.55s2.61-3.1,4.49-2.54a5.41,5.41,0,0,1,2.87,2.47s1.2-3.37,3.92-3.39,2.4,4.72,2.4,4.72,3.48-2.71,5-.92a3.22,3.22,0,0,1,.07,3.87s3-.65,4,2a43.69,43.69,0,0,1,1.47,4.92s-6.23-2.7-9.79-2.11S104.73,221.11,105.65,218.19Z" style="fill:#92E3A9"></path><path d="M105.65,218.19a6.34,6.34,0,0,0-1.23-5.55c-2.13-2.64-5.84-1.82-5-3.55s2.61-3.1,4.49-2.54a5.41,5.41,0,0,1,2.87,2.47s1.2-3.37,3.92-3.39,2.4,4.72,2.4,4.72,3.48-2.71,5-.92a3.22,3.22,0,0,1,.07,3.87s3-.65,4,2a43.69,43.69,0,0,1,1.47,4.92s-6.23-2.7-9.79-2.11S104.73,221.11,105.65,218.19Z" style="fill:#fff;opacity:0.5"></path><path d="M115.88,203.44a6.37,6.37,0,0,0-4-4.05c-3.21-1.09-5.91,1.58-6.17-.3s.56-4,2.44-4.54a5.45,5.45,0,0,1,3.75.55s-.79-3.49,1.5-4.95,4.55,2.7,4.55,2.7,1.5-4.15,3.77-3.47a3.22,3.22,0,0,1,2.13,3.23s2.16-2.13,4.43-.38a43.34,43.34,0,0,1,3.87,3.38s-6.71,1-9.4,3.44S116.67,206.39,115.88,203.44Z" style="fill:#92E3A9"></path><path d="M115.88,203.44a6.37,6.37,0,0,0-4-4.05c-3.21-1.09-5.91,1.58-6.17-.3s.56-4,2.44-4.54a5.45,5.45,0,0,1,3.75.55s-.79-3.49,1.5-4.95,4.55,2.7,4.55,2.7,1.5-4.15,3.77-3.47a3.22,3.22,0,0,1,2.13,3.23s2.16-2.13,4.43-.38a43.34,43.34,0,0,1,3.87,3.38s-6.71,1-9.4,3.44S116.67,206.39,115.88,203.44Z" style="fill:#fff;opacity:0.5"></path><path d="M126.66,187a6.38,6.38,0,0,0,1.47-5.5c-.69-3.32-4.36-4.3-2.87-5.47s3.75-1.56,5.16-.2a5.5,5.5,0,0,1,1.42,3.52s2.61-2.45,5-1.22,0,5.29,0,5.29,4.34-.81,4.9,1.5a3.22,3.22,0,0,1-1.71,3.47s2.94.78,2.57,3.63a42,42,0,0,1-.95,5.05s-4.29-5.27-7.72-6.38S124.52,189.22,126.66,187Z" style="fill:#92E3A9"></path><path d="M126.66,187a6.38,6.38,0,0,0,1.47-5.5c-.69-3.32-4.36-4.3-2.87-5.47s3.75-1.56,5.16-.2a5.5,5.5,0,0,1,1.42,3.52s2.61-2.45,5-1.22,0,5.29,0,5.29,4.34-.81,4.9,1.5a3.22,3.22,0,0,1-1.71,3.47s2.94.78,2.57,3.63a42,42,0,0,1-.95,5.05s-4.29-5.27-7.72-6.38S124.52,189.22,126.66,187Z" style="fill:#fff;opacity:0.5"></path><path d="M133.52,171.82a6.39,6.39,0,0,0,1.46-5.5c-.69-3.32-4.36-4.3-2.87-5.47s3.75-1.56,5.16-.2a5.42,5.42,0,0,1,1.42,3.51s2.61-2.44,5-1.21,0,5.29,0,5.29,4.34-.81,4.9,1.5a3.21,3.21,0,0,1-1.7,3.47s2.93.78,2.56,3.63a43.32,43.32,0,0,1-.94,5s-4.3-5.27-7.73-6.38S131.37,174,133.52,171.82Z" style="fill:#92E3A9"></path><path d="M133.52,171.82a6.39,6.39,0,0,0,1.46-5.5c-.69-3.32-4.36-4.3-2.87-5.47s3.75-1.56,5.16-.2a5.42,5.42,0,0,1,1.42,3.51s2.61-2.44,5-1.21,0,5.29,0,5.29,4.34-.81,4.9,1.5a3.21,3.21,0,0,1-1.7,3.47s2.93.78,2.56,3.63a43.32,43.32,0,0,1-.94,5s-4.3-5.27-7.73-6.38S131.37,174,133.52,171.82Z" style="fill:#fff;opacity:0.5"></path><path d="M135.25,166.17a6.38,6.38,0,0,0-4.6-3.36c-3.34-.56-5.58,2.5-6.14.68s-.08-4.05,1.69-4.87a5.46,5.46,0,0,1,3.79-.05s-1.33-3.32.7-5.13,4.92,1.95,4.92,1.95.82-4.33,3.18-4a3.22,3.22,0,0,1,2.61,2.85s1.79-2.45,4.31-1.07a43.51,43.51,0,0,1,4.36,2.71s-6.46,2.09-8.74,4.89S136.49,169,135.25,166.17Z" style="fill:#92E3A9"></path><path d="M135.25,166.17a6.38,6.38,0,0,0-4.6-3.36c-3.34-.56-5.58,2.5-6.14.68s-.08-4.05,1.69-4.87a5.46,5.46,0,0,1,3.79-.05s-1.33-3.32.7-5.13,4.92,1.95,4.92,1.95.82-4.33,3.18-4a3.22,3.22,0,0,1,2.61,2.85s1.79-2.45,4.31-1.07a43.51,43.51,0,0,1,4.36,2.71s-6.46,2.09-8.74,4.89S136.49,169,135.25,166.17Z" style="fill:#fff;opacity:0.5"></path><path d="M139.83,149.8a6.38,6.38,0,0,0-4.59-3.36c-3.35-.56-5.59,2.5-6.14.68s-.09-4.05,1.69-4.87a5.46,5.46,0,0,1,3.79-.05s-1.33-3.32.7-5.13,4.91,2,4.91,2,.82-4.33,3.18-4a3.21,3.21,0,0,1,2.61,2.85s1.8-2.45,4.32-1.07a43.51,43.51,0,0,1,4.36,2.71s-6.47,2.09-8.75,4.89S141.08,152.6,139.83,149.8Z" style="fill:#92E3A9"></path><path d="M139.83,149.8a6.38,6.38,0,0,0-4.59-3.36c-3.35-.56-5.59,2.5-6.14.68s-.09-4.05,1.69-4.87a5.46,5.46,0,0,1,3.79-.05s-1.33-3.32.7-5.13,4.91,2,4.91,2,.82-4.33,3.18-4a3.21,3.21,0,0,1,2.61,2.85s1.8-2.45,4.32-1.07a43.51,43.51,0,0,1,4.36,2.71s-6.47,2.09-8.75,4.89S141.08,152.6,139.83,149.8Z" style="fill:#fff;opacity:0.5"></path><path d="M63.07,314.13s48.69-26.43,75.81-80.68" style="fill:none;stroke:#92E3A9;stroke-linecap:round;stroke-linejoin:round"></path><path d="M71.69,308.12a6.35,6.35,0,0,0,0-5.69c-1.52-3-5.31-3-4.18-4.55s3.23-2.47,4.94-1.52a5.49,5.49,0,0,1,2.27,3s1.9-3,4.56-2.47,1.32,5.12,1.32,5.12,4-1.89,5.12.19A3.23,3.23,0,0,1,85,306s3,0,3.41,2.84a43.15,43.15,0,0,1,.38,5.12s-5.5-4-9.11-4.17S70.17,310.78,71.69,308.12Z" style="fill:#92E3A9"></path><path d="M71.69,308.12a6.35,6.35,0,0,0,0-5.69c-1.52-3-5.31-3-4.18-4.55s3.23-2.47,4.94-1.52a5.49,5.49,0,0,1,2.27,3s1.9-3,4.56-2.47,1.32,5.12,1.32,5.12,4-1.89,5.12.19A3.23,3.23,0,0,1,85,306s3,0,3.41,2.84a43.15,43.15,0,0,1,.38,5.12s-5.5-4-9.11-4.17S70.17,310.78,71.69,308.12Z" style="fill:#fff;opacity:0.5"></path><path d="M89,293.46a6.35,6.35,0,0,0,0-5.69c-1.52-3-5.31-3-4.17-4.56s3.22-2.46,4.93-1.51a5.43,5.43,0,0,1,2.28,3s1.89-3,4.55-2.46,1.33,5.12,1.33,5.12,4-1.9,5.12.19a3.22,3.22,0,0,1-.76,3.79s3,0,3.41,2.85a43,43,0,0,1,.38,5.12s-5.5-4-9.1-4.18S87.5,296.11,89,293.46Z" style="fill:#92E3A9"></path><path d="M89,293.46a6.35,6.35,0,0,0,0-5.69c-1.52-3-5.31-3-4.17-4.56s3.22-2.46,4.93-1.51a5.43,5.43,0,0,1,2.28,3s1.89-3,4.55-2.46,1.33,5.12,1.33,5.12,4-1.9,5.12.19a3.22,3.22,0,0,1-.76,3.79s3,0,3.41,2.85a43,43,0,0,1,.38,5.12s-5.5-4-9.1-4.18S87.5,296.11,89,293.46Z" style="fill:#fff;opacity:0.5"></path><path d="M102.19,281.25a6.33,6.33,0,0,0-3-4.81c-2.9-1.76-6.11.27-6-1.62s1.41-3.81,3.36-3.92a5.48,5.48,0,0,1,3.55,1.35s0-3.58,2.53-4.52,3.86,3.62,3.86,3.62,2.35-3.73,4.43-2.57a3.22,3.22,0,0,1,1.39,3.61s2.56-1.62,4.4.58a44.66,44.66,0,0,1,3.06,4.13s-6.78-.43-9.93,1.34S102.33,284.3,102.19,281.25Z" style="fill:#92E3A9"></path><path d="M102.19,281.25a6.33,6.33,0,0,0-3-4.81c-2.9-1.76-6.11.27-6-1.62s1.41-3.81,3.36-3.92a5.48,5.48,0,0,1,3.55,1.35s0-3.58,2.53-4.52,3.86,3.62,3.86,3.62,2.35-3.73,4.43-2.57a3.22,3.22,0,0,1,1.39,3.61s2.56-1.62,4.4.58a44.66,44.66,0,0,1,3.06,4.13s-6.78-.43-9.93,1.34S102.33,284.3,102.19,281.25Z" style="fill:#fff;opacity:0.5"></path><path d="M116.25,267.55a6.34,6.34,0,0,0,2.61-5.05c0-3.4-3.33-5.14-1.62-6s4-.72,5.08.91a5.47,5.47,0,0,1,.63,3.74s3.08-1.83,5.18-.1-1.17,5.16-1.17,5.16,4.41.14,4.46,2.52a3.22,3.22,0,0,1-2.41,3s2.69,1.39,1.73,4.09a42.24,42.24,0,0,1-2,4.73s-3.06-6.06-6.17-7.89S113.68,269.22,116.25,267.55Z" style="fill:#92E3A9"></path><path d="M116.25,267.55a6.34,6.34,0,0,0,2.61-5.05c0-3.4-3.33-5.14-1.62-6s4-.72,5.08.91a5.47,5.47,0,0,1,.63,3.74s3.08-1.83,5.18-.1-1.17,5.16-1.17,5.16,4.41.14,4.46,2.52a3.22,3.22,0,0,1-2.41,3s2.69,1.39,1.73,4.09a42.24,42.24,0,0,1-2,4.73s-3.06-6.06-6.17-7.89S113.68,269.22,116.25,267.55Z" style="fill:#fff;opacity:0.5"></path><path d="M126.22,254.16a6.37,6.37,0,0,0,2.61-5c0-3.4-3.33-5.14-1.62-6s4-.71,5.08.91a5.47,5.47,0,0,1,.63,3.74s3.07-1.82,5.17-.1-1.17,5.16-1.17,5.16,4.41.14,4.47,2.52a3.23,3.23,0,0,1-2.42,3s2.7,1.39,1.73,4.09a43.46,43.46,0,0,1-2,4.73s-3.06-6.06-6.18-7.88S123.65,255.83,126.22,254.16Z" style="fill:#92E3A9"></path><path d="M126.22,254.16a6.37,6.37,0,0,0,2.61-5c0-3.4-3.33-5.14-1.62-6s4-.71,5.08.91a5.47,5.47,0,0,1,.63,3.74s3.07-1.82,5.17-.1-1.17,5.16-1.17,5.16,4.41.14,4.47,2.52a3.23,3.23,0,0,1-2.42,3s2.7,1.39,1.73,4.09a43.46,43.46,0,0,1-2,4.73s-3.06-6.06-6.18-7.88S123.65,255.83,126.22,254.16Z" style="fill:#fff;opacity:0.5"></path><path d="M129.12,249a6.38,6.38,0,0,0-3.76-4.27c-3.15-1.27-6,1.24-6.14-.65s.78-4,2.69-4.4a5.47,5.47,0,0,1,3.72.77s-.59-3.53,1.78-4.86,4.38,3,4.38,3,1.74-4,4-3.24a3.21,3.21,0,0,1,1.94,3.35s2.28-2,4.44-.13a44.75,44.75,0,0,1,3.68,3.59s-6.77.65-9.59,2.89S129.74,252,129.12,249Z" style="fill:#92E3A9"></path><path d="M129.12,249a6.38,6.38,0,0,0-3.76-4.27c-3.15-1.27-6,1.24-6.14-.65s.78-4,2.69-4.4a5.47,5.47,0,0,1,3.72.77s-.59-3.53,1.78-4.86,4.38,3,4.38,3,1.74-4,4-3.24a3.21,3.21,0,0,1,1.94,3.35s2.28-2,4.44-.13a44.75,44.75,0,0,1,3.68,3.59s-6.77.65-9.59,2.89S129.74,252,129.12,249Z" style="fill:#fff;opacity:0.5"></path><path d="M137.12,234a6.38,6.38,0,0,0-3.76-4.27c-3.15-1.27-6,1.24-6.14-.65s.78-4,2.69-4.4a5.47,5.47,0,0,1,3.72.77s-.59-3.53,1.78-4.86,4.38,3,4.38,3,1.74-4,4-3.24a3.21,3.21,0,0,1,1.94,3.35s2.28-2,4.44-.13a44.75,44.75,0,0,1,3.68,3.59s-6.77.65-9.59,2.89S137.74,237,137.12,234Z" style="fill:#92E3A9"></path><path d="M137.12,234a6.38,6.38,0,0,0-3.76-4.27c-3.15-1.27-6,1.24-6.14-.65s.78-4,2.69-4.4a5.47,5.47,0,0,1,3.72.77s-.59-3.53,1.78-4.86,4.38,3,4.38,3,1.74-4,4-3.24a3.21,3.21,0,0,1,1.94,3.35s2.28-2,4.44-.13a44.75,44.75,0,0,1,3.68,3.59s-6.77.65-9.59,2.89S137.74,237,137.12,234Z" style="fill:#fff;opacity:0.5"></path><path d="M426,205.47S383.76,169.65,368.3,111" style="fill:none;stroke:#92E3A9;stroke-linecap:round;stroke-linejoin:round"></path><path d="M418.81,197.83a6.38,6.38,0,0,1,1.16-5.57c2.11-2.66,5.82-1.89,5-3.6s-2.66-3.08-4.52-2.5a5.45,5.45,0,0,0-2.85,2.51s-1.24-3.36-3.95-3.35-2.35,4.75-2.35,4.75-3.51-2.67-5.05-.86a3.21,3.21,0,0,0,0,3.86s-3-.62-3.93,2.09a44.25,44.25,0,0,0-1.42,4.94s6.2-2.78,9.77-2.23S419.75,200.74,418.81,197.83Z" style="fill:#92E3A9"></path><path d="M418.81,197.83a6.38,6.38,0,0,1,1.16-5.57c2.11-2.66,5.82-1.89,5-3.6s-2.66-3.08-4.52-2.5a5.45,5.45,0,0,0-2.85,2.51s-1.24-3.36-3.95-3.35-2.35,4.75-2.35,4.75-3.51-2.67-5.05-.86a3.21,3.21,0,0,0,0,3.86s-3-.62-3.93,2.09a44.25,44.25,0,0,0-1.42,4.94s6.2-2.78,9.77-2.23S419.75,200.74,418.81,197.83Z" style="fill:#fff;opacity:0.5"></path><path d="M404.84,179.93a6.38,6.38,0,0,1,1.16-5.57c2.11-2.66,5.82-1.89,5-3.6s-2.66-3.08-4.52-2.5a5.45,5.45,0,0,0-2.85,2.51s-1.24-3.36-3.95-3.35-2.35,4.75-2.35,4.75-3.51-2.67-5.05-.86a3.21,3.21,0,0,0,0,3.86s-3-.62-3.93,2.09a44.25,44.25,0,0,0-1.42,4.94s6.2-2.78,9.77-2.23S405.78,182.84,404.84,179.93Z" style="fill:#92E3A9"></path><path d="M404.84,179.93a6.38,6.38,0,0,1,1.16-5.57c2.11-2.66,5.82-1.89,5-3.6s-2.66-3.08-4.52-2.5a5.45,5.45,0,0,0-2.85,2.51s-1.24-3.36-3.95-3.35-2.35,4.75-2.35,4.75-3.51-2.67-5.05-.86a3.21,3.21,0,0,0,0,3.86s-3-.62-3.93,2.09a44.25,44.25,0,0,0-1.42,4.94s6.2-2.78,9.77-2.23S405.78,182.84,404.84,179.93Z" style="fill:#fff;opacity:0.5"></path><path d="M394.44,165.29a6.36,6.36,0,0,1,4-4.09c3.2-1.13,5.92,1.51,6.16-.37s-.6-4-2.49-4.52a5.42,5.42,0,0,0-3.74.6s.75-3.5-1.56-4.94-4.51,2.75-4.51,2.75-1.55-4.13-3.81-3.42a3.23,3.23,0,0,0-2.1,3.25s-2.18-2.11-4.43-.33a43.56,43.56,0,0,0-3.84,3.42s6.73,1,9.45,3.33S393.68,168.25,394.44,165.29Z" style="fill:#92E3A9"></path><path d="M394.44,165.29a6.36,6.36,0,0,1,4-4.09c3.2-1.13,5.92,1.51,6.16-.37s-.6-4-2.49-4.52a5.42,5.42,0,0,0-3.74.6s.75-3.5-1.56-4.94-4.51,2.75-4.51,2.75-1.55-4.13-3.81-3.42a3.23,3.23,0,0,0-2.1,3.25s-2.18-2.11-4.43-.33a43.56,43.56,0,0,0-3.84,3.42s6.73,1,9.45,3.33S393.68,168.25,394.44,165.29Z" style="fill:#fff;opacity:0.5"></path><path d="M383.48,149a6.36,6.36,0,0,1-1.52-5.48c.65-3.33,4.3-4.35,2.8-5.51s-3.77-1.51-5.16-.14a5.46,5.46,0,0,0-1.38,3.53s-2.64-2.42-5.05-1.16.09,5.29.09,5.29-4.34-.76-4.88,1.56a3.22,3.22,0,0,0,1.74,3.45s-2.92.81-2.52,3.65a42.19,42.19,0,0,0,1,5s4.24-5.31,7.66-6.46S385.65,151.16,383.48,149Z" style="fill:#92E3A9"></path><path d="M383.48,149a6.36,6.36,0,0,1-1.52-5.48c.65-3.33,4.3-4.35,2.8-5.51s-3.77-1.51-5.16-.14a5.46,5.46,0,0,0-1.38,3.53s-2.64-2.42-5.05-1.16.09,5.29.09,5.29-4.34-.76-4.88,1.56a3.22,3.22,0,0,0,1.74,3.45s-2.92.81-2.52,3.65a42.19,42.19,0,0,0,1,5s4.24-5.31,7.66-6.46S385.65,151.16,383.48,149Z" style="fill:#fff;opacity:0.5"></path><path d="M376.46,133.87a6.39,6.39,0,0,1-1.52-5.49c.65-3.33,4.3-4.34,2.8-5.5s-3.77-1.52-5.16-.14a5.46,5.46,0,0,0-1.38,3.53s-2.64-2.42-5.05-1.16.09,5.29.09,5.29-4.34-.76-4.88,1.55a3.21,3.21,0,0,0,1.75,3.45s-2.93.82-2.53,3.66a42.74,42.74,0,0,0,1,5s4.24-5.31,7.66-6.46S378.63,136,376.46,133.87Z" style="fill:#92E3A9"></path><path d="M376.46,133.87a6.39,6.39,0,0,1-1.52-5.49c.65-3.33,4.3-4.34,2.8-5.5s-3.77-1.52-5.16-.14a5.46,5.46,0,0,0-1.38,3.53s-2.64-2.42-5.05-1.16.09,5.29.09,5.29-4.34-.76-4.88,1.55a3.21,3.21,0,0,0,1.75,3.45s-2.93.82-2.53,3.66a42.74,42.74,0,0,0,1,5s4.24-5.31,7.66-6.46S378.63,136,376.46,133.87Z" style="fill:#fff;opacity:0.5"></path><path d="M374.67,128.24a6.33,6.33,0,0,1,4.55-3.41c3.34-.61,5.62,2.43,6.15.61s0-4.06-1.74-4.86a5.46,5.46,0,0,0-3.8,0s1.3-3.34-.75-5.12-4.9,2-4.9,2-.86-4.32-3.22-4a3.21,3.21,0,0,0-2.58,2.88s-1.82-2.43-4.32-1a43,43,0,0,0-4.33,2.76s6.49,2,8.8,4.79S373.45,131,374.67,128.24Z" style="fill:#92E3A9"></path><path d="M374.67,128.24a6.33,6.33,0,0,1,4.55-3.41c3.34-.61,5.62,2.43,6.15.61s0-4.06-1.74-4.86a5.46,5.46,0,0,0-3.8,0s1.3-3.34-.75-5.12-4.9,2-4.9,2-.86-4.32-3.22-4a3.21,3.21,0,0,0-2.58,2.88s-1.82-2.43-4.32-1a43,43,0,0,0-4.33,2.76s6.49,2,8.8,4.79S373.45,131,374.67,128.24Z" style="fill:#fff;opacity:0.5"></path><path d="M369.9,111.92a6.36,6.36,0,0,1,4.56-3.41c3.34-.6,5.61,2.43,6.14.61s0-4.06-1.74-4.86a5.5,5.5,0,0,0-3.79,0s1.29-3.34-.75-5.12-4.9,2-4.9,2-.87-4.32-3.22-4a3.22,3.22,0,0,0-2.58,2.88s-1.82-2.43-4.33-1a44.5,44.5,0,0,0-4.33,2.76s6.49,2,8.8,4.79S368.68,114.73,369.9,111.92Z" style="fill:#92E3A9"></path><path d="M369.9,111.92a6.36,6.36,0,0,1,4.56-3.41c3.34-.6,5.61,2.43,6.14.61s0-4.06-1.74-4.86a5.5,5.5,0,0,0-3.79,0s1.29-3.34-.75-5.12-4.9,2-4.9,2-.87-4.32-3.22-4a3.22,3.22,0,0,0-2.58,2.88s-1.82-2.43-4.33-1a44.5,44.5,0,0,0-4.33,2.76s6.49,2,8.8,4.79S368.68,114.73,369.9,111.92Z" style="fill:#fff;opacity:0.5"></path><path d="M422.55,205.38s-53.27-15.2-91.55-62.25" style="fill:none;stroke:#92E3A9;stroke-linecap:round;stroke-linejoin:round"></path><path d="M412.84,201.4a6.38,6.38,0,0,1-1.24-5.56c.82-3.29,4.52-4.12,3.08-5.35s-3.68-1.71-5.14-.41a5.51,5.51,0,0,0-1.57,3.46s-2.51-2.55-5-1.42-.18,5.29-.18,5.29-4.3-1-4.95,1.3a3.23,3.23,0,0,0,1.56,3.54s-3,.66-2.71,3.52a44,44,0,0,0,.74,5.08s4.5-5.09,8-6S414.89,203.66,412.84,201.4Z" style="fill:#92E3A9"></path><path d="M412.84,201.4a6.38,6.38,0,0,1-1.24-5.56c.82-3.29,4.52-4.12,3.08-5.35s-3.68-1.71-5.14-.41a5.51,5.51,0,0,0-1.57,3.46s-2.51-2.55-5-1.42-.18,5.29-.18,5.29-4.3-1-4.95,1.3a3.23,3.23,0,0,0,1.56,3.54s-3,.66-2.71,3.52a44,44,0,0,0,.74,5.08s4.5-5.09,8-6S414.89,203.66,412.84,201.4Z" style="fill:#fff;opacity:0.5"></path><path d="M392.73,190.85a6.35,6.35,0,0,1-1.24-5.55c.82-3.29,4.52-4.12,3.08-5.35s-3.68-1.71-5.14-.41a5.51,5.51,0,0,0-1.57,3.46s-2.51-2.55-5-1.42-.18,5.29-.18,5.29-4.3-1-4.95,1.3a3.23,3.23,0,0,0,1.56,3.54s-3,.66-2.71,3.52a44,44,0,0,0,.74,5.08s4.5-5.09,8-6.06S394.78,193.11,392.73,190.85Z" style="fill:#92E3A9"></path><path d="M392.73,190.85a6.35,6.35,0,0,1-1.24-5.55c.82-3.29,4.52-4.12,3.08-5.35s-3.68-1.71-5.14-.41a5.51,5.51,0,0,0-1.57,3.46s-2.51-2.55-5-1.42-.18,5.29-.18,5.29-4.3-1-4.95,1.3a3.23,3.23,0,0,0,1.56,3.54s-3,.66-2.71,3.52a44,44,0,0,0,.74,5.08s4.5-5.09,8-6.06S394.78,193.11,392.73,190.85Z" style="fill:#fff;opacity:0.5"></path><path d="M377.21,181.8a6.36,6.36,0,0,1,1.92-5.35c2.45-2.35,6-1.07,5.47-2.88s-2.21-3.41-4.14-3.09a5.43,5.43,0,0,0-3.16,2.09s-.76-3.5-3.46-3.86-3,4.37-3,4.37-3.11-3.13-4.89-1.55a3.24,3.24,0,0,0-.57,3.83s-2.85-1-4.17,1.53a41.9,41.9,0,0,0-2.08,4.69s6.52-1.89,10-.86S377.74,184.82,377.21,181.8Z" style="fill:#92E3A9"></path><path d="M377.21,181.8a6.36,6.36,0,0,1,1.92-5.35c2.45-2.35,6-1.07,5.47-2.88s-2.21-3.41-4.14-3.09a5.43,5.43,0,0,0-3.16,2.09s-.76-3.5-3.46-3.86-3,4.37-3,4.37-3.11-3.13-4.89-1.55a3.24,3.24,0,0,0-.57,3.83s-2.85-1-4.17,1.53a41.9,41.9,0,0,0-2.08,4.69s6.52-1.89,10-.86S377.74,184.82,377.21,181.8Z" style="fill:#fff;opacity:0.5"></path><path d="M360.51,171.5a6.37,6.37,0,0,1-3.65-4.37c-.78-3.3,2.13-5.74.29-6.17s-4.06.17-4.76,2a5.45,5.45,0,0,0,.2,3.78s-3.4-1.11-5.08,1,2.27,4.78,2.27,4.78-4.28,1.1-3.81,3.43a3.22,3.22,0,0,0,3,2.43s-2.33,1.94-.79,4.37a42,42,0,0,0,3,4.17s1.67-6.58,4.31-9S363.38,172.56,360.51,171.5Z" style="fill:#92E3A9"></path><path d="M360.51,171.5a6.37,6.37,0,0,1-3.65-4.37c-.78-3.3,2.13-5.74.29-6.17s-4.06.17-4.76,2a5.45,5.45,0,0,0,.2,3.78s-3.4-1.11-5.08,1,2.27,4.78,2.27,4.78-4.28,1.1-3.81,3.43a3.22,3.22,0,0,0,3,2.43s-2.33,1.94-.79,4.37a42,42,0,0,0,3,4.17s1.67-6.58,4.31-9S363.38,172.56,360.51,171.5Z" style="fill:#fff;opacity:0.5"></path><path d="M347.87,160.6a6.37,6.37,0,0,1-3.65-4.37c-.78-3.3,2.13-5.74.29-6.17s-4.06.17-4.76,2a5.48,5.48,0,0,0,.2,3.79s-3.41-1.12-5.08,1,2.27,4.78,2.27,4.78-4.28,1.1-3.81,3.43a3.22,3.22,0,0,0,3,2.43s-2.33,1.94-.8,4.37a42.94,42.94,0,0,0,3,4.17s1.66-6.58,4.31-9S350.74,161.66,347.87,160.6Z" style="fill:#92E3A9"></path><path d="M347.87,160.6a6.37,6.37,0,0,1-3.65-4.37c-.78-3.3,2.13-5.74.29-6.17s-4.06.17-4.76,2a5.48,5.48,0,0,0,.2,3.79s-3.41-1.12-5.08,1,2.27,4.78,2.27,4.78-4.28,1.1-3.81,3.43a3.22,3.22,0,0,0,3,2.43s-2.33,1.94-.8,4.37a42.94,42.94,0,0,0,3,4.17s1.66-6.58,4.31-9S350.74,161.66,347.87,160.6Z" style="fill:#fff;opacity:0.5"></path><path d="M343.92,156.21a6.37,6.37,0,0,1,2.74-5c2.79-1.92,6.12-.09,5.85-2s-1.63-3.72-3.59-3.71a5.5,5.5,0,0,0-3.46,1.56s-.19-3.57-2.8-4.35-3.63,3.84-3.63,3.84-2.57-3.58-4.58-2.3a3.22,3.22,0,0,0-1.16,3.69s-2.66-1.46-4.36.85a43.26,43.26,0,0,0-2.81,4.3s6.74-.84,10,.73S344,159.27,343.92,156.21Z" style="fill:#92E3A9"></path><path d="M343.92,156.21a6.37,6.37,0,0,1,2.74-5c2.79-1.92,6.12-.09,5.85-2s-1.63-3.72-3.59-3.71a5.5,5.5,0,0,0-3.46,1.56s-.19-3.57-2.8-4.35-3.63,3.84-3.63,3.84-2.57-3.58-4.58-2.3a3.22,3.22,0,0,0-1.16,3.69s-2.66-1.46-4.36.85a43.26,43.26,0,0,0-2.81,4.3s6.74-.84,10,.73S344,159.27,343.92,156.21Z" style="fill:#fff;opacity:0.5"></path><path d="M332.84,143.31a6.36,6.36,0,0,1,2.75-5c2.79-1.92,6.11-.09,5.85-2s-1.64-3.72-3.59-3.71a5.5,5.5,0,0,0-3.46,1.56s-.2-3.57-2.8-4.35-3.63,3.84-3.63,3.84-2.58-3.58-4.58-2.3a3.22,3.22,0,0,0-1.16,3.69s-2.66-1.46-4.37.85a44.16,44.16,0,0,0-2.8,4.3s6.74-.84,10,.73S332.89,146.37,332.84,143.31Z" style="fill:#92E3A9"></path><path d="M332.84,143.31a6.36,6.36,0,0,1,2.75-5c2.79-1.92,6.11-.09,5.85-2s-1.64-3.72-3.59-3.71a5.5,5.5,0,0,0-3.46,1.56s-.2-3.57-2.8-4.35-3.63,3.84-3.63,3.84-2.58-3.58-4.58-2.3a3.22,3.22,0,0,0-1.16,3.69s-2.66-1.46-4.37.85a44.16,44.16,0,0,0-2.8,4.3s6.74-.84,10,.73S332.89,146.37,332.84,143.31Z" style="fill:#fff;opacity:0.5"></path><path d="M61.23,300.17s31.88-45.31,32.09-106" style="fill:none;stroke:#92E3A9;stroke-linecap:round;stroke-linejoin:round"></path><path d="M66.28,291a6.37,6.37,0,0,0-2.53-5.1c-2.71-2-6.1-.36-5.76-2.22s1.8-3.65,3.75-3.55a5.44,5.44,0,0,1,3.38,1.7s.36-3.56,3-4.23,3.46,4,3.46,4,2.73-3.47,4.67-2.1a3.21,3.21,0,0,1,1,3.73s2.72-1.34,4.32,1a42.39,42.39,0,0,1,2.62,4.42s-6.7-1.13-10,.3S66.1,294,66.28,291Z" style="fill:#92E3A9"></path><path d="M66.28,291a6.37,6.37,0,0,0-2.53-5.1c-2.71-2-6.1-.36-5.76-2.22s1.8-3.65,3.75-3.55a5.44,5.44,0,0,1,3.38,1.7s.36-3.56,3-4.23,3.46,4,3.46,4,2.73-3.47,4.67-2.1a3.21,3.21,0,0,1,1,3.73s2.72-1.34,4.32,1a42.39,42.39,0,0,1,2.62,4.42s-6.7-1.13-10,.3S66.1,294,66.28,291Z" style="fill:#fff;opacity:0.5"></path><path d="M75.3,270.12a6.37,6.37,0,0,0-2.53-5.1c-2.71-2-6.11-.36-5.76-2.22s1.79-3.64,3.74-3.55A5.47,5.47,0,0,1,74.14,261s.35-3.57,3-4.24,3.47,4,3.47,4,2.72-3.47,4.67-2.1a3.21,3.21,0,0,1,1,3.73s2.72-1.34,4.32,1a43.28,43.28,0,0,1,2.61,4.42s-6.69-1.13-10,.3S75.12,273.17,75.3,270.12Z" style="fill:#92E3A9"></path><path d="M75.3,270.12a6.37,6.37,0,0,0-2.53-5.1c-2.71-2-6.11-.36-5.76-2.22s1.79-3.64,3.74-3.55A5.47,5.47,0,0,1,74.14,261s.35-3.57,3-4.24,3.47,4,3.47,4,2.72-3.47,4.67-2.1a3.21,3.21,0,0,1,1,3.73s2.72-1.34,4.32,1a43.28,43.28,0,0,1,2.61,4.42s-6.69-1.13-10,.3S75.12,273.17,75.3,270.12Z" style="fill:#fff;opacity:0.5"></path><path d="M81.68,253.33a6.36,6.36,0,0,0-4.86-3c-3.39-.28-5.36,3-6.06,1.2s-.43-4,1.27-5a5.43,5.43,0,0,1,3.77-.37s-1.6-3.2.26-5.17,5.07,1.53,5.07,1.53.45-4.39,2.83-4.28a3.23,3.23,0,0,1,2.84,2.63s1.58-2.6,4.21-1.44a43.64,43.64,0,0,1,4.57,2.34s-6.26,2.63-8.3,5.61S83.15,256,81.68,253.33Z" style="fill:#92E3A9"></path><path d="M81.68,253.33a6.36,6.36,0,0,0-4.86-3c-3.39-.28-5.36,3-6.06,1.2s-.43-4,1.27-5a5.43,5.43,0,0,1,3.77-.37s-1.6-3.2.26-5.17,5.07,1.53,5.07,1.53.45-4.39,2.83-4.28a3.23,3.23,0,0,1,2.84,2.63s1.58-2.6,4.21-1.44a43.64,43.64,0,0,1,4.57,2.34s-6.26,2.63-8.3,5.61S83.15,256,81.68,253.33Z" style="fill:#fff;opacity:0.5"></path><path d="M88.19,234.82a6.36,6.36,0,0,0,.09-5.69c-1.47-3.06-5.26-3.12-4.1-4.62s3.27-2.41,5-1.44a5.46,5.46,0,0,1,2.22,3.07s2-3,4.6-2.39,1.24,5.15,1.24,5.15,4-1.84,5.12.27a3.23,3.23,0,0,1-.82,3.78s3,.05,3.37,2.9a43.11,43.11,0,0,1,.29,5.13s-5.43-4.08-9-4.32S86.63,237.45,88.19,234.82Z" style="fill:#92E3A9"></path><path d="M88.19,234.82a6.36,6.36,0,0,0,.09-5.69c-1.47-3.06-5.26-3.12-4.1-4.62s3.27-2.41,5-1.44a5.46,5.46,0,0,1,2.22,3.07s2-3,4.6-2.39,1.24,5.15,1.24,5.15,4-1.84,5.12.27a3.23,3.23,0,0,1-.82,3.78s3,.05,3.37,2.9a43.11,43.11,0,0,1,.29,5.13s-5.43-4.08-9-4.32S86.63,237.45,88.19,234.82Z" style="fill:#fff;opacity:0.5"></path><path d="M91.17,218.4a6.36,6.36,0,0,0,.09-5.69c-1.46-3.06-5.26-3.13-4.1-4.62s3.27-2.42,5-1.44a5.5,5.5,0,0,1,2.23,3.07s1.94-3,4.59-2.39,1.24,5.14,1.24,5.14,4-1.83,5.12.28a3.21,3.21,0,0,1-.82,3.78s3,.05,3.37,2.9a43,43,0,0,1,.29,5.12s-5.43-4.07-9-4.32S89.61,221,91.17,218.4Z" style="fill:#92E3A9"></path><path d="M91.17,218.4a6.36,6.36,0,0,0,.09-5.69c-1.46-3.06-5.26-3.13-4.1-4.62s3.27-2.42,5-1.44a5.5,5.5,0,0,1,2.23,3.07s1.94-3,4.59-2.39,1.24,5.14,1.24,5.14,4-1.83,5.12.28a3.21,3.21,0,0,1-.82,3.78s3,.05,3.37,2.9a43,43,0,0,1,.29,5.12s-5.43-4.07-9-4.32S89.61,221,91.17,218.4Z" style="fill:#fff;opacity:0.5"></path><path d="M91.49,212.5a6.37,6.37,0,0,0-5.27-2.15c-3.38.25-4.82,3.76-5.79,2.14s-1.07-3.92.46-5.14a5.41,5.41,0,0,1,3.67-1s-2.09-2.91-.56-5.15,5.24.71,5.24.71-.25-4.41,2.12-4.67a3.22,3.22,0,0,1,3.22,2.14s1.15-2.81,3.93-2.08a43.08,43.08,0,0,1,4.88,1.58s-5.77,3.59-7.31,6.85S93.37,214.91,91.49,212.5Z" style="fill:#92E3A9"></path><path d="M91.49,212.5a6.37,6.37,0,0,0-5.27-2.15c-3.38.25-4.82,3.76-5.79,2.14s-1.07-3.92.46-5.14a5.41,5.41,0,0,1,3.67-1s-2.09-2.91-.56-5.15,5.24.71,5.24.71-.25-4.41,2.12-4.67a3.22,3.22,0,0,1,3.22,2.14s1.15-2.81,3.93-2.08a43.08,43.08,0,0,1,4.88,1.58s-5.77,3.59-7.31,6.85S93.37,214.91,91.49,212.5Z" style="fill:#fff;opacity:0.5"></path><path d="M92,195.51a6.36,6.36,0,0,0-5.26-2.16c-3.39.26-4.82,3.77-5.8,2.14s-1.06-3.92.46-5.14a5.47,5.47,0,0,1,3.68-.95s-2.1-2.91-.56-5.15,5.24.71,5.24.71-.25-4.41,2.11-4.67a3.23,3.23,0,0,1,3.23,2.14s1.15-2.81,3.92-2.09a44,44,0,0,1,4.89,1.59s-5.77,3.58-7.31,6.85S93.88,197.92,92,195.51Z" style="fill:#92E3A9"></path><path d="M92,195.51a6.36,6.36,0,0,0-5.26-2.16c-3.39.26-4.82,3.77-5.8,2.14s-1.06-3.92.46-5.14a5.47,5.47,0,0,1,3.68-.95s-2.1-2.91-.56-5.15,5.24.71,5.24.71-.25-4.41,2.11-4.67a3.23,3.23,0,0,1,3.23,2.14s1.15-2.81,3.92-2.09a44,44,0,0,1,4.89,1.59s-5.77,3.58-7.31,6.85S93.88,197.92,92,195.51Z" style="fill:#fff;opacity:0.5"></path></g><g id="freepik--Candles--inject-40"><path d="M403.3,393.31c0,1.24-1.81,2.24-4,2.24s-4.05-1-4.05-2.24,1.82-2.25,4.05-2.25S403.3,392.07,403.3,393.31Z" style="fill:#fff;stroke:#263238;stroke-linecap:round;stroke-linejoin:round"></path><path d="M375.89,394.21c0,1.24-1.81,2.24-4.05,2.24s-4-1-4-2.24,1.81-2.25,4-2.25S375.89,393,375.89,394.21Z" style="fill:#fff;stroke:#263238;stroke-linecap:round;stroke-linejoin:round"></path><path d="M379.71,395.55c0,1.24-1.81,2.25-4,2.25s-4-1-4-2.25,1.81-2.24,4-2.24S379.71,394.31,379.71,395.55Z" style="fill:#fff;stroke:#263238;stroke-linecap:round;stroke-linejoin:round"></path><path d="M392.29,394.66c0,1.24-1.81,2.24-4,2.24s-4.05-1-4.05-2.24,1.81-2.25,4.05-2.25S392.29,393.41,392.29,394.66Z" style="fill:#fff;stroke:#263238;stroke-linecap:round;stroke-linejoin:round"></path><path d="M385.55,394.21c0,1.24-1.81,2.24-4,2.24s-4.05-1-4.05-2.24,1.81-2.25,4.05-2.25S385.55,393,385.55,394.21Z" style="fill:#fff;stroke:#263238;stroke-linecap:round;stroke-linejoin:round"></path><path d="M399.26,396c0,1.24-1.81,2.25-4.05,2.25s-4-1-4-2.25,1.81-2.24,4-2.24S399.26,394.76,399.26,396Z" style="fill:#fff;stroke:#263238;stroke-linecap:round;stroke-linejoin:round"></path><path d="M409.37,396.23c0,1.24-1.81,2.25-4,2.25s-4.05-1-4.05-2.25,1.81-2.25,4.05-2.25S409.37,395,409.37,396.23Z" style="fill:#fff;stroke:#263238;stroke-linecap:round;stroke-linejoin:round"></path><path d="M370.5,396.68c0,1.24-1.81,2.24-4.05,2.24s-4-1-4-2.24,1.81-2.25,4-2.25S370.5,395.44,370.5,396.68Z" style="fill:#fff;stroke:#263238;stroke-linecap:round;stroke-linejoin:round"></path><path d="M375.66,397.8c0,1.24-1.81,2.25-4,2.25s-4-1-4-2.25,1.81-2.25,4-2.25S375.66,396.56,375.66,397.8Z" style="fill:#fff;stroke:#263238;stroke-linecap:round;stroke-linejoin:round"></path><path d="M402.18,398.48c0,1.24-1.81,2.24-4,2.24s-4.05-1-4.05-2.24,1.81-2.25,4.05-2.25S402.18,397.23,402.18,398.48Z" style="fill:#fff;stroke:#263238;stroke-linecap:round;stroke-linejoin:round"></path><path d="M385.33,397.35c0,1.24-1.81,2.25-4.05,2.25s-4-1-4-2.25,1.81-2.25,4-2.25S385.33,396.11,385.33,397.35Z" style="fill:#fff;stroke:#263238;stroke-linecap:round;stroke-linejoin:round"></path><path d="M391.39,397.35c0,1.24-1.81,2.25-4,2.25s-4.05-1-4.05-2.25,1.82-2.25,4.05-2.25S391.39,396.11,391.39,397.35Z" style="fill:#fff;stroke:#263238;stroke-linecap:round;stroke-linejoin:round"></path><path d="M370.78,363.22h10a3,3,0,0,1,3,3v32.72a1.5,1.5,0,0,1-1.5,1.5h-13a1.5,1.5,0,0,1-1.5-1.5V366.22A3,3,0,0,1,370.78,363.22Z" style="fill:#fff;stroke:#263238;stroke-linecap:round;stroke-linejoin:round"></path><path d="M375.87,363.41a5.44,5.44,0,0,1-2-5c.45-3.14,3.15-6.06,3.15-6.06a14.29,14.29,0,0,1,1.57,5.84C378.56,361.16,375.87,363.41,375.87,363.41Z" style="fill:#92E3A9;stroke:#263238;stroke-linecap:round;stroke-linejoin:round"></path><path d="M389,353.74h10a3,3,0,0,1,3,3v42.19a1.5,1.5,0,0,1-1.5,1.5h-13a1.5,1.5,0,0,1-1.5-1.5V356.74A3,3,0,0,1,389,353.74Z" style="fill:#fff;stroke:#263238;stroke-linecap:round;stroke-linejoin:round"></path><path d="M394.07,353.94a5.45,5.45,0,0,1-2-4.95c.44-3.14,3.14-6.06,3.14-6.06a14.29,14.29,0,0,1,1.57,5.84C396.76,351.69,394.07,353.94,394.07,353.94Z" style="fill:#92E3A9;stroke:#263238;stroke-linecap:round;stroke-linejoin:round"></path><ellipse cx="385.08" cy="399.14" rx="4.04" ry="2.25" style="fill:#fff;stroke:#263238;stroke-linecap:round;stroke-linejoin:round"></ellipse><path d="M361.71,400c0,1.25-1.81,2.25-4,2.25s-4.05-1-4.05-2.25,1.81-2.24,4.05-2.24S361.71,398.79,361.71,400Z" style="fill:#fff;stroke:#263238;stroke-linecap:round;stroke-linejoin:round"></path><path d="M365.53,401.38c0,1.24-1.81,2.25-4,2.25s-4.05-1-4.05-2.25,1.81-2.24,4.05-2.24S365.53,400.14,365.53,401.38Z" style="fill:#fff;stroke:#263238;stroke-linecap:round;stroke-linejoin:round"></path><path d="M378.11,400.48c0,1.24-1.81,2.25-4,2.25s-4.05-1-4.05-2.25,1.81-2.24,4.05-2.24S378.11,399.24,378.11,400.48Z" style="fill:#fff;stroke:#263238;stroke-linecap:round;stroke-linejoin:round"></path><path d="M371.37,400c0,1.25-1.81,2.25-4,2.25s-4.05-1-4.05-2.25,1.81-2.24,4.05-2.24S371.37,398.79,371.37,400Z" style="fill:#fff;stroke:#263238;stroke-linecap:round;stroke-linejoin:round"></path><path d="M385.08,401.83c0,1.24-1.81,2.25-4.05,2.25s-4-1-4-2.25,1.81-2.25,4-2.25S385.08,400.59,385.08,401.83Z" style="fill:#fff;stroke:#263238;stroke-linecap:round;stroke-linejoin:round"></path><path d="M395.19,402.06c0,1.24-1.81,2.24-4,2.24s-4-1-4-2.24,1.81-2.25,4-2.25S395.19,400.82,395.19,402.06Z" style="fill:#fff;stroke:#263238;stroke-linecap:round;stroke-linejoin:round"></path><path d="M356.32,402.51c0,1.24-1.81,2.24-4.05,2.24s-4-1-4-2.24,1.81-2.25,4-2.25S356.32,401.26,356.32,402.51Z" style="fill:#fff;stroke:#263238;stroke-linecap:round;stroke-linejoin:round"></path><path d="M361.49,403.63c0,1.24-1.82,2.25-4.05,2.25s-4-1-4-2.25,1.81-2.25,4-2.25S361.49,402.39,361.49,403.63Z" style="fill:#fff;stroke:#263238;stroke-linecap:round;stroke-linejoin:round"></path><path d="M388,404.3c0,1.24-1.81,2.25-4,2.25s-4-1-4-2.25,1.81-2.24,4-2.24S388,403.06,388,404.3Z" style="fill:#fff;stroke:#263238;stroke-linecap:round;stroke-linejoin:round"></path><ellipse cx="367.1" cy="403.18" rx="4.04" ry="2.25" style="fill:#fff;stroke:#263238;stroke-linecap:round;stroke-linejoin:round"></ellipse><ellipse cx="373.17" cy="403.18" rx="4.04" ry="2.25" style="fill:#fff;stroke:#263238;stroke-linecap:round;stroke-linejoin:round"></ellipse><ellipse cx="408" cy="399.14" rx="4.04" ry="2.25" style="fill:#fff;stroke:#263238;stroke-linecap:round;stroke-linejoin:round"></ellipse><path d="M384.63,400c0,1.25-1.81,2.25-4,2.25s-4-1-4-2.25,1.81-2.24,4-2.24S384.63,398.79,384.63,400Z" style="fill:#fff;stroke:#263238;stroke-linecap:round;stroke-linejoin:round"></path><path d="M388.45,401.38c0,1.24-1.81,2.25-4,2.25s-4.05-1-4.05-2.25,1.81-2.24,4.05-2.24S388.45,400.14,388.45,401.38Z" style="fill:#fff;stroke:#263238;stroke-linecap:round;stroke-linejoin:round"></path><path d="M401,400.48c0,1.24-1.81,2.25-4,2.25s-4.05-1-4.05-2.25,1.81-2.24,4.05-2.24S401,399.24,401,400.48Z" style="fill:#fff;stroke:#263238;stroke-linecap:round;stroke-linejoin:round"></path><path d="M394.29,400c0,1.25-1.81,2.25-4,2.25s-4.05-1-4.05-2.25,1.81-2.24,4.05-2.24S394.29,398.79,394.29,400Z" style="fill:#fff;stroke:#263238;stroke-linecap:round;stroke-linejoin:round"></path><path d="M408,401.83c0,1.24-1.81,2.25-4.05,2.25s-4-1-4-2.25,1.81-2.25,4-2.25S408,400.59,408,401.83Z" style="fill:#fff;stroke:#263238;stroke-linecap:round;stroke-linejoin:round"></path><path d="M418.11,402.06c0,1.24-1.81,2.24-4,2.24s-4.05-1-4.05-2.24,1.81-2.25,4.05-2.25S418.11,400.82,418.11,402.06Z" style="fill:#fff;stroke:#263238;stroke-linecap:round;stroke-linejoin:round"></path><path d="M379.24,402.51c0,1.24-1.81,2.24-4.05,2.24s-4-1-4-2.24,1.81-2.25,4-2.25S379.24,401.26,379.24,402.51Z" style="fill:#fff;stroke:#263238;stroke-linecap:round;stroke-linejoin:round"></path><path d="M384.41,403.63c0,1.24-1.82,2.25-4.05,2.25s-4-1-4-2.25,1.81-2.25,4-2.25S384.41,402.39,384.41,403.63Z" style="fill:#fff;stroke:#263238;stroke-linecap:round;stroke-linejoin:round"></path><path d="M410.92,404.3c0,1.24-1.81,2.25-4,2.25s-4.05-1-4.05-2.25,1.81-2.24,4.05-2.24S410.92,403.06,410.92,404.3Z" style="fill:#fff;stroke:#263238;stroke-linecap:round;stroke-linejoin:round"></path><ellipse cx="390.02" cy="403.18" rx="4.04" ry="2.25" style="fill:#fff;stroke:#263238;stroke-linecap:round;stroke-linejoin:round"></ellipse><ellipse cx="396.09" cy="403.18" rx="4.04" ry="2.25" style="fill:#fff;stroke:#263238;stroke-linecap:round;stroke-linejoin:round"></ellipse></g><g id="freepik--Mat--inject-40"><polygon points="352.3 411.14 130.36 411.14 174.75 389.69 307.91 389.69 352.3 411.14" style="fill:#263238;stroke:#263238;stroke-linecap:round;stroke-linejoin:round"></polygon></g><g id="freepik--Character--inject-40"><path d="M237.34,259.7s.9,13.61-.36,15.94-9.13,4.12-13.79,4.84-11.28,1.07-13.07,4.3-1.44,10.57.89,16.12,13.26,34.39,13.26,34.39l-14,33.67s19.53,23.65,31.53,27.05,28.12-8.42,31.7-13.26a20.45,20.45,0,0,0,3.76-10.39L263.49,333.5S276,303.72,276.9,297.63s1.46-13.16-3-15.13-14-3.28-16.84-4.71-3.94-2.15-4.12-5.91.18-12,.18-12S241.82,262.21,237.34,259.7Z" style="fill:#fff"></path><g style="clip-path:url(#freepik--clip-path--inject-40)"><path d="M252.92,271.88c-.18-3.76.18-12,.18-12s-11.28,2.33-15.76-.18c0,0,.72,11,0,14.91a15.13,15.13,0,0,0,6.5,2.27c3.37.44,7-.68,9.77-1.82A8,8,0,0,1,252.92,271.88Z" style="fill:#92E3A9"></path><path d="M252.92,271.88c-.18-3.76.18-12,.18-12s-11.28,2.33-15.76-.18c0,0,.72,11,0,14.91a15.13,15.13,0,0,0,6.5,2.27c3.37.44,7-.68,9.77-1.82A8,8,0,0,1,252.92,271.88Z" style="fill:#fff;opacity:0.5"></path><path d="M261.71,286.13l-10.63,1.63c-3,.47-3.29,2.79-3.29,2.79" style="fill:none;stroke:#263238;stroke-linecap:round;stroke-linejoin:round"></path><path d="M242.47,289.86s-.25-1.4-2.53-2.33-13.17-1.16-15.45-1.63" style="fill:none;stroke:#263238;stroke-linecap:round;stroke-linejoin:round"></path></g><path d="M237.34,259.7s.9,13.61-.36,15.94-9.13,4.12-13.79,4.84-11.28,1.07-13.07,4.3-1.44,10.57.89,16.12,13.26,34.39,13.26,34.39l-14,33.67s19.53,23.65,31.53,27.05,28.12-8.42,31.7-13.26a20.45,20.45,0,0,0,3.76-10.39L263.49,333.5S276,303.72,276.9,297.63s1.46-13.16-3-15.13-14-3.28-16.84-4.71-3.94-2.15-4.12-5.91.18-12,.18-12S241.82,262.21,237.34,259.7Z" style="fill:none;stroke:#263238;stroke-linecap:round;stroke-linejoin:round"></path><path d="M270.86,315.28c-3.36-3.78-7.6-10.25-7.52-17.92a153.62,153.62,0,0,1,.84-17.57c-1.18-.27-2.32-.53-3.35-.79-1,6.11-4.24,19-14.77,19.16-11,.21-13.73-13.78-14.41-19.59-.6.19-1.23.37-1.86.54h0c-.63.17-1.27.32-1.91.47,5.75,12.15-6.15,31.53-10.39,37.8.19.52.39,1,.59,1.55.05.12.09.25.14.37.18.46.35.91.52,1.36l.05.12c.61,1.62,1.22,3.2,1.79,4.69v0c.17.45.34.89.51,1.31l.07.21,1,2.51c0,.14.1.28.16.42l1.42,3.74.31.83.23.6.07.17-14,33.67s19.53,23.65,31.53,27.05,28.12-8.42,31.7-13.26a20.45,20.45,0,0,0,3.76-10.39L263.49,333.5S267.3,324.43,270.86,315.28Z" style="fill:#92E3A9"></path><g style="clip-path:url(#freepik--clip-path-2--inject-40)"><path d="M263.49,333.5s3.81-9.07,7.37-18.22a36.76,36.76,0,0,1-2.31-2.9,9.56,9.56,0,0,0-2.09,2.45s-2.18,6.3-6,9.69-10.41,1.69-14.53,1.21-9.68,3.39-13.55-3.87c-3.79-7.09-7.11-11.86-10.86-11-1.45,2.55-2.81,4.67-3.81,6.17,0,.19-.08.39-.11.59.16.42.32.85.49,1.28.05.12.09.25.14.37.18.46.35.91.52,1.36l.05.12c.61,1.62,1.22,3.2,1.79,4.69v0c.17.45.34.89.51,1.31l.07.21,1,2.51c0,.14.1.28.16.42l1.42,3.74c.12.33.23.6.31.83l.23.6.07.17L217,352.76c0,.44.26.52.79.08,2.66-2.17,8.71-6.29,13.56-2.9s8.47,9.92,16.7,6.29,9-11.62,14.53-10.65a18.46,18.46,0,0,1,6,2.4Z" style="opacity:0.15"></path></g><path d="M270.86,315.28c-3.36-3.78-7.6-10.25-7.52-17.92a153.62,153.62,0,0,1,.84-17.57c-1.18-.27-2.32-.53-3.35-.79-1,6.11-4.24,19-14.77,19.16-11,.21-13.73-13.78-14.41-19.59-.6.19-1.23.37-1.86.54h0c-.63.17-1.27.32-1.91.47,5.75,12.15-6.15,31.53-10.39,37.8.19.52.39,1,.59,1.55.05.12.09.25.14.37.18.46.35.91.52,1.36l.05.12c.61,1.62,1.22,3.2,1.79,4.69v0c.17.45.34.89.51,1.31l.07.21,1,2.51c0,.14.1.28.16.42l1.42,3.74.31.83.23.6.07.17-14,33.67s19.53,23.65,31.53,27.05,28.12-8.42,31.7-13.26a20.45,20.45,0,0,0,3.76-10.39L263.49,333.5S267.3,324.43,270.86,315.28Z" style="fill:none;stroke:#263238;stroke-linecap:round;stroke-linejoin:round"></path><path d="M266.26,250.25a.3.3,0,0,0-.13,0c1.85-7-.06-16-3.35-21.73-4.3-7.52-9.14-11.64-12.9-11.64s-5,4.12-5,4.12-2-4.3-7.88-4.48-15.22,22.21-14.15,31.71,9.85,14.33,19.17,15.4,15.58-.89,21.31-7.7a13,13,0,0,0,1.79-2.81c-.94,3.45-3.13,9.52-7.22,11.68a.5.5,0,0,0-.2.68.49.49,0,0,0,.44.26.46.46,0,0,0,.23-.05c6.24-3.31,8.24-14.4,8.32-14.87A.5.5,0,0,0,266.26,250.25Z" style="fill:#263238"></path><path d="M240.69,222.17s-3.66-3.66-6.65,1.66-12,21-8.65,26.63" style="fill:none;stroke:#fff;stroke-linecap:round;stroke-linejoin:round"></path><path d="M246.68,223.83s1-3.32,6-2.66,12.5,14.18,13,21.63" style="fill:none;stroke:#fff;stroke-linecap:round;stroke-linejoin:round"></path><path d="M232.5,247.88s-1.25-3-2.32.18,1.25,6.09,2.32,7,1.8-.71,1.44-1.79S232.5,247.88,232.5,247.88Z" style="fill:#fff;stroke:#263238;stroke-linecap:round;stroke-linejoin:round"></path><path d="M257.76,247.88s1.25-3,2.32.18-1.25,6.09-2.32,7-1.8-.71-1.44-1.79S257.76,247.88,257.76,247.88Z" style="fill:#fff;stroke:#263238;stroke-linecap:round;stroke-linejoin:round"></path><path d="M243.43,222.62s-3.58,1.26-7.16,8.06A32.83,32.83,0,0,0,233,252.89c1.61,7.71,7.35,12.18,12.9,12.54s11.1-7,12.18-12.89-1.79-19.35-5.2-24.9A10.64,10.64,0,0,0,243.43,222.62Z" style="fill:#fff"></path><g style="clip-path:url(#freepik--clip-path-3--inject-40)"><path d="M256.8,241.48c0,8.57-.56,18-8,20.46s-11.61-5.25-13.55-11.89c-1.65-5.67-.47-14.2.06-17.32A32.65,32.65,0,0,0,233,252.89c1.61,7.71,7.35,12.18,12.9,12.54s11.1-7,12.18-12.89c.61-3.36-.05-9.13-1.36-14.51C256.78,239.09,256.8,240.23,256.8,241.48Z" style="fill:#92E3A9"></path><path d="M256.8,241.48c0,8.57-.56,18-8,20.46s-11.61-5.25-13.55-11.89c-1.65-5.67-.47-14.2.06-17.32A32.65,32.65,0,0,0,233,252.89c1.61,7.71,7.35,12.18,12.9,12.54s11.1-7,12.18-12.89c.61-3.36-.05-9.13-1.36-14.51C256.78,239.09,256.8,240.23,256.8,241.48Z" style="fill:#fff;opacity:0.5"></path><path d="M243.43,222.62s-.46,6.69,4,9.73,8,2.21,8,2.21S245.55,222.58,243.43,222.62Z" style="fill:#92E3A9"></path><path d="M243.43,222.62s-.46,6.69,4,9.73,8,2.21,8,2.21S245.55,222.58,243.43,222.62Z" style="fill:#fff;opacity:0.5"></path></g><path d="M243.43,222.62s-3.58,1.26-7.16,8.06A32.83,32.83,0,0,0,233,252.89c1.61,7.71,7.35,12.18,12.9,12.54s11.1-7,12.18-12.89-1.79-19.35-5.2-24.9A10.64,10.64,0,0,0,243.43,222.62Z" style="fill:none;stroke:#263238;stroke-linecap:round;stroke-linejoin:round"></path><path d="M246.48,240.54a3.76,3.76,0,0,0,0,2.15c.35,1.07,2.86,1.25,2.15,2.68a5.59,5.59,0,0,1-2,2.15" style="fill:none;stroke:#263238;stroke-linecap:round;stroke-linejoin:round"></path><line x1="244.68" y1="252.18" x2="247.19" y2="252.18" style="fill:none;stroke:#263238;stroke-linecap:round;stroke-linejoin:round"></line><path d="M249,241.61s2.33-1.43,4.3,0" style="fill:none;stroke:#263238;stroke-linecap:round;stroke-linejoin:round"></path><path d="M237.34,241.61s2.33-1.43,4.3,0" style="fill:none;stroke:#263238;stroke-linecap:round;stroke-linejoin:round"></path><path d="M235.73,237.31a5.88,5.88,0,0,1,6.27-1.25" style="fill:none;stroke:#263238;stroke-linecap:round;stroke-linejoin:round"></path><path d="M247.73,236.24s2.69-2.15,6.09.36" style="fill:none;stroke:#263238;stroke-linecap:round;stroke-linejoin:round"></path><path d="M243.43,222.62a93.24,93.24,0,0,0,8.06,8.6,12,12,0,0,0,8.78,3.23s-3-6.63-8.24-10.21S243.43,222.62,243.43,222.62Z" style="fill:#263238;stroke:#263238;stroke-linecap:round;stroke-linejoin:round"></path><path d="M218.14,281.94s-7.44-1.06-10.63,5.32-6.65,38.28-6.65,38.28-4,2.66-8.5,5.32-13.3,8.24-17.81,9.84-8.51,2.92-8.51,2.92a37.84,37.84,0,0,1-2.66-5.58c-.27-1.33-3.19-1.86-4.52-3.19s-3.19-3.46-3.19-1.33-.27,3.45,1.86,4.25,3.72,3.72,3.72,3.72-11.69-.13-10.9.93a19.68,19.68,0,0,0,5.85,5.19,30,30,0,0,0,13.56,3.45c4.79,0,35.09-9.83,37.48-12.49s10.11-30.84,10.11-30.84" style="fill:#fff"></path><g style="clip-path:url(#freepik--clip-path-4--inject-40)"><path d="M163.76,350.36a28.94,28.94,0,0,0,6,.7c4.79,0,35.09-9.83,37.48-12.49s10.11-30.84,10.11-30.84l.11-3.69-2.43-3.1s-9.12,29.59-10.78,32.36-20.75,10.23-29.87,13.55C170.4,348.3,166.69,349.48,163.76,350.36Z" style="fill:#92E3A9"></path><path d="M163.76,350.36a28.94,28.94,0,0,0,6,.7c4.79,0,35.09-9.83,37.48-12.49s10.11-30.84,10.11-30.84l.11-3.69-2.43-3.1s-9.12,29.59-10.78,32.36-20.75,10.23-29.87,13.55C170.4,348.3,166.69,349.48,163.76,350.36Z" style="fill:#fff;opacity:0.5"></path></g><path d="M218.14,281.94s-7.44-1.06-10.63,5.32-6.65,38.28-6.65,38.28-4,2.66-8.5,5.32-13.3,8.24-17.81,9.84-8.51,2.92-8.51,2.92a37.84,37.84,0,0,1-2.66-5.58c-.27-1.33-3.19-1.86-4.52-3.19s-3.19-3.46-3.19-1.33-.27,3.45,1.86,4.25,3.72,3.72,3.72,3.72-11.69-.13-10.9.93a19.68,19.68,0,0,0,5.85,5.19,30,30,0,0,0,13.56,3.45c4.79,0,35.09-9.83,37.48-12.49s10.11-30.84,10.11-30.84" style="fill:none;stroke:#263238;stroke-linecap:round;stroke-linejoin:round"></path><path d="M152.31,344.35a8.44,8.44,0,0,1-2.56-1.83c-.74-1-1.35-4.4-.74-5.74s6.47-3.91,6.47-3.91a5.21,5.21,0,0,1,.25,2.44c-.25,1.1-4,2.69-4,2.69l1.34,4.88" style="fill:#fff;stroke:#263238;stroke-linecap:round;stroke-linejoin:round"></path><path d="M155.73,344.23a3.7,3.7,0,0,1-1.95-3.42c.12-1.47-.13-4.64-1.1-5.25s-1.83,5.13-1.83,6.59,2.44,3.54,2.44,3.54a19.85,19.85,0,0,1,2,1.22" style="fill:#fff;stroke:#263238;stroke-linecap:round;stroke-linejoin:round"></path><path d="M158.66,346.91a3.68,3.68,0,0,1-1.95-3.42c.12-1.46-.13-4.64-1.1-5.25s-1.83,5.13-1.83,6.6,1.83,2.81,1.83,2.81c-.44,0,.82.71,3.29,1.46" style="fill:#fff;stroke:#263238;stroke-linecap:round;stroke-linejoin:round"></path><path d="M161.87,347.22a3.28,3.28,0,0,1-2.31-2.58c-.16-1.28-1-4-1.91-4.3s-.63,4.74-.36,6,2.75,2.59,2.75,2.59a16.48,16.48,0,0,1,1.9.69" style="fill:#fff;stroke:#263238;stroke-linecap:round;stroke-linejoin:round"></path><path d="M268.34,281.94s7.44-1.06,10.63,5.32,6.65,38.28,6.65,38.28,4,2.66,8.5,5.32,13.29,8.24,17.81,9.84,8.51,2.92,8.51,2.92A37.84,37.84,0,0,0,323.1,338c.27-1.33,3.19-1.86,4.52-3.19s3.19-3.46,3.19-1.33.27,3.45-1.86,4.25-3.72,3.72-3.72,3.72,11.69-.13,10.9.93a19.68,19.68,0,0,1-5.85,5.19,30,30,0,0,1-13.56,3.45c-4.79,0-35.09-9.83-37.48-12.49s-10.11-30.84-10.11-30.84" style="fill:#fff"></path><g style="clip-path:url(#freepik--clip-path-5--inject-40)"><path d="M279.24,338.57c2.39,2.66,32.69,12.49,37.48,12.49a26.81,26.81,0,0,0,3.64-.27,37,37,0,0,1-9.08-3.11c-6.91-3.59-26.83-11.34-29-14.66s-6.91-25.16-9.68-26.82-.83,10.23-.83,10.23v.46C274.2,325.37,277.75,336.91,279.24,338.57Z" style="fill:#92E3A9"></path><path d="M279.24,338.57c2.39,2.66,32.69,12.49,37.48,12.49a26.81,26.81,0,0,0,3.64-.27,37,37,0,0,1-9.08-3.11c-6.91-3.59-26.83-11.34-29-14.66s-6.91-25.16-9.68-26.82-.83,10.23-.83,10.23v.46C274.2,325.37,277.75,336.91,279.24,338.57Z" style="fill:#fff;opacity:0.5"></path></g><path d="M268.34,281.94s7.44-1.06,10.63,5.32,6.65,38.28,6.65,38.28,4,2.66,8.5,5.32,13.29,8.24,17.81,9.84,8.51,2.92,8.51,2.92A37.84,37.84,0,0,0,323.1,338c.27-1.33,3.19-1.86,4.52-3.19s3.19-3.46,3.19-1.33.27,3.45-1.86,4.25-3.72,3.72-3.72,3.72,11.69-.13,10.9.93a19.68,19.68,0,0,1-5.85,5.19,30,30,0,0,1-13.56,3.45c-4.79,0-35.09-9.83-37.48-12.49s-10.11-30.84-10.11-30.84" style="fill:none;stroke:#263238;stroke-linecap:round;stroke-linejoin:round"></path><path d="M334.17,344.35a8.44,8.44,0,0,0,2.56-1.83c.74-1,1.35-4.4.74-5.74s-6.47-3.91-6.47-3.91a5.21,5.21,0,0,0-.25,2.44c.25,1.1,4,2.69,4,2.69l-1.34,4.88" style="fill:#fff;stroke:#263238;stroke-linecap:round;stroke-linejoin:round"></path><path d="M330.75,344.23a3.7,3.7,0,0,0,1.95-3.42c-.12-1.47.13-4.64,1.1-5.25s1.83,5.13,1.83,6.59-2.44,3.54-2.44,3.54a19.85,19.85,0,0,0-1.95,1.22" style="fill:#fff;stroke:#263238;stroke-linecap:round;stroke-linejoin:round"></path><path d="M327.82,346.91a3.68,3.68,0,0,0,1.95-3.42c-.12-1.46.13-4.64,1.1-5.25s1.83,5.13,1.83,6.6-1.83,2.81-1.83,2.81c.44,0-.82.71-3.29,1.46" style="fill:#fff;stroke:#263238;stroke-linecap:round;stroke-linejoin:round"></path><path d="M324.61,347.22a3.28,3.28,0,0,0,2.31-2.58c.16-1.28,1-4,1.91-4.3s.63,4.74.36,6-2.75,2.59-2.75,2.59a16.48,16.48,0,0,0-1.9.69" style="fill:#fff;stroke:#263238;stroke-linecap:round;stroke-linejoin:round"></path><path d="M273.52,382.75a20.45,20.45,0,0,0,3.76-10.39l-3-8.49c-24.54,4.3-52.18,1-61.69-.42L210.29,369s19.53,23.65,31.53,27.05S269.94,387.59,273.52,382.75Z" style="fill:#fff"></path><g style="clip-path:url(#freepik--clip-path-6--inject-40)"><path d="M273.52,382.75a20.45,20.45,0,0,0,3.76-10.39l-3-8.49c-24.54,4.3-52.18,1-61.69-.42L210.29,369s19.53,23.65,31.53,27.05S269.94,387.59,273.52,382.75Z" style="opacity:0.30000000000000004"></path></g><path d="M273.52,382.75a20.45,20.45,0,0,0,3.76-10.39l-3-8.49c-24.54,4.3-52.18,1-61.69-.42L210.29,369s19.53,23.65,31.53,27.05S269.94,387.59,273.52,382.75Z" style="fill:none;stroke:#263238;stroke-linecap:round;stroke-linejoin:round"></path><path d="M257.72,381.87s20.95-17.81,38.28-24.66c0,0,17.54-8.46,21.16-1.81s-13.5,26.6-18.94,30-18.34,9.88-27.2,11.69-19,2.29-24.39-.61" style="fill:#fff"></path><g style="clip-path:url(#freepik--clip-path-7--inject-40)"><path d="M257.11,381.79s21.56-17.73,38.89-24.58c0,0,17.54-8.46,21.16-1.81s-13.5,26.6-18.94,30-18.34,9.88-27.2,11.69-19,2.29-24.39-.61" style="opacity:0.30000000000000004"></path><path d="M251.32,396.38s15.95-1.52,29.88-7.35,18.48-6.83,18.48-6.83-10.38,8.86-18.74,12.4a64.23,64.23,0,0,1-24.81,4.82A34.79,34.79,0,0,1,243,396.88Z" style="opacity:0.30000000000000004"></path></g><path d="M257.72,381.87s20.95-17.81,38.28-24.66c0,0,17.54-8.46,21.16-1.81s-13.5,26.6-18.94,30-18.34,9.88-27.2,11.69-19,2.29-24.39-.61" style="fill:none;stroke:#263238;stroke-linecap:round;stroke-linejoin:round"></path><path d="M241.24,393.61s19.08-6.75,30.48-18.38,33.49-25.12,40.94-23.73,9.3,4.42,6.51,13-14.89,20-26.28,23.73-32.8,7.67-41.41,9.3-12.8,3.72-23.26,3.72-21.64-.69-24.66-6.74,1.86-5.82,12.56-3.72A213.13,213.13,0,0,0,241.24,393.61Z" style="fill:#fff"></path><g style="clip-path:url(#freepik--clip-path-8--inject-40)"><path d="M241.24,393.61s19.08-6.75,30.48-18.38,33.49-25.12,40.94-23.73,9.3,4.42,6.51,13-14.89,20-26.28,23.73-32.8,7.67-41.41,9.3-12.8,3.72-23.26,3.72-21.64-.69-24.66-6.74,1.86-5.82,12.56-3.72A213.13,213.13,0,0,0,241.24,393.61Z" style="opacity:0.30000000000000004"></path><path d="M317.15,352.57s1.52,5.57-4,13.42-29.12,17-42,21.78-32.16,8.35-32.16,8.35l10.64,1.78s34.26-5.61,43.34-9.64,18.19-10.87,23.25-17.46S324,356.37,317.15,352.57Z" style="opacity:0.30000000000000004"></path></g><path d="M241.24,393.61s19.08-6.75,30.48-18.38,33.49-25.12,40.94-23.73,9.3,4.42,6.51,13-14.89,20-26.28,23.73-32.8,7.67-41.41,9.3-12.8,3.72-23.26,3.72-21.64-.69-24.66-6.74,1.86-5.82,12.56-3.72A213.13,213.13,0,0,0,241.24,393.61Z" style="fill:none;stroke:#263238;stroke-linecap:round;stroke-linejoin:round"></path><path d="M241.17,393.6a209.7,209.7,0,0,1-25-2.78c-10.7-2.1-15.59-2.33-12.56,3.72s14.19,6.74,24.66,6.74a58,58,0,0,0,14.66-1.77A10.83,10.83,0,0,1,241.17,393.6Z" style="fill:#fff"></path><g style="clip-path:url(#freepik--clip-path-9--inject-40)"><path d="M241.17,393.6a209.7,209.7,0,0,1-25-2.78c-10.7-2.1-15.59-2.33-12.56,3.72s14.19,6.74,24.66,6.74a58,58,0,0,0,14.66-1.77A10.83,10.83,0,0,1,241.17,393.6Z" style="fill:#92E3A9"></path><path d="M241.17,393.6a209.7,209.7,0,0,1-25-2.78c-10.7-2.1-15.59-2.33-12.56,3.72s14.19,6.74,24.66,6.74a58,58,0,0,0,14.66-1.77A10.83,10.83,0,0,1,241.17,393.6Z" style="fill:#fff;opacity:0.5"></path></g><path d="M241.17,393.6a209.7,209.7,0,0,1-25-2.78c-10.7-2.1-15.59-2.33-12.56,3.72s14.19,6.74,24.66,6.74a58,58,0,0,0,14.66-1.77A10.83,10.83,0,0,1,241.17,393.6Z" style="fill:none;stroke:#263238;stroke-linecap:round;stroke-linejoin:round"></path><path d="M235.28,381.12c-13.73-11.4-47.54-34-55.92-34s-11.63,9.54-11.63,9.54-.93,3.49,6.05,10.23,28.38,24.9,45.13,29.32,20.94,2.32,20.94,2.32" style="fill:#fff"></path><g style="clip-path:url(#freepik--clip-path-10--inject-40)"><path d="M235.89,381.05c-13.72-11.4-48.15-34-56.53-34s-11.63,9.54-11.63,9.54-.93,3.49,6.05,10.23,28.38,24.9,45.13,29.32,20.94,2.32,20.94,2.32" style="opacity:0.30000000000000004"></path></g><path d="M235.28,381.12c-13.73-11.4-47.54-34-55.92-34s-11.63,9.54-11.63,9.54-.93,3.49,6.05,10.23,28.38,24.9,45.13,29.32,20.94,2.32,20.94,2.32" style="fill:none;stroke:#263238;stroke-linecap:round;stroke-linejoin:round"></path><path d="M186.69,356.71s17.55,7.85,23.6,12.25,19.79,17.2,27.23,21.16,14.19,6.74,19.31,6.74,29.77-3.25,33.73-1.16-2.09,7-7.44,8.84S258,402.21,251,401.75s-30.47-3.72-46.75-9.31-34.67-26.75-36.76-30.7,1.75-8.25,1.75-8.25" style="fill:#fff"></path><g style="clip-path:url(#freepik--clip-path-11--inject-40)"><path d="M187.27,356.62s17,7.94,23,12.34,19.79,17.2,27.23,21.16,14.19,6.74,19.31,6.74,29.77-3.25,33.73-1.16-2.09,7-7.44,8.84S258,402.21,251,401.75s-30.47-3.72-46.75-9.31-34.67-26.75-36.76-30.7,3-8.84,3-8.84" style="opacity:0.30000000000000004"></path><path d="M168.26,354.09s1.27,6.33,11.14,14.18,49.89,23.8,60,26.33,17.72,2.54,18.48,3,1.77,4.31-2.53,4.56-22.79-1-39.25-4.81-32.92-14.94-39-20.76S166,364.22,165.48,360.17A6.42,6.42,0,0,1,168.26,354.09Z" style="opacity:0.30000000000000004"></path></g><path d="M186.69,356.71s17.55,7.85,23.6,12.25,19.79,17.2,27.23,21.16,14.19,6.74,19.31,6.74,29.77-3.25,33.73-1.16-2.09,7-7.44,8.84S258,402.21,251,401.75s-30.47-3.72-46.75-9.31-34.67-26.75-36.76-30.7,1.75-8.25,1.75-8.25" style="fill:none;stroke:#263238;stroke-linecap:round;stroke-linejoin:round"></path><path d="M290.56,395.7c-4-2.09-28.61,1.16-33.73,1.16a17.22,17.22,0,0,1-2.42-.19,10.06,10.06,0,0,1-1.48,5.26c8.15.92,25.26,4.32,30.19,2.61C288.47,402.68,294.51,397.79,290.56,395.7Z" style="fill:#fff"></path><g style="clip-path:url(#freepik--clip-path-12--inject-40)"><path d="M290.56,395.7c-4-2.09-28.61,1.16-33.73,1.16a17.22,17.22,0,0,1-2.42-.19,10.06,10.06,0,0,1-1.48,5.26c8.15.92,25.26,4.32,30.19,2.61C288.47,402.68,294.51,397.79,290.56,395.7Z" style="fill:#92E3A9"></path><path d="M290.56,395.7c-4-2.09-28.61,1.16-33.73,1.16a17.22,17.22,0,0,1-2.42-.19,10.06,10.06,0,0,1-1.48,5.26c8.15.92,25.26,4.32,30.19,2.61C288.47,402.68,294.51,397.79,290.56,395.7Z" style="fill:#fff;opacity:0.5"></path></g><path d="M290.56,395.7c-4-2.09-28.61,1.16-33.73,1.16a17.22,17.22,0,0,1-2.42-.19,10.06,10.06,0,0,1-1.48,5.26c8.15.92,25.26,4.32,30.19,2.61C288.47,402.68,294.51,397.79,290.56,395.7Z" style="fill:none;stroke:#263238;stroke-linecap:round;stroke-linejoin:round"></path><path d="M234.83,262.39A190.79,190.79,0,0,1,220.68,276c-9.31,8.24-8.77,28.12-5.91,33.67s9.67,5.92,10.57,10.57,3,13.08,7.34,16.84,13.26,6.27,15-8.6-4-27.36-8.13-34.53-2.44-30.85-2.44-30.85Z" style="fill:#263238;stroke:#263238;stroke-linecap:round;stroke-linejoin:round"></path><path d="M223.28,282.33c-4.79,6.94-8.38,15.58-2.89,22.37,5.66,7,18.31,17,18,24.63s-6.32,5-8.32-1.34" style="fill:none;stroke:#fff;stroke-linecap:round;stroke-linejoin:round"></path><path d="M235.37,263.44c-.65,4.35-3.3,8.32-6.18,11.53-.9,1-1.87,2.11-2.87,3.33" style="fill:none;stroke:#fff;stroke-linecap:round;stroke-linejoin:round"></path><path d="M244.07,319.67a14.62,14.62,0,0,1,1,4" style="fill:none;stroke:#fff;stroke-linecap:round;stroke-linejoin:round"></path><path d="M235,271.42s-8.66,10.65-7,23c1.25,9.26,9.65,14.76,14.17,21.73" style="fill:none;stroke:#fff;stroke-linecap:round;stroke-linejoin:round"></path></g></svg>