<svg
              width="1em"
              height="1em"
              viewBox="0 0 56 56"
              fill="none"
              xmlns="http://www.w3.org/2000/svg"
              class="sc-ab580b4e-4 kULxSs"
            >
              <path
                d="M25.963 52.935c-2.89 0-5.533-.494-7.928-1.482-2.396-.974-4.47-2.336-6.222-4.088-1.737-1.752-3.085-3.803-4.043-6.154-.944-2.351-1.415-4.897-1.415-7.637 0-2.785.486-5.398 1.46-7.839.988-2.456 2.358-4.59 4.11-6.401a17.626 17.626 0 0 1 6.065-4.156c.524-.194.973-.262 1.347-.202.375.06.674.21.899.45.434.508.426 1.212-.023 2.11-.344.72-.636 1.7-.876 2.943A21.95 21.95 0 0 0 19 24.387c0 3.28.674 6.132 2.022 8.558 1.362 2.41 3.28 4.275 5.75 5.593 2.486 1.317 5.398 1.976 8.737 1.976 1.303 0 2.47-.09 3.504-.27a15.476 15.476 0 0 0 2.83-.785c.404-.165.771-.225 1.1-.18.33.03.592.142.787.337.21.224.337.524.382.898.045.36-.03.779-.225 1.258-1.018 2.336-2.403 4.335-4.155 5.997-1.752 1.677-3.796 2.958-6.132 3.841s-4.882 1.325-7.637 1.325Zm.045-3.414c1.887 0 3.676-.254 5.368-.764a16.505 16.505 0 0 0 4.605-2.178 13.25 13.25 0 0 0 3.481-3.347c-.479.165-1.145.307-1.999.427-.853.105-1.79.157-2.807.157-3.759 0-7.06-.771-9.906-2.313-2.845-1.543-5.06-3.699-6.648-6.47-1.587-2.77-2.381-5.996-2.381-9.68 0-1.093.075-2.156.225-3.19.15-1.047.359-1.938.629-2.672a16.766 16.766 0 0 0-3.617 3.728 17.406 17.406 0 0 0-2.358 4.717 17.28 17.28 0 0 0-.831 5.368c0 2.306.39 4.448 1.168 6.424a15.664 15.664 0 0 0 3.347 5.144c1.452 1.467 3.174 2.605 5.165 3.414 1.992.823 4.178 1.235 6.56 1.235Zm12.084-38.273c.345 0 .629.104.854.314.224.21.337.487.337.831 0 .374-.113.666-.337.876-.225.21-.51.315-.854.315h-7.57c-.374 0-.68-.105-.92-.315a1.13 1.13 0 0 1-.337-.83c0-.226.045-.435.135-.63.105-.21.27-.471.494-.786l5.3-6.873v-.112h-4.806c-.344 0-.629-.105-.854-.315-.224-.21-.336-.494-.336-.853 0-.345.112-.622.337-.831.224-.21.509-.315.853-.315h7.187c.375 0 .682.105.921.315.255.194.382.464.382.808 0 .195-.052.397-.157.607-.105.21-.27.471-.494.786l-5.233 6.895v.113h5.098Zm10.512 8.602c.748 0 1.123.367 1.123 1.1 0 .345-.105.615-.315.81-.21.194-.479.291-.808.291h-5.84c-.344 0-.629-.097-.854-.292a1.04 1.04 0 0 1-.314-.763c0-.225.045-.434.135-.63.09-.209.24-.448.449-.718l3.684-4.851v-.09h-3.235c-.314 0-.576-.098-.786-.292-.21-.21-.314-.487-.314-.831 0-.33.104-.592.314-.787.21-.21.472-.314.786-.314h5.503c.345 0 .63.097.854.292.24.195.359.457.359.786 0 .195-.052.397-.157.607-.09.194-.24.434-.45.718L45.01 19.76v.09h3.594Zm-9.905 7.682c.703 0 1.055.344 1.055 1.033 0 .33-.097.591-.292.786-.194.18-.449.27-.763.27H33.51c-.33 0-.599-.098-.808-.292a.976.976 0 0 1-.292-.719c0-.21.037-.404.112-.584.09-.195.24-.427.449-.696l3.122-4.178v-.09h-2.695c-.3 0-.554-.09-.764-.27-.195-.194-.292-.464-.292-.808 0-.3.097-.547.292-.741.21-.195.464-.292.764-.292h4.829c.33 0 .606.09.83.27.225.179.338.434.338.763 0 .18-.045.367-.135.561-.09.18-.24.412-.45.697l-3.166 4.2v.09h3.055Z"
                fill="#48b4a0"
              ></path>
            </svg>