<?xml version="1.0" encoding="UTF-8" standalone="no"?>
<!DOCTYPE svg PUBLIC "-//W3C//DTD SVG 1.1//EN" "http://www.w3.org/Graphics/SVG/1.1/DTD/svg11.dtd">
<svg width="100%" height="100%" viewBox="0 0 2481 2481" version="1.1" xmlns="http://www.w3.org/2000/svg"
     xml:space="preserve"
     style="fill-rule:evenodd;clip-rule:evenodd;stroke-linejoin:round;stroke-miterlimit:2;">
    <g transform="matrix(3.65462,2.22045e-16,-2.22045e-16,3.65462,-664.612,-3203.38)">
        <path d="M720.415,1391.36C707.344,1446.15 678.649,1504.86 657.43,1515.72C629.388,1530.08 565.145,1510.6 514.905,1487.31C526.715,1474.5 534.442,1458.57 537.397,1441.64C538.584,1434.85 534.03,1428.36 527.234,1427.18C520.437,1425.99 513.956,1430.55 512.77,1437.34C509.38,1456.76 497.32,1474.38 478.528,1484C446.59,1500.35 407.306,1487.44 390.833,1455.26C374.36,1423.09 386.853,1383.67 418.792,1367.32C426.281,1363.48 434.174,1361.25 442.084,1360.51C448.953,1359.86 454.005,1353.76 453.359,1346.89C452.713,1340.03 446.612,1334.97 439.744,1335.62C428.761,1336.65 417.798,1339.74 407.399,1345.06C394.076,1351.88 383.186,1361.6 375.095,1373.08C339.929,1346.82 312.77,1312.79 289.866,1268.05C222.805,1137.06 255.323,986.191 362.439,931.352C469.555,876.514 610.964,938.341 678.026,1069.33C703.091,1118.29 715.544,1162.93 714.189,1210.85C702.957,1211.81 691.733,1214.92 681.1,1220.36C670.702,1225.69 661.788,1232.78 654.529,1241.08C649.989,1246.28 650.521,1254.18 655.716,1258.72C660.911,1263.26 668.814,1262.73 673.354,1257.54C678.582,1251.55 685.004,1246.45 692.493,1242.62C724.431,1226.27 763.715,1239.18 780.188,1271.35C796.661,1303.53 784.168,1342.95 752.23,1359.3C733.437,1368.92 712.092,1368.4 694.358,1359.8C688.151,1356.79 680.667,1359.39 677.656,1365.59C674.645,1371.8 677.24,1379.28 683.447,1382.3C694.963,1387.88 707.577,1391 720.415,1391.36ZM631.743,1468.64C638.887,1464.98 647.553,1460.31 650.586,1466.24C653.62,1472.16 649.879,1486.45 642.735,1490.11C635.592,1493.77 623.106,1487.94 620.073,1482.01C617.04,1476.09 624.6,1472.3 631.743,1468.64Z" style="fill:rgb(130,43,85);"/>
    </g>
</svg>
