<svg xmlns="http://www.w3.org/2000/svg" width="35" height="35" viewBox="0 0 35 35">
  <defs>
    <style>.a{fill:none;}.b{fill:#EC407A;}</style>
  </defs>
  <rect class="a" width="35" height="35" />
  <path class="b"
    d="M17,1.27a3,3,0,0,0-.33,4.29,3,3,0,0,0,.87.67.57.57,0,0,1,.25.75.58.58,0,0,1-.76.26A4.11,4.11,0,0,1,15,5,12.89,12.89,0,0,0,9.24,8.14c-4.8,4.25-6,10.8-2.86,14.92a7.06,7.06,0,0,0-1.56,3.27,3.67,3.67,0,0,0,1,3.16c1.61,1.68,3.75,1.24,5.47.89,1.16-.23,2.24-.45,2.89,0s.61.68.63.78c.37,1.64-1,2.44-1.34,2.85a.26.26,0,0,0,.2.42,3.66,3.66,0,0,0,2.16-.71,3,3,0,0,0,1-2.86c0-.09,0-.18-.06-.28a3.29,3.29,0,0,0-1.5-1.94c-1.36-.86-3-.53-4.42-.24-1.71.34-2.8.5-3.56-.3a1.57,1.57,0,0,1-.43-1.43,4.68,4.68,0,0,1,1-2.08c3.8,3,10,2.36,14.47-1.64A13.21,13.21,0,0,0,26,18a4.06,4.06,0,0,1-2.37-2.41.56.56,0,0,1,1.06-.38,3.09,3.09,0,0,0,.56.94,2.95,2.95,0,1,0,2-4.9.57.57,0,0,1-.59-.51.56.56,0,0,1,.5-.62,4.11,4.11,0,0,1,2.26.47C29.84,8.12,30,5.08,29,4c-.72-.81-3.61-1.41-6.16-1.36a4,4,0,0,1,0,1.72.57.57,0,0,1-1.11-.23A3,3,0,0,0,20.42,1,3,3,0,0,0,17,1.27ZM28.07,5A.9.9,0,0,1,28,6c-.22.2-.47-.09-.72-.36s-.54-.6-.31-.8A1,1,0,0,1,28.07,5Z" />
</svg>