<?xml version="1.0" encoding="UTF-8" standalone="no"?>
<!-- Uploaded to: SVG Repo, www.svgrepo.com, Generator: SVG Repo Mixer Tools -->

<svg
   height="800"
   width="800"
   version="1.1"
   id="Layer_1"
   viewBox="0 0 502.6132 502.613"
   xml:space="preserve"
   sodipodi:docname="icon-sm.svg"
   inkscape:version="1.3.2 (091e20ef0f, 2023-11-25)"
   xmlns:inkscape="http://www.inkscape.org/namespaces/inkscape"
   xmlns:sodipodi="http://sodipodi.sourceforge.net/DTD/sodipodi-0.dtd"
   xmlns="http://www.w3.org/2000/svg"
   xmlns:svg="http://www.w3.org/2000/svg"><defs
   id="defs5"><rect
     x="762.96729"
     y="48.444126"
     width="3352.4978"
     height="956.22705"
     id="rect6" /></defs><sodipodi:namedview
   id="namedview5"
   pagecolor="#ffffff"
   bordercolor="#000000"
   borderopacity="0.25"
   inkscape:showpageshadow="2"
   inkscape:pageopacity="0.0"
   inkscape:pagecheckerboard="0"
   inkscape:deskcolor="#d1d1d1"
   showgrid="false"
   inkscape:zoom="0.5175"
   inkscape:cx="261.83575"
   inkscape:cy="461.83575"
   inkscape:window-width="1906"
   inkscape:window-height="1026"
   inkscape:window-x="1927"
   inkscape:window-y="47"
   inkscape:window-maximized="1"
   inkscape:current-layer="Layer_1" />
<g
   transform="translate(9,1)"
   id="g5">
	<path
   style="fill:#ff3636;fill-opacity:1"
   d="m 280.28,138.946 v 0 l -5.973,128 v 0 c -9.387,-5.973 -19.627,-8.533 -31.573,-8.533 -11.947,0 -22.187,3.413 -31.573,8.533 v 0 L 207.746,139.8 v -0.853 h 72.534 z m 141.653,0 -34.133,324.267 c -2.56,19.627 -15.36,34.133 -34.133,34.133 h -29.013 l 34.133,-358.4 h 45.227 z M 128.386,139.8 160.813,497.347 H 131.8 c -18.773,0 -31.573,-14.507 -34.133,-34.133 L 63.533,138.946 h 23.04 41.813 z m 86.187,231.253 c 8.533,4.267 17.92,6.827 28.16,6.827 10.24,0 19.627,-2.56 28.16,-6.827 v 0 l -5.12,126.293 h -47.787 z"
   id="path1" />
	<path
   style="fill:#d2e5eb;fill-opacity:1"
   d="m 270.893,371.053 v 0 c 18.773,-10.24 31.573,-30.72 31.573,-52.907 0,-21.333 -11.093,-40.107 -28.16,-51.2 v 0 L 280.28,139.8 v -0.853 h 78.507 l -34.133,358.4 h -58.027 z m -56.32,0 4.267,126.293 H 160.813 L 128.387,139.8 v -0.853 h 3.413 75.947 v 0.853 l 3.413,127.147 v 0 c -17.067,10.24 -28.16,29.013 -28.16,51.2 0,23.039 12.8,42.666 31.573,52.906 z"
   id="path2" />
	<g
   id="g4">
		<path
   style="fill:#f2edda"
   d="m 242.733,258.413 c 33.28,0 59.733,26.453 59.733,59.733 0,33.28 -26.453,59.733 -59.733,59.733 -33.28,0 -59.733,-26.453 -59.733,-59.733 0,-33.28 26.453,-59.733 59.733,-59.733"
   id="path3" />
		<path
   style="fill:#f9e976;fill-opacity:1"
   d="M 131.8,138.946 H 86.573 v -0.853 c -22.187,-9.387 -23.04,-33.28 -23.04,-33.28 0,-14.507 11.093,-25.6 25.6,-25.6 3.413,0 5.973,0.853 8.533,1.707 0,-0.853 0,-0.853 0,-1.707 0,-14.507 11.093,-25.6 25.6,-25.6 3.413,0 6.827,0.853 10.24,1.707 -0.853,-3.413 -1.707,-6.827 -1.707,-10.24 0,-23.893 18.773,-42.667 42.667,-42.667 17.92,0 33.28,11.093 39.253,27.307 4.267,-5.973 11.947,-10.24 20.48,-10.24 10.24,0 19.627,6.827 23.893,15.36 C 268.333,15.213 287.96,2.413 311,2.413 c 33.28,0 59.733,26.453 59.733,59.733 V 63 c 2.56,-0.853 5.973,-0.853 8.533,-0.853 23.893,0 42.667,18.773 42.667,42.667 0,0 -0.853,21.333 -17.92,34.133 v 0 H 131.8 Z"
   id="path4" />
	</g>
</g>
<path
   style="fill:#000000;fill-opacity:1"
   d="M 362.666,502.613 H 140.8 c -19.627,0 -34.987,-15.36 -38.4,-37.547 L 68.266,140.8 c 0,-0.853 0,-2.56 0.853,-3.413 0.853,-0.853 1.707,-1.707 3.413,-1.707 H 140.8 c 11.947,0 21.333,-9.387 21.333,-21.333 0,-11.946 -9.387,-21.333 -21.333,-21.333 -2.56,0 -4.267,-1.707 -4.267,-4.267 0,-2.56 1.707,-4.267 4.267,-4.267 16.213,0 29.867,13.653 29.867,29.867 0,16.214 -13.653,29.867 -29.867,29.867 H 77.653 l 33.28,319.147 c 2.56,18.773 14.507,30.72 29.867,30.72 h 221.867 c 15.36,0 27.307,-11.947 29.867,-30.72 l 33.28,-319.147 H 192 c -2.56,0 -4.267,-1.707 -4.267,-4.267 0,-2.56 1.707,-4.267 4.267,-4.267 h 238.933 c 0.853,0 2.56,0.853 3.413,1.707 0.853,0.853 0.853,1.707 0.853,3.413 l -34.133,324.267 c -3.413,22.186 -18.773,37.546 -38.4,37.546 z m -25.6,-34.133 v 0 c -2.56,0 -4.267,-1.707 -4.267,-4.267 v 0 l 25.6,-290.133 c 0,-2.56 2.56,-4.267 4.267,-4.267 2.56,0 4.267,1.707 4.267,4.267 v 0 l -25.6,290.133 c 0,2.56 -1.707,4.267 -4.267,4.267 z m -170.666,0 c -2.56,0 -4.267,-1.707 -4.267,-4.267 l -25.6,-290.133 v 0 c 0,-2.56 1.707,-4.267 4.267,-4.267 2.56,0 4.267,1.707 4.267,4.267 l 25.6,290.133 v 0 c -0.001,2.56 -1.707,4.267 -4.267,4.267 z m 59.733,0 c -2.56,0 -4.267,-1.707 -4.267,-4.267 l -2.56,-90.453 c -18.773,-11.093 -31.573,-31.573 -31.573,-55.467 0,-22.187 11.093,-40.96 28.16,-52.907 l -2.56,-92.16 v 0 c 0,-2.56 1.707,-4.267 4.267,-4.267 v 0 c 2.56,0 4.267,1.707 4.267,4.267 l 2.56,87.04 c 17.067,-7.68 38.4,-7.68 55.467,0 l 2.56,-87.04 c 0,-2.56 2.56,-4.267 4.267,-4.267 2.56,0 4.267,1.707 4.267,4.267 v 0 l -2.56,92.16 c 17.067,11.947 28.16,30.72 28.16,52.907 0,23.04 -12.8,44.373 -31.573,55.467 l -2.56,90.453 c 0,2.56 -1.707,4.267 -4.267,4.267 -2.56,0 -4.267,-1.707 -4.267,-4.267 v 0 l 2.56,-85.333 c -14.507,5.973 -33.28,5.973 -47.787,0 l 2.56,85.333 v 0 c -0.854,2.56 -2.561,4.267 -5.121,4.267 z M 196.266,319.146 c 0,30.72 24.747,55.467 55.467,55.467 30.72,0 55.467,-24.747 55.467,-55.467 0,-30.72 -24.747,-55.467 -55.467,-55.467 -30.72,0 -55.467,24.747 -55.467,55.467 z M 430.933,110.08 c -2.56,0 -4.267,-1.707 -4.267,-4.267 0,-21.333 -17.067,-38.4 -38.4,-38.4 -2.56,0 -5.12,0 -7.68,0.853 -0.853,0 -2.56,0 -3.413,-0.853 C 376.32,66.56 375.466,65.706 375.466,64 v -0.853 c 0,-30.72 -24.747,-55.467 -55.467,-55.467 -21.333,0 -40.107,11.947 -49.493,30.72 -0.853,1.707 -2.56,2.56 -4.267,2.56 -1.707,0 -3.413,-0.853 -3.413,-2.56 -3.413,-7.68 -11.093,-12.8 -19.627,-12.8 -6.827,0 -12.8,3.413 -17.067,8.533 -0.853,0.853 -2.56,1.707 -4.267,1.707 -1.707,0 -2.56,-0.853 -3.413,-2.56 -5.973,-14.507 -19.627,-24.747 -35.84,-24.747 -21.333,0 -38.4,17.067 -38.4,38.4 0,2.56 0,5.973 1.707,9.387 0,1.707 0,3.413 -1.707,4.267 -0.853,0.853 -2.56,1.707 -4.267,0.853 -2.56,-0.853 -5.12,-1.707 -8.533,-1.707 -11.947,0 -21.333,9.387 -21.333,21.333 0,0 0,0.853 0,1.707 0,1.707 -0.853,2.56 -1.707,3.413 -0.854,0.853 -2.56,0.853 -4.267,0.853 -2.56,-0.853 -5.12,-1.707 -6.827,-1.707 -11.947,0 -21.333,9.387 -21.333,21.333 0,2.56 -1.707,4.267 -4.267,4.267 -2.56,0 -4.267,-1.707 -4.267,-4.267 0,-17.92 16.213,-32.427 34.133,-29.867 1.707,-14.507 14.507,-25.6 29.867,-25.6 1.707,0 3.413,0 4.267,0 0,-1.707 0,-3.413 0,-4.267 C 135.68,21.333 157.013,0 182.613,0 c 17.067,0 32.427,9.387 40.96,23.893 5.12,-4.267 11.947,-6.827 18.773,-6.827 9.387,0 17.92,4.267 23.893,11.093 C 278.187,10.24 297.813,0 319.147,0 c 34.133,0 61.44,26.453 64,59.733 1.707,0 2.56,0 4.267,0 25.6,0 46.933,21.333 46.933,46.933 0.853,1.707 -0.854,3.414 -3.414,3.414 z m -68.267,0 c -2.56,0 -4.267,-1.707 -4.267,-4.267 0,-11.947 9.387,-21.333 21.333,-21.333 2.56,0 4.267,1.707 4.267,4.267 0,2.56 -1.707,4.267 -4.267,4.267 -6.827,0 -12.8,5.973 -12.8,12.8 10e-4,2.559 -1.706,4.266 -4.266,4.266 z m -68.266,0 c -11.947,0 -21.333,-9.387 -21.333,-21.333 0,-2.56 1.707,-4.267 4.267,-4.267 2.56,0 4.267,1.707 4.267,4.267 0,6.827 5.973,12.8 12.8,12.8 2.56,0 4.267,1.707 4.267,4.267 0,2.56 -1.708,4.266 -4.268,4.266 z m -85.334,-8.534 c -2.56,0 -4.267,-1.707 -4.267,-4.267 0,-16.213 13.653,-29.867 29.867,-29.867 2.56,0 4.267,1.707 4.267,4.267 0,2.56 -1.707,4.267 -4.267,4.267 -11.947,0 -21.333,9.387 -21.333,21.333 0,2.561 -1.707,4.267 -4.267,4.267 z M 337.92,85.333 c -0.853,0 -2.56,0 -3.413,-0.853 -1.707,-1.707 -1.707,-4.267 0,-5.973 8.533,-8.533 8.533,-22.187 0,-29.867 -8.533,-8.533 -22.187,-8.533 -29.867,0 -1.707,1.707 -4.267,1.707 -5.973,0 -1.707,-1.707 -1.707,-4.267 0,-5.973 11.947,-11.947 30.72,-11.947 42.667,0 11.947,11.947 11.947,30.72 0,41.813 -0.854,0.853 -2.561,0.853 -3.414,0.853 z M 174.933,58.88 c -2.56,0 -4.267,-1.707 -4.267,-4.267 0,-11.947 9.387,-21.333 21.333,-21.333 2.56,0 4.267,1.707 4.267,4.267 0,2.56 -1.707,4.267 -4.267,4.267 -6.827,0 -12.8,5.973 -12.8,12.8 10e-4,2.559 -1.706,4.266 -4.266,4.266 z"
   id="path5" />
<text
   xml:space="preserve"
   style="font-style:normal;font-variant:normal;font-weight:normal;font-stretch:normal;font-size:149.557px;font-family:'DejaVu Sans';-inkscape-font-specification:'DejaVu Sans, Normal';font-variant-ligatures:normal;font-variant-caps:normal;font-variant-numeric:normal;font-variant-east-asian:normal;letter-spacing:-15.4231px;word-spacing:-50.5316px;text-orientation:sideways;fill:#000000;fill-opacity:1;stroke:none;stroke-width:0;stroke-linecap:round;stroke-linejoin:round;stroke-dasharray:none;stroke-opacity:0.974181"
   x="205.04312"
   y="360.38998"
   id="text5"><tspan
     sodipodi:role="line"
     id="tspan5"
     style="font-style:normal;font-variant:normal;font-weight:normal;font-stretch:normal;font-size:149.557px;font-family:'DejaVu Sans';-inkscape-font-specification:'DejaVu Sans, Normal';font-variant-ligatures:normal;font-variant-caps:normal;font-variant-numeric:normal;font-variant-east-asian:normal;fill:#000000;fill-opacity:1;stroke:none;stroke-width:0;stroke-dasharray:none"
     x="205.04312"
     y="360.38998">c</tspan></text></svg>
