<svg width="122" height="107" viewBox="0 0 122 107" fill="none" xmlns="http://www.w3.org/2000/svg">
<path fill-rule="evenodd" clip-rule="evenodd" d="M101.35 0C102.074 0 102.723 0.44595 102.983 1.12179L106.107 9.2425C106.886 11.2692 107.178 11.9931 107.602 12.5884C108.003 13.1532 108.497 13.6467 109.062 14.0484C109.657 14.4717 110.381 14.7638 112.408 15.5433L120.528 18.6666C121.204 18.9266 121.65 19.5759 121.65 20.3C121.65 21.0241 121.204 21.6734 120.528 21.9334L112.408 25.0567C110.381 25.8362 109.657 26.1283 109.062 26.5516C108.497 26.9533 108.003 27.4468 107.602 28.0116C107.178 28.6069 106.886 29.3308 106.107 31.3575L102.983 39.4782C102.723 40.154 102.074 40.6 101.35 40.6C100.626 40.6 99.9766 40.1541 99.7167 39.4782L96.5933 31.3575C95.8138 29.3308 95.5217 28.6069 95.0984 28.0116C94.6968 27.4468 94.2033 26.9533 93.6384 26.5516C93.0431 26.1283 92.3193 25.8362 90.2925 25.0567L82.1718 21.9334C81.496 21.6734 81.05 21.0241 81.05 20.3C81.05 19.5759 81.496 18.9266 82.1718 18.6666L90.2925 15.5433C92.3193 14.7638 93.0431 14.4717 93.6384 14.0484C94.2033 13.6467 94.6968 13.1532 95.0984 12.5884C95.5217 11.9931 95.8138 11.2692 96.5933 9.24249L99.7167 1.12179C99.9766 0.445951 100.626 0 101.35 0ZM101.35 6.62494L99.86 10.4989L99.7799 10.7075C99.11 12.4504 98.6617 13.6169 97.9508 14.6166C97.3224 15.5003 96.5503 16.2724 95.6666 16.9008C94.6669 17.6116 93.5004 18.06 91.7575 18.7298L91.549 18.81L87.675 20.3L91.549 21.79L91.7575 21.8701C93.5004 22.54 94.6669 22.9883 95.6666 23.6992C96.5504 24.3276 97.3224 25.0997 97.9508 25.9834C98.6617 26.9831 99.11 28.1496 99.7799 29.8926L99.86 30.1011L101.35 33.9751L102.84 30.1011L102.92 29.8926C103.59 28.1496 104.038 26.9831 104.749 25.9834C105.378 25.0997 106.15 24.3276 107.033 23.6992C108.033 22.9884 109.2 22.54 110.943 21.8702L111.151 21.79L115.025 20.3L111.151 18.81L110.943 18.7299C109.2 18.06 108.033 17.6117 107.033 16.9008C106.15 16.2724 105.378 15.5003 104.749 14.6166C104.038 13.6169 103.59 12.4504 102.92 10.7075L102.84 10.4989L101.35 6.62494ZM78.825 29.15C79.4879 29.15 80.0938 29.5245 80.3903 30.1174L82.4691 34.275C83.2024 35.7416 83.4725 36.265 83.8151 36.7096C84.1403 37.1315 84.5186 37.5097 84.9405 37.8349C85.385 38.1775 85.9084 38.4477 87.375 39.1809L91.5326 41.2598C92.1255 41.5562 92.5 42.1622 92.5 42.825C92.5 43.4879 92.1255 44.0938 91.5326 44.3902L87.375 46.4691C85.9084 47.2024 85.385 47.4725 84.9405 47.8151C84.5186 48.1403 84.1403 48.5186 83.8151 48.9404C83.4725 49.385 83.2024 49.9084 82.4691 51.375L80.3903 55.5326C80.0938 56.1255 79.4879 56.5 78.825 56.5C78.1622 56.5 77.5562 56.1255 77.2598 55.5326L75.181 51.375C74.4477 49.9084 74.1776 49.385 73.8349 48.9404C73.5097 48.5186 73.1315 48.1403 72.7096 47.8151C72.2651 47.4725 71.7416 47.2024 70.275 46.4691L66.1174 44.3902C65.5245 44.0938 65.15 43.4879 65.15 42.825C65.15 42.1622 65.5245 41.5562 66.1174 41.2598L70.275 39.1809C71.7416 38.4477 72.2651 38.1775 72.7096 37.8349C73.1315 37.5097 73.5097 37.1315 73.8349 36.7096C74.1776 36.265 74.4477 35.7416 75.181 34.275L77.2598 30.1174C77.5562 29.5245 78.1622 29.15 78.825 29.15ZM78.825 34.8131L78.3115 35.8403L78.2367 35.9898L78.2367 35.9898C77.6049 37.2539 77.1818 38.1005 76.607 38.8463C76.0982 39.5064 75.5064 40.0981 74.8463 40.6069C74.1005 41.1818 73.2539 41.6049 71.9898 42.2367L71.8403 42.3114L70.8131 42.825L71.8403 43.3386L71.9897 43.4133C73.2539 44.0451 74.1005 44.4682 74.8463 45.0431C75.5064 45.5519 76.0982 46.1436 76.607 46.8037C77.1818 47.5495 77.6049 48.3961 78.2367 49.6602L78.3115 49.8097L78.825 50.8369L79.3386 49.8097L79.4133 49.6602C80.0451 48.3961 80.4682 47.5495 81.0431 46.8037C81.5519 46.1436 82.1436 45.5519 82.8037 45.0431C83.5495 44.4682 84.3961 44.0451 85.6603 43.4133L85.8098 43.3386L86.8369 42.825L85.8098 42.3114L85.6603 42.2367C84.3961 41.6049 83.5495 41.1818 82.8037 40.6069C82.1436 40.0981 81.5519 39.5064 81.0431 38.8463C80.4683 38.1006 80.0452 37.254 79.4135 35.99L79.4134 35.99L79.4133 35.9898L79.3386 35.8403L78.825 34.8131ZM3.79147 6.29159C5.99502 4.08804 8.98368 2.8501 12.1 2.8501H72.1C73.0665 2.8501 73.85 3.6336 73.85 4.6001C73.85 5.5666 73.0665 6.3501 72.1 6.3501H12.1C9.91194 6.3501 7.81352 7.21929 6.26634 8.76647C4.71917 10.3136 3.84998 12.4121 3.84998 14.6001V27.8501H50.1C51.0665 27.8501 51.85 28.6336 51.85 29.6001C51.85 30.5666 51.0665 31.3501 50.1 31.3501H3.84998V94.6001C3.84998 96.7881 4.71917 98.8866 6.26634 100.434C7.81352 101.981 9.91194 102.85 12.1 102.85H102.1C104.288 102.85 106.386 101.981 107.934 100.434C109.481 98.8866 110.35 96.7881 110.35 94.6001V54.6001C110.35 53.6336 111.133 52.8501 112.1 52.8501C113.066 52.8501 113.85 53.6336 113.85 54.6001V94.6001C113.85 97.7164 112.612 100.705 110.408 102.909C108.205 105.112 105.216 106.35 102.1 106.35H12.1C8.98368 106.35 5.99503 105.112 3.79147 102.909C1.58792 100.705 0.349976 97.7164 0.349976 94.6001V29.6001V14.6001C0.349976 11.4838 1.58792 8.49515 3.79147 6.29159ZM28.3374 48.3627C27.654 47.6792 26.546 47.6792 25.8625 48.3627C25.1791 49.0461 25.1791 50.1541 25.8625 50.8375L39.6251 64.6001L25.8625 78.3627C25.1791 79.0461 25.1791 80.1541 25.8625 80.8375C26.546 81.521 27.654 81.521 28.3374 80.8375L43.3374 65.8375C43.6656 65.5093 43.85 65.0642 43.85 64.6001C43.85 64.136 43.6656 63.6908 43.3374 63.3627L28.3374 48.3627ZM51.1 77.8501C50.1335 77.8501 49.35 78.6336 49.35 79.6001C49.35 80.5666 50.1335 81.3501 51.1 81.3501H88.1C89.0665 81.3501 89.85 80.5666 89.85 79.6001C89.85 78.6336 89.0665 77.8501 88.1 77.8501H51.1Z" fill="currentColor"/>
</svg>
