<?xml version="1.0" encoding="UTF-8" standalone="no"?><!DOCTYPE svg PUBLIC "-//W3C//DTD SVG 1.1//EN"
        "http://www.w3.org/Graphics/SVG/1.1/DTD/svg11.dtd">
<svg width="100%" height="100%" viewBox="0 0 8334 8334" version="1.1" xmlns="http://www.w3.org/2000/svg"
     xml:space="preserve" xmlns:serif="http://www.serif.com/"
     style="fill-rule:evenodd;clip-rule:evenodd;stroke-linecap:round;stroke-linejoin:round;stroke-miterlimit:1.5;"><rect id="Artboard1" x="0" y="0" width="8333.33" height="8333.33" style="fill:none;"/>
    <g id="Artboard11" serif:id="Artboard1"><path d="M6704.64,5442.87c0,0 86.043,-302.173 104.69,-529.386c19.688,-239.901 -50.935,-768.158 -50.935,-768.158c0,0 187.792,342.217 247.387,472.256c42.515,92.767 110.187,307.976 110.187,307.976c0,0 113.357,-101.342 176.458,-134.501c76.569,-40.236 282.957,-106.916 282.957,-106.916c0,0 -265.02,346.516 -335.924,505.81c-58.326,131.038 -121.396,434.337 -121.396,434.337l-254.034,106.626l-159.39,-288.044Z" style="fill:#4e4e4e;stroke:#000;stroke-width:41.67px;"/>
        <path d="M3678.53,6751.72c0,0 -158.375,-117.844 -254.491,-224.05c-101.483,-112.137 -268.099,-402.609 -268.099,-402.609c0,0 37.089,242.447 57.05,330.079c14.24,62.515 62.715,195.716 62.715,195.716c0,0 -95.262,-7.236 -139.406,0.335c-53.566,9.187 -181.987,54.786 -181.987,54.786c0,0 264.589,71.576 360.819,123.939c79.16,43.074 226.507,170.258 226.507,170.258l167.449,-43.881l-30.557,-204.573Z"
              style="fill:#4e4e4e;stroke:#000;stroke-width:41.67px;"/>
        <path d="M4500.92,6611.5c0,0 26.306,117.505 70.463,228.086c26.494,66.348 73.597,125.2 85.589,168.694c26.692,96.81 22.297,217.404 47.63,314.579c26.232,100.62 109.759,289.142 109.759,289.142c0,0 -63.07,27.089 -84.132,47.526c-22.941,22.262 -53.519,86.042 -53.519,86.042c0,0 -97.494,-176.281 -192.746,-278.529c-121.765,-130.708 -297.048,-240.346 -440.805,-381.537c-130.562,-128.231 -456.282,-539.337 -456.282,-539.337c0,0 28.816,103.745 43.051,143.031c11.571,31.936 42.355,92.685 42.355,92.685c0,0 -83.808,-57.115 -128.883,-75.506c-45.074,-18.391 -141.564,-34.841 -141.564,-34.841c0,0 59.625,55.441 78.698,79.369c16.208,20.333 35.74,64.198 35.74,64.198l-206.999,-42.538l176.324,124.229c0,0 -81.906,30.835 -120.021,39.074c-42.88,9.27 -149.071,16.052 -149.071,16.052c0,0 146.136,49.162 209.783,64.794c59.129,14.523 186.561,45.646 233.379,80.18c76.154,56.172 178.359,160.115 298.285,312.531c96.064,122.09 151.591,228.639 230.7,318.415c112.588,127.77 168.091,212.426 317.864,308.108c27.947,17.854 132.356,97.243 215.579,114.43c84.695,17.491 142.739,1.5 142.739,1.5c0,0 105.505,145.87 228.513,52.494c224.103,-170.118 17.868,-308.745 17.868,-308.745c0,0 -94.669,-304.257 -107.709,-482.348c-8.874,-121.21 -35.815,-306.235 -35.815,-306.235c0,0 103.699,-166.305 34.202,-300.165l-500.975,-195.378Z"
              style="fill:#9b7161;stroke:#000;stroke-width:41.67px;"/>
        <g><circle cx="2297.66" cy="2821.12" r="369.289" style="fill:#fff;stroke:#000;stroke-width:41.67px;"/>
            <path d="M1928.47,2821.58l-0.089,0.037c0,0 2.448,-106.423 51.917,-186.794c50.227,-81.603 73.936,-98.974 139.294,-138.647c67.43,-40.929 152.252,-44.712 178.078,-43.848c25.827,0.863 71.662,-1.786 149.537,29.399c77.875,31.184 112.612,81.878 112.612,81.878l-0.008,0.003l0.008,0c0,0 -80.507,-0.194 -168.584,13.765c-63.398,10.048 -130.72,30.693 -174.761,48.689c-40.337,16.482 -96.514,44.549 -144.98,78.46c-77.962,54.549 -143.024,117.058 -143.024,117.058c-0.052,0.063 -0.082,0.075 -0.089,0.037l0.089,-0.037Z"
                  style="fill:#9b7161;stroke:#000;stroke-width:20.83px;"/>
            <ellipse cx="2199.78" cy="2905.17" rx="141.997" ry="151.594" style="stroke:#000;stroke-width:20.83px;"/>
            <ellipse cx="2232.26" cy="2905.17" rx="66.399" ry="66.022" style="fill:#fff;"/></g>
        <g><path d="M2810.4,1465.9c0,0 368.201,-683.95 623.624,-891.154c111.804,-90.698 278.067,-258.772 494.776,-347.826c276.053,-113.44 623.999,-117.846 796.284,-75.318c170.523,42.093 358.684,143.823 509.844,292.813c121.452,119.71 225.085,263.575 293.839,390.837c136.381,252.439 194.92,521.196 199.978,808.075c5.303,300.714 -168.163,996.214 -168.163,996.214c0,0 45.744,-813.893 -38.541,-1115.03c-74.999,-267.96 -255.13,-551.917 -467.171,-691.807c-109.153,-72.011 -440.995,-212.188 -710.967,-168.926c-254.479,40.78 -449.261,261.749 -501.69,306.685c-91.615,78.524 -329.741,408.591 -329.741,408.591l-702.072,86.849Z" style="fill:#ffd090;stroke:#000;stroke-width:41.67px;"/>
            <path d="M5693.7,1937.38c0,0 -44.997,17.871 -107.186,8.761"
                  style="fill:none;stroke:#000;stroke-width:20.83px;"/>
            <path d="M5644.64,1105.87c0,0 -55.045,113.429 -222.857,150.124"
                  style="fill:none;stroke:#000;stroke-width:20.83px;"/>
            <path d="M3269.33,730.03c0,0 570.801,-54.911 858.161,309.842"
                  style="fill:none;stroke:#000;stroke-width:20.83px;"/>
            <path d="M4089.73,178.697c0,0 439.743,195.768 450.487,637.486"
                  style="fill:none;stroke:#000;stroke-width:20.83px;"/></g>
        <g><path d="M5659.4,6861.88c-211.066,130.691 -483.995,164.548 -729.712,127.372c-205.62,-31.109 -500.384,-141.228 -680.987,-486.911c-149.428,-286.011 -94.162,-641.847 90.578,-1115.7c117.293,-300.849 212.342,-726.755 86.435,-1189.41c0,0 -421.375,248.122 -778.114,75.229c0,0 -1553.92,2438.07 -2873.6,549.814l-0.255,-0.28l1.178,-0.909c59.948,-46.321 1653.92,-1204.66 1706.79,-2474.78c53.868,-1294.33 2897.91,-1767.05 2811.01,457.627c-17.339,443.915 -111.03,789.949 -161.65,1072.09c-79.313,442.067 -117.439,727.267 -85.066,986.323c27.902,223.288 72.445,502.182 284.786,770.33c126.323,159.523 364.837,266.767 549.489,489.415c2.926,3.528 5.618,7.89 8.075,13.033c22.385,36.602 86.83,145.189 136.282,260.389c36.5,85.029 47.26,182.065 76.111,232.882c64.216,113.108 178.686,219.527 244.481,331.724c68.128,116.175 164.286,365.327 164.286,365.327c0,0 82.571,-32.951 120.577,-33.523c41.399,-0.623 127.815,29.785 127.815,29.785c0,0 -72.156,-250.733 -78.563,-431.611c-8.19,-231.224 51.93,-492.165 54.28,-753.131c2.134,-237.011 -76.065,-911.824 -76.065,-911.824c0,0 68.622,121.405 91.565,170.421c18.651,39.846 46.094,123.674 46.094,123.674c0,0 24.446,-129.062 48.884,-187.186c24.438,-58.124 97.741,-161.559 97.741,-161.559c0,0 -3.832,105.382 0.614,144.764c3.778,33.465 26.064,91.528 26.064,91.528l150.619,-228.536l-47.71,275.257c0,0 103.252,-46.773 145.705,-74.134c47.761,-30.782 151.225,-121.824 151.225,-121.824c0,0 -88.812,178.861 -132.786,251.468c-40.852,67.453 -129.054,212.664 -140.305,287.168c-18.3,121.19 -16.709,309.988 13.047,559.407c23.836,199.794 70.564,348.229 80.333,502.901c13.903,220.128 40.603,348.491 -8.935,573.287c-9.244,41.947 -32.158,210.276 -92.636,302.234c-61.548,93.587 -129.352,132.1 -129.352,132.1c0,0 36.968,230.218 -161.205,257.356c-361.041,49.442 -299.123,-266.395 -299.123,-266.395c0,0 -191.949,-365.352 -343.109,-540.396c-102.881,-119.136 -247.66,-313.262 -247.66,-313.262c0,0 -153.274,-35.54 -247.23,-141.533Z" style="fill:#9b7161;stroke:#000;stroke-width:41.67px;"/>
            <path d="M4431.69,4193.55c0,0 230.289,-132.62 294.544,-358.088"
                  style="fill:none;stroke:#000;stroke-width:41.67px;"/></g>
        <g><path d="M3262.26,1478.61c0,0 598.674,-764.046 943.114,-994.549c156.225,-104.548 394.726,-270.743 681.388,-341.388c365.16,-89.991 799.625,-30.71 1006.43,54.364c204.686,84.205 420.252,246.017 580.907,459.843c129.08,171.802 231.456,370.393 293.453,541.798c122.978,340.002 126.058,662.4 78.958,1020.88c-49.371,375.767 -375.187,1233.72 -375.187,1233.72c0,0 208.522,-1005.84 159.537,-1396.84c-43.588,-347.919 -215.224,-735.346 -453.449,-949.163c-122.631,-110.066 -519.765,-359.564 -861.348,-314.546c-379.625,50.032 -828.589,514.951 -880.363,584.883c-116.91,157.91 -199.841,259.82 -199.841,259.82c0,0 -387.023,78.527 -549.289,52.056c-155.88,-25.43 -424.306,-210.883 -424.306,-210.883Z" style="fill:#ffd090;stroke:#000;stroke-width:41.67px;"/>
            <path d="M6874.62,1842.59c0,0 -47.07,297.401 -237.69,289.066"
                  style="fill:none;stroke:#000;stroke-width:20.83px;"/>
            <path d="M6658.59,951.88c0,0 52.063,390.654 -187.44,567.073"
                  style="fill:none;stroke:#000;stroke-width:20.83px;"/>
            <path d="M5994.38,245.121c0,0 220.98,397.553 57.375,778.295"
                  style="fill:none;stroke:#000;stroke-width:20.83px;"/>
            <path d="M4887.78,147.911c0,0 439.744,195.768 450.488,637.486"
                  style="fill:none;stroke:#000;stroke-width:20.83px;"/>
            <path d="M3865.63,784.224c0,0 570.801,-54.911 858.161,309.843"
                  style="fill:none;stroke:#000;stroke-width:20.83px;"/></g>
        <g><path d="M1750.1,5131.94c410.247,150.121 826.812,-225.213 983.368,-653.044c86.607,-236.676 20.012,-426.129 -76.552,-586.125c-77.991,-129.223 -160.46,-208.443 -339.498,-311.18c56.887,225.91 52.49,547.551 -60.664,856.774c-113.154,309.224 -317.393,557.737 -506.654,693.575Z" style="stroke:#000;stroke-width:20.83px;"/>
            <path d="M2355.92,4086c54.561,-59.96 69.924,8.206 150.896,12.159c82.695,4.037 215.341,-15.765 250.98,63.032c22.732,50.257 19.308,157.064 -6.261,257.94c-14.52,57.283 -39.078,102.324 -62.82,159.753c-66.41,160.636 -231.213,347.93 -332.174,417.242c-70.747,48.57 -153.8,67.561 -228.258,40.736c-71.873,-25.895 -114.912,-41.257 -110.31,-117.514c4.934,-81.742 132.162,-227.963 187.478,-359.039c33.02,-78.246 67.712,-152.161 88.064,-247.724c15.502,-72.792 36.295,-197.89 62.405,-226.585Z"
                  style="fill:#fff;stroke:#000;stroke-width:20.83px;"/>
            <path d="M2244.1,3473.79c0,0 68.809,-187.948 249.764,-35.249"
                  style="fill:none;stroke:#000;stroke-width:20.83px;"/>
            <path d="M2506.82,4098.16c0,0 -36.36,577.093 -431.202,910.033"
                  style="fill:none;stroke:#000;stroke-width:20.83px;"/>
            <path d="M2226.41,4510.65c-12.613,19.689 83.139,215.637 451.206,94.912"
                  style="fill:none;stroke:#000;stroke-width:20.83px;"/>
            <path d="M2091.31,4766.39c0,0 77.108,212.976 395.797,114.781"
                  style="fill:none;stroke:#000;stroke-width:20.83px;"/>
            <path d="M2300.13,4289.83c-4.816,5.236 140.579,102.92 458.058,91.951"
                  style="fill:none;stroke:#000;stroke-width:20.83px;"/></g>
        <path d="M2199.31,6386.29c0,0 -150.753,-107.009 -267.642,-250.972c-84.839,-104.49 -144.045,-237.738 -152.558,-318.679c-9.407,-89.439 -38.016,-243.997 13.943,-350.495c59.848,-122.668 202.183,-204.254 284.807,-234.602c165.752,-60.882 420.642,-14.006 525.809,78.023c105.168,92.029 107.023,449.36 144.621,585.905c38.795,140.897 139.378,312.186 139.378,312.186c0,0 -149.25,-78.511 -203.89,-130.902c-53.268,-51.076 -123.95,-183.445 -123.95,-183.445c0,0 -2.963,228.563 17.27,334.191c20.232,105.628 130.639,300.723 130.639,300.723c0,0 -242.425,-105.847 -329.136,-188.781c-86.711,-82.934 -217.645,-309.968 -217.645,-309.968l38.354,356.816Z"
              style="fill:#84523f;stroke:#000;stroke-width:41.67px;"/>
        <g><circle cx="3136.82" cy="2579.04" r="437.968" style="fill:#fff;stroke:#000;stroke-width:41.67px;"/>
            <ellipse cx="3241.68" cy="2657.96" rx="168.405" ry="179.787" style="stroke:#000;stroke-width:20.83px;"/>
            <ellipse cx="3280.2" cy="2657.96" rx="78.748" ry="78.3" style="fill:#fff;"/>
            <path d="M2698.95,2579.6l-0.106,0.043c0,0 2.903,-126.215 61.572,-221.533c59.568,-96.779 87.687,-117.381 165.2,-164.431c79.97,-48.541 180.567,-53.027 211.196,-52.004c30.629,1.024 84.989,-2.117 177.346,34.867c92.358,36.984 133.556,97.105 133.556,97.105l-0.01,0.004l0.01,0c0,0 -95.479,-0.23 -199.936,16.325c-75.19,11.917 -155.031,36.402 -207.263,57.744c-47.839,19.547 -114.464,52.834 -171.943,93.051c-92.461,64.694 -169.622,138.829 -169.622,138.829c-0.062,0.074 -0.098,0.089 -0.106,0.043l0.106,-0.043Z"
                  style="fill:#9b7161;stroke:#000;stroke-width:20.83px;"/></g>
        <path d="M3447.72,1397.43c-75.569,-72.185 -338.32,-113.063 -502.452,-92.139c-173.329,22.096 -419.303,146.805 -555.171,243.339c-107.248,76.201 -233.238,286.062 -233.238,286.062c0,0 163.389,-107.627 236.962,-137.574c64.453,-26.236 237.834,-77.802 237.834,-77.802c0,0 -126.419,137.8 -170.062,209.705c-50.079,82.508 -130.411,327.784 -130.411,327.784c0,0 169.462,-215.453 260.547,-294.222c86.466,-74.776 285.961,-178.392 285.961,-178.392c0,0 -107.746,132.46 -137.369,202.444c-35.547,83.981 -75.912,301.44 -75.912,301.44c0,0 156.195,-224.674 218.82,-295.449c55.803,-63.065 218.686,-193.331 218.686,-193.331c0,0 -50.544,123.187 -56.289,177.934c-5.07,48.305 21.816,150.549 21.816,150.549c0,0 40.067,-92.536 123.305,-165.867c80.44,-70.867 282.256,-169.227 313.404,-220.859c50.281,-83.346 13.955,-176.388 -56.431,-243.622Z"
              style="fill:#84523f;stroke:#000;stroke-width:41.67px;"/>
        <g><path d="M757.947,4801.85l525.42,-448.687c0,0 156.918,137.205 227.34,224.539c73.433,91.068 137.689,295.767 137.689,295.767c0,0 -394.412,195.74 -555.414,179.453c-161.003,-16.287 -335.035,-251.072 -335.035,-251.072Z" style="fill:#4e4e4e;stroke:#000;stroke-width:41.67px;"/>
            <path d="M1344.06,4866.19c-6.452,-23.067 -59.164,-85.1 -82.231,-78.648l-48.671,14.196c-23.067,6.452 -30.908,83.49 -24.456,106.557l17.656,84.334c6.452,23.067 30.418,36.556 53.485,30.104l83.589,-23.381c23.067,-6.452 36.556,-30.418 30.104,-53.485l-29.476,-79.677Z"/></g></g></svg>