<?xml version="1.0" encoding="UTF-8" standalone="no"?><!DOCTYPE svg PUBLIC "-//W3C//DTD SVG 1.1//EN"
        "http://www.w3.org/Graphics/SVG/1.1/DTD/svg11.dtd">
<svg width="100%" height="100%" viewBox="0 0 2000 2000" version="1.1" xmlns="http://www.w3.org/2000/svg"
     xml:space="preserve" xmlns:serif="http://www.serif.com/"
     style="fill-rule:evenodd;clip-rule:evenodd;stroke-linecap:round;stroke-linejoin:round;stroke-miterlimit:1.5;"><rect id="Artboard2" x="0" y="0" width="2000" height="2000" style="fill:none;"/>
    <g id="Artboard21" serif:id="Artboard2"><path d="M1624.57,1327.21c0,0 21.174,-74.362 25.763,-130.277c4.845,-59.037 -12.535,-189.036 -12.535,-189.036c0,0 46.214,84.217 60.88,116.218c10.462,22.829 27.116,75.79 27.116,75.79c0,0 27.896,-24.94 43.424,-33.1c18.843,-9.901 69.633,-26.311 69.633,-26.311c0,0 -65.219,85.274 -82.667,124.475c-14.354,32.247 -29.875,106.886 -29.875,106.886l-62.515,26.24l-39.224,-70.885Z" style="fill:#4e4e4e;stroke:#000;stroke-width:10px;"/>
        <path d="M816.394,1606.9c0,0 -38.975,-29 -62.628,-55.136c-24.974,-27.596 -65.976,-99.078 -65.976,-99.078c0,0 9.127,59.663 14.039,81.229c3.504,15.384 15.434,48.163 15.434,48.163c0,0 -23.444,-1.78 -34.307,0.083c-13.182,2.261 -44.785,13.482 -44.785,13.482c0,0 65.113,17.615 88.794,30.5c19.481,10.601 55.741,41.899 55.741,41.899l41.208,-10.798l-7.52,-50.344Z"
              style="fill:#4e4e4e;stroke:#000;stroke-width:10px;"/>
        <path d="M1018.78,1572.39c0,0 6.474,28.916 17.34,56.129c6.52,16.328 18.112,30.811 21.063,41.514c6.569,23.824 5.487,53.501 11.721,77.415c6.455,24.762 27.011,71.155 27.011,71.155c0,0 -15.521,6.667 -20.704,11.696c-5.646,5.478 -13.171,21.174 -13.171,21.174c0,0 -23.992,-43.381 -47.433,-68.543c-29.965,-32.166 -73.1,-59.147 -108.478,-93.893c-32.13,-31.556 -112.286,-132.725 -112.286,-132.725c0,0 7.091,25.53 10.594,35.198c2.848,7.859 10.423,22.809 10.423,22.809c0,0 -20.624,-14.055 -31.716,-18.581c-11.093,-4.526 -34.838,-8.574 -34.838,-8.574c0,0 14.673,13.643 19.367,19.532c3.989,5.003 8.795,15.798 8.795,15.798l-50.94,-10.468l43.391,30.571c0,0 -20.156,7.589 -29.536,9.616c-10.552,2.281 -36.684,3.95 -36.684,3.95c0,0 35.962,12.099 51.625,15.946c14.551,3.574 45.911,11.233 57.432,19.731c18.741,13.824 43.893,39.403 73.405,76.911c23.641,30.045 37.305,56.266 56.773,78.359c27.707,31.443 41.366,52.276 78.224,75.822c6.877,4.394 32.571,23.931 53.051,28.16c20.843,4.305 35.127,0.369 35.127,0.369c0,0 25.964,35.897 56.235,12.918c55.149,-41.864 4.397,-75.978 4.397,-75.978c0,0 -23.297,-74.875 -26.506,-118.702c-2.184,-29.828 -8.814,-75.361 -8.814,-75.361c0,0 25.519,-40.926 8.417,-73.868l-123.285,-48.08Z"
              style="fill:#9b7161;stroke:#000;stroke-width:10px;"/>
        <g><circle cx="540.057" cy="682.023" r="90.878" style="fill:#fff;stroke:#000;stroke-width:10px;"/>
            <path d="M458.715,720.692l-0.015,0.017c0,0 -11.168,-23.696 -9.12,-46.831c2.081,-23.488 5.389,-29.92 15.412,-45.843c10.341,-16.428 28.598,-26.591 34.378,-29.242c5.78,-2.651 15.579,-8.276 36.152,-9.978c20.574,-1.702 33.797,5.636 33.797,5.636l-0.001,0.002l0.001,-0.001c0,0 -17.743,8.813 -35.597,21.575c-12.851,9.186 -25.399,21.136 -33.115,29.943c-7.066,8.065 -16.345,20.423 -23.284,33.22c-11.162,20.584 -18.608,41.502 -18.608,41.502c-0.004,0.019 -0.009,0.025 -0.015,0.017l0.015,-0.017Z"
                  style="fill:#9b7161;stroke:#000;stroke-width:5px;"/>
            <ellipse cx="515.969" cy="702.709" rx="34.944" ry="37.306" style="stroke:#000;stroke-width:5px;"/>
            <ellipse cx="523.961" cy="702.709" rx="16.34" ry="16.247" style="fill:#fff;"/></g>
        <g><path d="M666.235,348.519c0,0 90.611,-168.314 153.468,-219.304c27.514,-22.32 68.43,-63.682 121.76,-85.597c67.933,-27.916 153.56,-29.001 195.957,-18.535c41.964,10.359 88.269,35.393 125.468,72.059c29.888,29.459 55.391,64.863 72.311,96.181c33.562,62.122 47.968,128.261 49.212,198.859c1.305,74.003 -41.383,245.158 -41.383,245.158c0,0 11.257,-200.291 -9.484,-274.398c-18.457,-65.943 -62.785,-135.822 -114.967,-170.247c-26.861,-17.721 -108.524,-52.218 -174.962,-41.571c-62.624,10.035 -110.558,64.414 -123.46,75.472c-22.546,19.324 -81.147,100.55 -81.147,100.55l-172.773,21.373Z" style="fill:#ffd090;stroke:#000;stroke-width:10px;"/>
            <path d="M1375.79,464.544c0,0 -11.073,4.398 -26.377,2.156" style="fill:none;stroke:#000;stroke-width:5px;"/>
            <path d="M1363.72,259.917c0,0 -13.546,27.914 -54.843,36.944"
                  style="fill:none;stroke:#000;stroke-width:5px;"/>
            <path d="M779.175,167.427c0,0 140.469,-13.513 211.185,76.25"
                  style="fill:none;stroke:#000;stroke-width:5px;"/>
            <path d="M981.067,31.75c0,0 108.216,48.177 110.86,156.879" style="fill:none;stroke:#000;stroke-width:5px;"/></g>
        <g><path d="M1367.35,1676.41c-51.941,32.162 -119.106,40.493 -179.575,31.345c-50.601,-7.656 -123.139,-34.755 -167.584,-119.824c-36.773,-70.385 -23.172,-157.953 22.291,-274.562c28.864,-74.036 52.255,-178.847 21.27,-292.702c0,0 -103.696,61.06 -191.486,18.513c0,0 -382.405,599.985 -707.164,135.304l-0.062,-0.069l0.289,-0.224c14.753,-11.399 407.015,-296.455 420.023,-609.02c13.257,-318.521 713.147,-434.852 691.762,112.618c-4.267,109.243 -27.323,194.399 -39.78,263.83c-19.518,108.788 -28.901,178.973 -20.934,242.725c6.866,54.949 17.828,123.582 70.083,189.57c31.087,39.257 89.783,65.649 135.224,120.44c0.72,0.869 1.382,1.942 1.987,3.208c5.509,9.007 21.368,35.729 33.538,64.079c8.982,20.925 11.63,44.804 18.73,57.31c15.803,27.835 43.973,54.023 60.164,81.634c16.766,28.589 40.429,89.903 40.429,89.903c0,0 20.32,-8.109 29.673,-8.25c10.188,-0.153 31.454,7.33 31.454,7.33c0,0 -17.757,-61.703 -19.333,-106.215c-2.016,-56.902 12.779,-121.117 13.357,-185.338c0.526,-58.326 -18.718,-224.391 -18.718,-224.391c0,0 16.887,29.877 22.533,41.939c4.59,9.806 11.343,30.435 11.343,30.435c0,0 6.016,-31.761 12.03,-46.065c6.014,-14.304 24.053,-39.758 24.053,-39.758c0,0 -0.943,25.934 0.151,35.625c0.93,8.236 6.414,22.524 6.414,22.524l37.066,-56.24l-11.741,67.738c0,0 25.409,-11.51 35.857,-18.244c11.753,-7.575 37.215,-29.979 37.215,-29.979c0,0 -21.856,44.015 -32.678,61.883c-10.053,16.6 -31.759,52.335 -34.527,70.67c-4.504,29.823 -4.112,76.285 3.21,137.664c5.866,49.168 17.365,85.696 19.77,123.759c3.421,54.171 9.992,85.76 -2.199,141.081c-2.275,10.322 -7.914,51.746 -22.797,74.376c-15.146,23.031 -31.832,32.509 -31.832,32.509c0,0 9.097,56.654 -39.671,63.333c-88.849,12.167 -73.612,-65.558 -73.612,-65.558c0,0 -47.236,-89.909 -84.435,-132.986c-25.318,-29.318 -60.947,-77.091 -60.947,-77.091c0,0 -37.719,-8.745 -60.841,-34.829Z" style="fill:#9b7161;stroke:#000;stroke-width:10px;"/>
            <path d="M1065.22,1019.76c0,0 56.671,-32.636 72.484,-88.121"
                  style="fill:#9b7161;stroke:#000;stroke-width:10px;"/></g>
        <g><path d="M777.434,351.647c0,0 147.328,-188.025 232.091,-244.749c38.445,-25.729 97.138,-66.628 167.683,-84.013c89.862,-22.145 196.78,-7.557 247.671,13.379c50.372,20.722 103.42,60.542 142.956,113.163c31.765,42.279 56.959,91.15 72.216,133.331c30.264,83.671 31.021,163.01 19.431,251.228c-12.15,92.472 -92.33,303.607 -92.33,303.607c0,0 51.315,-247.526 39.26,-343.748c-10.726,-85.619 -52.964,-180.961 -111.589,-233.579c-30.178,-27.086 -127.909,-88.485 -211.969,-77.407c-93.422,12.313 -203.908,126.725 -216.649,143.934c-28.771,38.86 -49.179,63.939 -49.179,63.939c0,0 -95.243,19.325 -135.175,12.811c-38.36,-6.258 -104.417,-51.896 -104.417,-51.896Z" style="fill:#ffd090;stroke:#000;stroke-width:10px;"/>
            <path d="M1666.4,441.218c0,0 -11.583,73.187 -58.493,71.136"
                  style="fill:none;stroke:#000;stroke-width:5px;"/>
            <path d="M1613.24,222.022c0,0 12.812,96.137 -46.127,139.552"
                  style="fill:none;stroke:#000;stroke-width:5px;"/>
            <path d="M1449.78,48.096c0,0 54.381,97.834 14.12,191.531" style="fill:none;stroke:#000;stroke-width:5px;"/>
            <path d="M1177.46,24.174c0,0 108.216,48.176 110.86,156.879"
                  style="fill:none;stroke:#000;stroke-width:5px;"/>
            <path d="M925.918,180.764c0,0 140.469,-13.513 211.185,76.249"
                  style="fill:none;stroke:#000;stroke-width:5px;"/></g>
        <path d="M453.753,1536.9c0,0 -29.019,-35.039 -47.635,-76.704c-13.511,-30.242 -19.098,-65.686 -15.966,-85.469c3.46,-21.859 6.504,-60.42 25.638,-82.426c22.04,-25.347 61.07,-35.674 82.643,-37.626c43.277,-3.915 100.88,23.463 120.018,52.037c19.137,28.574 -3.181,113.631 -2.941,148.484c0.247,35.963 13.246,83.085 13.246,83.085c0,0 -30.476,-28.169 -40.127,-44.102c-9.409,-15.534 -17.78,-51.501 -17.78,-51.501c0,0 -15.262,54.142 -17.18,80.539c-1.919,26.397 11.899,79.804 11.899,79.804c0,0 -50.884,-40.601 -66.213,-65.838c-15.329,-25.236 -31.992,-87.543 -31.992,-87.543l-13.61,87.26Z"
              style="fill:#84523f;stroke:#000;stroke-width:10px;"/>
        <g><circle cx="746.564" cy="622.451" r="107.779" style="fill:#fff;stroke:#000;stroke-width:10px;"/>
            <ellipse cx="772.371" cy="641.873" rx="41.443" ry="44.244" style="stroke:#000;stroke-width:5px;"/>
            <ellipse cx="781.848" cy="641.873" rx="19.379" ry="19.269" style="fill:#fff;"/>
            <path d="M657.472,560.394l-0.028,-0.006c0,0 18.254,-25.141 43.471,-36.222c25.603,-11.251 34.178,-11.485 56.453,-10.159c22.981,1.369 43.97,14.541 50.027,19.036c6.056,4.494 17.498,11.467 31.016,31.88c13.517,20.414 13.44,38.349 13.44,38.349l-0.002,-0.001l0.002,0.002c0,0 -19.294,-13.411 -42.754,-24.681c-16.887,-8.113 -36.474,-14.332 -50.034,-17.323c-12.419,-2.74 -30.563,-5.328 -47.827,-5.233c-27.77,0.153 -53.764,4.358 -53.764,4.358c-0.023,0.006 -0.032,0.004 -0.028,-0.006l0.028,0.006Z"
                  style="fill:#9b7161;stroke:#000;stroke-width:5px;"/></g>
        <path d="M823.073,331.668c-18.596,-17.764 -83.257,-27.823 -123.648,-22.674c-42.654,5.437 -103.186,36.127 -136.622,59.883c-26.393,18.752 -57.398,70.397 -57.398,70.397c0,0 40.209,-26.486 58.314,-33.856c15.862,-6.456 58.529,-19.146 58.529,-19.146c0,0 -31.111,33.912 -41.851,51.607c-12.324,20.304 -32.093,80.664 -32.093,80.664c0,0 41.704,-53.021 64.119,-72.405c21.278,-18.402 70.372,-43.901 70.372,-43.901c0,0 -26.516,32.598 -33.805,49.82c-8.748,20.667 -18.682,74.181 -18.682,74.181c0,0 38.438,-55.29 53.85,-72.707c13.733,-15.52 53.816,-47.577 53.816,-47.577c0,0 -12.438,30.315 -13.852,43.788c-1.247,11.887 5.369,37.049 5.369,37.049c0,0 9.86,-22.773 30.344,-40.819c19.795,-17.439 69.46,-41.645 77.126,-54.351c12.373,-20.51 3.434,-43.407 -13.888,-59.953Z"
              style="fill:#84523f;stroke:#000;stroke-width:10px;"/>
        <g><path d="M161.148,1169.46l129.3,-110.417c0,0 38.616,33.764 55.946,55.256c18.071,22.411 33.884,72.786 33.884,72.786c0,0 -97.06,48.169 -136.682,44.161c-39.621,-4.008 -82.448,-61.786 -82.448,-61.786Z" style="fill:#4e4e4e;stroke:#000;stroke-width:10px;"/>
            <path d="M305.384,1185.3c-1.588,-5.676 -14.56,-20.942 -20.236,-19.354l-11.978,3.493c-5.676,1.588 -7.606,20.546 -6.018,26.223l4.345,20.754c1.588,5.676 7.485,8.996 13.162,7.408l20.571,-5.754c5.676,-1.588 8.996,-7.485 7.408,-13.162l-7.254,-19.608Z"/></g>
        <g><path d="M579.53,1167.05c-12.924,-17.882 -21.292,-29.267 -18.371,-59.594c3.419,-35.502 34.03,-69.988 80.614,-23.505" style="fill:none;stroke:#000;stroke-width:10px;"/>
            <path d="M548.774,1181.65c0,0 15.708,40.911 51.712,32.425" style="fill:none;stroke:#000;stroke-width:5px;"/>
            <path d="M668.127,1098.06c0,0 21.475,-26.556 -3.81,-48.389"
                  style="fill:none;stroke:#000;stroke-width:5px;"/></g></g></svg>