<?xml version="1.0" encoding="UTF-8" standalone="no"?>
<!DOCTYPE svg PUBLIC "-//W3C//DTD SVG 1.1//EN" "http://www.w3.org/Graphics/SVG/1.1/DTD/svg11.dtd">
<svg width="153" height="27" viewBox="0 0 153 27" fill="none" xmlns="http://www.w3.org/2000/svg">
<path d="M26.25 6H24V4.5C23.9988 3.30689 23.5243 2.16299 22.6807 1.31934C21.837 0.47568 20.6931 0.00119132 19.5 0H3.75C2.75568 0.000794501 1.80232 0.396138 1.09923 1.09923C0.396138 1.80232 0.000794501 2.75568 0 3.75V22.5C0.00119132 23.6931 0.47568 24.837 1.31934 25.6807C2.16299 26.5243 3.30689 26.9988 4.5 27H26.25C27.2443 26.9992 28.1977 26.6039 28.9008 25.9008C29.6039 25.1977 29.9992 24.2443 30 23.25V9.75C29.9992 8.75568 29.6039 7.80232 28.9008 7.09923C28.1977 6.39614 27.2443 6.00079 26.25 6ZM3.75 1.5H19.5C20.2953 1.50119 21.0577 1.81764 21.62 2.37999C22.1824 2.94235 22.4988 3.70472 22.5 4.5V6H3.75C3.45453 6 3.16194 5.9418 2.88896 5.82873C2.61598 5.71566 2.36794 5.54992 2.15901 5.34099C1.95008 5.13206 1.78434 4.88402 1.67127 4.61104C1.5582 4.33806 1.5 4.04547 1.5 3.75C1.5 3.45453 1.5582 3.16194 1.67127 2.88896C1.78434 2.61598 1.95008 2.36794 2.15901 2.15901C2.36794 1.95008 2.61598 1.78434 2.88896 1.67127C3.16194 1.5582 3.45453 1.5 3.75 1.5ZM28.5 19.5H25.5C24.7044 19.5 23.9413 19.1839 23.3787 18.6213C22.8161 18.0587 22.5 17.2956 22.5 16.5C22.5 15.7044 22.8161 14.9413 23.3787 14.3787C23.9413 13.8161 24.7044 13.5 25.5 13.5H28.5V19.5ZM28.5 12H25.5C24.9091 12 24.3239 12.1164 23.7779 12.3425C23.232 12.5687 22.7359 12.9002 22.318 13.318C21.9002 13.7359 21.5687 14.232 21.3425 14.7779C21.1164 15.3239 21 15.9091 21 16.5C21 17.0909 21.1164 17.6761 21.3425 18.2221C21.5687 18.768 21.9002 19.2641 22.318 19.682C22.7359 20.0998 23.232 20.4313 23.7779 20.6575C24.3239 20.8836 24.9091 21 25.5 21H28.5V23.25C28.5 23.8467 28.2629 24.419 27.841 24.841C27.419 25.2629 26.8467 25.5 26.25 25.5H4.5C3.70472 25.4988 2.94235 25.1824 2.37999 24.62C1.81764 24.0577 1.50119 23.2953 1.5 22.5V6.7485C2.148 7.2375 2.9385 7.5015 3.75 7.5H26.25C26.8467 7.5 27.419 7.73705 27.841 8.15901C28.2629 8.58097 28.5 9.15326 28.5 9.75V12Z" fill="currentColor"/>
<mask id="mask0_652_1832" style="mask-type:alpha" maskUnits="userSpaceOnUse" x="112" y="5" width="41" height="17">
<path d="M112.005 5.06175H152.971V21.9986H112.005V5.06175Z" fill="white"/>
</mask>
<g mask="url(#mask0_652_1832)">
<path fill-rule="evenodd" clip-rule="evenodd" d="M116.281 12.6803C115.399 12.3549 114.915 12.1017 114.915 11.7039C114.915 11.3663 115.193 11.1735 115.689 11.1735C116.596 11.1735 117.527 11.5231 118.168 11.8365L118.531 9.6064C118.023 9.36527 116.983 8.96747 115.544 8.96747C114.528 8.96747 113.681 9.23264 113.076 9.72692C112.447 10.2452 112.121 10.9927 112.121 11.8968C112.121 13.5362 113.125 14.2354 114.758 14.826C115.81 15.1997 116.161 15.465 116.161 15.8748C116.161 16.2726 115.822 16.5016 115.205 16.5016C114.443 16.5016 113.185 16.128 112.363 15.6458L112 17.9C112.701 18.2978 114.008 18.7076 115.362 18.7076C116.439 18.7076 117.334 18.4545 117.938 17.9723C118.616 17.4419 118.966 16.6584 118.966 15.6458C118.966 13.9701 117.938 13.271 116.281 12.6803ZM124.873 11.3663L125.236 9.14829H123.32V6.4557L120.745 6.87809L120.373 9.14829L119.467 9.29475L119.128 11.3663H120.369V15.7181C120.369 16.8512 120.66 17.6348 121.252 18.117C121.748 18.5148 122.462 18.7076 123.465 18.7076C124.239 18.7076 124.711 18.5751 125.038 18.4906V16.14C124.856 16.1883 124.445 16.2726 124.167 16.2726C123.574 16.2726 123.32 15.9713 123.32 15.2842V11.3663H124.873ZM130.625 9.01873C129.779 9.01873 129.101 9.46174 128.835 10.2574L128.654 9.14829H126.03V18.5268H129.029V12.4392C129.404 11.9811 129.936 11.8155 130.662 11.8155C130.819 11.8155 130.988 11.8155 131.194 11.8516V9.09106C130.988 9.04287 130.807 9.01873 130.625 9.01873ZM133.431 8.22005C134.302 8.22005 135.004 7.50888 135.004 6.64095C135.004 5.76089 134.302 5.06175 133.431 5.06175C132.548 5.06175 131.847 5.76089 131.847 6.64095C131.847 7.50888 132.548 8.22005 133.431 8.22005ZM131.919 9.14829H134.931V18.5268H131.919V9.14829ZM143.465 9.99209C142.933 9.30497 142.195 8.96747 141.252 8.96747C140.381 8.96747 139.619 9.32911 138.905 10.0886L138.748 9.14829H136.112V21.9986L139.111 21.5044V18.4906C139.571 18.6353 140.042 18.7076 140.466 18.7076C141.215 18.7076 142.304 18.5148 143.151 17.5987C143.961 16.7186 144.372 15.3565 144.372 13.5603C144.372 11.9691 144.07 10.7636 143.465 9.99209ZM140.974 15.7783C140.732 16.2364 140.357 16.4776 139.921 16.4776C139.619 16.4776 139.353 16.4173 139.111 16.2967V11.8365C139.619 11.3061 140.079 11.2458 140.248 11.2458C141.01 11.2458 141.385 12.0656 141.385 13.6688C141.385 14.5849 141.252 15.2962 140.974 15.7783ZM152.971 13.7531C152.971 12.2584 152.645 11.077 152.004 10.2452C151.351 9.40144 150.371 8.96747 149.125 8.96747C146.573 8.96747 144.989 10.848 144.989 13.8616C144.989 15.5493 145.412 16.8151 146.247 17.6227C146.997 18.346 148.073 18.7076 149.464 18.7076C150.746 18.7076 151.931 18.4063 152.681 17.912L152.354 15.8628C151.617 16.2606 150.758 16.4776 149.79 16.4776C149.21 16.4776 148.811 16.357 148.52 16.1038C148.206 15.8386 148.025 15.4047 147.964 14.7899H152.935C152.947 14.6452 152.971 13.9701 152.971 13.7531ZM147.94 12.9575C148.025 11.6195 148.387 10.9927 149.077 10.9927C149.754 10.9927 150.105 11.6316 150.153 12.9575H147.94Z" fill="currentColor"/>
</g>
<path d="M46.1367 14.6543H43.8574V13.7344H46.1367C46.5781 13.7344 46.9355 13.6641 47.209 13.5234C47.4824 13.3828 47.6816 13.1875 47.8066 12.9375C47.9355 12.6875 48 12.4023 48 12.082C48 11.7891 47.9355 11.5137 47.8066 11.2559C47.6816 10.998 47.4824 10.791 47.209 10.6348C46.9355 10.4746 46.5781 10.3945 46.1367 10.3945H44.1211V18H42.9902V9.46875H46.1367C46.7812 9.46875 47.3262 9.58008 47.7715 9.80273C48.2168 10.0254 48.5547 10.334 48.7852 10.7285C49.0156 11.1191 49.1309 11.5664 49.1309 12.0703C49.1309 12.6172 49.0156 13.084 48.7852 13.4707C48.5547 13.8574 48.2168 14.1523 47.7715 14.3555C47.3262 14.5547 46.7812 14.6543 46.1367 14.6543ZM50.0273 14.9004V14.7656C50.0273 14.3086 50.0938 13.8848 50.2266 13.4941C50.3594 13.0996 50.5508 12.7578 50.8008 12.4688C51.0508 12.1758 51.3535 11.9492 51.709 11.7891C52.0645 11.625 52.4629 11.543 52.9043 11.543C53.3496 11.543 53.75 11.625 54.1055 11.7891C54.4648 11.9492 54.7695 12.1758 55.0195 12.4688C55.2734 12.7578 55.4668 13.0996 55.5996 13.4941C55.7324 13.8848 55.7988 14.3086 55.7988 14.7656V14.9004C55.7988 15.3574 55.7324 15.7812 55.5996 16.1719C55.4668 16.5625 55.2734 16.9043 55.0195 17.1973C54.7695 17.4863 54.4668 17.7129 54.1113 17.877C53.7598 18.0371 53.3613 18.1172 52.916 18.1172C52.4707 18.1172 52.0703 18.0371 51.7148 17.877C51.3594 17.7129 51.0547 17.4863 50.8008 17.1973C50.5508 16.9043 50.3594 16.5625 50.2266 16.1719C50.0938 15.7812 50.0273 15.3574 50.0273 14.9004ZM51.1113 14.7656V14.9004C51.1113 15.2168 51.1484 15.5156 51.2227 15.7969C51.2969 16.0742 51.4082 16.3203 51.5566 16.5352C51.709 16.75 51.8984 16.9199 52.125 17.0449C52.3516 17.166 52.6152 17.2266 52.916 17.2266C53.2129 17.2266 53.4727 17.166 53.6953 17.0449C53.9219 16.9199 54.1094 16.75 54.2578 16.5352C54.4062 16.3203 54.5176 16.0742 54.5918 15.7969C54.6699 15.5156 54.709 15.2168 54.709 14.9004V14.7656C54.709 14.4531 54.6699 14.1582 54.5918 13.8809C54.5176 13.5996 54.4043 13.3516 54.252 13.1367C54.1035 12.918 53.916 12.7461 53.6895 12.6211C53.4668 12.4961 53.2051 12.4336 52.9043 12.4336C52.6074 12.4336 52.3457 12.4961 52.1191 12.6211C51.8965 12.7461 51.709 12.918 51.5566 13.1367C51.4082 13.3516 51.2969 13.5996 51.2227 13.8809C51.1484 14.1582 51.1113 14.4531 51.1113 14.7656ZM58.7637 16.875L60.3926 11.6602H61.1074L60.9668 12.6973L59.3086 18H58.6113L58.7637 16.875ZM57.668 11.6602L59.0566 16.9336L59.1562 18H58.4238L56.584 11.6602H57.668ZM62.666 16.8926L63.9902 11.6602H65.0684L63.2285 18H62.502L62.666 16.8926ZM61.2656 11.6602L62.8594 16.7871L63.041 18H62.3496L60.6445 12.6855L60.5039 11.6602H61.2656ZM68.8125 18.1172C68.3711 18.1172 67.9707 18.043 67.6113 17.8945C67.2559 17.7422 66.9492 17.5293 66.6914 17.2559C66.4375 16.9824 66.2422 16.6582 66.1055 16.2832C65.9688 15.9082 65.9004 15.498 65.9004 15.0527V14.8066C65.9004 14.291 65.9766 13.832 66.1289 13.4297C66.2812 13.0234 66.4883 12.6797 66.75 12.3984C67.0117 12.1172 67.3086 11.9043 67.6406 11.7598C67.9727 11.6152 68.3164 11.543 68.6719 11.543C69.125 11.543 69.5156 11.6211 69.8438 11.7773C70.1758 11.9336 70.4473 12.1523 70.6582 12.4336C70.8691 12.7109 71.0254 13.0391 71.127 13.418C71.2285 13.793 71.2793 14.2031 71.2793 14.6484V15.1348H66.5449V14.25H70.1953V14.168C70.1797 13.8867 70.1211 13.6133 70.0195 13.3477C69.9219 13.082 69.7656 12.8633 69.5508 12.6914C69.3359 12.5195 69.043 12.4336 68.6719 12.4336C68.4258 12.4336 68.1992 12.4863 67.9922 12.5918C67.7852 12.6934 67.6074 12.8457 67.459 13.0488C67.3105 13.252 67.1953 13.5 67.1133 13.793C67.0312 14.0859 66.9902 14.4238 66.9902 14.8066V15.0527C66.9902 15.3535 67.0312 15.6367 67.1133 15.9023C67.1992 16.1641 67.3223 16.3945 67.4824 16.5938C67.6465 16.793 67.8438 16.9492 68.0742 17.0625C68.3086 17.1758 68.5742 17.2324 68.8711 17.2324C69.2539 17.2324 69.5781 17.1543 69.8438 16.998C70.1094 16.8418 70.3418 16.6328 70.541 16.3711L71.1973 16.8926C71.0605 17.0996 70.8867 17.2969 70.6758 17.4844C70.4648 17.6719 70.2051 17.8242 69.8965 17.9414C69.5918 18.0586 69.2305 18.1172 68.8125 18.1172ZM73.6289 12.6562V18H72.5449V11.6602H73.5996L73.6289 12.6562ZM75.6094 11.625L75.6035 12.6328C75.5137 12.6133 75.4277 12.6016 75.3457 12.5977C75.2676 12.5898 75.1777 12.5859 75.0762 12.5859C74.8262 12.5859 74.6055 12.625 74.4141 12.7031C74.2227 12.7812 74.0605 12.8906 73.9277 13.0312C73.7949 13.1719 73.6895 13.3398 73.6113 13.5352C73.5371 13.7266 73.4883 13.9375 73.4648 14.168L73.1602 14.3438C73.1602 13.9609 73.1973 13.6016 73.2715 13.2656C73.3496 12.9297 73.4688 12.6328 73.6289 12.375C73.7891 12.1133 73.9922 11.9102 74.2383 11.7656C74.4883 11.6172 74.7852 11.543 75.1289 11.543C75.207 11.543 75.2969 11.5527 75.3984 11.5723C75.5 11.5879 75.5703 11.6055 75.6094 11.625ZM79.125 18.1172C78.6836 18.1172 78.2832 18.043 77.9238 17.8945C77.5684 17.7422 77.2617 17.5293 77.0039 17.2559C76.75 16.9824 76.5547 16.6582 76.418 16.2832C76.2812 15.9082 76.2129 15.498 76.2129 15.0527V14.8066C76.2129 14.291 76.2891 13.832 76.4414 13.4297C76.5938 13.0234 76.8008 12.6797 77.0625 12.3984C77.3242 12.1172 77.6211 11.9043 77.9531 11.7598C78.2852 11.6152 78.6289 11.543 78.9844 11.543C79.4375 11.543 79.8281 11.6211 80.1562 11.7773C80.4883 11.9336 80.7598 12.1523 80.9707 12.4336C81.1816 12.7109 81.3379 13.0391 81.4395 13.418C81.541 13.793 81.5918 14.2031 81.5918 14.6484V15.1348H76.8574V14.25H80.5078V14.168C80.4922 13.8867 80.4336 13.6133 80.332 13.3477C80.2344 13.082 80.0781 12.8633 79.8633 12.6914C79.6484 12.5195 79.3555 12.4336 78.9844 12.4336C78.7383 12.4336 78.5117 12.4863 78.3047 12.5918C78.0977 12.6934 77.9199 12.8457 77.7715 13.0488C77.623 13.252 77.5078 13.5 77.4258 13.793C77.3438 14.0859 77.3027 14.4238 77.3027 14.8066V15.0527C77.3027 15.3535 77.3438 15.6367 77.4258 15.9023C77.5117 16.1641 77.6348 16.3945 77.7949 16.5938C77.959 16.793 78.1562 16.9492 78.3867 17.0625C78.6211 17.1758 78.8867 17.2324 79.1836 17.2324C79.5664 17.2324 79.8906 17.1543 80.1562 16.998C80.4219 16.8418 80.6543 16.6328 80.8535 16.3711L81.5098 16.8926C81.373 17.0996 81.1992 17.2969 80.9883 17.4844C80.7773 17.6719 80.5176 17.8242 80.209 17.9414C79.9043 18.0586 79.543 18.1172 79.125 18.1172ZM86.8535 16.7695V9H87.9434V18H86.9473L86.8535 16.7695ZM82.5879 14.9004V14.7773C82.5879 14.293 82.6465 13.8535 82.7637 13.459C82.8848 13.0605 83.0547 12.7188 83.2734 12.4336C83.4961 12.1484 83.7598 11.9297 84.0645 11.7773C84.373 11.6211 84.7168 11.543 85.0957 11.543C85.4941 11.543 85.8418 11.6133 86.1387 11.7539C86.4395 11.8906 86.6934 12.0918 86.9004 12.3574C87.1113 12.6191 87.2773 12.9355 87.3984 13.3066C87.5195 13.6777 87.6035 14.0977 87.6504 14.5664V15.1055C87.6074 15.5703 87.5234 15.9883 87.3984 16.3594C87.2773 16.7305 87.1113 17.0469 86.9004 17.3086C86.6934 17.5703 86.4395 17.7715 86.1387 17.9121C85.8379 18.0488 85.4863 18.1172 85.084 18.1172C84.7129 18.1172 84.373 18.0371 84.0645 17.877C83.7598 17.7168 83.4961 17.4922 83.2734 17.2031C83.0547 16.9141 82.8848 16.5742 82.7637 16.1836C82.6465 15.7891 82.5879 15.3613 82.5879 14.9004ZM83.6777 14.7773V14.9004C83.6777 15.2168 83.709 15.5137 83.7715 15.791C83.8379 16.0684 83.9395 16.3125 84.0762 16.5234C84.2129 16.7344 84.3867 16.9004 84.5977 17.0215C84.8086 17.1387 85.0605 17.1973 85.3535 17.1973C85.7129 17.1973 86.0078 17.1211 86.2383 16.9688C86.4727 16.8164 86.6602 16.6152 86.8008 16.3652C86.9414 16.1152 87.0508 15.8438 87.1289 15.5508V14.1387C87.082 13.9238 87.0137 13.7168 86.9238 13.5176C86.8379 13.3145 86.7246 13.1348 86.584 12.9785C86.4473 12.8184 86.2773 12.6914 86.0742 12.5977C85.875 12.5039 85.6387 12.457 85.3652 12.457C85.0684 12.457 84.8125 12.5195 84.5977 12.6445C84.3867 12.7656 84.2129 12.9336 84.0762 13.1484C83.9395 13.3594 83.8379 13.6055 83.7715 13.8867C83.709 14.1641 83.6777 14.4609 83.6777 14.7773ZM92.6016 9H93.6914V16.7695L93.5977 18H92.6016V9ZM97.9746 14.7773V14.9004C97.9746 15.3613 97.9199 15.7891 97.8105 16.1836C97.7012 16.5742 97.541 16.9141 97.3301 17.2031C97.1191 17.4922 96.8613 17.7168 96.5566 17.877C96.252 18.0371 95.9023 18.1172 95.5078 18.1172C95.1055 18.1172 94.752 18.0488 94.4473 17.9121C94.1465 17.7715 93.8926 17.5703 93.6855 17.3086C93.4785 17.0469 93.3125 16.7305 93.1875 16.3594C93.0664 15.9883 92.9824 15.5703 92.9355 15.1055V14.5664C92.9824 14.0977 93.0664 13.6777 93.1875 13.3066C93.3125 12.9355 93.4785 12.6191 93.6855 12.3574C93.8926 12.0918 94.1465 11.8906 94.4473 11.7539C94.748 11.6133 95.0977 11.543 95.4961 11.543C95.8945 11.543 96.248 11.6211 96.5566 11.7773C96.8652 11.9297 97.123 12.1484 97.3301 12.4336C97.541 12.7188 97.7012 13.0605 97.8105 13.459C97.9199 13.8535 97.9746 14.293 97.9746 14.7773ZM96.8848 14.9004V14.7773C96.8848 14.4609 96.8555 14.1641 96.7969 13.8867C96.7383 13.6055 96.6445 13.3594 96.5156 13.1484C96.3867 12.9336 96.2168 12.7656 96.0059 12.6445C95.7949 12.5195 95.5352 12.457 95.2266 12.457C94.9531 12.457 94.7148 12.5039 94.5117 12.5977C94.3125 12.6914 94.1426 12.8184 94.002 12.9785C93.8613 13.1348 93.7461 13.3145 93.6562 13.5176C93.5703 13.7168 93.5059 13.9238 93.4629 14.1387V15.5508C93.5254 15.8242 93.627 16.0879 93.7676 16.3418C93.9121 16.5918 94.1035 16.7969 94.3418 16.957C94.584 17.1172 94.8828 17.1973 95.2383 17.1973C95.5312 17.1973 95.7812 17.1387 95.9883 17.0215C96.1992 16.9004 96.3691 16.7344 96.498 16.5234C96.6309 16.3125 96.7285 16.0684 96.791 15.791C96.8535 15.5137 96.8848 15.2168 96.8848 14.9004ZM101.057 17.3438L102.82 11.6602H103.98L101.438 18.9785C101.379 19.1348 101.301 19.3027 101.203 19.4824C101.109 19.666 100.988 19.8398 100.84 20.0039C100.691 20.168 100.512 20.3008 100.301 20.4023C100.094 20.5078 99.8457 20.5605 99.5566 20.5605C99.4707 20.5605 99.3613 20.5488 99.2285 20.5254C99.0957 20.502 99.002 20.4824 98.9473 20.4668L98.9414 19.5879C98.9727 19.5918 99.0215 19.5957 99.0879 19.5996C99.1582 19.6074 99.207 19.6113 99.2344 19.6113C99.4805 19.6113 99.6895 19.5781 99.8613 19.5117C100.033 19.4492 100.178 19.3418 100.295 19.1895C100.416 19.041 100.52 18.8359 100.605 18.5742L101.057 17.3438ZM99.7617 11.6602L101.408 16.582L101.689 17.7246L100.91 18.123L98.5781 11.6602H99.7617Z" fill="currentColor"/>
</svg>
