<svg viewBox="0 0 24 24" xmlns="http://www.w3.org/2000/svg" shape-rendering="geometricPrecision" fill-rule="evenodd"
     clip-rule="evenodd" stroke-linejoin="round" stroke-miterlimit="2">
    <path d="M15.25 14.9c-.13 0-1.45 0-2.93.5a9.63 9.63 0 00-3.33 1.95c-.67.67-1.65 2-2.14 3.32-.63 1.7-.7 3.35-.7 3.35v-4.45l-2.52 3.74.66-3.91s-1.63.58-2.27.3c-.06-.02.76-.35 1.32-.97a7.79 7.79 0 001.42-2.15s-.62.94-1.34 1.69c-.58.61-1.23 1.06-1.66 1.12-.94.12-1.85-.89-1.75-1.22.28-1.04 2.35-3.1 3.18-4.63.86-1.61 3.13-7.07 3.17-7.18a10.5 10.5 0 013.33-4.43C10.57 1.3 11.6.7 12.64.39 13.78.05 14.9.01 15.26 0c.5-.02 2.35.08 4.2.96A7.79 7.79 0 0122.9 4.1c.16.3.3.62.43.95.02.04.48 1.14.63 2.64.09.86.02 1.86-.15 2.84a10.93 10.93 0 01-1.66 3.55 9.33 9.33 0 01-2.44 2.42 10.2 10.2 0 01-3.25 1.46c-1.77.36-2.88.2-2.88.2s1.04-.24 2.19-.77c1-.46 2.14-1.26 2.69-1.91.02-.03.82-.87 1.56-2.18a8.72 8.72 0 001.07-4.28 5.85 5.85 0 10-10.35 3.74c.53.74 1.7 1.52 2.45 1.78.98.35 1.95.37 2.06.38h.01zm-8.44-1.99c.13.04-.47.48-.6.6-.04.03-.15.13-.21.1a1.8 1.8 0 00-.16-.08l-.17-.05c.08.05.14.13.18.22a.42.42 0 11-.54-.25s1.37-.58 1.5-.54z"/>
</svg>