<svg width="20" height="20" viewBox="0 0 20 20" fill="none" xmlns="http://www.w3.org/2000/svg">
    <g clip-path="url(#clip0_1183_30105)">
        <path d="M17.5 7.50003C16.8125 7.50003 16.25 8.06253 16.25 8.75003V13.75C16.25 14.4375 16.8125 15 17.5 15C18.1875 15 18.75 14.4375 18.75 13.75V8.75003C18.75 8.06253 18.1875 7.50003 17.5 7.50003ZM2.5 7.50003C1.8125 7.50003 1.25 8.06253 1.25 8.75003V13.75C1.25 14.4375 1.8125 15 2.5 15C3.1875 15 3.75 14.4375 3.75 13.75V8.75003C3.75 8.06253 3.1875 7.50003 2.5 7.50003ZM4.375 14.375C4.375 14.8723 4.57254 15.3492 4.92417 15.7009C5.27581 16.0525 5.75272 16.25 6.25 16.25V18.75C6.25 19.4375 6.8125 20 7.5 20C8.1875 20 8.75 19.4375 8.75 18.75V16.25H11.25V18.75C11.25 19.4375 11.8125 20 12.5 20C13.1875 20 13.75 19.4375 13.75 18.75V16.25C14.2473 16.25 14.7242 16.0525 15.0758 15.7009C15.4275 15.3492 15.625 14.8723 15.625 14.375V7.50003H4.375V14.375ZM15.59 6.25003C15.4974 5.42268 15.2223 4.6262 14.7846 3.91805C14.3469 3.20991 13.7574 2.60775 13.0587 2.15503L13.6837 0.903782C13.7578 0.755426 13.77 0.583713 13.7175 0.426417C13.665 0.269121 13.5521 0.139126 13.4037 0.0650316C13.2554 -0.00906323 13.0837 -0.0211894 12.9264 0.0313208C12.7691 0.083831 12.6391 0.196676 12.565 0.345032L11.9375 1.60003L11.775 1.53503C10.6226 1.15219 9.37737 1.15219 8.225 1.53503L8.0625 1.60003L7.435 0.345032C7.36091 0.196676 7.23091 0.083831 7.07362 0.0313208C6.91632 -0.0211894 6.74461 -0.00906321 6.59625 0.0650316C6.44789 0.139126 6.33505 0.269121 6.28254 0.426417C6.23003 0.583713 6.24216 0.755426 6.31625 0.903782L6.94125 2.15503C6.24253 2.60768 5.65302 3.20982 5.21529 3.91798C4.77755 4.62614 4.5025 5.42266 4.41 6.25003V6.87503H15.625V6.25003H15.59ZM8.125 5.00003C7.95924 5.0002 7.8002 4.93451 7.68288 4.81742C7.56555 4.70032 7.49954 4.54142 7.49937 4.37566C7.49921 4.2099 7.5649 4.05086 7.68199 3.93353C7.79908 3.8162 7.95799 3.7502 8.12375 3.75003H8.12625C8.29201 3.7502 8.45092 3.8162 8.56801 3.93353C8.6851 4.05086 8.75079 4.2099 8.75063 4.37566C8.75046 4.54142 8.68445 4.70032 8.56712 4.81742C8.4498 4.93451 8.29076 5.0002 8.125 5.00003ZM11.875 5.00003C11.7092 5.0002 11.5502 4.93451 11.4329 4.81742C11.3155 4.70032 11.2495 4.54142 11.2494 4.37566C11.2492 4.2099 11.3149 4.05086 11.432 3.93353C11.5491 3.8162 11.708 3.7502 11.8737 3.75003H11.8775C12.0433 3.7502 12.2022 3.8162 12.3193 3.93353C12.4364 4.05086 12.502 4.2099 12.5019 4.37566C12.5017 4.54142 12.4357 4.70032 12.3184 4.81742C12.201 4.93451 12.042 5.0002 11.8763 5.00003H11.875Z" fill="currentColor"/>
    </g>
    <defs>
        <clipPath id="clip0_1183_30105">
            <rect width="20" height="20" fill="white"/>
        </clipPath>
    </defs>
</svg>
