<svg width="20" height="20" viewBox="0 0 20 20" fill="none" xmlns="http://www.w3.org/2000/svg">
    <path d="M18.4109 14.5747C17.9509 15.5931 17.7309 16.0485 17.1401 16.9485C16.3147 18.2054 15.1493 19.7739 13.7086 19.7847C12.427 19.7954 12.0963 18.9485 10.357 18.9624C8.61781 18.9708 8.2555 19.8001 6.97243 19.787C5.53166 19.7739 4.42858 18.3608 3.60243 17.1062C1.29243 13.587 1.04858 9.46237 2.47627 7.26775C3.48627 5.7116 5.08474 4.79775 6.5855 4.79775C8.11397 4.79775 9.07474 5.63775 10.3386 5.63775C11.5647 5.63775 12.3117 4.79544 14.0793 4.79544C15.4163 4.79544 16.8301 5.5239 17.8401 6.78083C14.5355 8.5916 15.0724 13.3116 18.4109 14.5747ZM12.7378 3.39083C13.3809 2.56544 13.8686 1.40083 13.6917 0.213135C12.6424 0.284673 11.4155 0.954673 10.6986 1.82237C10.0494 2.61237 9.51089 3.78621 9.72089 4.9216C10.8655 4.95852 12.0501 4.27621 12.7378 3.39083Z" fill="currentColor"/>
</svg>
