<svg width="21" height="20" viewBox="0 0 21 20" fill="none" xmlns="http://www.w3.org/2000/svg">
    <path fill-rule="evenodd" clip-rule="evenodd" d="M10.5705 0.561279L19.2371 5.61728V14.3826L10.5705 19.4399L1.90381 14.3826V5.61728L10.5705 0.561279ZM10.5705 5.33328C9.3328 5.33328 8.14581 5.82494 7.27064 6.70011C6.39547 7.57528 5.90381 8.76227 5.90381 9.99995C5.90381 11.2376 6.39547 12.4246 7.27064 13.2998C8.14581 14.1749 9.3328 14.6666 10.5705 14.6666H10.8131C12.1145 14.6666 13.3638 14.1493 14.2851 13.2293L14.3758 13.1386L13.4318 12.1946L13.3411 12.2853C12.6708 12.956 11.7614 13.333 10.8131 13.3333H10.5705C9.68642 13.3333 8.83857 12.9821 8.21345 12.357C7.58833 11.7318 7.23714 10.884 7.23714 9.99995C7.23714 9.11589 7.58833 8.26804 8.21345 7.64292C8.83857 7.0178 9.68642 6.66661 10.5705 6.66661H10.8131C11.7611 6.66661 12.6705 7.04395 13.3411 7.71461L13.4318 7.80528L14.3758 6.86128L14.2851 6.77061C13.8292 6.31477 13.2878 5.95322 12.6921 5.7066C12.0964 5.45998 11.4579 5.33313 10.8131 5.33328H10.5705Z" fill="currentColor"/>
</svg>
