<svg width="20" height="20" viewBox="0 0 24 24" fill="none" xmlns="http://www.w3.org/2000/svg">
    <g clip-path="url(#clip0_3342_2295)">
        <path fill-rule="evenodd" clip-rule="evenodd" d="M3 8.17211V17.0157L11.25 21.6209V18.9087L6.25042 16.0911C5.78608 15.8294 5.5 15.3455 5.5 14.8219V9.58209L3 8.17211ZM12.75 18.9087V21.6209L21 17.0157V8.20205L18.5 9.61203V14.8219C18.5 15.3455 18.2139 15.8294 17.7496 16.0911L12.75 18.9087ZM12 1.97018L20.5687 6.75331L18.071 8.16202C17.9769 8.06828 17.8692 7.98616 17.7496 7.91878L12.7496 5.1009C12.2857 4.83946 11.7143 4.83946 11.2504 5.1009L6.25042 7.91878C6.13899 7.98157 6.03784 8.05716 5.94843 8.14302L3.45796 6.73841L12 1.97018ZM12.7442 0.697946C12.2831 0.440529 11.7169 0.440528 11.2558 0.697945L2.25579 5.72182C1.78843 5.9827 1.5 6.46822 1.5 6.99405V17.0157C1.5 17.5416 1.78843 18.0271 2.25579 18.288L11.2558 23.3118C11.7169 23.5692 12.2831 23.5692 12.7442 23.3118L21.7442 18.288C22.2116 18.0271 22.5 17.5416 22.5 17.0157V6.99405C22.5 6.46822 22.2116 5.9827 21.7442 5.72182L12.7442 0.697946ZM8.3 14.0884L12 16.1736L15.7 14.0884V9.92146L12 7.83623L8.3 9.92146V14.0884Z" fill="currentColor"/>
    </g>
    <defs>
        <clipPath id="clip0_3342_2295">
            <rect width="24" height="24" fill="white" transform="translate(0 0.00488281)"/>
        </clipPath>
    </defs>
</svg>
