<svg width="20" height="20" viewBox="0 0 24 24" fill="none" xmlns="http://www.w3.org/2000/svg">
    <path fill-rule="evenodd" clip-rule="evenodd" d="M18 2.00488H6C4.89543 2.00488 4 2.90031 4 4.00488V6.00488H20V4.00488C20 2.90031 19.1046 2.00488 18 2.00488ZM0 10.0049C0 8.52432 0.804397 7.23163 2 6.54001V4.00488C2 1.79574 3.79086 0.00488281 6 0.00488281H18C20.2091 0.00488281 22 1.79574 22 4.00488V6.54001C23.1956 7.23163 24 8.52432 24 10.0049V16.0049C24 17.4854 23.1956 18.7781 22 19.4698V20.0049C22 22.214 20.2091 24.0049 18 24.0049H6C3.79086 24.0049 2 22.214 2 20.0049V19.4698C0.804397 18.7781 0 17.4854 0 16.0049V10.0049ZM4 20.0049H20C20 21.1095 19.1046 22.0049 18 22.0049H6C4.89543 22.0049 4 21.1095 4 20.0049ZM6.77051 14.29H8.60742C8.611 14.8773 8.49642 15.3786 8.26367 15.7939C8.03451 16.2057 7.71045 16.5173 7.2915 16.7285C6.87256 16.9398 6.382 17.0454 5.81982 17.0454C5.36507 17.0454 4.96224 16.9666 4.61133 16.8091C4.26042 16.6515 3.96501 16.4224 3.7251 16.1216C3.48519 15.8208 3.30436 15.4574 3.18262 15.0312C3.06087 14.6016 3 14.1146 3 13.5703V12.48C3 11.9393 3.06445 11.4541 3.19336 11.0244C3.32585 10.5947 3.51204 10.2295 3.75195 9.92871C3.99544 9.62793 4.28906 9.39876 4.63281 9.24121C4.98014 9.08366 5.36686 9.00488 5.79297 9.00488C6.39095 9.00488 6.89583 9.11768 7.30762 9.34326C7.72298 9.56527 8.04167 9.88753 8.26367 10.3101C8.48568 10.729 8.60384 11.2321 8.61816 11.8193H6.78125C6.79915 11.4792 6.77767 11.2124 6.7168 11.019C6.65592 10.8221 6.5485 10.6842 6.39453 10.6055C6.24414 10.5231 6.04362 10.4819 5.79297 10.4819C5.62109 10.4819 5.47607 10.516 5.35791 10.584C5.23975 10.652 5.14486 10.7648 5.07324 10.9224C5.00163 11.0763 4.94971 11.2804 4.91748 11.5347C4.88525 11.7889 4.86914 12.1004 4.86914 12.4692V13.5703C4.86914 13.9463 4.88167 14.2614 4.90674 14.5156C4.9318 14.7699 4.97835 14.9757 5.04639 15.1333C5.118 15.2873 5.21468 15.3983 5.33643 15.4663C5.46175 15.5343 5.62288 15.5684 5.81982 15.5684C6.02751 15.5684 6.20475 15.5343 6.35156 15.4663C6.49837 15.3947 6.60938 15.2676 6.68457 15.085C6.75977 14.8988 6.78841 14.6338 6.77051 14.29ZM12.668 14.5317C12.693 14.6284 12.7056 14.7376 12.7056 14.8594C12.7056 14.999 12.6877 15.1279 12.6519 15.2461C12.616 15.3607 12.5516 15.4538 12.4585 15.5254C12.369 15.5934 12.2419 15.6274 12.0771 15.6274C11.8981 15.6274 11.7477 15.6077 11.626 15.5684C11.5042 15.5254 11.404 15.4574 11.3252 15.3643C11.25 15.2676 11.1945 15.1405 11.1587 14.9829C11.1229 14.8254 11.105 14.632 11.105 14.4028H9.25732C9.25732 14.8647 9.33789 15.264 9.49902 15.6006C9.66016 15.9336 9.875 16.2075 10.1436 16.4224C10.4157 16.6336 10.7183 16.7912 11.0513 16.895C11.3879 16.9953 11.7298 17.0454 12.0771 17.0454C12.4567 17.0454 12.7969 16.9971 13.0977 16.9004C13.402 16.8037 13.6616 16.6623 13.8765 16.4761C14.0913 16.2863 14.2542 16.0553 14.3652 15.7832C14.4798 15.5111 14.5371 15.1995 14.5371 14.8486C14.5371 14.5192 14.4888 14.2238 14.3921 13.9624C14.299 13.701 14.1593 13.4683 13.9731 13.2642C13.7869 13.0565 13.556 12.8721 13.2803 12.7109C13.0081 12.5462 12.6948 12.3976 12.3403 12.2651C12.1935 12.1935 12.0557 12.1201 11.9268 12.0449C11.8014 11.9697 11.6904 11.891 11.5938 11.8086C11.5007 11.7262 11.4272 11.6385 11.3735 11.5454C11.3198 11.4487 11.293 11.3413 11.293 11.2231C11.293 11.0799 11.3198 10.9492 11.3735 10.8311C11.4272 10.7093 11.506 10.6126 11.6099 10.541C11.7173 10.4694 11.848 10.4336 12.002 10.4336C12.1738 10.4336 12.3117 10.4766 12.4155 10.5625C12.5229 10.6484 12.6017 10.7666 12.6519 10.917C12.702 11.0674 12.7271 11.241 12.7271 11.438H14.5586C14.5586 10.9438 14.4512 10.516 14.2363 10.1543C14.0251 9.78906 13.7297 9.50798 13.3501 9.31104C12.9741 9.11051 12.5391 9.01025 12.0449 9.01025C11.6725 9.01025 11.3288 9.06217 11.0137 9.16602C10.6986 9.26628 10.4246 9.41309 10.1919 9.60645C9.96273 9.79622 9.7819 10.0272 9.64941 10.2993C9.52051 10.5679 9.45605 10.8704 9.45605 11.207C9.45605 11.5579 9.52051 11.8659 9.64941 12.1309C9.77832 12.3923 9.9484 12.6214 10.1597 12.8184C10.3745 13.0117 10.6162 13.1818 10.8848 13.3286C11.1533 13.4718 11.4272 13.6007 11.7065 13.7153C11.9285 13.812 12.1058 13.9051 12.2383 13.9946C12.3708 14.0806 12.4692 14.1665 12.5337 14.2524C12.6017 14.3384 12.6465 14.4315 12.668 14.5317ZM17.8403 16.938H17.1636L15.0044 9.11768H17.0562L18.1651 14.6031L19.269 9.11768H21.3315L19.1616 16.938H18.501H17.8403Z" fill="currentColor" fill-opacity="0.87"/>
</svg>
