<svg width="20" height="20" viewBox="0 0 24 24" fill="none" xmlns="http://www.w3.org/2000/svg">
    <g clip-path="url(#clip0_3421_22277)">
        <path fill-rule="evenodd" clip-rule="evenodd" d="M24 0H0V24H24V0ZM2.20967 14.8125C2.34937 14.9374 2.51904 14.9999 2.71867 14.9999L2.71878 15C2.92172 15 3.09304 14.9375 3.23275 14.8125C3.37583 14.6842 3.44738 14.5319 3.44738 14.3557C3.44738 14.1762 3.37583 14.0224 3.23275 13.8942C3.09297 13.766 2.92161 13.7019 2.71867 13.7019C2.51904 13.7019 2.34934 13.766 2.20956 13.8942C2.06985 14.0224 2 14.1762 2 14.3557C2.00007 14.532 2.06996 14.6842 2.20967 14.8125ZM9.4021 14.8943H10.6997L10.6996 8H9.55673V12.4423L9.55739 12.5881L9.55938 12.7238L9.56269 12.8494L9.56732 12.9648L9.57118 13.0363L9.57559 13.1032L9.58067 13.1656L9.58331 13.1951L9.58916 13.2507L9.59578 13.3018L9.60283 13.3484L9.60659 13.3702H9.58673L9.57239 13.3438L9.55475 13.3131L9.53379 13.2781L9.49629 13.2177L9.45129 13.1477L9.39868 13.0682L9.31707 12.947L6.01302 8H4.63049V14.8941H5.77842V10.3749L5.77732 10.147L5.77622 10.0635L5.77401 9.94698L5.77092 9.84046L5.76706 9.74409L5.76243 9.65788L5.75702 9.58162L5.75283 9.53644L5.74842 9.49572L5.74368 9.45946L5.7385 9.42785H5.7685C5.82595 9.56711 5.89784 9.70073 5.98313 9.82678L9.4021 14.8943ZM12.2721 14.8943H16.2899V13.9279H13.46V11.8894H15.9206V10.9231H13.46V8.97121H16.1302V8H12.2721V14.8943ZM19.9435 8.97131H22L21.9998 8H16.7042V8.97131H18.7556V14.8943H19.9435V8.97131Z" fill="currentColor"/>
    </g>
    <defs>
        <clipPath id="clip0_3421_22277">
            <rect width="24" height="24" fill="white" transform="translate(0 0.00488281)"/>
        </clipPath>
    </defs>
</svg>
