<svg
  xmlns="http://www.w3.org/2000/svg"
  viewBox="0 0 16 16"
  role="img"
  aria-label="Java Properties"
  preserveAspectRatio="xMidYMid meet"
>
  <g fill="none" fill-rule="evenodd">
    <polygon points="1 16 16 16 16 9 1 9" fill="currentColor" fill-opacity=".7"/>
    <polygon points="7 1 3 5 7 5" fill="currentColor" fill-opacity=".8"/>
    <polygon points="8 1 8 6 3 6 3 8 13 8 13 1" fill="currentColor" fill-opacity=".8"/>

    <polygon
      points="1.996 5 1.996 3.029 0 0 1.05 0 2.496 2.207 3.95 0 5 0 3 3.007 3 5"
      transform="translate(1 10)"
      fill="currentColor"
      fill-opacity=".7"
    />
    <polygon
      points="0 0 .936 0 2.5 2 3.979 0 5 0 5 5 4 5 4 1.7 2.5 3.5 1 1.7 1 5 0 5"
      transform="translate(6 10)"
      fill="currentColor"
      fill-opacity=".7"
    />
    <polygon
      points="0 0 1 0 1 4 3.5 4 3.5 5 0 5"
      transform="translate(12 10)"
      fill="currentColor"
      fill-opacity=".7"
    />
  </g>
</svg>
