<svg width="20" height="20" viewBox="0 0 25 24" fill="none" xmlns="http://www.w3.org/2000/svg">
    <g clip-path="url(#clip0_2908_1298)">
        <path d="M15.8069 2.49188V7.00888L20.8829 20.0449C20.8829 20.0449 22.4329 23.2289 18.0009 24.0049H7.89092C7.89092 24.0049 3.75892 23.5739 4.74992 20.3029L10.0839 7.00888V2.49188H15.8069ZM17.8969 15.5999C13.4669 14.2259 9.74192 14.9629 7.92192 15.5209L6.08592 19.9399C5.30292 22.4389 8.35892 22.8809 8.68292 22.9199L8.71093 22.9239H17.1549C20.6949 22.3259 19.6659 19.9519 19.5699 19.7469L19.5629 19.7329L17.8969 15.5999ZM10.0829 16.3769C10.8729 16.3769 11.5129 16.7629 11.5129 17.2419C11.5129 17.7179 10.8729 18.1059 10.0829 18.1059C9.29492 18.1059 8.65592 17.7179 8.65592 17.2419C8.65592 16.7629 9.29492 16.3769 10.0829 16.3769ZM15.1669 16.3769C15.9539 16.3769 16.5939 16.7629 16.5939 17.2419C16.5939 17.7179 15.9539 18.1059 15.1669 18.1059C14.3769 18.1059 13.7379 17.7179 13.7379 17.2419C13.7379 16.7629 14.3759 16.3769 15.1679 16.3769M10.6679 11.1639C10.1159 11.1639 9.66792 11.7039 9.66792 12.3689C9.66792 13.0349 10.1159 13.5739 10.6679 13.5739C11.2199 13.5739 11.6679 13.0339 11.6679 12.3689C11.6679 11.7029 11.2199 11.1639 10.6679 11.1639ZM14.3089 9.86688C13.6539 9.86688 13.1229 10.5049 13.1229 11.2969C13.1229 12.0829 13.6539 12.7229 14.3089 12.7229C14.9619 12.7229 15.4959 12.0829 15.4959 11.2959C15.4959 10.5059 14.9629 9.86688 14.3089 9.86688ZM20.3459 7.12888C20.3459 7.12888 18.2239 8.67488 16.2599 6.70888V4.56088C16.2599 4.56088 18.9839 3.96088 20.3459 7.12888ZM5.50192 7.12888C6.86192 3.96088 9.58692 4.56088 9.58692 4.56088V6.70888C7.62192 8.67488 5.50192 7.12888 5.50192 7.12888ZM15.9149 0.00488281C16.4099 0.00488281 16.8099 0.443883 16.8099 0.985883C16.8099 1.52788 16.4099 1.96588 15.9149 1.96588H9.82493C9.33293 1.96588 8.93093 1.52788 8.93093 0.985883C8.93093 0.443883 9.33292 0.00488281 9.82592 0.00488281H15.9149Z" fill="currentColor" fill-opacity="0.87"/>
    </g>
    <defs>
        <clipPath id="clip0_2908_1298">
            <rect width="24" height="24" fill="white" transform="translate(0.870972 0.00488281)"/>
        </clipPath>
    </defs>
</svg>
