<svg width="28" height="14" viewBox="0 0 28 14" fill="none" xmlns="http://www.w3.org/2000/svg">
    <path fill-rule="evenodd" clip-rule="evenodd" d="M23.3806 0.671631H27.5706V8.71753C27.5706 9.67976 27.3637 10.5643 26.8924 11.3183C26.4399 12.0501 25.8074 12.6022 25.0201 12.965C24.2562 13.3192 23.4055 13.4822 22.491 13.4822C21.5755 13.4822 20.7221 13.3189 19.9515 12.967L19.9488 12.9658C19.1609 12.6031 18.5265 12.0514 18.0692 11.3209L18.0658 11.3156C17.6005 10.5619 17.3967 9.67848 17.3967 8.71753V0.671631H21.594V8.71753C21.594 9.10094 21.6562 9.32361 21.7155 9.44219C21.7764 9.56409 21.8425 9.62208 21.9173 9.66008C22.0415 9.7204 22.223 9.76831 22.491 9.76831C22.7769 9.76831 22.9517 9.71748 23.0556 9.66463L23.0618 9.66146C23.1348 9.62498 23.1967 9.57102 23.2534 9.45384L23.2591 9.44215C23.3183 9.32357 23.3806 9.10094 23.3806 8.71753V0.671631ZM21.4729 10.5559C21.1897 10.4143 20.9724 10.1921 20.821 9.8894C20.6697 9.58667 20.594 9.19604 20.594 8.71753V1.67163H18.3967V8.71753C18.3967 9.53784 18.5701 10.2288 18.9167 10.7903C19.2683 11.3518 19.7517 11.7742 20.3669 12.0574C20.9871 12.3406 21.6951 12.4822 22.491 12.4822C23.2869 12.4822 23.99 12.3406 24.6003 12.0574C25.2156 11.7742 25.6965 11.3518 26.0432 10.7903C26.3948 10.2288 26.5706 9.53784 26.5706 8.71753V1.67163H24.3806V8.71753C24.3806 9.19604 24.3049 9.58667 24.1536 9.8894C24.0071 10.1921 23.7922 10.4143 23.509 10.5559C23.2307 10.6975 22.8914 10.7683 22.491 10.7683C22.1003 10.7683 21.761 10.6975 21.4729 10.5559Z" fill="currentColor"/>
    <path fill-rule="evenodd" clip-rule="evenodd" d="M12.425 7.7981H16.6122L16.5472 8.85921C16.494 9.72793 16.2515 10.5298 15.803 11.2409C15.3527 11.9629 14.7241 12.5183 13.9469 12.9072C13.1561 13.3053 12.2474 13.4822 11.2571 13.4822C10.4583 13.4822 9.7073 13.3449 9.02179 13.0485L9.01485 13.0455C8.33905 12.7471 7.75496 12.3172 7.27196 11.7608L7.26783 11.756C6.78911 11.1975 6.43806 10.538 6.20249 9.79679C5.9661 9.05302 5.85522 8.24304 5.85522 7.3772V6.63745C5.85522 5.76942 5.96911 4.9571 6.21197 4.21117L6.21342 4.20671C6.45928 3.4634 6.81778 2.80345 7.30126 2.24654L7.30534 2.24183C7.79198 1.68828 8.37684 1.2597 9.05148 0.961881C9.73616 0.659635 10.4817 0.517822 11.2717 0.517822C12.277 0.517822 13.1963 0.699716 13.9856 1.11609C14.7539 1.51883 15.3699 2.08778 15.8062 2.82017C16.232 3.52659 16.4783 4.31728 16.5593 5.17365L16.6628 6.26782H12.4217L12.3681 5.32455C12.3491 4.99065 12.2854 4.76563 12.2128 4.61783L12.2099 4.61208C12.158 4.5047 12.0922 4.43848 11.9906 4.38685L11.9817 4.38237L11.973 4.37771C11.8771 4.32654 11.6675 4.26099 11.2717 4.26099C11.0303 4.26099 10.8692 4.30563 10.7595 4.36049C10.6561 4.41218 10.5542 4.49579 10.4558 4.64332C10.3572 4.79132 10.2579 5.01708 10.1842 5.35249C10.1146 5.68688 10.0745 6.10698 10.0745 6.6228V7.3772C10.0745 7.88099 10.1125 8.29919 10.1798 8.63985C10.2451 8.96564 10.3364 9.20194 10.4347 9.37037C10.521 9.50675 10.6149 9.59095 10.7164 9.6473C10.824 9.69987 10.9931 9.74634 11.2571 9.74634C11.6183 9.74634 11.8327 9.68747 11.951 9.62926C12.0655 9.57298 12.1384 9.50143 12.1945 9.39799L12.2007 9.38656C12.2711 9.26062 12.3393 9.05535 12.3614 8.73007L12.425 7.7981ZM10.2537 10.5339C9.98022 10.3875 9.75562 10.1726 9.57983 9.8894C9.40894 9.60132 9.28198 9.24976 9.19897 8.83472C9.11597 8.41479 9.07446 7.92896 9.07446 7.3772V6.6228C9.07446 6.0564 9.11841 5.56323 9.2063 5.14331C9.29907 4.71851 9.43823 4.36694 9.62378 4.08862C9.80933 3.8103 10.0388 3.60278 10.3123 3.46606C10.5857 3.32935 10.9055 3.26099 11.2717 3.26099C11.76 3.26099 12.1506 3.33911 12.4436 3.49536C12.7415 3.64673 12.9636 3.87378 13.1101 4.17651C13.2566 4.47437 13.342 4.83813 13.3665 5.26782H15.5637C15.5304 4.91597 15.4647 4.58264 15.3666 4.26782C15.2633 3.93606 15.1239 3.62486 14.9485 3.33423C14.6116 2.76782 14.1355 2.32349 13.5203 2.00122C12.9099 1.67896 12.1604 1.51782 11.2717 1.51782C10.6028 1.51782 9.99731 1.63745 9.45532 1.87671C8.91333 2.11597 8.44702 2.45776 8.0564 2.9021C7.67065 3.34644 7.3728 3.88599 7.16284 4.52075C6.95776 5.15063 6.85522 5.8562 6.85522 6.63745V7.3772C6.85522 8.15845 6.95532 8.86401 7.15552 9.4939C7.35571 10.1238 7.64624 10.6609 8.0271 11.1052C8.41284 11.5496 8.87671 11.8914 9.4187 12.1306C9.96069 12.365 10.5735 12.4822 11.2571 12.4822C12.1311 12.4822 12.8782 12.3259 13.4983 12.0134C14.1233 11.7009 14.6091 11.2664 14.9558 10.7097C15.1346 10.4267 15.2736 10.1228 15.3728 9.7981C15.4687 9.48423 15.5275 9.15089 15.5491 8.7981H13.3591C13.3298 9.22778 13.2346 9.58667 13.0735 9.87476C12.9172 10.1628 12.6902 10.3801 12.3923 10.5266C12.0945 10.6731 11.7161 10.7463 11.2571 10.7463C10.8665 10.7463 10.532 10.6755 10.2537 10.5339Z" fill="currentColor"/>
    <path fill-rule="evenodd" clip-rule="evenodd" d="M4.61938 0.671631V13.3357H0.429443V0.671631H4.61938ZM3.61938 1.67163H1.42944V12.3357H3.61938V1.67163Z" fill="currentColor"/>
</svg>
