<svg width="28" height="14" viewBox="0 0 28 14" xmlns="http://www.w3.org/2000/svg">
    <path stroke="currentColor" fill="transparent" d="M23.3809 0.671631H27.5708V8.71753C27.5708 9.67976 27.364 10.5643 26.8927 11.3183C26.4402 12.0501 25.8077 12.6022 25.0203 12.965C24.2565 13.3192 23.4057 13.4822 22.4912 13.4822C21.5758 13.4822 20.7223 13.3189 19.9518 12.967L19.949 12.9658C19.1611 12.6031 18.5267 12.0514 18.0694 11.3209L18.0661 11.3156C17.6008 10.5619 17.397 9.67848 17.397 8.71753V0.671631H21.5942V8.71753C21.5942 9.10094 21.6564 9.32361 21.7157 9.44219C21.7767 9.56409 21.8428 9.62208 21.9176 9.66008C22.0418 9.7204 22.2233 9.76831 22.4912 9.76831C22.7771 9.76831 22.9519 9.71748 23.0558 9.66463L23.0621 9.66146C23.135 9.62498 23.197 9.57102 23.2536 9.45384L23.2593 9.44215C23.3186 9.32357 23.3809 9.10094 23.3809 8.71753V0.671631ZM21.4731 10.5559C21.1899 10.4143 20.9727 10.1921 20.8213 9.8894C20.6699 9.58667 20.5942 9.19604 20.5942 8.71753V1.67163H18.397V8.71753C18.397 9.53784 18.5703 10.2288 18.917 10.7903C19.2686 11.3518 19.752 11.7742 20.3672 12.0574C20.9873 12.3406 21.6953 12.4822 22.4912 12.4822C23.2871 12.4822 23.9902 12.3406 24.6006 12.0574C25.2158 11.7742 25.6968 11.3518 26.0435 10.7903C26.395 10.2288 26.5708 9.53784 26.5708 8.71753V1.67163H24.3809V8.71753C24.3809 9.19604 24.3052 9.58667 24.1538 9.8894C24.0073 10.1921 23.7925 10.4143 23.5093 10.5559C23.231 10.6975 22.8916 10.7683 22.4912 10.7683C22.1006 10.7683 21.7612 10.6975 21.4731 10.5559Z"/>
    <path stroke="currentColor" fill="transparent" d="M12.4252 7.7981H16.6124L16.5474 8.85921C16.4943 9.72793 16.2517 10.5298 15.8033 11.2409C15.353 11.9629 14.7244 12.5183 13.9472 12.9072C13.1564 13.3053 12.2476 13.4822 11.2573 13.4822C10.4585 13.4822 9.70754 13.3449 9.02203 13.0485L9.01509 13.0455C8.33929 12.7471 7.7552 12.3172 7.2722 11.7608L7.26807 11.756C6.78936 11.1975 6.43831 10.538 6.20274 9.79679C5.96634 9.05302 5.85547 8.24304 5.85547 7.3772V6.63745C5.85547 5.76942 5.96935 4.9571 6.21221 4.21117L6.21366 4.20671C6.45953 3.4634 6.81802 2.80345 7.3015 2.24654L7.30559 2.24183C7.79223 1.68828 8.37708 1.2597 9.05172 0.961881C9.7364 0.659635 10.4819 0.517822 11.272 0.517822C12.2773 0.517822 13.1965 0.699716 13.9859 1.11609C14.7542 1.51883 15.3701 2.08778 15.8065 2.82017C16.2322 3.52659 16.4785 4.31728 16.5595 5.17365L16.663 6.26782H12.4219L12.3683 5.32455C12.3493 4.99065 12.2857 4.76563 12.213 4.61783L12.2102 4.61208C12.1582 4.5047 12.0924 4.43848 11.9908 4.38685L11.982 4.38237L11.9733 4.37771C11.8773 4.32654 11.6677 4.26099 11.272 4.26099C11.0306 4.26099 10.8694 4.30563 10.7597 4.36049C10.6563 4.41218 10.5544 4.49579 10.4561 4.64332C10.3574 4.79132 10.2581 5.01708 10.1844 5.35249C10.1149 5.68688 10.0747 6.10698 10.0747 6.6228V7.3772C10.0747 7.88099 10.1128 8.29919 10.18 8.63985C10.2453 8.96564 10.3367 9.20194 10.4349 9.37037C10.5212 9.50675 10.6151 9.59095 10.7167 9.6473C10.8242 9.69987 10.9934 9.74634 11.2573 9.74634C11.6185 9.74634 11.8329 9.68747 11.9513 9.62926C12.0657 9.57298 12.1386 9.50143 12.1947 9.39799L12.2009 9.38656C12.2713 9.26062 12.3395 9.05535 12.3617 8.73007L12.4252 7.7981ZM10.2539 10.5339C9.98047 10.3875 9.75586 10.1726 9.58008 9.8894C9.40918 9.60132 9.28223 9.24976 9.19922 8.83472C9.11621 8.41479 9.07471 7.92896 9.07471 7.3772V6.6228C9.07471 6.0564 9.11865 5.56323 9.20654 5.14331C9.29932 4.71851 9.43848 4.36694 9.62402 4.08862C9.80957 3.8103 10.0391 3.60278 10.3125 3.46606C10.5859 3.32935 10.9058 3.26099 11.272 3.26099C11.7603 3.26099 12.1509 3.33911 12.4438 3.49536C12.7417 3.64673 12.9639 3.87378 13.1104 4.17651C13.2568 4.47437 13.3423 4.83813 13.3667 5.26782H15.564C15.5307 4.91597 15.465 4.58264 15.3669 4.26782C15.2635 3.93606 15.1241 3.62486 14.9487 3.33423C14.6118 2.76782 14.1357 2.32349 13.5205 2.00122C12.9102 1.67896 12.1606 1.51782 11.272 1.51782C10.603 1.51782 9.99756 1.63745 9.45557 1.87671C8.91357 2.11597 8.44727 2.45776 8.05664 2.9021C7.6709 3.34644 7.37305 3.88599 7.16309 4.52075C6.95801 5.15063 6.85547 5.8562 6.85547 6.63745V7.3772C6.85547 8.15845 6.95557 8.86401 7.15576 9.4939C7.35596 10.1238 7.64648 10.6609 8.02734 11.1052C8.41309 11.5496 8.87695 11.8914 9.41895 12.1306C9.96094 12.365 10.5737 12.4822 11.2573 12.4822C12.1313 12.4822 12.8784 12.3259 13.4985 12.0134C14.1235 11.7009 14.6094 11.2664 14.9561 10.7097C15.1348 10.4267 15.2738 10.1228 15.373 9.7981C15.469 9.48423 15.5277 9.15089 15.5493 8.7981H13.3594C13.3301 9.22778 13.2349 9.58667 13.0737 9.87476C12.9175 10.1628 12.6904 10.3801 12.3926 10.5266C12.0947 10.6731 11.7163 10.7463 11.2573 10.7463C10.8667 10.7463 10.5322 10.6755 10.2539 10.5339Z"/>
    <path stroke="currentColor" fill="transparent" d="M4.61963 0.671631V13.3357H0.429688V0.671631H4.61963ZM3.61963 1.67163H1.42969V12.3357H3.61963V1.67163Z"/>
</svg>
