<svg width="37" height="20" viewBox="0 0 37 20" fill="none" xmlns="http://www.w3.org/2000/svg">
    <path fill-rule="evenodd" clip-rule="evenodd" d="M37 10C37 15.4907 28.7173 19.9417 18.5 19.9417C8.28273 19.9417 0 15.4907 0 10C0 4.5094 8.28273 0.0583496 18.5 0.0583496C28.7173 0.0583496 37 4.5094 37 10ZM7.22266 5.29075L5.19518 15.8866H7.60278L8.10965 13.1395H10.3902C12.5444 13.2704 14.9519 11.439 14.9519 8.29952C14.9519 6.468 13.9382 5.42161 11.9108 5.29075H7.22266ZM9.25 7.25298L8.61637 11.1774H10.137C11.2773 11.0466 12.2911 10.6542 12.4177 8.43023C12.4177 7.6454 11.7842 7.25298 10.8972 7.25298H9.25ZM16.5082 2.54385L14.4809 13.1395H16.8885L18.0288 7.25298H19.9296C20.8164 7.25298 20.8164 7.6454 20.6898 8.29952L19.8028 13.1395H22.337L23.224 7.77625C23.4774 6.468 22.7171 5.42161 20.6896 5.29075H18.4089L18.9158 2.54385H16.5082ZM24.202 5.29075L22.1747 15.8866H24.5822L25.089 13.1395H27.3699C29.524 13.2704 31.9316 11.439 31.9316 8.29952C31.9316 6.468 30.9178 5.42161 28.8904 5.29075H24.202ZM26.2294 7.25298L25.5958 11.1774H25.5959H27.1165C28.2569 11.0466 29.2706 10.6542 29.3972 8.43023C29.3972 7.6454 28.7637 7.25298 27.8768 7.25298H26.2294Z" fill="currentColor"/>
</svg>
