<svg width="38" height="20" viewBox="0 0 38 20" fill="none" xmlns="http://www.w3.org/2000/svg">
    <g clip-path="url(#clip0_1183_30083)">
        <path d="M19.0703 19.8834C29.2876 19.8834 37.5703 15.4323 37.5703 9.94169C37.5703 4.45105 29.2876 0 19.0703 0C8.85304 0 0.570312 4.45105 0.570312 9.94169C0.570312 15.4323 8.85304 19.8834 19.0703 19.8834Z" fill="currentColor"/>
        <path fill-rule="evenodd" clip-rule="evenodd" d="M5.76562 15.8282L7.79311 5.23238H12.4813C14.5086 5.36324 15.5224 6.40963 15.5224 8.24115C15.5224 11.3806 13.1149 13.212 10.9607 13.0811H8.6801L8.17323 15.8282H5.76562ZM9.18682 11.1191L9.82045 7.19461H11.4677C12.3547 7.19461 12.9881 7.58702 12.9881 8.37185C12.8615 10.5958 11.8478 10.9882 10.7074 11.1191H9.18682ZM15.0513 13.0811L17.0787 2.48547H19.4863L18.9794 5.23238H21.2601C23.2876 5.36324 24.0478 6.40963 23.7945 7.71788L22.9075 13.0811H20.3733L21.2602 8.24115C21.3869 7.58702 21.3869 7.19461 20.5 7.19461H18.5993L17.4589 13.0811H15.0513ZM22.7452 15.8282L24.7725 5.23238H29.4608C31.4883 5.36324 32.502 6.40963 32.502 8.24115C32.502 11.3806 30.0944 13.212 27.9403 13.0811H25.6595L25.1526 15.8282H22.7452ZM26.1662 11.1191L26.7998 7.19461H28.4472C29.3342 7.19461 29.9677 7.58702 29.9677 8.37185C29.8411 10.5958 28.8273 10.9882 27.687 11.1191H26.1664H26.1662Z" fill="white"/>
    </g>
    <defs>
        <clipPath id="clip0_1183_30083">
            <rect width="37" height="20" fill="white" transform="translate(0.570312)"/>
        </clipPath>
    </defs>
</svg>
