<svg width="21" height="20" viewBox="0 0 21 20" fill="none" xmlns="http://www.w3.org/2000/svg">
    <g clip-path="url(#clip0_1183_30091)">
        <mask id="mask0_1183_30091" style="mask-type:luminance" maskUnits="userSpaceOnUse" x="0" y="0" width="21" height="20">
            <path d="M0.570312 0H20.5703V20H0.570312V0Z" fill="white"/>
        </mask>
        <g mask="url(#mask0_1183_30091)">
            <path d="M10.4986 0C5.42031 0 5.73698 2.21333 5.73698 2.21333L5.74281 4.50667H10.5878V5.195H3.82031C3.82031 5.195 0.570312 4.82417 0.570312 9.97417C0.570312 15.1242 3.40615 14.9408 3.40615 14.9408H5.09781V12.5517C5.09781 12.5517 5.00698 9.70167 7.88948 9.70167H12.6945C12.6945 9.70167 15.3945 9.745 15.3945 7.07833V2.66833C15.3945 2.66833 15.8045 0 10.4986 0ZM7.82698 1.54167C8.30865 1.54167 8.69865 1.93333 8.69865 2.41833C8.69865 2.9025 8.30865 3.29417 7.82698 3.29417C7.34448 3.29417 6.95531 2.9025 6.95531 2.41833C6.95531 1.93333 7.34448 1.54167 7.82698 1.54167Z" fill="currentColor"/>
            <path d="M10.6424 20C15.7191 20 15.4024 17.7867 15.4024 17.7867L15.3966 15.4933H10.5516V14.805H17.3208C17.3208 14.805 20.5708 15.1758 20.5708 10.0258C20.5708 4.87583 17.7341 5.05916 17.7341 5.05916H16.0424V7.44833C16.0424 7.44833 16.1333 10.2983 13.2508 10.2983H8.4466C8.4466 10.2983 5.7466 10.255 5.7466 12.9217V17.3317C5.7466 17.3317 5.3366 20 10.6424 20ZM13.3141 18.4583C12.8316 18.4583 12.4424 18.0667 12.4424 17.5817C12.4424 17.0975 12.8316 16.7058 13.3141 16.7058C13.7958 16.7058 14.1858 17.0975 14.1858 17.5817C14.1858 18.0667 13.7958 18.4583 13.3141 18.4583Z" fill="currentColor"/>
        </g>
    </g>
    <defs>
        <clipPath id="clip0_1183_30091">
            <rect width="20" height="20" fill="white" transform="translate(0.570312)"/>
        </clipPath>
    </defs>
</svg>
