<svg width="20" height="20" viewBox="0 0 20 20" fill="none" xmlns="http://www.w3.org/2000/svg">
    <path d="M3.05652 19.6514H12.33C12.33 19.6514 10.2732 14.9798 10.796 10.6918C11.319 6.40376 14.7006 4.45128 16.6181 4.24214C18.5353 4.03283 19.5814 5.2183 19.5814 5.2183L19.9998 4.59071C19.9998 4.59071 17.2457 1.80168 13.7593 2.11556C10.273 2.42927 7.86756 4.73013 6.36857 7.51916C4.8694 10.3084 3.99782 12.2605 3.40526 15.1889C2.81271 18.1174 3.05652 19.6514 3.05652 19.6514Z" fill="currentColor"/>
    <path d="M1.20914 14.9798L3.02201 15.1192L2.70813 16.9319L1 16.7228L1.20914 14.9798Z" fill="currentColor"/>
    <path d="M4.06786 11.1449L4.55603 9.78535L2.95229 9.15776L2.42944 10.6219L4.06786 11.1449Z" fill="currentColor"/>
    <path d="M6.33385 6.47331L7.27515 5.35792L6.05501 4.55605L5.07886 5.63659L6.33385 6.47331Z" fill="currentColor"/>
    <path d="M8.80908 2.15043L9.64581 3.16143L10.7962 2.49899L9.95952 1.55769L8.80908 2.15043Z" fill="currentColor"/>
    <path d="M12.8879 1L13.0971 2.01119L14.5265 1.97633L14.3869 1.06989L12.8879 1Z" fill="currentColor"/>
    <path d="M17.7338 2.08072L17.699 2.70813L18.6751 3.23097L18.8843 2.91727L17.7338 2.08072Z" fill="currentColor"/>
    <path d="M17.5247 4.76517V5.28801L18.466 5.39258V4.97412L17.5247 4.76517Z" fill="currentColor"/>
    <path d="M14.5266 5.21831L14.9797 6.05486L15.6422 5.53202L15.5028 4.97414L14.5266 5.21831Z" fill="currentColor"/>
    <path d="M13.0971 6.29919L13.7944 7.34505L13.376 8.07703L12.365 6.96164L13.0971 6.29919Z" fill="currentColor"/>
    <path d="M11.7028 9.19263L11.2495 10.0991L12.4348 11.1102L12.7136 9.95964L11.7028 9.19263Z" fill="currentColor"/>
    <path d="M11.2147 12.3651L11.145 13.5852L12.6092 14.2128L12.5394 13.0622L11.2147 12.3651Z" fill="currentColor"/>
    <path d="M11.6331 16.6881L11.9818 17.9433L13.8294 18.0479L13.1669 16.6881H11.6331Z" fill="currentColor"/>
</svg>
