<svg width="20" height="20" viewBox="0 0 24 24" fill="none" xmlns="http://www.w3.org/2000/svg">
    <path fill-rule="evenodd" clip-rule="evenodd" d="M18 2.00488H6C4.89543 2.00488 4 2.90031 4 4.00488V6.00488H20V4.00488C20 2.90031 19.1046 2.00488 18 2.00488ZM0 10.0049C0 8.52432 0.804397 7.23163 2 6.54001V4.00488C2 1.79574 3.79086 0.00488281 6 0.00488281H18C20.2091 0.00488281 22 1.79574 22 4.00488V6.54001C23.1956 7.23163 24 8.52432 24 10.0049V16.0049C24 17.4854 23.1956 18.7781 22 19.4698V20.0049C22 22.214 20.2091 24.0049 18 24.0049H6C3.79086 24.0049 2 22.214 2 20.0049V19.4698C0.804397 18.7781 0 17.4854 0 16.0049V10.0049ZM4 20.0049H20C20 21.1095 19.1046 22.0049 18 22.0049H6C4.89543 22.0049 4 21.1095 4 20.0049ZM18.168 14.5264C18.193 14.623 18.2056 14.7323 18.2056 14.854C18.2056 14.9937 18.1877 15.1226 18.1519 15.2407C18.116 15.3553 18.0516 15.4484 17.9585 15.52C17.869 15.5881 17.7419 15.6221 17.5771 15.6221C17.3981 15.6221 17.2477 15.6024 17.126 15.563C17.0042 15.52 16.904 15.452 16.8252 15.3589C16.75 15.2622 16.6945 15.1351 16.6587 14.9775C16.6229 14.82 16.605 14.6266 16.605 14.3975H14.7573C14.7573 14.8594 14.8379 15.2586 14.999 15.5952C15.1602 15.9282 15.375 16.2021 15.6436 16.417C15.9157 16.6283 16.2183 16.7858 16.5513 16.8896C16.8879 16.9899 17.2298 17.04 17.5771 17.04C17.9567 17.04 18.2969 16.9917 18.5977 16.895C18.902 16.7983 19.1616 16.6569 19.3765 16.4707C19.5913 16.2809 19.7542 16.05 19.8652 15.7778C19.9798 15.5057 20.0371 15.1942 20.0371 14.8433C20.0371 14.5138 19.9888 14.2184 19.8921 13.957C19.799 13.6956 19.6593 13.4629 19.4731 13.2588C19.2869 13.0511 19.056 12.8667 18.7803 12.7056C18.5081 12.5409 18.1948 12.3923 17.8403 12.2598C17.6935 12.1882 17.5557 12.1147 17.4268 12.0396C17.3014 11.9644 17.1904 11.8856 17.0938 11.8032C17.0007 11.7209 16.9272 11.6331 16.8735 11.54C16.8198 11.4434 16.793 11.3359 16.793 11.2178C16.793 11.0745 16.8198 10.9438 16.8735 10.8257C16.9272 10.7039 17.006 10.6073 17.1099 10.5356C17.2173 10.464 17.348 10.4282 17.502 10.4282C17.6738 10.4282 17.8117 10.4712 17.9155 10.5571C18.0229 10.6431 18.1017 10.7612 18.1519 10.9116C18.202 11.062 18.2271 11.2357 18.2271 11.4326H20.0586C20.0586 10.9385 19.9512 10.5106 19.7363 10.1489C19.5251 9.78369 19.2297 9.5026 18.8501 9.30566C18.4741 9.10514 18.0391 9.00488 17.5449 9.00488C17.1725 9.00488 16.8288 9.0568 16.5137 9.16064C16.1986 9.26091 15.9246 9.40771 15.6919 9.60107C15.4627 9.79085 15.2819 10.0218 15.1494 10.2939C15.0205 10.5625 14.9561 10.8651 14.9561 11.2017C14.9561 11.5526 15.0205 11.8605 15.1494 12.1255C15.2783 12.3869 15.4484 12.616 15.6597 12.813C15.8745 13.0063 16.1162 13.1764 16.3848 13.3232C16.6533 13.4665 16.9272 13.5954 17.2065 13.71C17.4285 13.8066 17.6058 13.8997 17.7383 13.9893C17.8708 14.0752 17.9692 14.1611 18.0337 14.2471C18.1017 14.333 18.1465 14.4261 18.168 14.5264ZM14.1289 16.9326V15.4824H11.4863V9.1123H9.64941V16.9326H10.8418H11.4863H14.1289ZM5.1377 9.1123L6.01855 11.7119L6.88867 9.1123H8.97803L7.23242 12.9902L9.021 16.9326H6.91016L6.01855 14.2847L5.12158 16.9326H3L4.79932 12.9902L3.04297 9.1123H5.1377Z" fill="currentColor" fill-opacity="0.87"/>
</svg>
