<svg xmlns="http://www.w3.org/2000/svg" width="64" height="64" fill="#2319dc"><path d="M11.518 33.724c6.957-1.495 6.012-9.8 5.802-11.63-.342-2.803-3.638-7.7-8.113-7.313-5.63.505-6.454 8.64-6.454 8.64-.753 3.763 1.823 11.8 8.765 10.303zm12.917-13.947c3.842 0 6.948-4.423 6.948-9.892C31.383 4.422 28.277 0 24.435 0s-6.952 4.422-6.952 9.885c0 5.47 3.114 9.892 6.952 9.892zm16.55.653c5.138.667 8.44-4.815 9.097-8.97.67-4.15-2.644-8.97-6.28-9.798-3.645-.835-8.195 5.002-8.6 8.808-.496 4.653.666 9.3 5.793 9.96zm20.363 6.977c0-1.987-1.65-7.974-7.775-7.974-6.137 0-6.954 5.65-6.954 9.643 0 3.812.32 9.132 7.94 8.963s6.787-8.633 6.787-10.633zM18.906 48.2c-.203.585-.66 2.08-.265 3.382.33 1.626 1.667 2.857 3.314 3.052H25.6v-8.908h-3.902a4.28 4.28 0 0 0-2.791 2.473zm34.668-3.334s-7.948-6.148-12.588-12.795c-6.288-9.8-15.224-5.8-18.212-.828-2.975 4.983-7.612 8.135-8.272 8.97-.666.822-9.6 5.643-7.615 14.452 1.98 8.802 8.945 8.633 8.945 8.633a39.04 39.04 0 0 0 11.088-.828 23.39 23.39 0 0 1 11.085.33s13.913 4.66 17.72-4.312-2.15-13.622-2.15-13.622zm-23.807 13.35h-9.045c-3.905-.778-5.462-3.444-5.66-3.9-.192-.46-1.298-2.603-.713-6.248 1.688-5.463 6.504-5.855 6.504-5.855h4.814v-5.918l4.1.062zm16.846-.062h-10.4C32.18 57.114 32 54.248 32 54.248v-11.5l4.223-.068v10.347c.258 1.103 1.63 1.3 1.63 1.3h4.3v-11.58h4.5z"/></svg>