<svg xmlns="http://www.w3.org/2000/svg" width="49.76" height="63.94" viewBox="0 0 49.76 63.94">
    <defs>
        <style>.a{fill:#fff;}</style>
    </defs>
    <path class="a"
          d="M72.64,30.4,52.26,18.78a4.78,4.78,0,0,0-4.5,0L27.39,30.4a4.41,4.41,0,0,0-2.25,3.88V58a4.4,4.4,0,0,0,2.25,3.87L62.51,82.15V67.78L72.64,61.9A4.42,4.42,0,0,0,74.89,58V34.28A4.2,4.2,0,0,0,72.64,30.4ZM46.89,56.53a4.25,4.25,0,1,1-4.25-4.25,4.1,4.1,0,0,1,2.75,1L52.89,49a15.81,15.81,0,0,0,1.37,2.5l-7.5,4.25A1.53,1.53,0,0,1,46.89,56.53Zm13-5.63a4.21,4.21,0,0,1-4.25-4.25,1.64,1.64,0,0,1,.12-.75L45.51,40a4.4,4.4,0,0,1-2.75,1A4.25,4.25,0,1,1,47,36.78a1.64,1.64,0,0,1-.12.75L57.14,43.4A4.57,4.57,0,0,1,60,42.28a4.21,4.21,0,0,1,4.25,4.25A4.51,4.51,0,0,1,59.89,50.9Z"
          transform="translate(-25.14 -18.21)"/>
</svg>