<?xml version="1.0" encoding="UTF-8"?>
<svg width="24px" height="24px" viewBox="0 0 24 24" version="1.1" xmlns="http://www.w3.org/2000/svg" xmlns:xlink="http://www.w3.org/1999/xlink">
    <title>openai-icon-dark</title>
    <g id="Page-1" stroke="none" stroke-width="1" fill="none" fill-rule="evenodd">
        <g id="Artboard" transform="translate(-450.000000, -101.000000)" fill="#FFFFFF" fill-rule="nonzero">
            <g id="openai-icon-light-copy" transform="translate(450.000000, 101.000000)">
                <path d="M22.1191015,9.8206093 C22.6616048,8.1859381 22.4735801,6.39678791 21.6031015,4.9106093 C20.2940098,2.63181097 17.6627528,1.45966883 15.0931015,2.0106093 C13.6453799,0.400064588 11.4487644,-0.316366725 9.32987626,0.130919744 C7.21098807,0.578206213 5.49135481,2.12133761 4.81810153,4.1796093 C3.13010988,4.52568597 1.67317263,5.58249389 0.820101526,7.0796093 C-0.503514736,9.3547953 -0.20303776,12.2248964 1.56310153,14.1766093 C1.01782465,15.8106557 1.20369477,17.6004757 2.07310153,19.0876093 C3.38393406,21.3672157 6.01699956,22.5392633 8.58810153,21.9876093 C9.73153635,23.2758899 11.3745972,24.0090544 13.0971015,23.9996994 C15.7310364,24.0019968 18.0644821,22.3016377 18.8691015,19.7936093 C20.5564539,19.4466593 22.0127546,18.3900489 22.8661015,16.8936093 C24.1735912,14.6226351 23.8721421,11.7683521 22.1191015,9.8206093 Z M13.0971015,22.4296155 C12.0460638,22.431361 11.0279299,22.0631902 10.2211015,21.3896093 L10.3621015,21.3086093 L15.1411015,18.5506093 C15.3826577,18.4085614 15.5315886,18.1498319 15.5331015,17.8696093 L15.5331015,11.1326093 L17.5531015,12.3006093 C17.5733535,12.3108703 17.5874772,12.3301974 17.5911015,12.3526093 L17.5911015,17.9356093 C17.5856021,20.4152955 15.5767877,22.4241099 13.0971015,22.4296155 L13.0971015,22.4296155 Z M3.43710153,18.3036093 C2.90960046,17.3932197 2.72015125,16.3259301 2.90210153,15.2896093 L3.04410153,15.3746093 L7.82710153,18.1336093 C8.06792628,18.2748264 8.36627677,18.2748264 8.60710153,18.1336093 L14.4501015,14.7646093 L14.4501015,17.0966093 C14.4492467,17.1212579 14.4370705,17.1441344 14.4171015,17.1586093 L9.57710153,19.9496093 C7.42666394,21.1875983 4.67992373,20.4512572 3.43710153,18.3036093 Z M2.17710153,7.8956093 C2.7080728,6.9792126 3.54621643,6.28028725 4.54310153,5.9226093 L4.54310153,11.5996093 C4.53955544,11.8788189 4.68822342,12.1378384 4.93110153,12.2756093 L10.7461015,15.6306093 L8.72610153,16.7986093 C8.70388935,16.8103435 8.6773137,16.8103435 8.65510153,16.7986093 L3.82510153,14.0126093 C1.6780171,12.7689949 0.941128615,10.0231016 2.17710153,7.8716093 L2.17710153,7.8956093 Z M18.7741015,11.7506093 L12.9411015,8.3636093 L14.9561015,7.1996093 C14.9783137,7.18787507 15.0048894,7.18787507 15.0271015,7.1996093 L19.8571015,9.9906093 C21.3655316,10.8600773 22.236022,12.5225963 22.0913097,14.2576451 C21.9465974,15.9926939 20.8127245,17.4880384 19.1811015,18.0956093 L19.1811015,12.4176093 C19.1725807,12.1390508 19.0179203,11.8855902 18.7741015,11.7506093 Z M20.7841015,8.7276093 L20.6431015,8.6426093 L15.8691015,5.8606093 C15.6267297,5.71849926 15.3264734,5.71849926 15.0841015,5.8606093 L9.24610153,9.2296093 L9.24610153,6.8966093 C9.24362726,6.87269374 9.25435403,6.84932471 9.27410153,6.8356093 L14.1041015,4.0486093 C15.6154329,3.1788288 17.4932118,3.26047159 18.9233494,4.25814242 C20.353487,5.25581325 21.0785132,6.9898998 20.7841015,8.7086093 L20.7841015,8.7276093 Z M8.14410153,12.8626093 L6.12410153,11.6986093 C6.10352906,11.6862681 6.08958094,11.6653459 6.08610153,11.6416093 L6.08610153,6.0746093 C6.08952515,4.33149941 7.09931803,2.74715557 8.67796696,2.00802679 C10.2566159,1.26889801 12.120129,1.50795025 13.4611015,2.6216093 L13.3191015,2.7016093 L8.54110153,5.4596093 C8.29916098,5.60140714 8.14982335,5.86018304 8.14810153,6.1406093 L8.14410153,12.8626093 Z M9.24110153,10.4976093 L11.8431015,8.9976093 L14.4501015,10.4976093 L14.4501015,13.4966093 L11.8531015,14.9966093 L9.24610153,13.4966093 L9.24110153,10.4976093 Z" id="openai-icon-dark"></path>
            </g>
        </g>
    </g>
</svg>