<svg width="35" height="40" viewBox="0 0 35 40" fill="none" xmlns="http://www.w3.org/2000/svg">
<path d="M12.9923 1.66446C12.6932 1.91478 12.4471 2.22285 12.2686 2.57045C12.09 2.91804 11.9826 3.2981 11.9528 3.68814C11.9229 4.07817 11.9712 4.47026 12.0948 4.84121C12.2183 5.21217 12.4147 5.55444 12.6721 5.8478C12.9111 6.11592 13.1973 6.33741 13.5162 6.50114C13.6429 6.56786 13.7389 6.68132 13.7842 6.81768C13.8294 6.95405 13.8203 7.10272 13.7588 7.23249C13.6922 7.36223 13.5783 7.46106 13.4408 7.50831C13.3034 7.55557 13.1531 7.54758 13.0214 7.48603C12.1127 7.03584 11.4085 6.25486 11.0519 5.30172C8.95755 5.82087 7.03241 6.87568 5.46353 8.36365C0.806549 12.508 -0.357696 18.8951 2.68875 22.9127C1.91686 23.8252 1.39517 24.9243 1.17523 26.1014C1.08511 26.6555 1.12597 27.2232 1.29452 27.7585C1.46306 28.2938 1.75455 28.7817 2.14543 29.1828C3.70746 30.8211 5.7837 30.392 7.45245 30.0507C8.57789 29.8264 9.62571 29.6119 10.2563 30.0507C10.887 30.4895 10.8482 30.7138 10.8676 30.8113C11.2265 32.4105 9.89736 33.1906 9.5675 33.5904C9.53865 33.6276 9.52066 33.672 9.51555 33.7188C9.51043 33.7657 9.5184 33.813 9.53854 33.8555C9.55869 33.898 9.59023 33.9341 9.62961 33.9596C9.669 33.9851 9.71468 33.9991 9.76154 34C10.5155 33.9987 11.2495 33.7562 11.8572 33.3077C12.2506 32.9711 12.5478 32.5355 12.7183 32.0454C12.8888 31.5552 12.9265 31.0283 12.8274 30.5188C12.8274 30.431 12.8274 30.3432 12.7692 30.2457C12.5448 29.4502 12.0234 28.7725 11.3139 28.354C9.99439 27.5153 8.40325 27.8371 7.02556 28.1199C5.36651 28.4515 4.30899 28.6075 3.57163 27.8274C3.39237 27.648 3.26037 27.4266 3.18753 27.1832C3.1147 26.9398 3.10333 26.6819 3.15444 26.4329C3.30431 25.686 3.63786 24.9887 4.12465 24.4047C7.81143 27.3301 13.8267 26.706 18.1635 22.8054C19.7124 21.5011 20.9325 19.8471 21.7242 17.9785C21.1954 17.7758 20.7164 17.4609 20.3196 17.0554C19.9228 16.6499 19.6176 16.1632 19.4248 15.6284C19.4006 15.5606 19.3899 15.4886 19.3934 15.4165C19.3968 15.3445 19.4144 15.2739 19.445 15.2087C19.4757 15.1435 19.5188 15.085 19.5719 15.0366C19.625 14.9881 19.6871 14.9507 19.7546 14.9263C19.8222 14.902 19.8938 14.8913 19.9655 14.8948C20.0371 14.8983 20.1074 14.9159 20.1722 14.9467C20.2371 14.9775 20.2953 15.0208 20.3435 15.0742C20.3917 15.1276 20.429 15.19 20.4532 15.2579C20.5786 15.5935 20.7626 15.9039 20.9965 16.1745C21.3193 16.5403 21.7294 16.8174 22.1883 16.9796C22.6472 17.1418 23.1397 17.1838 23.6192 17.1016C24.0987 17.0193 24.5495 16.8156 24.9289 16.5097C25.3084 16.2037 25.6039 15.8056 25.7878 15.353C25.9716 14.9003 26.0376 14.408 25.9795 13.9226C25.9215 13.4371 25.7413 12.9746 25.456 12.5786C25.1707 12.1826 24.7896 11.8663 24.3489 11.6594C23.9081 11.4525 23.4222 11.362 22.9369 11.3963C22.7965 11.4021 22.6592 11.3538 22.5528 11.2615C22.4465 11.1691 22.3792 11.0395 22.3645 10.899C22.3564 10.8272 22.3626 10.7545 22.3827 10.6852C22.4028 10.6158 22.4363 10.5511 22.4815 10.4949C22.5266 10.4387 22.5823 10.392 22.6455 10.3576C22.7087 10.3232 22.7781 10.3017 22.8496 10.2944C23.609 10.2335 24.3699 10.3926 25.0423 10.7527C25.4497 8.34415 25.605 5.37973 24.6348 4.32658C23.9362 3.53672 21.1323 2.95164 18.6583 3.0004C18.7793 3.55286 18.7793 4.12517 18.6583 4.67763C18.6166 4.80829 18.5283 4.91881 18.4103 4.98794C18.2924 5.05707 18.1532 5.07991 18.0195 5.05207C17.8859 5.02423 17.7671 4.94768 17.6863 4.83714C17.6054 4.72661 17.568 4.58991 17.5814 4.45335C17.7008 3.87512 17.6433 3.27409 17.4165 2.72932C17.1896 2.18454 16.804 1.72153 16.3104 1.40117C15.7969 1.09885 15.2035 0.962 14.6102 1.00908C14.0169 1.05615 13.4523 1.28489 12.9923 1.66446ZM23.7325 5.30172C23.8186 5.45271 23.8582 5.62604 23.8461 5.79967C23.834 5.97331 23.7708 6.13941 23.6646 6.27686C23.4511 6.47188 23.2086 6.18909 22.966 5.92581C22.7235 5.66252 22.4421 5.34073 22.6653 5.1457C22.8385 5.06266 23.0324 5.03317 23.2224 5.06094C23.4124 5.08871 23.5899 5.17251 23.7325 5.30172Z" fill="#822B55"/>
<path d="M25.1132 34.1681L24.16 33.9721L26.3521 28.1443L23.0158 27.4582C22.4629 27.3445 22.529 27.0711 22.7703 26.8157C23.0116 26.5604 22.8322 26.7567 22.8583 26.7262C24.4915 25.0171 26.9425 22.4716 30.2053 19.0705L31.1585 19.2666L28.9664 25.0943L32.3028 25.7804C32.7698 25.8765 32.7782 26.1742 32.6605 26.3114L32.5672 26.4268C27.5921 31.5835 25.1132 34.1681 25.1132 34.1681Z" fill="#822B55"/>
</svg>
