<svg width="30" height="30" viewBox="0 0 30 30" fill="none" xmlns="http://www.w3.org/2000/svg">
  <path
    d="M29.6472 20.66H27.1776L27.8832 16H27.1776L23.0851 22.8V22.9C22.944 23.12 22.944 23.34 23.3532 23.34H25.7664L25.0608 28H25.7664L30 21.1V21C30 20.88 30 20.66 29.6472 20.66Z"
    fill="#DDDDDD" />
  <path
    d="M18.74 23.74C19.6088 23.0049 20.2937 22.0769 20.74 21.03C20.4445 20.9193 20.1773 20.7444 19.9576 20.5179C19.738 20.2913 19.5714 20.0188 19.47 19.72C19.4603 19.6806 19.4603 19.6394 19.47 19.6C19.461 19.5605 19.461 19.5195 19.47 19.48C19.4839 19.441 19.5081 19.4064 19.54 19.38L19.64 19.32H19.75H19.87C19.9045 19.3411 19.935 19.3682 19.96 19.4C19.9912 19.4252 20.0124 19.4606 20.02 19.5C20.0917 19.6873 20.1967 19.8601 20.33 20.01C20.5035 20.2188 20.7322 20.3748 20.99 20.46C21.2424 20.5533 21.5151 20.5775 21.78 20.53C22.0488 20.4798 22.3002 20.3615 22.5103 20.1864C22.7204 20.0113 22.8821 19.7853 22.98 19.53C23.0812 19.2762 23.1189 19.0016 23.09 18.73C23.0508 18.4614 22.9517 18.2051 22.8 17.98C22.6397 17.7579 22.4266 17.5792 22.18 17.46C21.9359 17.3487 21.6676 17.3005 21.4 17.32C21.3226 17.3196 21.248 17.2912 21.19 17.24C21.1292 17.1897 21.0899 17.1182 21.08 17.04C21.0751 17.0002 21.0751 16.9598 21.08 16.92C21.1066 16.8413 21.1596 16.7741 21.23 16.73C21.2664 16.7242 21.3036 16.7242 21.34 16.73C21.7633 16.696 22.1873 16.7864 22.56 16.99C22.8 15.64 22.87 13.99 22.36 13.4C21.85 12.81 20.41 12.64 19 12.66C19.07 12.9694 19.07 13.2906 19 13.6C18.9944 13.6395 18.9797 13.6772 18.9572 13.7102C18.9346 13.7431 18.9048 13.7704 18.87 13.79C18.8352 13.8049 18.7978 13.8125 18.76 13.8125C18.7222 13.8125 18.6848 13.8049 18.65 13.79C18.6139 13.7993 18.5761 13.7993 18.54 13.79C18.5055 13.7689 18.475 13.7418 18.45 13.71C18.4402 13.674 18.4402 13.636 18.45 13.6C18.4398 13.5606 18.4398 13.5194 18.45 13.48C18.5211 13.1435 18.4825 12.793 18.34 12.48C18.2136 12.1729 17.993 11.9138 17.71 11.74C17.4279 11.5677 17.099 11.4876 16.7692 11.5109C16.4394 11.5342 16.1251 11.6597 15.87 11.87C15.6688 12.0484 15.5113 12.2709 15.41 12.52C15.3089 12.7703 15.2711 13.0416 15.3 13.31C15.3293 13.5779 15.4218 13.8349 15.57 14.06C15.7216 14.2786 15.9241 14.4571 16.16 14.58C16.2175 14.6263 16.2594 14.6891 16.28 14.76C16.3003 14.8285 16.3003 14.9015 16.28 14.97C16.2492 15.0361 16.1961 15.0892 16.13 15.12C16.0614 15.1397 15.9886 15.1397 15.92 15.12C15.4152 14.8545 15.0294 14.408 14.84 13.87C14.4996 13.9572 14.1655 14.0675 13.84 14.2V8.77C13.8374 8.03788 13.5461 7.33635 13.0293 6.81773C12.5126 6.29911 11.8121 6.00526 11.08 6H2.77C2.03535 6 1.33079 6.29184 0.811314 6.81131C0.291838 7.33079 0 8.03535 0 8.77L0 17.08C0.00263499 17.8138 0.29532 18.5169 0.814225 19.0358C1.33313 19.5547 2.03616 19.8474 2.77 19.85H9.32C9.18418 20.5299 9.18954 21.2305 9.33576 21.9083C9.48198 22.5861 9.76593 23.2265 10.17 23.79C9.73894 24.3034 9.44939 24.9204 9.33 25.58C9.27975 25.8906 9.30026 26.2085 9.39 26.51C9.48611 26.8072 9.6505 27.0778 9.87 27.3C10.73 28.22 11.87 27.98 12.8 27.79C13.42 27.66 14.01 27.54 14.36 27.79C14.71 28.04 14.68 28.16 14.7 28.22C14.89 29.11 14.16 29.55 13.98 29.77C13.9724 29.7927 13.9724 29.8173 13.98 29.84C13.97 29.8657 13.97 29.8943 13.98 29.92L14 30H14.07C14.4877 29.9921 14.8915 29.8482 15.22 29.59C15.4395 29.4015 15.6022 29.1557 15.69 28.88C15.7879 28.6078 15.812 28.3145 15.76 28.03V27.88C15.7019 27.6585 15.6003 27.4507 15.4613 27.2688C15.3222 27.0868 15.1485 26.9343 14.95 26.82C14.583 26.6432 14.1847 26.5407 13.778 26.5184C13.3712 26.4961 12.9641 26.5544 12.58 26.69C11.66 26.87 11.08 26.96 10.67 26.52C10.5788 26.4192 10.5106 26.2998 10.47 26.17C10.4451 26.0378 10.4451 25.9022 10.47 25.77C10.558 25.3547 10.7392 24.9649 11 24.63C13 26.27 16.33 25.92 18.74 23.74ZM21.21 13.87C21.3031 13.8132 21.411 13.7853 21.52 13.79C21.6301 13.7978 21.7349 13.8397 21.82 13.91C21.8733 14.0042 21.8977 14.112 21.89 14.22C21.8757 14.3224 21.8342 14.419 21.77 14.5C21.64 14.61 21.51 14.45 21.38 14.31C21.25 14.17 21.09 14 21.21 13.87ZM9.55 18.92H2.77C2.28108 18.92 1.81203 18.7265 1.46538 18.3817C1.11872 18.0369 0.922643 17.5689 0.92 17.08V8.77C0.92 8.27935 1.11491 7.80879 1.46185 7.46185C1.80879 7.11491 2.27935 6.92 2.77 6.92H11.08C11.5689 6.92264 12.0369 7.11872 12.3817 7.46538C12.7265 7.81203 12.92 8.28108 12.92 8.77V14.77C12.4818 15.0362 12.0728 15.348 11.7 15.7C10.717 16.5694 9.97625 17.6788 9.55 18.92Z"
    fill="#DDDDDD" />
  <path
    d="M12.28 9.68C12.2799 9.56125 12.255 9.44384 12.2067 9.33534C12.1585 9.22683 12.0881 9.12963 12 9.05C11.8285 8.88349 11.599 8.79024 11.36 8.79H7.82999V8.46C7.83207 8.3413 7.8101 8.22341 7.76542 8.11342C7.72074 8.00343 7.65426 7.90362 7.56999 7.82C7.39505 7.65377 7.16124 7.56385 6.91999 7.57C6.68219 7.5665 6.45246 7.65623 6.27999 7.82C6.19065 7.90075 6.11948 7.99957 6.07121 8.1099C6.02294 8.22024 5.99866 8.33957 5.99999 8.46V8.79H2.47999C2.36129 8.78792 2.2434 8.80989 2.13341 8.85457C2.02343 8.89926 1.92362 8.96573 1.83999 9.05C1.75372 9.13051 1.68516 9.22811 1.63868 9.33658C1.59219 9.44504 1.5688 9.562 1.56999 9.68C1.5674 9.79967 1.59011 9.91855 1.63663 10.0288C1.68316 10.1391 1.75246 10.2383 1.83999 10.32C1.92411 10.4029 2.02424 10.4679 2.13427 10.5109C2.2443 10.5538 2.36193 10.574 2.47999 10.57H8.47999C8.309 10.9953 8.10505 11.4065 7.86999 11.8C7.61915 12.227 7.32781 12.6288 6.99999 13C6.84999 12.82 6.68999 12.65 6.55999 12.48C6.35582 12.24 6.16869 11.9861 5.99999 11.72C5.9104 11.5783 5.7866 11.4614 5.63999 11.38C5.49738 11.295 5.33585 11.2469 5.16999 11.24C5.01684 11.2307 4.86387 11.2608 4.7256 11.3273C4.58733 11.3938 4.46836 11.4946 4.37999 11.62C4.30212 11.7462 4.26088 11.8917 4.26088 12.04C4.26088 12.1883 4.30212 12.3337 4.37999 12.46C4.58045 12.8081 4.8043 13.1422 5.04999 13.46C5.24999 13.72 5.46999 13.97 5.68999 14.23L3.10999 16.77C3.02694 16.8524 2.96117 16.9506 2.91653 17.0588C2.87188 17.167 2.84926 17.283 2.84999 17.4C2.84812 17.5172 2.87021 17.6335 2.91492 17.7419C2.95963 17.8502 3.02601 17.9482 3.10999 18.03C3.2839 18.1917 3.51255 18.2815 3.74999 18.2815C3.98744 18.2815 4.21608 18.1917 4.38999 18.03L6.91999 15.58L8.61999 17.19L8.86999 17.42L9.04999 17.13C9.21333 16.8433 9.4115 16.578 9.63999 16.34L9.80999 16.15L9.63999 16L8.20999 14.33C8.70376 13.782 9.13632 13.1818 9.49999 12.54C9.84835 11.9029 10.1331 11.233 10.35 10.54H11.35C11.5871 10.5543 11.8203 10.4753 12 10.32C12.0893 10.2392 12.1605 10.1404 12.2088 10.0301C12.2571 9.91976 12.2813 9.80042 12.28 9.68Z"
    fill="#DDDDDD" />
</svg>