<svg width="24" height="24" viewBox="0 0 24 24" fill="none" xmlns="http://www.w3.org/2000/svg">
  <g clip-path="url(#clip0_1844_1718)">
    <path
      d="M23.24 12.0005C23.0797 11.7784 22.8666 11.5997 22.62 11.4805C22.3758 11.3692 22.1076 11.321 21.84 11.3405C21.7626 11.3401 21.688 11.3117 21.63 11.2605C21.5692 11.2102 21.5299 11.1387 21.52 11.0605C21.515 11.0206 21.515 10.9803 21.52 10.9405C21.5339 10.9008 21.5542 10.8637 21.58 10.8305C21.605 10.7987 21.6354 10.7716 21.67 10.7505C21.7065 10.746 21.7434 10.746 21.78 10.7505C22.2024 10.7122 22.6267 10.7992 23 11.0005C23.24 9.65049 23.31 8.00049 22.8 7.41049C22.29 6.82049 20.86 6.65049 19.49 6.67049C19.56 6.97991 19.56 7.30106 19.49 7.61049C19.4843 7.65001 19.4697 7.68771 19.4471 7.72066C19.4246 7.75361 19.3948 7.78092 19.36 7.80049C19.3252 7.81534 19.2878 7.823 19.25 7.823C19.2122 7.823 19.1747 7.81534 19.14 7.80049C19.1039 7.8098 19.066 7.8098 19.03 7.80049L19 7.71049C18.9943 7.67404 18.9943 7.63694 19 7.60049C18.9898 7.56113 18.9898 7.51984 19 7.48049C19.0711 7.14396 19.0325 6.79351 18.89 6.48049C18.7635 6.1734 18.5429 5.91431 18.26 5.74049C17.9771 5.57043 17.6494 5.49023 17.32 5.51049C16.9908 5.53827 16.6775 5.66362 16.42 5.87049C16.2187 6.04892 16.0613 6.27135 15.96 6.52049C15.8588 6.77075 15.8211 7.04211 15.85 7.31049C15.8792 7.57835 15.9718 7.83542 16.12 8.06049C16.2715 8.27911 16.474 8.45757 16.71 8.58049C16.7675 8.62676 16.8094 8.6896 16.83 8.76049C16.8553 8.8282 16.8553 8.90277 16.83 8.97049C16.8016 9.03823 16.7477 9.0921 16.68 9.12049C16.6114 9.14021 16.5386 9.14021 16.47 9.12049C15.965 8.8579 15.5815 8.40987 15.4 7.87049C15.0592 7.9565 14.725 8.06678 14.4 8.20049V2.77049C14.4002 2.39903 14.3256 2.03132 14.1808 1.68924C14.036 1.34717 13.8239 1.03771 13.5571 0.779281C13.2903 0.520851 12.9742 0.318727 12.6277 0.184936C12.2811 0.051144 11.9112 -0.0115831 11.54 0.000486017H3.22996C2.49531 0.000486017 1.79075 0.292324 1.27128 0.8118C0.751799 1.33128 0.459961 2.03584 0.459961 2.77049V11.0805C0.462596 11.8143 0.75528 12.5174 1.27419 13.0363C1.79309 13.5552 2.49612 13.8479 3.22996 13.8505H9.77996C9.64414 14.5304 9.6495 15.231 9.79572 15.9088C9.94194 16.5865 10.2259 17.227 10.63 17.7905C10.1989 18.3039 9.90935 18.9209 9.78996 19.5805C9.73971 19.8911 9.76022 20.209 9.84996 20.5105C9.94608 20.8077 10.1105 21.0782 10.33 21.3005C11.19 22.2205 12.33 21.9805 13.27 21.7905C13.88 21.6605 14.47 21.5405 14.82 21.7905C15.17 22.0405 15.15 22.1605 15.16 22.2205C15.36 23.1105 14.62 23.5505 14.44 23.7705C14.4323 23.7932 14.4323 23.8178 14.44 23.8405C14.4343 23.8669 14.4343 23.8941 14.44 23.9205L14.49 23.9805H14.56C14.9777 23.9726 15.3814 23.8286 15.71 23.5705C15.9293 23.3799 16.0949 23.1351 16.19 22.8605C16.2797 22.5864 16.3003 22.2944 16.25 22.0105V21.8605C16.1918 21.639 16.0903 21.4312 15.9512 21.2493C15.8122 21.0673 15.6384 20.9148 15.44 20.8005C15.0621 20.6173 14.6508 20.5131 14.2313 20.4942C13.8118 20.4753 13.3928 20.5421 13 20.6905C12.08 20.8705 11.5 20.9605 11.09 20.5205C10.9981 20.4217 10.9328 20.3013 10.9 20.1705C10.8652 20.0394 10.8652 19.9016 10.9 19.7705C10.983 19.3536 11.1647 18.9627 11.43 18.6305C13.43 20.2705 16.81 19.9205 19.21 17.7405C20.0818 17.0082 20.7673 16.0794 21.21 15.0305C20.9171 14.917 20.6513 14.7433 20.43 14.5205C20.2095 14.2933 20.0421 14.0201 19.94 13.7205C19.9302 13.6811 19.9302 13.6399 19.94 13.6005C19.931 13.561 19.931 13.52 19.94 13.4805C19.9539 13.4415 19.978 13.4069 20.01 13.3805L20.11 13.3205H20.23H20.34C20.3775 13.3415 20.4113 13.3685 20.44 13.4005C20.4643 13.431 20.4845 13.4646 20.5 13.5005C20.5641 13.6892 20.6662 13.8627 20.8 14.0105C20.9772 14.2137 21.2035 14.3681 21.4573 14.4592C21.7111 14.5502 21.984 14.5747 22.25 14.5305C22.5165 14.4813 22.767 14.3681 22.98 14.2005C23.1893 14.0272 23.351 13.8035 23.45 13.5505C23.5496 13.2956 23.5826 13.0195 23.5458 12.7483C23.5091 12.4771 23.4038 12.2197 23.24 12.0005ZM21.67 7.87049C21.7688 7.80968 21.8843 7.78168 22 7.79049C22.11 7.79829 22.2149 7.84024 22.3 7.91049C22.3533 8.00468 22.3776 8.11252 22.37 8.22049C22.3601 8.32403 22.3181 8.42191 22.25 8.50049C22.13 8.61049 21.99 8.45049 21.86 8.31049C21.73 8.17049 21.55 8.00049 21.67 7.87049ZM3.22996 12.9205C2.74104 12.9205 2.27199 12.727 1.92534 12.3822C1.57868 12.0374 1.3826 11.5694 1.37996 11.0805V2.77049C1.37996 2.27984 1.57487 1.80928 1.92181 1.46234C2.26876 1.1154 2.73931 0.920486 3.22996 0.920486H11.54C11.7824 0.920482 12.0225 0.968405 12.2464 1.0615C12.4703 1.15459 12.6736 1.29102 12.8446 1.46294C13.0156 1.63486 13.1509 1.83888 13.2428 2.06328C13.3347 2.28767 13.3813 2.52801 13.38 2.77049V8.77049C11.8167 9.73207 10.6252 11.1949 9.99996 12.9205H3.22996Z"
      fill="#D81B5F" />
    <path
      d="M10.8102 4.57041H11.8102C12.048 4.57391 12.2777 4.48418 12.4502 4.32041C12.5377 4.23876 12.607 4.13954 12.6536 4.02925C12.7001 3.91896 12.7228 3.80009 12.7202 3.68041C12.7214 3.56241 12.698 3.44545 12.6515 3.33699C12.605 3.22852 12.5365 3.13093 12.4502 3.05041C12.2787 2.8839 12.0492 2.79065 11.8102 2.79041H8.3002V2.46041C8.29904 2.33846 8.27164 2.21818 8.21988 2.10775C8.16812 1.99732 8.09319 1.89932 8.0002 1.82041C7.82773 1.65665 7.59801 1.56691 7.3602 1.57041C7.12239 1.56691 6.89267 1.65665 6.7202 1.82041C6.63267 1.90206 6.56337 2.00128 6.51684 2.11157C6.47031 2.22186 6.4476 2.34074 6.4502 2.46041V2.79041H2.9402C2.82166 2.78946 2.70409 2.81194 2.59426 2.85656C2.48443 2.90118 2.3845 2.96706 2.3002 3.05041C2.20847 3.12822 2.13429 3.22461 2.08257 3.33321C2.03086 3.44181 2.00278 3.56015 2.0002 3.68041C1.9976 3.80009 2.02031 3.91896 2.06684 4.02925C2.11337 4.13954 2.18267 4.23876 2.2702 4.32041C2.35499 4.40241 2.45523 4.46674 2.5651 4.50966C2.67497 4.55258 2.79228 4.57323 2.9102 4.57041H8.9102C8.73852 4.99363 8.53805 5.40459 8.3102 5.80041C8.04674 6.224 7.74908 6.62534 7.4202 7.00041C7.2602 6.82041 7.1002 6.65041 6.9702 6.48041C6.77861 6.22956 6.60485 5.96558 6.4502 5.69041C6.3606 5.54869 6.23681 5.43177 6.0902 5.35041C5.94758 5.26546 5.78606 5.21734 5.6202 5.21041C5.4683 5.19996 5.31632 5.22956 5.17945 5.29624C5.04257 5.36292 4.92559 5.46436 4.8402 5.59041C4.75887 5.71539 4.71557 5.8613 4.71557 6.01041C4.71557 6.15953 4.75887 6.30543 4.8402 6.43041C5.04066 6.77851 5.26451 7.11262 5.5102 7.43041C5.7102 7.69041 5.9302 7.94041 6.1502 8.20041L3.5802 10.7704C3.49525 10.8514 3.42822 10.9493 3.38344 11.0579C3.33865 11.1664 3.31711 11.2831 3.3202 11.4004C3.31583 11.5179 3.33679 11.635 3.38165 11.7437C3.42651 11.8524 3.49422 11.9502 3.5802 12.0304C3.66314 12.1121 3.76164 12.1763 3.86985 12.2193C3.97807 12.2622 4.0938 12.283 4.2102 12.2804C4.33006 12.2782 4.44831 12.2523 4.55814 12.2043C4.66797 12.1562 4.76722 12.0869 4.8502 12.0004L7.3902 9.58041L9.0802 11.1904L9.3402 11.4204L9.5102 11.1304C9.67658 10.8458 9.87449 10.5808 10.1002 10.3404L10.2702 10.1504L10.1002 10.0004L8.6702 8.33041C9.18115 7.78709 9.62746 7.18642 10.0002 6.54041C10.333 5.91136 10.6043 5.25163 10.8102 4.57041Z"
      fill="#D81B5F" />
  </g>
  <defs>
    <clipPath id="clip0_1844_1718">
      <rect width="24" height="24" fill="white" />
    </clipPath>
  </defs>
</svg>