<svg width="1440" height="455" viewBox="0 0 1440 455" fill="none" xmlns="http://www.w3.org/2000/svg">
  <path fill-rule="evenodd" clip-rule="evenodd"
    d="M553.375 11.0296C553.375 9.99905 555.093 6.90744 557.325 4.5029C561.276 -0.134429 566.085 -1.3367 567.974 1.5831C568.247 1.9932 568.366 2.20371 568.453 2.35904C568.585 2.59397 568.646 2.70249 569.065 3.18442C569.346 3.50791 569.708 3.66849 570.089 3.83725C570.457 4.00022 570.841 4.17075 571.187 4.5029C571.616 4.91599 571.787 5.25376 571.99 5.65543C572.15 5.97177 572.33 6.32773 572.672 6.79123C573.367 7.73374 574.844 8.96854 574.844 8.96854C574.844 8.96854 582.057 16.1822 584.805 15.6669C585.492 15.4951 586.008 16.3539 586.008 17.5562C586.008 20.3042 600.607 35.9338 603.183 35.9338C604.213 35.9338 604.557 36.6209 604.042 37.6514C603.526 38.5102 603.698 39.3689 604.557 39.3689C605.587 39.3689 609.709 42.804 614.003 47.0978C618.469 51.5634 623.621 54.8268 625.854 54.9985C633.411 55.1703 640.109 56.7161 640.625 58.4336C640.968 59.2924 641.999 59.6358 642.857 58.9488C643.716 58.4336 644.403 58.9489 644.403 59.9794C644.403 61.0099 645.09 61.5251 646.121 60.8381C646.979 60.3228 649.212 60.6664 651.273 61.6969C652.426 62.2209 654.026 63.0645 655.567 63.8768C656.551 64.3958 657.511 64.9019 658.315 65.3037C660.376 66.3343 662.265 66.6778 662.78 66.1625C664.498 64.6167 670.166 68.567 670.166 71.3151C670.166 72.6891 672.055 74.7502 674.46 75.7807C676.864 76.8112 678.753 78.5288 678.753 79.5593C678.753 81.2768 681.501 84.5401 692.15 95.0171C695.07 98.1087 697.646 101.372 697.646 102.231C697.818 104.12 707.951 117.86 707.951 115.971C707.951 115.112 708.981 115.456 710.355 116.486C711.729 117.517 713.619 118.204 714.477 118.032C715.508 117.689 717.397 118.719 718.6 120.437C719.802 121.982 725.298 125.589 730.622 128.337C735.946 131.085 740.068 133.833 739.553 134.349C739.038 134.692 741.099 135.895 743.847 136.925C746.767 137.956 749.171 138.471 749.171 137.956C749.171 137.44 750.373 138.299 751.919 139.673C753.293 141.219 756.041 142.421 757.93 142.421C759.82 142.421 763.598 143.623 766.174 144.997C768.922 146.371 771.499 147.059 772.014 146.543C772.529 146.028 775.793 147.23 779.399 149.12C783.006 151.181 787.128 152.726 788.33 152.726C789.533 152.726 791.765 153.929 793.139 155.303C794.685 156.677 797.948 157.879 800.697 157.879C803.445 157.879 806.708 159.253 807.91 160.799C809.112 162.516 811.001 163.89 811.86 163.89C814.952 164.062 823.883 168.871 825.257 171.104C825.944 172.306 828.005 173.337 829.722 173.337C831.612 173.337 833.329 174.539 834.016 175.913C834.531 177.287 836.421 178.489 838.138 178.489C839.856 178.489 842.947 180.379 845.008 182.783C847.069 185.188 849.989 187.077 851.363 187.077C852.737 187.077 853.939 187.764 853.939 188.795C853.939 189.653 855.485 190.512 857.374 190.512C859.264 190.512 860.809 191.543 860.809 192.917C860.809 194.291 863.214 196.18 866.134 197.211C869.053 198.241 873.691 200.989 876.61 203.394C879.358 205.798 883.48 207.688 885.885 207.688C888.461 207.688 890.007 208.718 890.007 210.264C890.007 211.81 891.553 212.84 893.957 212.84C898.766 212.84 907.697 216.962 910.617 220.569C911.819 221.943 913.88 223.145 915.083 223.145C916.457 223.145 917.487 224.519 917.487 226.237C917.487 230.187 943.993 263.476 947.085 262.274C948.631 261.759 949.146 262.274 948.459 263.992C947.944 265.194 948.459 266.568 949.489 266.568C949.981 266.65 955.648 272.279 961.569 278.161C968.056 284.605 974.849 291.353 975.478 291.443C976.8 291.567 979.917 293.911 984.969 298.01C986.006 297.513 987.204 297.204 988.128 297.204C989.809 297.204 992.655 296.037 994.466 294.433C996.406 292.975 999.64 291.371 1001.58 290.788C1003.78 290.204 1012.71 281.601 1024.86 268.186C1058.76 230.856 1063.8 225.753 1066.52 225.898C1067.94 226.044 1070.14 225.607 1071.56 225.023C1072.86 224.294 1075.7 224.586 1078.03 225.461C1080.23 226.336 1084.11 227.502 1086.57 227.94C1089.03 228.523 1092.65 229.835 1094.46 231.002C1101.7 235.085 1111.4 236.251 1111.79 233.043C1111.92 231.877 1120.72 220.941 1131.32 208.983C1141.93 196.88 1151.37 185.652 1152.41 183.903C1153.44 182.153 1154.61 180.695 1155 180.84C1157.58 181.132 1159.01 180.257 1159.01 178.507C1159.01 177.341 1159.91 176.174 1160.95 175.591C1161.98 175.153 1162.89 173.841 1162.89 172.675C1162.89 171.362 1164.31 170.05 1165.99 169.467C1167.93 169.029 1169.48 167.279 1169.87 165.092C1170.39 163.196 1171.43 161.592 1172.33 161.592C1174.4 161.447 1179.7 156.489 1179.7 154.593C1179.7 153.864 1180.61 152.843 1181.64 152.26C1182.68 151.822 1183.58 150.51 1183.58 149.344C1184.16 148.876 1184.5 148.357 1184.82 147.867C1185.3 147.144 1185.74 146.483 1186.82 146.136C1188.63 145.698 1190.05 144.386 1190.05 143.365C1190.05 142.49 1191.35 139.865 1193.03 137.824C1196 133.887 1199.62 132.866 1201.05 135.345C1201.25 135.693 1201.34 135.872 1201.41 136.004C1201.51 136.203 1201.55 136.295 1201.87 136.704C1202.08 136.979 1202.35 137.115 1202.64 137.259C1202.92 137.397 1203.21 137.542 1203.47 137.824C1203.79 138.175 1203.92 138.461 1204.07 138.802C1204.19 139.071 1204.33 139.373 1204.59 139.767C1205.11 140.567 1206.22 141.615 1206.22 141.615C1206.22 141.615 1211.65 147.74 1213.72 147.302C1214.24 147.156 1214.63 147.885 1214.63 148.906C1214.63 151.239 1225.63 164.509 1227.57 164.509C1228.34 164.509 1228.6 165.092 1228.21 165.967C1227.82 166.696 1227.95 167.425 1228.6 167.425C1229.38 167.425 1232.48 170.341 1235.72 173.987C1239.08 177.778 1242.96 180.549 1244.64 180.695C1250.33 180.84 1255.38 182.153 1255.77 183.611C1256.02 184.34 1256.8 184.632 1257.45 184.048C1258.09 183.611 1258.61 184.048 1258.61 184.923C1258.61 185.798 1259.13 186.236 1259.9 185.652C1260.55 185.215 1262.23 185.507 1263.79 186.382C1264.65 186.826 1265.86 187.543 1267.02 188.232C1267.76 188.673 1268.48 189.103 1269.09 189.444C1270.64 190.319 1272.06 190.61 1272.45 190.173C1273.75 188.86 1278.01 192.214 1278.01 194.547C1278.01 195.714 1279.44 197.464 1281.25 198.339C1283.06 199.214 1284.48 200.672 1284.48 201.547C1284.48 203.005 1286.55 205.775 1294.57 214.67C1296.77 217.295 1298.71 220.066 1298.71 220.795C1298.84 222.399 1306.47 234.064 1306.47 232.46C1306.47 231.731 1307.25 232.023 1308.28 232.898C1309.32 233.773 1310.74 234.356 1311.39 234.21C1312.16 233.918 1313.59 234.793 1314.49 236.251C1315.4 237.564 1319.54 240.626 1323.55 242.959C1327.56 245.292 1330.66 247.625 1330.27 248.063C1329.89 248.354 1331.44 249.375 1333.51 250.25C1335.71 251.125 1337.52 251.562 1337.52 251.125C1337.52 250.688 1338.42 251.417 1339.59 252.583C1340.62 253.896 1342.69 254.916 1344.12 254.916C1345.54 254.916 1348.38 255.937 1350.32 257.104C1352.39 258.27 1354.33 258.853 1354.72 258.416C1355.11 257.978 1357.57 258.999 1360.28 260.603C1363 262.353 1366.11 263.665 1367.01 263.665C1367.92 263.665 1369.6 264.686 1370.63 265.853C1371.8 267.019 1374.26 268.04 1376.32 268.04C1378.39 268.04 1380.85 269.207 1381.76 270.519C1382.66 271.977 1384.09 273.144 1384.73 273.144C1387.06 273.289 1393.79 277.372 1394.82 279.268C1395.34 280.289 1396.89 281.164 1398.19 281.164C1399.61 281.164 1400.9 282.184 1401.42 283.351C1401.81 284.517 1403.23 285.538 1404.52 285.538C1405.82 285.538 1408.15 287.142 1409.7 289.184C1411.25 291.225 1413.45 292.829 1414.49 292.829C1415.52 292.829 1416.43 293.412 1416.43 294.287C1416.43 295.016 1417.59 295.745 1419.01 295.745C1420.44 295.745 1421.6 296.62 1421.6 297.787C1421.6 298.953 1423.41 300.557 1425.61 301.432C1427.81 302.307 1431.3 304.64 1433.5 306.682C1435.57 308.723 1438.67 310.327 1440.49 310.327C1442.43 310.327 1443.59 311.202 1443.59 312.515C1443.59 313.827 1444.75 314.702 1446.57 314.702C1450.19 314.702 1456.91 318.202 1459.11 321.264C1460.02 322.43 1461.57 323.451 1462.48 323.451C1463.51 323.451 1464.29 324.618 1464.29 326.076C1464.29 329.43 1484.25 357.692 1486.58 356.671C1487.74 356.234 1488.13 356.671 1487.61 358.129C1487.23 359.15 1487.61 360.317 1488.39 360.317C1488.76 360.386 1493.03 365.165 1497.49 370.159C1502.37 375.63 1507.49 381.359 1507.96 381.435C1509.24 381.571 1512.76 384.824 1518.74 390.354C1532.07 402.691 1557.65 426.36 1598 452.041C1597.44 509.408 1482.4 512.432 1478.26 511.703C1477.61 511.703 1477.22 512.286 1477.22 513.161C1477.22 514.036 1476.45 514.474 1475.41 514.036C1474.38 513.599 1473.34 513.599 1473.08 514.182C1472.44 515.932 1459.11 523.514 1459.11 522.202C1459.11 521.619 1458.47 522.056 1457.82 523.223C1457.17 524.389 1456.01 525.41 1455.36 525.41C1454.59 525.41 1453.29 526.431 1452.39 527.743C1450.45 530.222 1438.16 541.45 1437.12 541.45C1436.73 541.596 1434.41 543.783 1431.95 546.408C1426.26 552.532 1416.43 560.115 1414.23 560.115C1413.32 560.115 1412.54 560.698 1412.54 561.281C1412.54 564.052 1397.8 567.406 1389.65 566.531C1380.59 565.51 1371.15 562.739 1371.15 560.99C1371.15 560.406 1362.23 559.969 1351.49 560.26C1333.64 560.552 1330.66 560.99 1322 564.489C1316.69 566.677 1311.78 568.572 1311 568.718C1310.35 569.01 1309.45 569.593 1309.06 570.03C1308.03 571.489 1294.31 579.217 1293.28 578.925C1292.63 578.779 1292.24 579.363 1292.24 580.238C1292.24 580.967 1291.73 581.258 1290.95 580.821C1290.3 580.383 1289.66 580.529 1289.66 581.258C1289.66 582.862 1279.83 589.862 1276.59 590.591C1275.56 590.882 1274.26 591.757 1273.49 592.778C1272.84 593.799 1271.29 594.674 1270.25 594.965C1269.22 595.257 1267.41 596.424 1266.11 597.59C1264.95 598.757 1259.65 601.673 1254.47 604.006C1249.3 606.339 1241.41 610.86 1237.01 613.922L1228.99 619.755L1225.37 616.692C1223.76 615.239 1220.09 612.076 1216.67 609.125C1215.98 608.522 1215.29 607.929 1214.63 607.36C1212.46 605.401 1209.23 621.345 1206.38 635.435C1204.14 646.522 1202.13 656.461 1201.05 655.626C1198.59 653.584 1195.36 650.814 1193.93 649.356C1192.51 647.898 1189.28 645.419 1186.82 643.96C1184.36 642.502 1178.93 639.003 1174.92 636.232C1169.48 632.587 1165.22 630.983 1159.39 630.254C1149.82 629.087 1135.85 625.15 1120.07 619.317C1108.95 615.234 1108.04 615.234 1093.04 616.255L1077.51 617.422L1065.09 610.276C1054.36 604.006 1051.25 601.381 1042.85 591.028C1032.63 578.342 1031.59 577.467 1010.25 562.156C1003.13 557.053 997.053 552.532 996.665 551.949C996.277 551.511 989.809 549.324 982.306 547.137C971.57 544.075 963.938 543.054 947.639 542.325L926.683 541.45L914.136 469.561C911.271 466.853 908.176 463.922 905.192 461.086C904.158 461.35 902.728 462.432 901.686 463.772C899.11 466.692 882.793 479.917 881.419 479.917C880.904 480.089 877.813 482.665 874.549 485.757C866.992 492.97 853.939 501.902 851.02 501.902C849.817 501.902 848.787 502.589 848.787 503.276C848.787 506.539 829.207 510.489 818.387 509.459C806.364 508.257 793.826 504.993 793.826 502.932C793.826 502.245 781.976 501.73 767.72 502.073C744.019 502.417 740.068 502.932 728.561 507.054C721.519 509.631 714.993 511.863 713.962 512.035C713.104 512.379 711.901 513.066 711.386 513.581C710.012 515.298 691.806 524.401 690.432 524.058C689.574 523.886 689.058 524.573 689.058 525.604C689.058 526.462 688.371 526.806 687.341 526.291C686.482 525.775 685.623 525.947 685.623 526.806C685.623 528.695 672.57 536.939 668.276 537.798C666.902 538.142 665.185 539.172 664.154 540.375C663.296 541.577 661.235 542.607 659.861 542.951C658.487 543.294 656.082 544.668 654.365 546.042C652.819 547.416 645.777 550.851 638.907 553.599C632.037 556.348 621.56 561.672 615.721 565.279L605.072 572.149L600.263 568.542C598.13 566.836 593.291 563.129 588.765 559.662C587.823 558.941 586.895 558.23 586.008 557.55C580.855 553.428 573.813 548.275 570.55 546.042C567.287 543.638 562.993 540.375 561.104 538.657C559.215 536.939 554.921 534.02 551.657 532.302C548.394 530.584 541.181 526.462 535.856 523.199C528.643 518.905 522.975 517.016 515.246 516.157C502.537 514.783 483.988 510.146 463.034 503.276C448.263 498.467 447.061 498.467 427.138 499.669L406.528 501.043L390.04 492.627C375.784 485.242 371.662 482.15 360.499 469.955C346.93 455.013 345.556 453.982 317.217 435.948C307.771 429.937 299.699 424.612 299.184 423.925C298.668 423.41 290.081 420.834 280.119 418.258C265.864 414.651 255.731 413.448 234.09 412.59L206.266 411.559L187.03 395.243C176.382 386.311 163.329 375.319 157.833 370.51C146.84 361.407 132.07 353.506 111.975 345.949C104.933 343.373 98.4067 340.625 97.3762 339.938C96.5174 339.251 93.4259 338.22 90.5061 337.533C87.7581 336.846 78.827 333.068 70.7547 329.289C56.6712 322.419 55.4689 322.247 35.5458 321.388C16.4814 320.701 13.39 321.045 -4.9874 326.026C-18.5557 329.633 -30.9218 331.694 -43.6314 332.381C-62.0015 333.411 -62.6952 333.755 -81.0513 342.847L-81.0731 342.858L-81.0878 342.865C-99.4507 351.961 -99.7962 352.132 -108.21 350.243C-113.019 349.384 -121.606 345.949 -127.446 342.686L-128.761 341.968C-134.692 338.732 -144.654 333.296 -151.663 329.633C-153.799 328.467 -156.142 327.192 -158.508 325.904C-164.51 322.636 -170.664 319.286 -173.99 317.438C-178.971 314.69 -189.791 311.083 -198.894 309.022C-218.989 304.9 -233.416 300.778 -229.294 300.606C-227.577 300.435 -220.878 297.343 -214.695 293.736C-198.551 284.118 -171.414 274.671 -160.422 274.671C-154.067 274.671 -145.136 276.904 -130.022 282.4L-108.725 290.129L-79.0121 277.935C-55.1387 267.973 -48.7839 264.71 -46.8947 261.103C-43.4596 254.405 -9.62469 241.351 3.25664 241.867C12.1877 242.21 12.5312 242.038 56.4994 213.527C80.8881 197.726 102.7 184.157 105.105 183.299C108.54 181.925 113.349 183.127 128.12 188.623C145.295 195.15 148.043 195.665 163.844 195.665C180.504 195.665 181.019 195.837 200.083 204.424C210.56 209.233 219.835 214.042 220.522 215.245C221.209 216.275 221.896 216.619 221.896 215.932C221.896 215.245 225.502 216.275 229.796 217.993C234.09 219.882 238.727 221.428 240.101 221.428C241.475 221.428 248.002 216.275 254.7 209.92C262.085 202.707 268.44 198.241 271.36 197.726C273.936 197.382 277.199 196.008 278.745 194.634C280.119 193.26 283.211 192.23 285.272 192.23C287.505 192.23 291.283 190.856 293.688 188.966C296.264 187.249 300.558 185.36 303.134 184.673C306.054 183.986 317.904 173.852 334.049 158.051C379.048 114.082 385.746 108.07 389.353 108.242C391.242 108.414 394.162 107.899 396.051 107.212C397.769 106.353 401.547 106.696 404.639 107.727C407.558 108.757 412.711 110.131 415.974 110.647C419.237 111.334 424.047 112.88 426.451 114.254C436.069 119.063 448.95 120.437 449.466 116.658C449.637 115.284 461.316 102.402 475.4 88.3187C489.484 74.0631 502.021 60.8381 503.396 58.7771C504.77 56.716 506.315 54.9985 506.831 55.1703C510.266 55.5138 512.155 54.4832 512.155 52.4222C512.155 51.0482 513.357 49.6742 514.731 48.9872C516.105 48.4719 517.307 46.9261 517.307 45.552C517.307 44.0063 519.197 42.4605 521.429 41.7735C524.006 41.2582 526.067 39.1971 526.582 36.6208C527.269 34.388 528.643 32.4987 529.845 32.4987C532.593 32.327 539.635 26.4874 539.635 24.2546C539.635 23.3958 540.837 22.1936 542.211 21.5066C543.585 20.9913 544.787 19.4455 544.787 18.0715C545.549 17.5202 546.004 16.9098 546.434 16.3326C547.068 15.4812 547.648 14.7023 549.081 14.2929C551.486 13.7776 553.375 12.2318 553.375 11.0296ZM1085.33 401.024C1103.91 411.468 1116.33 418.728 1128.51 426.348C1144.74 436.496 1160.58 447.284 1190.05 467.082C1288.6 533.354 1300.44 541.697 1313.52 546.967C1316.52 548.179 1319.6 549.228 1323.81 550.782C1335.06 555.011 1344.5 558.219 1344.76 557.782C1345.15 557.49 1341.66 555.011 1337.26 552.532C1332.73 550.053 1325.1 545.241 1320.06 542.033C1316.27 539.451 1309.65 535.313 1303.73 531.615C1301.96 530.51 1300.26 529.445 1298.71 528.472L1297.28 527.569C1289.93 522.952 1275.39 513.812 1263.79 506.453C1257.64 502.554 1250.57 498.083 1244.13 494.013C1237.57 489.864 1231.67 486.133 1228.08 483.852C1216.44 476.706 1212.04 472.624 1190.05 448.855C1162.11 418.525 1160.43 417.067 1164.83 426.399C1165.86 428.732 1166.77 432.086 1166.77 433.836C1166.77 439.814 1163.02 437.919 1149.95 425.524C1132.75 409.192 1126.67 405.255 1126.67 410.359C1126.67 412.255 1125.89 412.546 1123.18 411.671C1117.66 410.102 1104.99 404.441 1088.61 396.418C1087.62 398.004 1086.53 399.538 1085.33 401.024ZM599.708 57.2113C599.057 56.3133 598.324 55.3019 597.687 54.4832C596.484 52.7657 591.332 50.3612 586.351 48.9872L577.077 46.7544L578.279 51.0482C579.825 57.5748 601.294 86.773 618.297 105.838C635.987 125.418 639.422 133.146 638.048 148.776C636.846 161.142 640.796 169.902 652.475 181.753C656.769 186.047 665.7 197.039 672.57 205.97C683.047 219.882 686.482 223.145 696.272 228.298C702.455 231.561 710.527 236.714 714.134 239.634C725.298 248.221 733.027 252.344 738.694 252.344C741.614 252.344 744.019 251.828 744.019 251.313C744.019 250.798 740.24 245.989 735.603 240.664C731.137 235.34 725.298 226.409 722.893 220.913C722.249 219.486 721.617 218.084 721.03 216.783C719.428 213.227 718.164 210.423 717.912 209.92C717.569 209.405 719.63 208.718 722.55 208.546C725.641 208.546 729.42 210.092 732.855 213.012C735.603 215.416 741.958 219.195 746.595 221.256C751.404 223.317 758.102 227.267 761.709 230.187L768.064 235.34L792.624 234.996L817.185 234.653L836.077 242.382C854.626 250.282 868.538 254.405 865.103 251.141C864.459 250.369 858.605 245.061 850.94 238.112C848.379 235.789 845.615 233.284 842.776 230.703C831.44 220.569 816.326 206.485 809.284 199.443L796.403 186.905L781.804 187.936L767.033 188.966L760.335 180.722C748.141 165.608 678.753 109.444 641.827 84.7119C636.159 80.9333 624.995 74.0632 616.923 69.4258C608.851 64.7885 601.809 60.1512 601.122 59.1206C600.799 58.7167 600.286 58.0088 599.708 57.2113ZM452.557 163.203C446.374 160.284 434.867 152.726 427.138 146.715C415.287 137.612 411.337 135.551 404.123 134.52L395.364 133.318L400.517 144.997C403.265 151.352 407.215 161.829 409.276 168.356C411.337 174.883 413.226 180.207 413.742 180.207C414.085 180.207 415.802 179.52 417.52 178.489C420.096 177.115 421.299 178.146 425.077 185.016C427.482 189.482 431.775 194.806 434.695 197.039L439.848 200.817L446.031 197.211L452.214 193.604L463.034 198.928C469.045 201.848 474.541 204.252 475.228 204.252C476.087 204.252 479.007 206.142 481.927 208.375C494.121 217.478 505.457 220.913 498.758 213.355C497.041 211.294 494.636 205.283 493.434 199.959L493.406 199.837C491.201 190.339 491.157 190.148 480.724 185.36C472.996 181.753 469.217 178.833 466.984 174.711C464.751 170.417 460.801 167.325 452.557 163.203ZM171.744 212.84C166.42 212.84 159.378 211.638 156.115 210.264C148.558 207.172 120.563 206.657 120.563 209.577C120.563 213.184 127.433 222.802 132.242 225.893C134.818 227.611 146.325 236.542 157.833 245.817C169.34 255.092 181.706 264.366 185.313 266.427C188.919 268.66 198.194 275.015 205.923 280.683C226.876 295.969 233.918 299.232 240.101 296.999C244.739 295.11 244.91 294.938 241.819 292.706C239.071 290.645 229.624 272.954 230.827 272.095C231.17 271.923 233.231 271.236 235.636 270.721C239.071 270.034 240.96 271.065 245.082 276.217C248.002 279.824 253.326 285.148 257.276 288.068C258.854 289.359 260.64 290.799 262.349 292.176C264.734 294.099 266.968 295.899 268.268 296.999C270.501 298.889 274.451 300.435 277.028 300.435C279.776 300.435 285.615 302.496 290.081 305.072C298.668 309.881 327.007 321.389 327.866 320.358C328.209 320.186 327.522 317.61 326.664 314.862C325.461 311.599 320.652 306.961 312.924 301.465C306.397 296.999 295.062 287.381 287.676 280.339C273.764 266.943 252.983 250.283 243.536 244.958C240.617 243.412 229.281 238.088 218.461 233.107C207.64 228.298 194.759 221.771 189.95 218.508C182.736 213.871 179.645 212.84 171.744 212.84ZM464.58 327.056C445.515 322.247 362.216 284.805 294.89 250.626C273.249 239.634 252.467 228.813 249.032 226.752C239.071 220.741 241.303 224.004 253.326 232.764C259.166 237.057 280.291 248.565 300.042 258.355C404.306 309.443 438.666 326.023 471.968 344.51C493.414 356.416 514.421 369.111 553.375 392.323C683.893 470.189 699.86 480.159 717.175 486.369C721.21 487.816 725.318 489.059 730.966 490.909C745.908 495.89 758.446 499.669 758.789 499.154C759.305 498.81 754.667 495.89 748.828 492.97C742.816 490.051 732.683 484.383 725.985 480.604C720.959 477.562 712.166 472.688 704.31 468.332C701.963 467.031 699.7 465.777 697.646 464.631L695.767 463.583C686.024 458.15 666.695 447.371 651.273 438.696C643.108 434.103 633.721 428.836 625.178 424.043C616.47 419.156 608.638 414.762 603.87 412.074C588.412 403.659 582.573 398.849 553.375 370.854C516.277 335.129 514.044 333.411 519.884 344.403C521.258 347.152 522.46 351.102 522.46 353.163C522.46 360.205 517.479 357.972 500.132 343.373C477.289 324.137 469.217 319.499 469.217 325.511C469.217 327.743 468.187 328.087 464.58 327.056ZM1224.95 182.572C1224.46 181.81 1223.91 180.952 1223.43 180.257C1222.52 178.799 1218.64 176.757 1214.89 175.591L1207.9 173.695L1208.81 177.341C1209.97 182.882 1226.14 207.671 1238.95 223.857C1244.96 231.358 1243.94 232.628 1242.72 234.159C1241.23 236.021 1239.43 238.27 1249.58 252.583C1258.62 264.132 1263.3 270.422 1266.59 274.849C1270.4 279.974 1272.36 282.602 1277.08 288C1278.49 289.595 1278.2 292.339 1277.87 295.557C1277.43 299.69 1276.92 304.605 1279.83 308.869C1287.72 320.68 1290.3 323.451 1297.68 327.826C1302.33 330.596 1308.41 334.971 1311.13 337.45C1319.54 344.741 1325.36 348.24 1329.63 348.24C1331.83 348.24 1333.64 347.803 1333.64 347.365C1333.64 346.928 1330.79 342.845 1327.3 338.325C1323.94 333.804 1319.54 326.222 1317.73 321.555C1315.92 317.035 1314.23 312.806 1313.98 312.223C1313.95 312.176 1314.66 312.96 1315.98 314.42C1326.92 326.514 1379.8 384.973 1402.97 401.318C1404.45 401.318 1394.84 388.259 1388.32 379.386C1384.58 374.305 1381.85 370.597 1382.79 371.5C1384.86 373.541 1405.82 381.78 1394.82 374C1398.44 375.75 1389.95 363.847 1384.73 358.129L1446.57 405.984L1424.83 378.57L1414.49 355L1402.97 339.783C1416.94 346.49 1427.42 349.99 1424.83 347.219C1424.35 346.564 1419.94 342.057 1414.17 336.157C1412.24 334.185 1410.16 332.058 1408.02 329.867C1399.48 321.264 1388.1 309.307 1382.79 303.328L1371.58 298.5L1364.08 285.538L1362.08 303.328L1317.73 273.144C1308.54 260.312 1284.48 226.919 1256.67 205.921C1252.4 202.713 1243.99 196.88 1237.91 192.943C1231.83 189.006 1226.53 185.069 1226.01 184.194C1225.77 183.851 1225.38 183.249 1224.95 182.572ZM1114.12 272.56C1109.46 270.081 1100.8 263.665 1094.98 258.562C1086.05 250.833 1083.07 249.084 1077.64 248.209L1071.04 247.188L1074.93 257.104C1077 262.499 1079.97 271.394 1081.52 276.935C1083.07 282.476 1084.5 286.996 1084.89 286.996C1085.14 286.996 1086.44 286.413 1087.73 285.538C1089.67 284.372 1090.58 285.246 1093.42 291.079C1095.23 294.871 1098.47 299.391 1100.67 301.287L1104.55 304.495L1109.2 301.432L1113.86 298.37L1122.01 302.891C1126.54 305.37 1130.68 307.411 1131.2 307.411C1131.84 307.411 1134.04 309.015 1136.24 310.911C1145.42 318.639 1153.96 321.555 1148.92 315.139C1147.62 313.389 1145.81 308.286 1144.91 303.765L1144.89 303.662C1143.23 295.598 1143.19 295.436 1135.33 291.371C1129.51 288.309 1126.67 285.83 1124.99 282.33C1123.3 278.685 1120.33 276.06 1114.12 272.56Z"
    fill="#2151B2" />
</svg>